<svg width="42" height="34" viewBox="0 0 42 34" fill="none" xmlns="http://www.w3.org/2000/svg">
<path fill-rule="evenodd" clip-rule="evenodd" d="M36.4285 9.57002V25H1V9.57002C1.0009 9.23161 1.07799 8.89663 1.22688 8.5843C1.37576 8.27197 1.59355 7.98837 1.86774 7.74971C2.14194 7.51104 2.46719 7.32201 2.82491 7.19337C3.18264 7.06473 3.56581 6.99902 3.95256 7.00001H33.476C33.8627 6.99909 34.2459 7.06483 34.6036 7.19349C34.9612 7.32216 35.2865 7.51124 35.5607 7.74989C35.8348 7.98854 36.0526 8.27212 36.2015 8.58442C36.3504 8.89672 36.4276 9.23162 36.4285 9.57002V9.57002Z" stroke="#153B99" stroke-width="2"/>
<path d="M18.7651 14.44H11.8394M6.71423 6.67499V23.5V6.67499ZM30.1428 23.5V1.5H28.6782L30.1428 23.5ZM14.7679 18.615H11.8394H14.7679ZM23.8394 18.615H16.4108H23.8394ZM24.0548 14.44H20.8034H24.0548Z" stroke="#153B99" stroke-width="2"/>
<path fill-rule="evenodd" clip-rule="evenodd" d="M12.4285 6.5H6.71423L12.4285 1.5V6.5Z" stroke="#153B99" stroke-width="2" stroke-miterlimit="10" stroke-linejoin="round"/>
<path fill-rule="evenodd" clip-rule="evenodd" d="M20.9999 30.5H15.2857L12.4285 33H23.8571L20.9999 30.5Z" stroke="#22406D" stroke-width="2"/>
<path fill-rule="evenodd" clip-rule="evenodd" d="M36.4285 24.5V27C36.4156 27.674 36.0974 28.316 35.5437 28.7848C34.9901 29.2536 34.2463 29.5108 33.476 29.5H3.95256C3.18223 29.5108 2.43849 29.2536 1.88483 28.7848C1.33118 28.316 1.01293 27.674 1 27V24.5H36.4285Z" stroke="#153B99" stroke-width="2"/>
<path d="M15.8571 27H21.5714" stroke="#22406D" stroke-width="2"/>
<path fill-rule="evenodd" clip-rule="evenodd" d="M18.2988 5.9998C17.9992 6.0058 17.7082 6.08901 17.4624 6.23899C17.2165 6.38898 17.0267 6.59907 16.9167 6.843C16.8066 7.08692 16.7812 7.35385 16.8437 7.61033C16.9062 7.86681 17.0537 8.10149 17.2679 8.28495C17.482 8.46842 17.7533 8.59253 18.0477 8.64176C18.342 8.691 18.6465 8.66317 18.9228 8.56175C19.1992 8.46033 19.4353 8.28981 19.6015 8.07157C19.7677 7.85333 19.8566 7.59706 19.8571 7.33482C19.8526 6.97703 19.6859 6.63543 19.3937 6.38511C19.1015 6.13479 18.7077 5.9962 18.2988 5.9998V5.9998ZM24.5479 1.4998C24.3654 1.50363 24.1882 1.55445 24.0386 1.64591C23.8889 1.73738 23.7733 1.86546 23.7064 2.01408C23.6394 2.1627 23.624 2.32525 23.6621 2.48148C23.7002 2.63772 23.79 2.78071 23.9205 2.8925C24.0509 3.00428 24.2161 3.07994 24.3954 3.11002C24.5747 3.14011 24.7601 3.12327 24.9286 3.06162C25.097 2.99998 25.2409 2.89624 25.3423 2.76341C25.4438 2.63057 25.4982 2.47455 25.4988 2.3148C25.4961 2.09643 25.3944 1.88796 25.2161 1.73515C25.0378 1.58233 24.7975 1.49766 24.5479 1.4998V1.4998Z" stroke="#FF3B46" stroke-width="2" stroke-miterlimit="10" stroke-linejoin="round"/>
<path fill-rule="evenodd" clip-rule="evenodd" d="M30.4496 17.575L40.9999 8.34497L38.8896 6.5L28.3405 15.73L27.2856 18.5L30.4496 17.575Z" stroke="#FF3B46" stroke-width="2" stroke-miterlimit="10" stroke-linejoin="round"/>
<path d="M12.4285 1.25H17.5714" stroke="#6081A2" stroke-width="2"/>
</svg>
