<svg width="39" height="31" viewBox="0 0 39 31" fill="none" xmlns="http://www.w3.org/2000/svg">
<g clip-path="url(#clip0)">
<path fill-rule="evenodd" clip-rule="evenodd" d="M9.63245 29.4378H33.2158V1.823H9.63245V29.4378Z" stroke="#153B99" stroke-width="2"/>
<path fill-rule="evenodd" clip-rule="evenodd" d="M1.32874 26.8337H17.9369V13.8054H1.32874V26.8337Z" fill="#F2F7FA"/>
<path fill-rule="evenodd" clip-rule="evenodd" d="M3.65389 18.2363C4.3767 18.2365 5.08334 18.0686 5.68447 17.7538C6.2856 17.439 6.75423 16.9915 7.0311 16.4679C7.30797 15.9442 7.38066 15.368 7.23996 14.8119C7.09927 14.2559 6.7515 13.7451 6.24066 13.344C5.72981 12.943 5.07882 12.6697 4.36997 12.5588C3.66113 12.4479 2.92627 12.5043 2.25831 12.7209C1.59035 12.9375 1.01929 13.3046 0.61732 13.7758C0.215348 14.2469 0.000521162 14.801 0 15.3678C0.000417811 16.128 0.385388 16.857 1.07043 17.3948C1.75547 17.9326 2.68461 18.2353 3.65389 18.2363Z" fill="#F6FAFD"/>
<path fill-rule="evenodd" clip-rule="evenodd" d="M15.2795 18.2363C16.0023 18.2365 16.7089 18.0686 17.3101 17.7538C17.9112 17.439 18.3798 16.9915 18.6567 16.4679C18.9336 15.9442 19.0063 15.368 18.8656 14.8119C18.7249 14.2559 18.3771 13.7451 17.8663 13.344C17.3554 12.943 16.7044 12.6697 15.9956 12.5588C15.2867 12.4479 14.5519 12.5043 13.8839 12.7209C13.216 12.9375 12.6449 13.3046 12.2429 13.7758C11.841 14.2469 11.6261 14.801 11.6256 15.3678C11.626 16.128 12.011 16.857 12.6961 17.3948C13.3811 17.9326 14.3102 18.2353 15.2795 18.2363Z" fill="#F6FAFD"/>
<path fill-rule="evenodd" clip-rule="evenodd" d="M3.65389 27.6148C4.3767 27.615 5.08334 27.447 5.68447 27.1322C6.2856 26.8175 6.75423 26.37 7.0311 25.8463C7.30797 25.3227 7.38066 24.7464 7.23996 24.1904C7.09927 23.6343 6.7515 23.1235 6.24066 22.7224C5.72981 22.3214 5.07882 22.0481 4.36997 21.9372C3.66113 21.8263 2.92627 21.8828 2.25831 22.0994C1.59035 22.316 1.01929 22.6831 0.61732 23.1542C0.215348 23.6253 0.000521162 24.1794 0 24.7462C0.000417811 25.5064 0.385388 26.2354 1.07043 26.7732C1.75547 27.311 2.68461 27.6137 3.65389 27.6148Z" fill="#F6FAFD"/>
<path fill-rule="evenodd" clip-rule="evenodd" d="M15.2795 27.6148C16.0023 27.615 16.7089 27.447 17.3101 27.1322C17.9112 26.8175 18.3798 26.37 18.6567 25.8463C18.9336 25.3227 19.0063 24.7464 18.8656 24.1904C18.7249 23.6343 18.3771 23.1235 17.8663 22.7224C17.3554 22.3214 16.7044 22.0481 15.9956 21.9372C15.2867 21.8263 14.5519 21.8828 13.8839 22.0994C13.216 22.316 12.6449 22.6831 12.2429 23.1542C11.841 23.6253 11.6261 24.1794 11.6256 24.7462C11.626 25.5064 12.011 26.2354 12.6961 26.7732C13.3811 27.311 14.3102 27.6137 15.2795 27.6148Z" fill="#F6FAFD"/>
<path fill-rule="evenodd" clip-rule="evenodd" d="M3.78667 14.3262C3.49748 14.326 3.21473 14.3931 2.97414 14.5189C2.73355 14.6448 2.54593 14.8237 2.435 15.0332C2.32407 15.2426 2.2948 15.4731 2.3509 15.6956C2.407 15.9181 2.54595 16.1226 2.75018 16.2832C2.95441 16.4438 3.21474 16.5532 3.49829 16.5978C3.78184 16.6423 4.07588 16.62 4.34322 16.5335C4.61057 16.447 4.83922 16.3004 5.00029 16.112C5.16135 15.9236 5.2476 15.702 5.24812 15.4752C5.24812 15.171 5.09426 14.8791 4.82029 14.6637C4.54633 14.4483 4.17461 14.3269 3.78667 14.3262V14.3262ZM15.4788 14.3262C15.1896 14.326 14.9068 14.3931 14.6662 14.5189C14.4256 14.6448 14.238 14.8237 14.1271 15.0332C14.0162 15.2426 13.9869 15.4731 14.043 15.6956C14.0991 15.9181 14.238 16.1226 14.4423 16.2832C14.6465 16.4438 14.9068 16.5532 15.1904 16.5978C15.4739 16.6423 15.768 16.62 16.0353 16.5335C16.3027 16.447 16.5313 16.3004 16.6924 16.112C16.8534 15.9236 16.9397 15.702 16.9402 15.4752C16.9402 15.171 16.7864 14.8791 16.5124 14.6637C16.2384 14.4483 15.8667 14.3269 15.4788 14.3262V14.3262ZM3.78667 23.498C3.498 23.4983 3.2159 23.5656 2.97604 23.6916C2.73617 23.8175 2.54931 23.9964 2.43906 24.2057C2.3288 24.4149 2.30012 24.6451 2.35663 24.8671C2.41314 25.0891 2.5523 25.293 2.75653 25.453C2.96076 25.613 3.22089 25.7219 3.50403 25.766C3.78717 25.8101 4.08061 25.7873 4.34728 25.7006C4.61394 25.6139 4.84184 25.4672 5.00218 25.2789C5.16253 25.0906 5.24812 24.8694 5.24812 24.643C5.24805 24.4925 5.21018 24.3436 5.13669 24.2046C5.0632 24.0656 4.95553 23.9394 4.81981 23.833C4.6841 23.7267 4.523 23.6424 4.34573 23.585C4.16846 23.5275 3.97849 23.4979 3.78667 23.498V23.498ZM15.4788 23.498C15.1901 23.4983 14.908 23.5656 14.6681 23.6916C14.4283 23.8175 14.2414 23.9964 14.1311 24.2057C14.0209 24.4149 13.9922 24.6451 14.0487 24.8671C14.1052 25.0891 14.2444 25.293 14.4486 25.453C14.6528 25.613 14.913 25.7219 15.1961 25.766C15.4793 25.8101 15.7727 25.7873 16.0394 25.7006C16.306 25.6139 16.5339 25.4672 16.6943 25.2789C16.8546 25.0906 16.9402 24.8694 16.9402 24.643C16.9401 24.4925 16.9023 24.3436 16.8288 24.2046C16.7553 24.0656 16.6476 23.9394 16.5119 23.833C16.3762 23.7267 16.2151 23.6424 16.0378 23.585C15.8606 23.5275 15.6706 23.4979 15.4788 23.498V23.498Z" stroke="#FF3844" stroke-width="2"/>
<path fill-rule="evenodd" clip-rule="evenodd" d="M11.2457 25.0066H11.9577V24.4858H11.2457V25.0066ZM9.11073 25.0066H9.82222V24.4858H9.11073V25.0066ZM6.97522 25.0066H7.68724V24.4858H6.97522V25.0066Z" fill="#FF5C00"/>
<path fill-rule="evenodd" clip-rule="evenodd" d="M11.2457 15.6282H11.9577V15.1074H11.2457V15.6282ZM9.11073 15.6282H9.82222V15.1074H9.11073V15.6282ZM6.97522 15.6282H7.68724V15.1074H6.97522V15.6282Z" fill="#FF3844"/>
<path d="M15.2796 17.7153V22.4025M3.65393 17.7153V22.4025V17.7153Z" stroke="#FF3844" stroke-width="2"/>
<path fill-rule="evenodd" clip-rule="evenodd" d="M12.7541 22.9235L12.2223 22.506L12.7541 22.0886L13.2853 22.506L12.7541 22.9235ZM11.1593 21.6752L10.6281 21.2578L11.1593 20.8403L11.6911 21.2578L11.1593 21.6752Z" fill="#FF5C00"/>
<path d="M5.97864 22.9234L13.2864 17.1946" stroke="#FF3844" stroke-width="2"/>
<path fill-rule="evenodd" clip-rule="evenodd" d="M7.77263 19.2778L7.24088 18.8603L7.77263 18.4429L8.30389 18.8603L7.77263 19.2778ZM6.17838 18.0254L5.64661 17.6079L6.17838 17.1946L6.70962 17.6079L6.17838 18.0254Z" fill="#FF5C00"/>
<path d="M37.0337 24.9529H38.473V6.61328H37.0337" stroke="#153B99" stroke-width="2"/>
</g>
<defs>
<clipPath id="clip0">
<rect width="39" height="31" fill="white"/>
</clipPath>
</defs>
</svg>
