<svg width="43" height="33" viewBox="0 0 43 33" fill="none" xmlns="http://www.w3.org/2000/svg">
<path fill-rule="evenodd" clip-rule="evenodd" d="M19.3388 7.23289H26.5388L19.3388 1.03285V7.23289ZM19.3388 7.23289V1H1.33337V32H26.5388V7.23289H19.3388Z" stroke="#153B98" stroke-width="2" stroke-miterlimit="10" stroke-linecap="round" stroke-linejoin="round"/>
<path d="M6.81274 16.5H21.6073" stroke="#153B98" stroke-width="2" stroke-miterlimit="10" stroke-linecap="round" stroke-linejoin="round" stroke-dasharray="4 6 16 4 6 16"/>
<path d="M6.81274 13.6819H16.0566M6.81274 19.7691H21.6073H6.81274Z" stroke="#FF0000" stroke-width="2" stroke-miterlimit="10" stroke-linecap="round" stroke-linejoin="round"/>
<path d="M21.6073 23.0757H6.81274" stroke="#153B98" stroke-width="2" stroke-miterlimit="10" stroke-linecap="round" stroke-linejoin="round" stroke-dasharray="4 6 16 4 6 16"/>
<path fill-rule="evenodd" clip-rule="evenodd" d="M41.3333 30.511C41.3366 30.9027 41.1584 31.2795 40.8378 31.5586C40.5173 31.8378 40.0807 31.9965 39.6238 32H35.9196C35.4627 31.9965 35.0261 31.8378 34.7056 31.5586C34.385 31.2795 34.2069 30.9027 34.2101 30.511V7.19998H41.3333V30.511V30.511ZM41.3333 7.19998H34.2101L37.7717 1L41.3333 7.19998ZM37.7717 1L35.9744 4.1329H39.569L37.7717 1ZM41.3333 30.511C41.3366 30.9027 41.1584 31.2795 40.8378 31.5586C40.5173 31.8378 40.0807 31.9965 39.6238 32H35.9196C35.4627 31.9965 35.0261 31.8378 34.7056 31.5586C34.385 31.2795 34.2069 30.9027 34.2101 30.511V25.8H41.3333V30.511V30.511Z" stroke="#153B98" stroke-width="2" stroke-miterlimit="10" stroke-linecap="round" stroke-linejoin="round"/>
</svg>
