<svg width="39" height="40" fill="none" xmlns="http://www.w3.org/2000/svg"><g clip-path="url(#prefix__clip0)"><path fill="#fff" d="M0 0h39v40H0z"/><path fill-rule="evenodd" clip-rule="evenodd" d="M7.307 40H35.21V0H7.307v40z" fill="#fff"/><path clip-rule="evenodd" d="M9.633 37.984h23.583V2.352H9.633v35.632z" stroke="#153B99" stroke-width="2"/><path fill-rule="evenodd" clip-rule="evenodd" d="M1.329 34.624h16.608v-16.81H1.329v16.81z" fill="#F2F7FA"/><path fill-rule="evenodd" clip-rule="evenodd" d="M3.654 23.53c.723 0 1.43-.216 2.03-.622a3.69 3.69 0 001.347-1.66 3.74 3.74 0 00.209-2.136 3.713 3.713 0 00-1-1.894 3.642 3.642 0 00-1.87-1.013 3.615 3.615 0 00-2.112.209 3.664 3.664 0 00-1.64 1.361 3.73 3.73 0 00.452 4.67 3.637 3.637 0 002.584 1.086zM15.28 23.53c.722 0 1.43-.216 2.03-.622a3.69 3.69 0 001.347-1.66 3.74 3.74 0 00.209-2.136 3.712 3.712 0 00-1-1.894 3.642 3.642 0 00-1.87-1.013 3.615 3.615 0 00-2.112.209c-.668.28-1.239.753-1.64 1.361a3.73 3.73 0 00.452 4.67 3.637 3.637 0 002.584 1.086zM3.654 35.632c.723 0 1.43-.216 2.03-.623a3.689 3.689 0 001.347-1.659 3.74 3.74 0 00.209-2.137 3.713 3.713 0 00-1-1.894 3.642 3.642 0 00-1.87-1.013 3.615 3.615 0 00-2.112.21 3.665 3.665 0 00-1.64 1.36 3.73 3.73 0 00.452 4.67 3.638 3.638 0 002.584 1.086zM15.28 35.632c.722 0 1.43-.216 2.03-.623a3.688 3.688 0 001.347-1.659 3.74 3.74 0 00.209-2.137 3.713 3.713 0 00-1-1.894 3.642 3.642 0 00-1.87-1.013 3.615 3.615 0 00-2.112.21c-.668.279-1.239.753-1.64 1.36a3.73 3.73 0 00.452 4.67 3.637 3.637 0 002.584 1.086z" fill="#F6FAFD"/><path clip-rule="evenodd" d="M3.787 18.485c-.29 0-.572.087-.813.249a1.496 1.496 0 00-.224 2.276 1.446 1.446 0 001.593.323c.268-.111.496-.3.657-.543a1.492 1.492 0 00-.18-1.87 1.456 1.456 0 00-1.033-.435v0zm11.692 0c-.29 0-.572.087-.813.249a1.497 1.497 0 00-.224 2.276 1.446 1.446 0 001.593.323c.268-.111.496-.3.657-.543a1.492 1.492 0 00-.18-1.87 1.456 1.456 0 00-1.033-.435v0zM3.787 30.32c-.289 0-.571.087-.81.25-.24.162-.428.393-.538.663a1.494 1.494 0 00.318 1.61 1.443 1.443 0 001.59.32c.267-.113.495-.302.655-.545a1.49 1.49 0 00-.182-1.866 1.458 1.458 0 00-1.033-.432v0zm11.692 0c-.289 0-.57.087-.81.25-.24.162-.428.393-.538.663a1.493 1.493 0 00.318 1.61 1.443 1.443 0 001.59.32c.267-.113.495-.302.655-.545a1.49 1.49 0 00-.182-1.866 1.457 1.457 0 00-1.033-.432v0z" stroke="#FF3844" stroke-width="2"/><path fill-rule="evenodd" clip-rule="evenodd" d="M11.246 32.267h.712v-.672h-.712v.672zm-2.135 0h.711v-.672h-.711v.672zm-2.136 0h.712v-.672h-.712v.672z" fill="#FF5C00"/><path fill-rule="evenodd" clip-rule="evenodd" d="M11.246 20.165h.712v-.672h-.712v.672zm-2.135 0h.711v-.672h-.711v.672zm-2.136 0h.712v-.672h-.712v.672z" fill="#FF3844"/><path d="M15.28 22.859v6.048M3.654 22.859v6.048-6.048z" stroke="#FF3844" stroke-width="2"/><path fill-rule="evenodd" clip-rule="evenodd" d="M12.754 29.579l-.532-.54.532-.538.532.539-.532.539zm-1.595-1.611l-.53-.539.53-.538.532.538-.532.539z" fill="#FF5C00"/><path d="M5.979 29.579l7.307-7.392" stroke="#FF3844" stroke-width="2"/><path fill-rule="evenodd" clip-rule="evenodd" d="M7.773 24.875l-.532-.539.532-.539.53.54-.53.538zm-1.595-1.616l-.532-.539.532-.533.532.533-.532.539z" fill="#FF5C00"/><path d="M37.034 32.197h1.439V8.533h-1.44" stroke="#153B99" stroke-width="2"/></g><defs><clipPath id="prefix__clip0"><path fill="#fff" d="M0 0h39v40H0z"/></clipPath></defs></svg>