<svg width="48" height="53" fill="none" xmlns="http://www.w3.org/2000/svg"><g clip-path="url(#prefix__clip0)"><path fill="#fff" d="M0 0h48v53H0z"/><path clip-rule="evenodd" d="M42 11.704V32.18H.667V11.704A3.404 3.404 0 011.679 9.29a3.436 3.436 0 012.432-.995h34.444a3.45 3.45 0 012.433.995A3.419 3.419 0 0142 11.704v0z" stroke="#153B99" stroke-width="2"/><path fill-rule="evenodd" clip-rule="evenodd" d="M8 14.265h26.667V.332H8v13.933z" fill="#fff"/><path d="M21.393 18.167h-8.08M7.333 7.863v22.326V7.863zm27.334 22.326V.995h-1.71l1.71 29.194zm-17.938-6.482h-3.416 3.416zm10.584 0h-8.667 8.667zm.25-5.54h-3.792 3.793z" stroke="#153B99" stroke-width="2"/><path clip-rule="evenodd" d="M14 7.63H7.333L14 .995V7.63z" stroke="#153B99" stroke-width="2" stroke-miterlimit="10" stroke-linejoin="round"/><path clip-rule="evenodd" d="M24 39.478h-6.667L14 42.795h13.333L24 39.478z" stroke="#22406D" stroke-width="2"/><path fill-rule="evenodd" clip-rule="evenodd" d="M10.667 40.141h20v-3.317h-20v3.317z" fill="#fff"/><path fill-rule="evenodd" clip-rule="evenodd" d="M42 31.516v3.318a3.367 3.367 0 01-1.032 2.368 3.4 3.4 0 01-2.413.95H4.111a3.4 3.4 0 01-2.412-.95 3.367 3.367 0 01-1.032-2.368v-3.318H42z" fill="#fff"/><path clip-rule="evenodd" d="M42 31.516v3.318a3.367 3.367 0 01-1.032 2.368 3.4 3.4 0 01-2.413.95H4.111a3.4 3.4 0 01-2.412-.95 3.367 3.367 0 01-1.032-2.368v-3.318H42z" stroke="#153B99" stroke-width="2"/><path d="M18 34.834h6.667" stroke="#22406D" stroke-width="2"/><path fill-rule="evenodd" clip-rule="evenodd" d="M32.667 12.938c0-.787-.235-1.557-.674-2.211a3.996 3.996 0 00-1.795-1.467 4.018 4.018 0 00-4.36.863 3.964 3.964 0 00-.867 4.338c.303.728.816 1.35 1.474 1.787a4.014 4.014 0 005.05-.495 3.972 3.972 0 001.172-2.815zM24.667 7.962c0-.59-.176-1.168-.506-1.659a3.013 3.013 0 00-4.616-.452 2.981 2.981 0 00-.65 3.254A2.99 2.99 0 0020 10.445a3.01 3.01 0 003.788-.372c.563-.56.879-1.32.879-2.11z" fill="#fff"/><path clip-rule="evenodd" d="M20.849 6.967a1.783 1.783 0 00-1.613 1.119 1.76 1.76 0 00.41 1.913 1.78 1.78 0 001.93.367 1.776 1.776 0 001.09-1.628 1.787 1.787 0 00-.54-1.26c-.34-.332-.8-.516-1.277-.511v0zm7.29-5.972a1.087 1.087 0 00-.981.683 1.073 1.073 0 00.25 1.165 1.085 1.085 0 001.84-.766 1.09 1.09 0 00-.33-.77 1.101 1.101 0 00-.779-.312v0z" stroke="#FF3B46" stroke-width="2" stroke-miterlimit="10" stroke-linejoin="round"/><path fill-rule="evenodd" clip-rule="evenodd" d="M28.167 26.872a.804.804 0 00.276-.047l5.537-1.898 13.354-13.734-4.755-4.89-13.354 13.735-1.846 5.692a.866.866 0 00.405 1.04c.118.064.25.099.383.102z" fill="#fff"/><path clip-rule="evenodd" d="M35.025 22.327l12.308-12.249-2.462-2.448-12.307 12.248-1.23 3.676 3.69-1.227z" stroke="#FF3B46" stroke-width="2" stroke-miterlimit="10" stroke-linejoin="round"/><path d="M14 .664h6" stroke="#6081A2" stroke-width="2"/></g><defs><clipPath id="prefix__clip0"><path fill="#fff" d="M0 0h48v53H0z"/></clipPath></defs></svg>