<svg width="54" height="39" fill="none" xmlns="http://www.w3.org/2000/svg"><path clip-rule="evenodd" d="M31.51 8.312h7.035l-7.034-7.273v7.273zm0 0V1H13.92v36.366h24.625V8.312h-7.034z" stroke="#153B98" stroke-width="2" stroke-miterlimit="10" stroke-linecap="round" stroke-linejoin="round"/><path d="M19.273 19.183h14.454" stroke="#153B98" stroke-width="2" stroke-miterlimit="10" stroke-linecap="round" stroke-linejoin="round" stroke-dasharray="4 6 16 4 6 16"/><path d="M19.273 15.877h9.031m-9.031 7.14h14.454-14.454z" stroke="red" stroke-width="2" stroke-miterlimit="10" stroke-linecap="round" stroke-linejoin="round"/><path d="M33.727 26.897H19.273" stroke="#153B98" stroke-width="2" stroke-miterlimit="10" stroke-linecap="round" stroke-linejoin="round" stroke-dasharray="4 6 16 4 6 16"/><path clip-rule="evenodd" d="M53 35.62c.003.459-.171.9-.484 1.228-.313.328-.74.514-1.186.518h-3.62a1.662 1.662 0 01-1.186-.518 1.762 1.762 0 01-.484-1.229V8.273H53V35.62zm0-27.347h-6.96L49.52 1 53 8.273zM49.52 1l-1.756 3.675h3.512L49.52 1zM53 35.62c.003.459-.171.9-.484 1.228-.313.328-.74.514-1.186.518h-3.62a1.662 1.662 0 01-1.186-.518 1.762 1.762 0 01-.484-1.229v-5.526H53v5.526z" stroke="#153B98" stroke-width="2" stroke-miterlimit="10" stroke-linecap="round" stroke-linejoin="round"/><path d="M1.874 35.713c1.035 0 1.873-.863 1.873-1.928 0-1.066-.838-1.929-1.873-1.929-1.035 0-1.874.863-1.874 1.928 0 1.066.839 1.93 1.874 1.93zM1.874 6.51c1.035 0 1.873-.863 1.873-1.928 0-1.066-.838-1.929-1.873-1.929C.839 2.653 0 3.516 0 4.582 0 5.647.839 6.51 1.874 6.51z" fill="#fff"/></svg>