<svg width="229" height="484" viewBox="0 0 229 484" fill="none" xmlns="http://www.w3.org/2000/svg">
<g opacity="0.4">
<path d="M340.768 346.861C284.122 406.302 191.265 407.581 133.366 349.735C75.4669 291.888 74.4393 196.808 131.086 137.367C187.732 77.9261 280.589 76.6464 338.488 134.493C396.387 192.34 397.415 287.42 340.768 346.861Z" stroke="white"/>
<path d="M316.242 321.83C272.81 367.406 201.642 368.413 157.285 324.096C112.928 279.779 112.166 206.907 155.599 161.331C199.031 115.755 270.199 114.749 314.556 159.066C358.913 203.383 359.675 276.255 316.242 321.83Z" stroke="white"/>
<path d="M288.604 297.906C258.953 329.02 210.407 329.742 180.175 299.536C149.943 269.331 149.457 219.623 179.108 188.508C208.76 157.394 257.305 156.672 287.537 186.877C317.77 217.082 318.255 266.791 288.604 297.906Z" stroke="white"/>
<ellipse rx="10.0268" ry="10.1042" transform="matrix(0.709954 0.709315 -0.687447 0.721361 124.556 230.443)" fill="url(#paint0_linear)"/>
<ellipse rx="20.5551" ry="20.7018" transform="matrix(0.709954 0.709315 -0.687447 0.721361 218.623 90.825)" fill="url(#paint1_linear)"/>
<ellipse rx="20.5551" ry="20.7018" transform="matrix(0.709954 0.709315 -0.687447 0.721361 148.658 366.71)" fill="url(#paint2_linear)"/>
<ellipse rx="11.1565" ry="11.2426" transform="matrix(0.709954 0.709315 -0.687447 0.721361 242.305 319.407)" fill="url(#paint3_linear)"/>
</g>
<defs>
<linearGradient id="paint0_linear" x1="0" y1="0" x2="14.2285" y2="15.2343" gradientUnits="userSpaceOnUse">
<stop offset="0.203125" stop-color="#1289F7"/>
<stop offset="0.973958" stop-color="#692489" stop-opacity="0.92"/>
</linearGradient>
<linearGradient id="paint1_linear" x1="0" y1="0" x2="29.1508" y2="31.2294" gradientUnits="userSpaceOnUse">
<stop offset="0.203125" stop-color="white"/>
<stop offset="0.973958" stop-color="#F8EAFF"/>
</linearGradient>
<linearGradient id="paint2_linear" x1="0" y1="0" x2="29.1508" y2="31.2294" gradientUnits="userSpaceOnUse">
<stop offset="0.203125" stop-color="white"/>
<stop offset="0.973958" stop-color="#F8EAFF"/>
</linearGradient>
<linearGradient id="paint3_linear" x1="0" y1="0" x2="15.8316" y2="16.9507" gradientUnits="userSpaceOnUse">
<stop offset="0.203125" stop-color="#1289F7"/>
<stop offset="0.973958" stop-color="#692489" stop-opacity="0.92"/>
</linearGradient>
</defs>
</svg>
