<svg width="628" height="488" viewBox="0 0 628 488" fill="none" xmlns="http://www.w3.org/2000/svg">
<g opacity="0.3">
<path d="M260.369 484.446C165.857 454.653 113.334 354.076 143.052 259.804C172.771 165.531 273.477 113.258 367.989 143.052C462.5 172.845 515.023 273.422 485.305 367.694C455.587 461.967 354.88 514.24 260.369 484.446Z" stroke="#FFB8B8" stroke-opacity="0.46"/>
<path d="M273.51 444.255C201.033 421.407 160.743 344.324 183.514 272.087C206.286 199.85 283.499 159.808 355.976 182.656C428.453 205.503 468.743 282.586 445.972 354.823C423.2 427.06 345.987 467.102 273.51 444.255Z" stroke="#FFB8B8" stroke-opacity="0.46"/>
<path d="M283.761 401.265C234.266 385.662 206.734 333.083 222.261 283.829C237.787 234.576 290.495 207.291 339.99 222.894C389.485 238.496 417.017 291.075 401.49 340.329C385.964 389.583 333.256 416.868 283.761 401.265Z" stroke="#FFB8B8" stroke-opacity="0.46"/>
<circle cx="265.283" cy="186.085" r="12.1451" transform="rotate(107.497 265.283 186.085)" fill="url(#paint0_linear)"/>
<circle cx="152.064" cy="260.681" r="27.4082" transform="rotate(107.497 152.064 260.681)" fill="url(#paint1_linear)"/>
<circle cx="167.61" cy="415.65" r="13.5135" transform="rotate(107.497 167.61 415.65)" fill="url(#paint2_linear)"/>
<circle cx="235.413" cy="362.264" r="13.5135" transform="rotate(107.497 235.413 362.264)" fill="url(#paint3_linear)"/>
<circle cx="321.418" cy="310.766" r="55.8999" transform="rotate(107.497 321.418 310.766)" fill="url(#paint4_linear)"/>
</g>
<defs>
<linearGradient id="paint0_linear" x1="253.138" y1="173.94" x2="270.231" y2="192.383" gradientUnits="userSpaceOnUse">
<stop offset="0.135417" stop-color="#D1E7FB"/>
<stop offset="1" stop-color="#EDC6FF" stop-opacity="0.92"/>
</linearGradient>
<linearGradient id="paint1_linear" x1="124.656" y1="233.272" x2="163.23" y2="274.892" gradientUnits="userSpaceOnUse">
<stop offset="0.203125" stop-color="#DDECFA"/>
<stop offset="0.203225" stop-color="#FDFDFD"/>
<stop offset="0.973958" stop-color="#FFCC9D" stop-opacity="0.92"/>
</linearGradient>
<linearGradient id="paint2_linear" x1="154.097" y1="402.136" x2="173.116" y2="422.657" gradientUnits="userSpaceOnUse">
<stop offset="0.135417" stop-color="#D1E7FB"/>
<stop offset="1" stop-color="#EDC6FF" stop-opacity="0.92"/>
</linearGradient>
<linearGradient id="paint3_linear" x1="221.899" y1="348.75" x2="240.918" y2="369.271" gradientUnits="userSpaceOnUse">
<stop offset="0.135417" stop-color="#D1E7FB"/>
<stop offset="1" stop-color="#EDC6FF" stop-opacity="0.92"/>
</linearGradient>
<linearGradient id="paint4_linear" x1="265.518" y1="254.866" x2="344.192" y2="339.751" gradientUnits="userSpaceOnUse">
<stop offset="0.203125" stop-color="#DDECFA"/>
<stop offset="0.203225" stop-color="#FDFDFD"/>
<stop offset="0.973958" stop-color="#FFCC9D" stop-opacity="0.92"/>
</linearGradient>
</defs>
</svg>
