<svg width="314" height="570" viewBox="0 0 314 570" fill="none" xmlns="http://www.w3.org/2000/svg">
<g opacity="0.4">
<path d="M149.233 117.735C239.539 182.367 261.706 309.536 198.736 401.776C135.767 494.015 11.5111 516.388 -78.7946 451.755C-169.1 387.122 -191.267 259.953 -128.298 167.714C-65.328 75.4748 58.9274 53.102 149.233 117.735Z" stroke="white"/>
<path d="M121.897 156.884C191.154 206.452 208.184 303.937 159.928 374.624C111.671 445.311 16.4068 462.426 -52.8504 412.858C-122.108 363.289 -139.138 265.804 -90.8816 195.117C-42.6252 124.43 52.6394 107.316 121.897 156.884Z" stroke="white"/>
<path d="M96.6924 200.059C143.996 233.914 155.668 300.439 122.758 348.646C89.8483 396.854 24.8215 408.484 -22.4822 374.628C-69.7859 340.772 -81.4582 274.248 -48.5482 226.04C-15.6381 177.833 49.3887 166.203 96.6924 200.059Z" stroke="white"/>
<ellipse rx="13.7177" ry="13.6068" transform="matrix(0.563821 -0.825897 0.813185 0.582005 44.4966 440.045)" fill="url(#paint0_linear)"/>
<ellipse rx="30.957" ry="30.7068" transform="matrix(0.563821 -0.825897 0.813185 0.582005 208.424 385.424)" fill="url(#paint1_linear)"/>
<ellipse rx="15.2632" ry="15.1398" transform="matrix(0.563821 -0.825897 0.813185 0.582005 224.614 224.151)" fill="url(#paint2_linear)"/>
<ellipse rx="15.2632" ry="15.1398" transform="matrix(0.563821 -0.825897 0.813185 0.582005 134.917 258.964)" fill="url(#paint3_linear)"/>
<ellipse rx="68.2836" ry="67.7317" transform="matrix(0.563821 -0.825897 0.813185 0.582005 8.57815 284.214)" fill="url(#paint4_linear)"/>
</g>
<defs>
<linearGradient id="paint0_linear" x1="0" y1="0" x2="19.1379" y2="20.817" gradientUnits="userSpaceOnUse">
<stop offset="0.203125" stop-color="#1289F7"/>
<stop offset="0.973958" stop-color="#692489" stop-opacity="0.92"/>
</linearGradient>
<linearGradient id="paint1_linear" x1="0" y1="0" x2="43.1889" y2="46.9783" gradientUnits="userSpaceOnUse">
<stop offset="0.203125" stop-color="#E7F3FF"/>
<stop offset="0.973958" stop-color="#FFF2DF"/>
</linearGradient>
<linearGradient id="paint2_linear" x1="0" y1="0" x2="21.2941" y2="23.1624" gradientUnits="userSpaceOnUse">
<stop offset="0.203125" stop-color="#1289F7"/>
<stop offset="0.973958" stop-color="#692489" stop-opacity="0.92"/>
</linearGradient>
<linearGradient id="paint3_linear" x1="0" y1="0" x2="21.2941" y2="23.1624" gradientUnits="userSpaceOnUse">
<stop offset="0.203125" stop-color="#1289F7"/>
<stop offset="0.973958" stop-color="#692489" stop-opacity="0.92"/>
</linearGradient>
<linearGradient id="paint4_linear" x1="0" y1="0" x2="95.2643" y2="103.623" gradientUnits="userSpaceOnUse">
<stop offset="0.203125" stop-color="#E7F3FF"/>
<stop offset="0.973958" stop-color="#FFF2DF"/>
</linearGradient>
</defs>
</svg>
