<svg width="1366" height="1344" fill="none" xmlns="http://www.w3.org/2000/svg"><path d="M1369-9H-24.706L-42 975.625c267.551 45.985 619.538-167.936 968.473-284.391 286.437-95.599 432.267-90.945 442.527-17.182V-9z" fill="url(#prefix__paint0_linear)"/><path d="M1025.81 391.822C1171.87 406.916 1332.46 122 1377.08 122l56.92 26.226V803c-298.45-76.012-610.342-45.074-719.467-184.475C578.126 444.275 848.5 373.5 1025.81 391.822z" fill="#FEFEFF"/><g opacity=".3"><path d="M1026.77 1119.18c-148.398-46.78-230.871-204.704-184.207-352.732 46.664-148.028 204.797-230.107 353.197-183.326 148.4 46.782 230.88 204.709 184.21 352.737-46.66 148.031-204.79 230.111-353.2 183.321z" stroke="#FFB8B8" stroke-opacity=".46"/><path d="M1047.39 1056.14c-113.84-35.89-177.125-156.96-141.357-270.423 35.768-113.464 157.047-176.356 270.887-140.47 113.83 35.885 177.12 156.959 141.35 270.422-35.77 113.461-157.04 176.361-270.88 140.471z" stroke="#FFB8B8" stroke-opacity=".46"/><path d="M1063.47 988.705c-77.79-24.521-121.062-107.157-96.659-184.569 24.403-77.412 107.239-120.293 185.029-95.771 77.79 24.521 121.06 107.157 96.66 184.569-24.41 77.412-107.25 120.296-185.03 95.771z" stroke="#FFB8B8" stroke-opacity=".46"/><circle cx="1034.57" cy="650.897" r="19.051" transform="rotate(107.497 1034.57 650.897)" fill="url(#prefix__paint1_linear)"/><circle cx="856.97" cy="767.91" r="42.993" transform="rotate(107.497 856.97 767.91)" fill="url(#prefix__paint2_linear)"/><path d="M888.446 1039.82c-6.874-2.17-10.689-9.5-8.523-16.37 2.167-6.88 9.496-10.69 16.37-8.53 6.874 2.17 10.689 9.5 8.522 16.37-2.166 6.88-9.495 10.69-16.369 8.53z" fill="url(#prefix__paint3_linear)"/><circle cx="987.713" cy="927.255" r="21.198" transform="rotate(107.497 987.713 927.255)" fill="url(#prefix__paint4_linear)"/><circle cx="1229.33" cy="894.328" r="46.499" transform="rotate(107.497 1229.33 894.328)" fill="url(#prefix__paint5_linear)"/></g><g opacity=".2" stroke="#fff"><path d="M568.092 665.218c-98.229-56.891-131.853-182.439-75.106-280.42 56.747-97.98 182.378-131.292 280.607-74.402 98.228 56.891 131.853 182.44 75.106 280.42-56.747 97.98-182.379 131.293-280.607 74.402z"/><path d="M592.804 623.578c-75.336-43.631-101.15-139.873-57.662-214.959 43.488-75.087 139.812-100.59 215.147-56.958 75.335 43.632 101.149 139.873 57.662 214.96-43.488 75.086-139.812 100.589-215.147 56.957z"/><path d="M614.982 578.09c-51.458-29.802-69.125-95.476-39.467-146.684 29.658-51.207 95.414-68.565 146.872-38.762 51.458 29.802 69.124 95.476 39.467 146.683-29.658 51.208-95.414 68.566-146.872 38.763z"/><circle cx="336.705" cy="477.366" r="13.407" transform="rotate(120.078 336.705 477.366)" fill="url(#prefix__paint6_linear)"/><circle cx="481.622" cy="565.132" r="14.974" transform="rotate(120.078 481.622 565.132)" fill="url(#prefix__paint7_linear)"/><circle cx="628.146" cy="76.146" r="14.974" transform="rotate(120.078 628.146 76.146)" fill="url(#prefix__paint8_linear)"/><circle cx="38.146" cy="515.146" r="14.974" transform="rotate(120.078 38.146 515.146)" fill="url(#prefix__paint9_linear)"/><circle cx="233.146" cy="645.146" r="14.974" transform="rotate(120.078 233.146 645.146)" fill="url(#prefix__paint10_linear)"/><circle cx="641.933" cy="472.706" r="14.974" transform="rotate(120.078 641.933 472.706)" fill="url(#prefix__paint11_linear)"/><circle cx="188.288" cy="381.474" r="34.405" transform="rotate(120.078 188.288 381.474)" fill="url(#prefix__paint12_linear)"/></g><defs><linearGradient id="prefix__paint0_linear" x1="289.641" y1="857.67" x2="1414.59" y2="298.019" gradientUnits="userSpaceOnUse"><stop offset=".005" stop-color="#126FCB"/><stop offset="1" stop-color="#97CBFF"/></linearGradient><linearGradient id="prefix__paint1_linear" x1="1015.52" y1="631.846" x2="1042.33" y2="660.776" gradientUnits="userSpaceOnUse"><stop offset=".135" stop-color="#D1E7FB"/><stop offset="1" stop-color="#EDC6FF" stop-opacity=".92"/></linearGradient><linearGradient id="prefix__paint2_linear" x1="813.977" y1="724.917" x2="874.486" y2="790.203" gradientUnits="userSpaceOnUse"><stop offset=".203" stop-color="#DDECFA"/><stop offset=".203" stop-color="#FDFDFD"/><stop offset=".974" stop-color="#FFCC9D" stop-opacity=".92"/></linearGradient><linearGradient id="prefix__paint3_linear" x1="899.789" y1="1008.55" x2="875.367" y2="1020.11" gradientUnits="userSpaceOnUse"><stop offset=".135" stop-color="#D1E7FB"/><stop offset="1" stop-color="#EDC6FF" stop-opacity=".92"/></linearGradient><linearGradient id="prefix__paint4_linear" x1="966.515" y1="906.057" x2="996.349" y2="938.246" gradientUnits="userSpaceOnUse"><stop offset=".135" stop-color="#D1E7FB"/><stop offset="1" stop-color="#EDC6FF" stop-opacity=".92"/></linearGradient><linearGradient id="prefix__paint5_linear" x1="1182.83" y1="847.829" x2="1248.27" y2="918.439" gradientUnits="userSpaceOnUse"><stop offset=".203" stop-color="#DDECFA"/><stop offset=".203" stop-color="#FDFDFD"/><stop offset=".974" stop-color="#FFCC9D" stop-opacity=".92"/></linearGradient><linearGradient id="prefix__paint6_linear" x1="322.798" y1="463.459" x2="342.371" y2="484.577" gradientUnits="userSpaceOnUse"><stop offset=".135" stop-color="#D1E7FB"/><stop offset="1" stop-color="#EDC6FF" stop-opacity=".92"/></linearGradient><linearGradient id="prefix__paint7_linear" x1="466.148" y1="549.658" x2="487.927" y2="573.156" gradientUnits="userSpaceOnUse"><stop offset=".135" stop-color="#D1E7FB"/><stop offset="1" stop-color="#EDC6FF" stop-opacity=".92"/></linearGradient><linearGradient id="prefix__paint8_linear" x1="612.672" y1="60.672" x2="634.45" y2="84.169" gradientUnits="userSpaceOnUse"><stop offset=".135" stop-color="#D1E7FB"/><stop offset="1" stop-color="#EDC6FF" stop-opacity=".92"/></linearGradient><linearGradient id="prefix__paint9_linear" x1="22.672" y1="499.672" x2="44.45" y2="523.169" gradientUnits="userSpaceOnUse"><stop offset=".135" stop-color="#D1E7FB"/><stop offset="1" stop-color="#EDC6FF" stop-opacity=".92"/></linearGradient><linearGradient id="prefix__paint10_linear" x1="217.671" y1="629.672" x2="239.45" y2="653.169" gradientUnits="userSpaceOnUse"><stop offset=".135" stop-color="#D1E7FB"/><stop offset="1" stop-color="#EDC6FF" stop-opacity=".92"/></linearGradient><linearGradient id="prefix__paint11_linear" x1="626.458" y1="457.232" x2="648.237" y2="480.73" gradientUnits="userSpaceOnUse"><stop offset=".135" stop-color="#D1E7FB"/><stop offset="1" stop-color="#EDC6FF" stop-opacity=".92"/></linearGradient><linearGradient id="prefix__paint12_linear" x1="153.383" y1="346.57" x2="202.509" y2="399.573" gradientUnits="userSpaceOnUse"><stop offset=".203" stop-color="#DDECFA"/><stop offset=".203" stop-color="#FDFDFD"/><stop offset=".974" stop-color="#FFCC9D" stop-opacity=".92"/></linearGradient></defs></svg>