<svg width="1204" height="1081" fill="none" xmlns="http://www.w3.org/2000/svg"><rect width="3.814" height="3.7" rx="1.85" transform="rotate(-.579 21228.863 -107959.766) skewX(.008)" fill="#83E1E1" fill-opacity=".38"/><rect width="3.814" height="3.7" rx="1.85" transform="rotate(-.579 32403.592 -108017.384) skewX(.008)" fill="#83E1E1" fill-opacity=".38"/><rect width="3.814" height="3.7" rx="1.85" transform="rotate(-.579 26816.126 -107988.079) skewX(.008)" fill="#83E1E1" fill-opacity=".38"/><rect width="3.814" height="3.7" rx="1.85" transform="rotate(-.579 37991.054 -108045.696) skewX(.008)" fill="#83E1E1" fill-opacity=".38"/><rect width="3.814" height="3.7" rx="1.85" transform="rotate(-.579 24022.497 -107974.419) skewX(.008)" fill="#83E1E1" fill-opacity=".38"/><rect width="3.814" height="3.7" rx="1.85" transform="rotate(-.579 35197.326 -108032.036) skewX(.008)" fill="#83E1E1" fill-opacity=".38"/><rect width="3.814" height="3.7" rx="1.85" transform="rotate(-.579 29609.86 -108002.731) skewX(.008)" fill="#83E1E1" fill-opacity=".38"/><rect width="3.814" height="3.7" rx="1.85" transform="rotate(-.579 40784.688 -108060.349) skewX(.008)" fill="#83E1E1" fill-opacity=".38"/><rect width="3.814" height="3.7" rx="1.85" transform="rotate(-.579 22625.628 -107966.596) skewX(.008)" fill="#83E1E1" fill-opacity=".38"/><rect width="3.814" height="3.7" rx="1.85" transform="rotate(-.579 33800.456 -108024.214) skewX(.008)" fill="#83E1E1" fill-opacity=".38"/><rect width="3.814" height="3.7" rx="1.85" transform="rotate(-.579 28212.995 -107995.902) skewX(.008)" fill="#83E1E1" fill-opacity=".38"/><rect width="3.814" height="3.7" rx="1.85" transform="rotate(-.579 39387.824 -108053.52) skewX(.008)" fill="#83E1E1" fill-opacity=".38"/><rect width="3.814" height="3.7" rx="1.85" transform="rotate(-.579 25419.361 -107981.248) skewX(.008)" fill="#83E1E1" fill-opacity=".38"/><rect width="3.814" height="3.7" rx="1.85" transform="rotate(-.579 36594.19 -108038.866) skewX(.008)" fill="#83E1E1" fill-opacity=".38"/><rect width="3.814" height="3.7" rx="1.85" transform="rotate(-.579 31006.728 -108010.554) skewX(.008)" fill="#83E1E1" fill-opacity=".38"/><rect width="3.814" height="3.7" rx="1.85" transform="rotate(-.579 42181.552 -108067.179) skewX(.008)" fill="#83E1E1" fill-opacity=".38"/><rect width="3.814" height="3.7" rx="1.85" transform="rotate(-.579 21199.93 -113718.866) skewX(.008)" fill="#83E1E1" fill-opacity=".38"/><rect width="3.814" height="3.7" rx="1.85" transform="rotate(-.579 32374.76 -113776.484) skewX(.008)" fill="#83E1E1" fill-opacity=".38"/><rect width="3.814" height="3.7" rx="1.85" transform="rotate(-.579 26787.397 -113748.172) skewX(.008)" fill="#83E1E1" fill-opacity=".38"/><rect width="3.814" height="3.7" rx="1.85" transform="rotate(-.579 37962.226 -113805.79) skewX(.008)" fill="#83E1E1" fill-opacity=".38"/><rect width="3.814" height="3.7" rx="1.85" transform="rotate(-.579 23993.664 -113733.52) skewX(.008)" fill="#83E1E1" fill-opacity=".38"/><rect width="3.814" height="3.7" rx="1.85" transform="rotate(-.579 35168.492 -113791.137) skewX(.008)" fill="#83E1E1" fill-opacity=".38"/><rect width="3.814" height="3.7" rx="1.85" transform="rotate(-.579 29581.13 -113762.824) skewX(.008)" fill="#83E1E1" fill-opacity=".38"/><rect width="3.814" height="3.7" rx="1.85" transform="rotate(-.579 40755.954 -113819.449) skewX(.008)" fill="#83E1E1" fill-opacity=".38"/><rect width="3.814" height="3.7" rx="1.85" transform="rotate(-.579 22596.8 -113726.69) skewX(.008)" fill="#83E1E1" fill-opacity=".38"/><rect width="3.814" height="3.7" rx="1.85" transform="rotate(-.579 33771.628 -113784.307) skewX(.008)" fill="#83E1E1" fill-opacity=".38"/><rect width="3.814" height="3.7" rx="1.85" transform="rotate(-.579 28184.261 -113755.001) skewX(.008)" fill="#83E1E1" fill-opacity=".38"/><rect width="3.814" height="3.7" rx="1.85" transform="rotate(-.579 39359.09 -113812.62) skewX(.008)" fill="#83E1E1" fill-opacity=".38"/><rect width="3.814" height="3.7" rx="1.85" transform="rotate(-.579 25390.533 -113741.342) skewX(.008)" fill="#83E1E1" fill-opacity=".38"/><rect width="3.814" height="3.7" rx="1.85" transform="rotate(-.579 36565.357 -113797.966) skewX(.008)" fill="#83E1E1" fill-opacity=".38"/><rect width="3.814" height="3.7" rx="1.85" transform="rotate(-.579 30977.994 -113769.654) skewX(.008)" fill="#83E1E1" fill-opacity=".38"/><rect width="3.814" height="3.7" rx="1.85" transform="rotate(-.579 42152.823 -113827.272) skewX(.008)" fill="#83E1E1" fill-opacity=".38"/><rect width="3.814" height="3.7" rx="1.85" transform="rotate(-.579 21221.558 -109400.038) skewX(.008)" fill="#83E1E1" fill-opacity=".38"/><rect width="3.814" height="3.7" rx="1.85" transform="rotate(-.579 32396.382 -109456.662) skewX(.008)" fill="#83E1E1" fill-opacity=".38"/><rect width="3.814" height="3.7" rx="1.85" transform="rotate(-.579 26809.02 -109428.35) skewX(.008)" fill="#83E1E1" fill-opacity=".38"/><rect width="3.814" height="3.7" rx="1.85" transform="rotate(-.579 37983.848 -109485.968) skewX(.008)" fill="#83E1E1" fill-opacity=".38"/><rect width="3.814" height="3.7" rx="1.85" transform="rotate(-.579 24015.286 -109413.697) skewX(.008)" fill="#83E1E1" fill-opacity=".38"/><rect width="3.814" height="3.7" rx="1.85" transform="rotate(-.579 35190.115 -109471.315) skewX(.008)" fill="#83E1E1" fill-opacity=".38"/><rect width="3.814" height="3.7" rx="1.85" transform="rotate(-.579 29602.653 -109443.003) skewX(.008)" fill="#83E1E1" fill-opacity=".38"/><rect width="3.814" height="3.7" rx="1.85" transform="rotate(-.579 40777.482 -109500.62) skewX(.008)" fill="#83E1E1" fill-opacity=".38"/><rect width="3.814" height="3.7" rx="1.85" transform="rotate(-.579 22618.422 -109406.867) skewX(.008)" fill="#83E1E1" fill-opacity=".38"/><rect width="3.814" height="3.7" rx="1.85" transform="rotate(-.579 33793.25 -109464.485) skewX(.008)" fill="#83E1E1" fill-opacity=".38"/><rect width="3.814" height="3.7" rx="1.85" transform="rotate(-.579 28205.784 -109435.18) skewX(.008)" fill="#83E1E1" fill-opacity=".38"/><rect width="3.814" height="3.7" rx="1.85" transform="rotate(-.579 39380.712 -109492.797) skewX(.008)" fill="#83E1E1" fill-opacity=".38"/><rect width="3.814" height="3.7" rx="1.85" transform="rotate(-.579 25412.155 -109421.52) skewX(.008)" fill="#83E1E1" fill-opacity=".38"/><rect width="3.814" height="3.7" rx="1.85" transform="rotate(-.579 36586.984 -109479.138) skewX(.008)" fill="#83E1E1" fill-opacity=".38"/><rect width="3.814" height="3.7" rx="1.85" transform="rotate(-.579 30999.517 -109449.833) skewX(.008)" fill="#83E1E1" fill-opacity=".38"/><rect width="3.814" height="3.7" rx="1.85" transform="rotate(-.579 42174.346 -109507.45) skewX(.008)" fill="#83E1E1" fill-opacity=".38"/><rect width="3.814" height="3.7" rx="1.85" transform="rotate(-.579 21192.824 -115159.138) skewX(.008)" fill="#83E1E1" fill-opacity=".38"/><rect width="3.814" height="3.7" rx="1.85" transform="rotate(-.579 32367.653 -115216.755) skewX(.008)" fill="#83E1E1" fill-opacity=".38"/><rect width="3.814" height="3.7" rx="1.85" transform="rotate(-.579 26780.186 -115187.45) skewX(.008)" fill="#83E1E1" fill-opacity=".38"/><rect width="3.814" height="3.7" rx="1.85" transform="rotate(-.579 37955.015 -115245.068) skewX(.008)" fill="#83E1E1" fill-opacity=".38"/><rect width="3.814" height="3.7" rx="1.85" transform="rotate(-.579 23986.458 -115173.79) skewX(.008)" fill="#83E1E1" fill-opacity=".38"/><rect width="3.814" height="3.7" rx="1.85" transform="rotate(-.579 35161.287 -115231.408) skewX(.008)" fill="#83E1E1" fill-opacity=".38"/><rect width="3.814" height="3.7" rx="1.85" transform="rotate(-.579 29573.92 -115202.103) skewX(.008)" fill="#83E1E1" fill-opacity=".38"/><rect width="3.814" height="3.7" rx="1.85" transform="rotate(-.579 40748.748 -115259.72) skewX(.008)" fill="#83E1E1" fill-opacity=".38"/><rect width="3.814" height="3.7" rx="1.85" transform="rotate(-.579 22589.589 -115165.968) skewX(.008)" fill="#83E1E1" fill-opacity=".38"/><rect width="3.814" height="3.7" rx="1.85" transform="rotate(-.579 33764.418 -115223.586) skewX(.008)" fill="#83E1E1" fill-opacity=".38"/><rect width="3.814" height="3.7" rx="1.85" transform="rotate(-.579 28177.055 -115195.273) skewX(.008)" fill="#83E1E1" fill-opacity=".38"/><rect width="3.814" height="3.7" rx="1.85" transform="rotate(-.579 39351.884 -115252.89) skewX(.008)" fill="#83E1E1" fill-opacity=".38"/><rect width="3.814" height="3.7" rx="1.85" transform="rotate(-.579 25383.322 -115180.62) skewX(.008)" fill="#83E1E1" fill-opacity=".38"/><rect width="3.814" height="3.7" rx="1.85" transform="rotate(-.579 36558.15 -115238.238) skewX(.008)" fill="#83E1E1" fill-opacity=".38"/><rect width="3.814" height="3.7" rx="1.85" transform="rotate(-.579 30970.789 -115209.926) skewX(.008)" fill="#83E1E1" fill-opacity=".38"/><rect width="3.814" height="3.7" rx="1.85" transform="rotate(-.579 42145.612 -115266.55) skewX(.008)" fill="#83E1E1" fill-opacity=".38"/><rect width="3.814" height="3.7" rx="1.85" transform="rotate(-.579 21214.347 -110839.316) skewX(.008)" fill="#83E1E1" fill-opacity=".38"/><rect width="3.814" height="3.7" rx="1.85" transform="rotate(-.579 32389.176 -110896.934) skewX(.008)" fill="#83E1E1" fill-opacity=".38"/><rect width="3.814" height="3.7" rx="1.85" transform="rotate(-.579 26801.814 -110868.621) skewX(.008)" fill="#83E1E1" fill-opacity=".38"/><rect width="3.814" height="3.7" rx="1.85" transform="rotate(-.579 37976.642 -110926.24) skewX(.008)" fill="#83E1E1" fill-opacity=".38"/><rect width="3.814" height="3.7" rx="1.85" transform="rotate(-.579 24008.08 -110853.969) skewX(.008)" fill="#83E1E1" fill-opacity=".38"/><rect width="3.814" height="3.7" rx="1.85" transform="rotate(-.579 35182.909 -110911.587) skewX(.008)" fill="#83E1E1" fill-opacity=".38"/><rect width="3.814" height="3.7" rx="1.85" transform="rotate(-.579 29595.443 -110882.281) skewX(.008)" fill="#83E1E1" fill-opacity=".38"/><rect width="3.814" height="3.7" rx="1.85" transform="rotate(-.579 40770.37 -110939.899) skewX(.008)" fill="#83E1E1" fill-opacity=".38"/><rect width="3.814" height="3.7" rx="1.85" transform="rotate(-.579 22611.216 -110847.14) skewX(.008)" fill="#83E1E1" fill-opacity=".38"/><rect width="3.814" height="3.7" rx="1.85" transform="rotate(-.579 33786.04 -110903.764) skewX(.008)" fill="#83E1E1" fill-opacity=".38"/><rect width="3.814" height="3.7" rx="1.85" transform="rotate(-.579 28198.678 -110875.451) skewX(.008)" fill="#83E1E1" fill-opacity=".38"/><rect width="3.814" height="3.7" rx="1.85" transform="rotate(-.579 39373.506 -110933.069) skewX(.008)" fill="#83E1E1" fill-opacity=".38"/><rect width="3.814" height="3.7" rx="1.85" transform="rotate(-.579 25404.945 -110860.799) skewX(.008)" fill="#83E1E1" fill-opacity=".38"/><rect width="3.814" height="3.7" rx="1.85" transform="rotate(-.579 36579.773 -110918.416) skewX(.008)" fill="#83E1E1" fill-opacity=".38"/><rect width="3.814" height="3.7" rx="1.85" transform="rotate(-.579 30992.312 -110890.104) skewX(.008)" fill="#83E1E1" fill-opacity=".38"/><rect width="3.814" height="3.7" rx="1.85" transform="rotate(-.579 42167.14 -110947.722) skewX(.008)" fill="#83E1E1" fill-opacity=".38"/><rect width="3.814" height="3.7" rx="1.85" transform="rotate(-.579 21185.618 -116599.41) skewX(.008)" fill="#83E1E1" fill-opacity=".38"/><rect width="3.814" height="3.7" rx="1.85" transform="rotate(-.579 32360.442 -116656.034) skewX(.008)" fill="#83E1E1" fill-opacity=".38"/><rect width="3.814" height="3.7" rx="1.85" transform="rotate(-.579 26772.98 -116627.722) skewX(.008)" fill="#83E1E1" fill-opacity=".38"/><rect width="3.814" height="3.7" rx="1.85" transform="rotate(-.579 37947.81 -116685.34) skewX(.008)" fill="#83E1E1" fill-opacity=".38"/><rect width="3.814" height="3.7" rx="1.85" transform="rotate(-.579 23979.247 -116613.07) skewX(.008)" fill="#83E1E1" fill-opacity=".38"/><rect width="3.814" height="3.7" rx="1.85" transform="rotate(-.579 35154.076 -116670.687) skewX(.008)" fill="#83E1E1" fill-opacity=".38"/><rect width="3.814" height="3.7" rx="1.85" transform="rotate(-.579 29566.714 -116642.374) skewX(.008)" fill="#83E1E1" fill-opacity=".38"/><rect width="3.814" height="3.7" rx="1.85" transform="rotate(-.579 40741.443 -116699.993) skewX(.008)" fill="#83E1E1" fill-opacity=".38"/><rect width="3.814" height="3.7" rx="1.85" transform="rotate(-.579 22582.483 -116606.239) skewX(.008)" fill="#83E1E1" fill-opacity=".38"/><rect width="3.814" height="3.7" rx="1.85" transform="rotate(-.579 33757.212 -116663.857) skewX(.008)" fill="#83E1E1" fill-opacity=".38"/><rect width="3.814" height="3.7" rx="1.85" transform="rotate(-.579 28169.845 -116634.552) skewX(.008)" fill="#83E1E1" fill-opacity=".38"/><rect width="3.814" height="3.7" rx="1.85" transform="rotate(-.579 39344.574 -116692.17) skewX(.008)" fill="#83E1E1" fill-opacity=".38"/><rect width="3.814" height="3.7" rx="1.85" transform="rotate(-.579 25376.116 -116620.892) skewX(.008)" fill="#83E1E1" fill-opacity=".38"/><rect width="3.814" height="3.7" rx="1.85" transform="rotate(-.579 36550.945 -116678.51) skewX(.008)" fill="#83E1E1" fill-opacity=".38"/><rect width="3.814" height="3.7" rx="1.85" transform="rotate(-.579 30963.578 -116649.204) skewX(.008)" fill="#83E1E1" fill-opacity=".38"/><rect width="3.814" height="3.7" rx="1.85" transform="rotate(-.579 42138.406 -116706.822) skewX(.008)" fill="#83E1E1" fill-opacity=".38"/><rect width="3.814" height="3.7" rx="1.85" transform="rotate(-.579 21207.141 -112279.588) skewX(.008)" fill="#83E1E1" fill-opacity=".38"/><rect width="3.814" height="3.7" rx="1.85" transform="rotate(-.579 32381.97 -112337.206) skewX(.008)" fill="#83E1E1" fill-opacity=".38"/><rect width="3.814" height="3.7" rx="1.85" transform="rotate(-.579 26794.603 -112307.9) skewX(.008)" fill="#83E1E1" fill-opacity=".38"/><rect width="3.814" height="3.7" rx="1.85" transform="rotate(-.579 37969.431 -112365.518) skewX(.008)" fill="#83E1E1" fill-opacity=".38"/><rect width="3.814" height="3.7" rx="1.85" transform="rotate(-.579 24000.875 -112294.24) skewX(.008)" fill="#83E1E1" fill-opacity=".38"/><rect width="3.814" height="3.7" rx="1.85" transform="rotate(-.579 35175.698 -112350.865) skewX(.008)" fill="#83E1E1" fill-opacity=".38"/><rect width="3.814" height="3.7" rx="1.85" transform="rotate(-.579 29588.336 -112322.553) skewX(.008)" fill="#83E1E1" fill-opacity=".38"/><rect width="3.814" height="3.7" rx="1.85" transform="rotate(-.579 40763.165 -112380.17) skewX(.008)" fill="#83E1E1" fill-opacity=".38"/><rect width="3.814" height="3.7" rx="1.85" transform="rotate(-.579 22604.006 -112286.418) skewX(.008)" fill="#83E1E1" fill-opacity=".38"/><rect width="3.814" height="3.7" rx="1.85" transform="rotate(-.579 33778.834 -112344.035) skewX(.008)" fill="#83E1E1" fill-opacity=".38"/><rect width="3.814" height="3.7" rx="1.85" transform="rotate(-.579 28191.472 -112315.723) skewX(.008)" fill="#83E1E1" fill-opacity=".38"/><rect width="3.814" height="3.7" rx="1.85" transform="rotate(-.579 39366.3 -112373.34) skewX(.008)" fill="#83E1E1" fill-opacity=".38"/><rect width="3.814" height="3.7" rx="1.85" transform="rotate(-.579 25397.739 -112301.07) skewX(.008)" fill="#83E1E1" fill-opacity=".38"/><rect width="3.814" height="3.7" rx="1.85" transform="rotate(-.579 36572.567 -112358.688) skewX(.008)" fill="#83E1E1" fill-opacity=".38"/><rect width="3.814" height="3.7" rx="1.85" transform="rotate(-.579 30985.1 -112329.383) skewX(.008)" fill="#83E1E1" fill-opacity=".38"/><rect width="3.814" height="3.7" rx="1.85" transform="rotate(-.579 42160.029 -112387) skewX(.008)" fill="#83E1E1" fill-opacity=".38"/><rect width="3.814" height="3.7" rx="1.85" transform="rotate(-.579 21178.408 -118038.688) skewX(.008)" fill="#83E1E1" fill-opacity=".38"/><rect width="3.814" height="3.7" rx="1.85" transform="rotate(-.579 32353.236 -118096.306) skewX(.008)" fill="#83E1E1" fill-opacity=".38"/><rect width="3.814" height="3.7" rx="1.85" transform="rotate(-.579 26765.775 -118067.994) skewX(.008)" fill="#83E1E1" fill-opacity=".38"/><rect width="3.814" height="3.7" rx="1.85" transform="rotate(-.579 37940.504 -118125.612) skewX(.008)" fill="#83E1E1" fill-opacity=".38"/><rect width="3.814" height="3.7" rx="1.85" transform="rotate(-.579 23972.14 -118053.34) skewX(.008)" fill="#83E1E1" fill-opacity=".38"/><rect width="3.814" height="3.7" rx="1.85" transform="rotate(-.579 35146.87 -118110.959) skewX(.008)" fill="#83E1E1" fill-opacity=".38"/><rect width="3.814" height="3.7" rx="1.85" transform="rotate(-.579 29559.503 -118081.653) skewX(.008)" fill="#83E1E1" fill-opacity=".38"/><rect width="3.814" height="3.7" rx="1.85" transform="rotate(-.579 40734.332 -118139.27) skewX(.008)" fill="#83E1E1" fill-opacity=".38"/><rect width="3.814" height="3.7" rx="1.85" transform="rotate(-.579 22575.277 -118046.51) skewX(.008)" fill="#83E1E1" fill-opacity=".38"/><rect width="3.814" height="3.7" rx="1.85" transform="rotate(-.579 33750.1 -118103.135) skewX(.008)" fill="#83E1E1" fill-opacity=".38"/><rect width="3.814" height="3.7" rx="1.85" transform="rotate(-.579 28162.639 -118074.823) skewX(.008)" fill="#83E1E1" fill-opacity=".38"/><rect width="3.814" height="3.7" rx="1.85" transform="rotate(-.579 39337.368 -118132.441) skewX(.008)" fill="#83E1E1" fill-opacity=".38"/><rect width="3.814" height="3.7" rx="1.85" transform="rotate(-.579 25368.906 -118060.17) skewX(.008)" fill="#83E1E1" fill-opacity=".38"/><rect width="3.814" height="3.7" rx="1.85" transform="rotate(-.579 36543.734 -118117.788) skewX(.008)" fill="#83E1E1" fill-opacity=".38"/><rect width="3.814" height="3.7" rx="1.85" transform="rotate(-.579 30956.273 -118089.476) skewX(.008)" fill="#83E1E1" fill-opacity=".38"/><rect width="3.814" height="3.7" rx="1.85" transform="rotate(-.579 42131.101 -118147.094) skewX(.008)" fill="#83E1E1" fill-opacity=".38"/><g opacity=".3"><path d="M713.254 760.184c-148.402-46.782-230.874-204.708-184.21-352.736 46.664-148.028 204.795-230.107 353.197-183.326 148.399 46.782 230.879 204.708 184.209 352.737-46.66 148.028-204.793 230.107-353.196 183.325z" stroke="#FFB8B8" stroke-opacity=".46"/><path d="M733.868 697.139C620.03 661.253 556.745 540.18 592.513 426.716c35.768-113.463 157.046-176.355 270.884-140.47 113.838 35.886 177.123 156.96 141.353 270.423-35.766 113.464-157.044 176.356-270.882 140.47z" stroke="#FFB8B8" stroke-opacity=".46"/><path d="M749.947 629.705c-77.787-24.521-121.059-107.157-96.656-184.569 24.403-77.412 107.242-120.293 185.03-95.771 77.788 24.521 121.059 107.157 96.656 184.569-24.403 77.412-107.242 120.293-185.03 95.771z" stroke="#FFB8B8" stroke-opacity=".46"/><circle cx="347.897" cy="577.898" r="19.051" transform="rotate(107.497 347.897 577.898)" fill="url(#prefix__paint0_linear)"/><circle cx="567.837" cy="651.998" r="21.198" transform="rotate(107.497 567.837 651.998)" fill="url(#prefix__paint1_linear)"/><circle cx="754.59" cy="480.59" r="21.198" transform="rotate(107.497 754.59 480.59)" fill="url(#prefix__paint2_linear)"/><circle cx="120.853" cy="493.978" r="47.815" transform="rotate(107.497 120.853 493.978)" fill="url(#prefix__paint3_linear)"/></g><defs><linearGradient id="prefix__paint0_linear" x1="328.846" y1="558.846" x2="355.659" y2="587.776" gradientUnits="userSpaceOnUse"><stop offset=".135" stop-color="#D1E7FB"/><stop offset="1" stop-color="#EDC6FF" stop-opacity=".92"/></linearGradient><linearGradient id="prefix__paint1_linear" x1="546.64" y1="630.8" x2="576.473" y2="662.989" gradientUnits="userSpaceOnUse"><stop offset=".135" stop-color="#D1E7FB"/><stop offset="1" stop-color="#EDC6FF" stop-opacity=".92"/></linearGradient><linearGradient id="prefix__paint2_linear" x1="733.392" y1="459.392" x2="763.226" y2="491.581" gradientUnits="userSpaceOnUse"><stop offset=".135" stop-color="#D1E7FB"/><stop offset="1" stop-color="#EDC6FF" stop-opacity=".92"/></linearGradient><linearGradient id="prefix__paint3_linear" x1="73.038" y1="446.163" x2="140.333" y2="518.771" gradientUnits="userSpaceOnUse"><stop offset=".203" stop-color="#DDECFA"/><stop offset=".203" stop-color="#FDFDFD"/><stop offset=".974" stop-color="#FFCC9D" stop-opacity=".92"/></linearGradient></defs></svg>