<svg width="334" height="340" viewBox="0 0 334 340" fill="none" xmlns="http://www.w3.org/2000/svg">
<path d="M333.199 188.334C333.199 170.336 325.087 153.498 310.891 138.984C301.041 128.92 292.833 117.308 286.555 104.632C266.565 64.1842 232.282 37.4771 193.461 37.4771C165.841 37.4771 140.636 50.9274 121.129 73.2802C108.285 87.9885 91.8674 99.4067 73.8085 106.664C29.772 124.469 0.800537 154.369 0.800537 188.334C0.800537 222.298 29.772 252.199 73.8085 269.907C91.964 277.164 108.285 288.583 121.129 303.291C140.636 325.644 165.938 339.094 193.461 339.094C232.282 339.094 266.469 312.484 286.555 271.939C292.833 259.263 301.041 247.748 310.891 237.587C325.087 223.073 333.199 206.235 333.199 188.334Z" fill="url(#paint0_linear)"/>
<path d="M105.702 57.7749C106.452 55.8885 105.534 53.7496 103.652 52.9976C101.769 52.2456 99.6345 53.1652 98.884 55.0516C98.1335 56.9381 99.0513 59.0769 100.934 59.8289C102.817 60.5809 104.951 59.6613 105.702 57.7749Z" fill="#9999EF"/>
<path d="M100.752 55.8621L101.525 57.7974L104.325 56.0556" stroke="white" stroke-width="1.0564" stroke-miterlimit="10" stroke-linecap="round" stroke-linejoin="round"/>
<path d="M46.4535 148.199C48.3795 147.566 49.4292 145.489 48.7981 143.559C48.167 141.629 46.094 140.578 44.168 141.21C42.242 141.842 41.1923 143.919 41.8234 145.849C42.4545 147.779 44.5275 148.831 46.4535 148.199Z" fill="#9999EF"/>
<path d="M43.8714 145.37L45.7063 146.338L46.672 143.241" stroke="white" stroke-width="1.0564" stroke-miterlimit="10" stroke-linecap="round" stroke-linejoin="round"/>
<path d="M80.862 183.694C81.5204 181.773 80.5003 179.681 78.5834 179.022C76.6665 178.362 74.5788 179.384 73.9203 181.305C73.2618 183.225 74.282 185.317 76.1988 185.977C78.1157 186.637 80.2035 185.615 80.862 183.694Z" fill="#9999EF"/>
<path d="M75.7399 182.141L76.7056 183.882L79.3131 182.044" stroke="white" stroke-width="1.0564" stroke-miterlimit="10" stroke-linecap="round" stroke-linejoin="round"/>
<path d="M269.935 120.032C272.779 118.811 274.096 115.512 272.877 112.663C271.659 109.813 268.366 108.493 265.522 109.714C262.679 110.935 261.362 114.235 262.58 117.084C263.799 119.933 267.092 121.253 269.935 120.032Z" fill="#9999EF"/>
<path d="M265.503 116.05L268.4 117.211L269.559 112.373" stroke="white" stroke-width="1.6155" stroke-miterlimit="10" stroke-linecap="round" stroke-linejoin="round"/>
<path d="M50.6314 121.953C51.3781 121.953 51.9834 121.346 51.9834 120.598C51.9834 119.85 51.3781 119.243 50.6314 119.243C49.8847 119.243 49.2794 119.85 49.2794 120.598C49.2794 121.346 49.8847 121.953 50.6314 121.953Z" fill="#9999EF"/>
<path d="M294.474 125.63C295.221 125.63 295.826 125.023 295.826 124.275C295.826 123.527 295.221 122.92 294.474 122.92C293.728 122.92 293.122 123.527 293.122 124.275C293.122 125.023 293.728 125.63 294.474 125.63Z" fill="#9999EF"/>
<path d="M195.199 91.5683C195.946 91.5683 196.551 90.9618 196.551 90.2136C196.551 89.4654 195.946 88.8589 195.199 88.8589C194.452 88.8589 193.847 89.4654 193.847 90.2136C193.847 90.9618 194.452 91.5683 195.199 91.5683Z" fill="#9999EF"/>
<path d="M67.2416 110.825C68.4684 110.825 69.4628 109.828 69.4628 108.599C69.4628 107.37 68.4684 106.374 67.2416 106.374C66.0149 106.374 65.0205 107.37 65.0205 108.599C65.0205 109.828 66.0149 110.825 67.2416 110.825Z" fill="#9999EF"/>
<path d="M309.733 178.463C310.959 178.463 311.954 177.467 311.954 176.238C311.954 175.009 310.959 174.012 309.733 174.012C308.506 174.012 307.511 175.009 307.511 176.238C307.511 177.467 308.506 178.463 309.733 178.463Z" fill="#9999EF"/>
<path d="M39.7188 110.825C40.9455 110.825 41.94 109.828 41.94 108.599C41.94 107.37 40.9455 106.374 39.7188 106.374C38.4921 106.374 37.4977 107.37 37.4977 108.599C37.4977 109.828 38.4921 110.825 39.7188 110.825Z" fill="#9999EF"/>
<path d="M28.42 207.203C29.6467 207.203 30.6411 206.206 30.6411 204.977C30.6411 203.748 29.6467 202.751 28.42 202.751C27.1933 202.751 26.1989 203.748 26.1989 204.977C26.1989 206.206 27.1933 207.203 28.42 207.203Z" fill="#9999EF"/>
<path opacity="0.3" d="M55.6531 176.141C56.8798 176.141 57.8742 175.145 57.8742 173.916C57.8742 172.686 56.8798 171.69 55.6531 171.69C54.4264 171.69 53.4319 172.686 53.4319 173.916C53.4319 175.145 54.4264 176.141 55.6531 176.141Z" fill="#9999EF"/>
<path opacity="0.3" d="M290.129 157.175C291.995 157.175 293.509 155.659 293.509 153.788C293.509 151.918 291.995 150.402 290.129 150.402C288.262 150.402 286.749 151.918 286.749 153.788C286.749 155.659 288.262 157.175 290.129 157.175Z" fill="#9999EF"/>
<path opacity="0.3" d="M290.129 96.9872C291.995 96.9872 293.509 95.4709 293.509 93.6004C293.509 91.7299 291.995 90.2136 290.129 90.2136C288.262 90.2136 286.749 91.7299 286.749 93.6004C286.749 95.4709 288.262 96.9872 290.129 96.9872Z" fill="#9999EF"/>
<path opacity="0.3" d="M22.8188 241.167C24.6856 241.167 26.1988 239.651 26.1988 237.781C26.1988 235.91 24.6856 234.394 22.8188 234.394C20.9521 234.394 19.4388 235.91 19.4388 237.781C19.4388 239.651 20.9521 241.167 22.8188 241.167Z" fill="#9999EF"/>
<path opacity="0.3" d="M231.317 82.2791C232.543 82.2791 233.538 81.2826 233.538 80.0535C233.538 78.8243 232.543 77.8279 231.317 77.8279C230.09 77.8279 229.095 78.8243 229.095 80.0535C229.095 81.2826 230.09 82.2791 231.317 82.2791Z" fill="#9999EF"/>
<path opacity="0.2" d="M318.424 227.62C319.651 227.62 320.645 226.624 320.645 225.395C320.645 224.165 319.651 223.169 318.424 223.169C317.197 223.169 316.203 224.165 316.203 225.395C316.203 226.624 317.197 227.62 318.424 227.62Z" fill="#9999EF"/>
<path d="M20.7908 142.273C20.5977 142.273 20.4045 142.08 20.4045 141.886V138.79C20.4045 138.596 20.5977 138.403 20.7908 138.403C20.984 138.403 21.1771 138.596 21.1771 138.79V141.886C21.1771 142.08 20.984 142.273 20.7908 142.273Z" fill="#9999EF"/>
<path d="M22.2394 140.725H19.1491C18.956 140.725 18.7628 140.532 18.7628 140.338C18.7628 140.145 18.956 139.951 19.1491 139.951H22.2394C22.4325 139.951 22.6257 140.145 22.6257 140.338C22.6257 140.532 22.4325 140.725 22.2394 140.725Z" fill="#9999EF"/>
<path d="M41.6503 172.077C41.4571 172.077 41.264 171.883 41.264 171.69V168.593C41.264 168.4 41.4571 168.206 41.6503 168.206C41.8434 168.206 42.0366 168.4 42.0366 168.593V171.69C42.0366 171.787 41.8434 172.077 41.6503 172.077Z" fill="#6786F4"/>
<path d="M43.1954 170.432H40.1051C39.912 170.432 39.7188 170.238 39.7188 170.045C39.7188 169.851 39.912 169.658 40.1051 169.658H43.1954C43.3885 169.658 43.5817 169.851 43.5817 170.045C43.5817 170.335 43.3885 170.432 43.1954 170.432Z" fill="#6786F4"/>
<path d="M305.387 213.299C305.194 213.299 305.001 213.106 305.001 212.912V209.816C305.001 209.622 305.194 209.428 305.387 209.428C305.58 209.428 305.773 209.622 305.773 209.816V212.912C305.773 213.106 305.58 213.299 305.387 213.299Z" fill="#9999EF"/>
<path d="M306.835 211.848H303.745C303.552 211.848 303.359 211.654 303.359 211.461C303.359 211.267 303.552 211.073 303.745 211.073H306.835C307.029 211.073 307.222 211.267 307.222 211.461C307.222 211.654 307.029 211.848 306.835 211.848Z" fill="#9999EF"/>
<path d="M265.696 152.337C265.503 152.337 265.31 152.143 265.31 151.95V148.853C265.31 148.66 265.503 148.466 265.696 148.466C265.889 148.466 266.082 148.66 266.082 148.853V151.95C266.082 152.143 265.986 152.337 265.696 152.337Z" fill="#9999EF"/>
<path d="M267.241 150.885H264.151C263.958 150.885 263.765 150.692 263.765 150.498C263.765 150.305 263.958 150.111 264.151 150.111H267.241C267.434 150.111 267.627 150.305 267.627 150.498C267.627 150.692 267.434 150.885 267.241 150.885Z" fill="#9999EF"/>
<g opacity="0.7">
<g opacity="0.7">
<path opacity="0.7" d="M40.6845 72.6993L39.5257 73.3767C39.3325 73.4735 38.9463 73.4735 38.8497 73.2799C38.7531 73.0864 38.7531 72.6993 38.9463 72.6026L40.1051 71.8285C40.3948 71.7317 40.6845 71.7317 40.7811 71.9252C40.9743 72.2155 40.8777 72.6026 40.6845 72.6993Z" fill="#DDD6FF"/>
<path opacity="0.7" d="M37.8839 74.6347C37.2079 75.2153 36.4354 75.7959 35.856 76.3765C35.6628 76.5701 35.3731 76.5701 35.18 76.3765C34.9868 76.183 34.9868 75.8927 35.18 75.6992C35.856 75.1186 36.532 74.4412 37.3045 73.8606C37.4977 73.6671 37.8839 73.7639 37.9805 73.9574C38.0771 74.1509 38.0771 74.4412 37.8839 74.6347Z" fill="#DDD6FF"/>
<path opacity="0.7" d="M34.3108 77.8279C33.7314 78.5052 33.0554 79.1826 32.5725 79.8599C32.4759 80.0535 32.0897 80.0535 31.8965 79.9567C31.7034 79.8599 31.7034 79.4729 31.7999 79.2793C32.3794 78.5052 33.0554 77.8279 33.6348 77.1505C33.8279 76.957 34.1177 76.957 34.3108 77.1505C34.5039 77.2473 34.5039 77.6343 34.3108 77.8279Z" fill="#DDD6FF"/>
<path opacity="0.7" d="M31.3171 81.505C30.7377 82.2791 30.2548 83.0533 29.7719 83.7306C29.6754 83.9241 29.3857 84.0209 29.1925 83.8274C28.9994 83.7306 28.9028 83.4403 29.0959 83.2468C29.5788 82.4727 30.0617 81.6985 30.6411 80.9244C30.7377 80.7309 31.1239 80.6341 31.3171 80.8277C31.4137 80.9244 31.4137 81.3115 31.3171 81.505Z" fill="#DDD6FF"/>
<path opacity="0.7" d="M28.8063 85.569C28.42 86.3432 28.0337 87.2141 27.6474 87.9882C27.5508 88.1817 27.2611 88.3752 27.068 88.2785C26.8748 88.1817 26.6817 87.8914 26.7783 87.6979C27.1645 86.827 27.5508 85.9561 27.9371 85.0852C28.0337 84.8917 28.3234 84.6982 28.5165 84.8917C28.7097 85.0852 28.9028 85.3755 28.8063 85.569Z" fill="#DDD6FF"/>
<path opacity="0.7" d="M26.9713 90.0202C26.6816 90.8911 26.4885 91.762 26.3919 92.7297C26.2953 92.9232 26.1022 93.1167 25.9091 93.1167C25.7159 93.0199 25.5228 92.8264 25.5228 92.6329C25.6193 91.6652 25.9091 90.7943 26.1022 89.9235C26.1988 89.7299 26.4885 89.5364 26.6816 89.6332C26.9713 89.5364 27.0679 89.7299 26.9713 90.0202Z" fill="#DDD6FF"/>
<path opacity="0.7" d="M26.1988 94.665C26.1988 95.5359 26.1988 96.4068 26.2954 97.3744C26.392 97.5679 26.1988 97.7615 25.9091 97.8582C25.716 97.955 25.5228 97.7615 25.4262 97.4712C25.3297 96.5035 25.2331 95.5359 25.2331 94.5682C25.2331 94.3747 25.4262 94.1812 25.6194 94.1812C26.1022 94.1812 26.1988 94.3747 26.1988 94.665Z" fill="#DDD6FF"/>
<path opacity="0.7" d="M26.7783 99.2129C27.068 99.987 27.4543 100.858 27.8405 101.632C27.9371 101.826 27.9371 102.019 27.744 102.213C27.5508 102.309 27.3577 102.309 27.1645 102.116C26.6817 101.342 26.2954 100.374 25.9091 99.5032C25.8125 99.3097 26.0057 99.0194 26.1988 98.9226C26.4885 98.9226 26.7783 99.0194 26.7783 99.2129Z" fill="#DDD6FF"/>
<path opacity="0.7" d="M29.0959 103.277C29.6754 103.954 30.3514 104.535 31.0274 105.116C31.1239 105.212 31.2205 105.503 31.1239 105.696C31.0274 105.793 30.7376 105.89 30.5445 105.793C29.7719 105.212 29.0959 104.535 28.5165 103.858C28.4199 103.761 28.4199 103.471 28.6131 103.277C28.7096 103.083 28.9994 103.18 29.0959 103.277Z" fill="#DDD6FF"/>
<path opacity="0.7" d="M32.7657 106.277C33.5383 106.761 34.3108 107.148 35.18 107.535C35.3731 107.632 35.4697 107.825 35.3731 108.019C35.2765 108.212 35.0834 108.309 34.8903 108.212C34.0211 107.825 33.152 107.438 32.3794 106.954C32.1863 106.857 32.0897 106.567 32.2828 106.374C32.2828 106.277 32.5725 106.18 32.7657 106.277Z" fill="#DDD6FF"/>
<path opacity="0.7" d="M37.0148 108.309C37.884 108.599 38.7531 108.793 39.7188 108.986C39.912 109.083 40.1051 109.18 40.0085 109.373C39.912 109.567 39.8154 109.76 39.6222 109.664C38.6565 109.567 37.7874 109.276 36.9183 108.986C36.7251 108.889 36.6285 108.696 36.6285 108.502C36.6285 108.309 36.8217 108.309 37.0148 108.309Z" fill="#DDD6FF"/>
<path opacity="0.7" d="M41.6502 109.18C42.5194 109.276 43.4851 109.276 44.3542 109.18C44.5474 109.18 44.7405 109.276 44.7405 109.567C44.7405 109.857 44.6439 109.954 44.3542 109.954C43.3885 110.051 42.5194 110.051 41.5536 109.954C41.3605 109.954 41.1674 109.76 41.1674 109.567C41.3605 109.373 41.4571 109.18 41.6502 109.18Z" fill="#DDD6FF"/>
<path opacity="0.7" d="M46.3823 108.986C47.2514 108.889 48.1206 108.599 49.0863 108.309C49.1828 108.212 49.4726 108.406 49.4726 108.502C49.5691 108.599 49.376 108.889 49.2794 108.889C48.4103 109.18 47.5411 109.47 46.5754 109.567C46.3823 109.567 46.1891 109.47 46.1891 109.276C46.0926 109.18 46.1891 108.986 46.3823 108.986Z" fill="#DDD6FF"/>
<path opacity="0.7" d="M50.9211 107.631C51.6937 107.244 52.5628 106.857 53.2388 106.277C53.3354 106.18 53.6251 106.18 53.6251 106.373C53.7217 106.47 53.7217 106.761 53.5285 106.761C52.756 107.341 51.9834 107.825 51.1143 108.212C51.0177 108.309 50.728 108.212 50.728 108.115C50.728 107.825 50.8245 107.631 50.9211 107.631Z" fill="#DDD6FF"/>
<path opacity="0.7" d="M54.784 104.922C55.3634 104.245 55.8462 103.567 56.2325 102.696C56.3291 102.6 56.4257 102.503 56.6188 102.503C56.7154 102.6 56.812 102.696 56.812 102.89C56.4257 103.761 55.9428 104.632 55.2668 105.309C55.1702 105.406 54.9771 105.406 54.8805 105.309C54.6874 105.309 54.6874 105.019 54.784 104.922Z" fill="#DDD6FF"/>
<path opacity="0.7" d="M56.6188 100.761C56.6188 99.8904 56.5222 99.0195 56.2325 98.1487C56.136 98.0519 56.2325 97.8584 56.4257 97.7616C56.5222 97.6648 56.7154 97.7616 56.812 97.9551C57.1982 98.826 57.2948 99.7937 57.2948 100.761C57.2948 100.858 57.1982 101.052 57.0051 101.052C56.7154 101.148 56.6188 100.955 56.6188 100.761Z" fill="#DDD6FF"/>
<path opacity="0.7" d="M55.2668 96.4068C54.6874 95.7294 54.0114 95.1488 53.3354 94.665C53.2388 94.5683 53.1422 94.4715 53.2388 94.278C53.3354 94.1812 53.4319 94.0844 53.6251 94.1812C54.4942 94.5683 55.2668 95.2456 55.8462 96.0197C55.9428 96.1165 55.9428 96.31 55.7497 96.4068C55.4599 96.5036 55.3634 96.5036 55.2668 96.4068Z" fill="#DDD6FF"/>
<path opacity="0.7" d="M51.4039 93.9877C50.5348 93.7942 49.6656 93.7942 48.6999 93.7942C48.6034 93.7942 48.4102 93.6974 48.4102 93.6006C48.4102 93.5039 48.5068 93.3103 48.6034 93.3103C49.5691 93.2136 50.5348 93.3103 51.4039 93.4071C51.5005 93.4071 51.5971 93.5039 51.5971 93.6974C51.6937 93.9877 51.5005 94.0845 51.4039 93.9877Z" fill="#DDD6FF"/>
<path opacity="0.7" d="M46.6719 94.1812C45.8028 94.3748 44.9337 94.5683 44.0645 94.9554C43.9679 95.0521 43.7748 94.9554 43.7748 94.8586C43.6782 94.7618 43.7748 94.5683 43.8714 94.5683C44.7405 94.1812 45.6097 93.9877 46.5754 93.7942C46.6719 93.7942 46.8651 93.891 46.8651 93.9877C46.8651 93.891 46.8651 94.0845 46.6719 94.1812Z" fill="#DDD6FF"/>
<path opacity="0.7" d="M42.1331 95.6327C41.3605 96.0198 40.4914 96.4068 39.7188 96.9874C39.6222 97.0842 39.5257 97.0842 39.4291 96.8907C39.3325 96.7939 39.3325 96.6971 39.5257 96.6004C40.2982 96.1165 41.0708 95.6327 41.9399 95.2456C42.0365 95.1489 42.2297 95.2456 42.2297 95.3424C42.3262 95.4392 42.2297 95.5359 42.1331 95.6327Z" fill="#DDD6FF"/>
<path opacity="0.7" d="M38.0771 98.1486C37.3045 98.7292 36.6285 99.3098 36.0491 99.8904C35.9525 99.9872 35.856 99.9872 35.7594 99.8904C35.6628 99.7936 35.6628 99.6969 35.7594 99.6001C36.4354 98.9227 37.1114 98.3421 37.8839 97.7616C37.9805 97.6648 38.0771 97.6648 38.1737 97.8583C38.1737 97.9551 38.1737 98.0519 38.0771 98.1486Z" fill="#DDD6FF"/>
<path opacity="0.7" d="M34.6005 101.439C34.0211 102.116 33.4417 102.89 32.8622 103.664C32.7657 103.761 32.6691 103.761 32.5725 103.761C32.476 103.664 32.476 103.568 32.476 103.471C33.0554 102.697 33.5382 101.923 34.2142 101.245C34.3108 101.148 34.4074 101.148 34.5039 101.245C34.6005 101.245 34.6971 101.342 34.6005 101.439Z" fill="#DDD6FF"/>
<path opacity="0.7" d="M31.8965 105.406C31.5102 106.18 31.1239 107.051 30.7377 107.825C30.6411 107.922 30.6411 107.922 30.5445 107.922C30.4479 107.922 30.4479 107.825 30.4479 107.728C30.8342 106.858 31.2205 105.987 31.6068 105.212C31.7034 105.116 31.7034 105.116 31.8965 105.116C31.8965 105.212 31.8965 105.309 31.8965 105.406Z" fill="#DDD6FF"/>
<path opacity="0.7" d="M30.0616 109.857C29.7719 110.728 29.6754 111.599 29.4822 112.567C29.4822 112.663 29.3856 112.663 29.2891 112.663C29.1925 112.663 29.1925 112.567 29.1925 112.47C29.2891 111.502 29.4822 110.631 29.7719 109.76C29.7719 109.664 29.8685 109.664 29.9651 109.664C29.9651 109.664 30.0616 109.664 30.0616 109.857Z" fill="#DDD6FF"/>
<path opacity="0.7" d="M29.2891 114.599C29.2891 115.469 29.2891 116.437 29.3857 117.308C29.3857 117.405 29.2891 117.405 29.2891 117.405C29.1925 117.405 29.1925 117.308 29.1925 117.308C29.0959 116.34 29.0959 115.469 29.0959 114.502C29.0959 114.405 29.1925 114.405 29.1925 114.405C29.1925 114.405 29.2891 114.502 29.2891 114.599Z" fill="#DDD6FF"/>
<path opacity="0.7" d="M29.772 119.34C29.8685 120.211 30.1582 121.082 30.3514 122.05C30.3514 122.146 30.3514 122.146 30.2548 122.146C30.1582 122.146 30.1582 122.146 30.1582 122.05C29.8685 121.179 29.6754 120.308 29.4822 119.34C29.4822 119.243 29.4822 119.243 29.5788 119.243C29.5788 119.243 29.6754 119.243 29.772 119.34Z" fill="#DDD6FF"/>
<path opacity="0.7" d="M31.0274 123.985C31.4136 124.759 31.7999 125.63 32.2828 126.404C32.2828 126.501 32.2828 126.501 32.2828 126.501C32.1862 126.501 32.1862 126.501 32.1862 126.501C31.7034 125.727 31.2205 124.856 30.9308 124.082C30.9308 123.985 30.9308 123.985 31.0274 123.985C30.9308 123.888 31.0274 123.888 31.0274 123.985Z" fill="#DDD6FF"/>
<path opacity="0.7" d="M33.4416 128.049C34.0211 128.726 34.6971 129.404 35.3731 129.984C35.4696 129.984 35.4696 130.081 35.3731 130.081C35.3731 130.178 35.2765 130.178 35.2765 130.081C34.5039 129.501 33.8279 128.823 33.2485 128.146C33.1519 128.049 33.2485 128.049 33.2485 128.049C33.4416 128.049 33.4416 128.049 33.4416 128.049Z" fill="#DDD6FF"/>
<path opacity="0.7" d="M37.2079 131.146C37.9805 131.629 38.8496 132.016 39.6222 132.403C39.7188 132.403 39.7188 132.5 39.7188 132.5C39.7188 132.597 39.6222 132.597 39.6222 132.597C38.7531 132.21 37.8839 131.823 37.1113 131.339C37.0148 131.242 37.0148 131.242 37.2079 131.146C37.2079 131.049 37.1113 131.146 37.2079 131.146Z" fill="#DDD6FF"/>
<path opacity="0.7" d="M41.5537 133.081C42.4228 133.371 43.2919 133.565 44.2577 133.661L44.3542 133.758L44.2577 133.855C43.3885 133.758 42.4228 133.468 41.5537 133.274C41.4571 133.274 41.4571 133.178 41.4571 133.178L41.5537 133.081Z" fill="#DDD6FF"/>
<path opacity="0.7" d="M46.2857 134.048C47.1548 134.145 48.1205 134.242 48.9897 134.242C48.9897 134.242 49.0863 134.242 49.0863 134.339C49.0863 134.339 49.0863 134.435 48.9897 134.435C48.024 134.435 47.1548 134.339 46.2857 134.242C46.1891 134.145 46.1891 134.048 46.2857 134.048C46.1891 134.048 46.2857 134.048 46.2857 134.048Z" fill="#DDD6FF"/>
<path opacity="0.7" d="M51.1142 134.242C52.08 134.242 52.9491 134.145 53.8182 134.145C52.9491 134.145 51.9834 134.242 51.1142 134.242C51.0177 134.339 51.0177 134.242 51.1142 134.242C51.0177 134.242 51.0177 134.242 51.1142 134.242Z" fill="#DDD6FF"/>
<path opacity="0.7" d="M55.9428 133.952L58.6468 133.565L55.9428 133.952C55.9428 134.049 55.9428 133.952 55.9428 133.952Z" fill="#DDD6FF"/>
<path opacity="0.7" d="M60.7714 133.178L62.0268 132.791L60.7714 133.178Z" fill="#DDD6FF"/>
</g>
</g>
<path d="M47.5411 53.1528C47.6376 53.0561 39.5256 57.9911 39.5256 57.9911L41.5536 71.5382L45.5131 61.3779L55.9428 59.4426L70.8148 45.4116L47.5411 53.1528Z" fill="#DDD6FF"/>
<path d="M70.8148 45.4116L41.5536 71.5382L45.5131 61.3779L70.8148 45.4116Z" fill="#C9C2FF"/>
<path d="M70.8148 45.4116L32.1862 53.5399L39.5256 57.9911L70.8148 45.4116L45.5131 61.3779L58.0674 69.1191L70.8148 45.4116Z" fill="#F2F0FF"/>
<path d="M312.823 48.2178C312.823 55.959 302.683 62.3455 290.032 62.3455C286.748 62.3455 283.658 61.9584 280.858 61.0876C280.085 60.894 273.808 62.3455 273.808 62.3455C273.808 62.3455 276.512 59.5393 275.546 59.1523C270.525 56.5396 267.338 52.5722 267.338 48.2178C267.338 40.4766 277.478 34.0901 290.129 34.0901C302.586 34.0901 312.823 40.4766 312.823 48.2178Z" fill="#CDE0FE"/>
<path d="M281.534 50.4434C282.6 50.4434 283.465 49.5769 283.465 48.5081C283.465 47.4392 282.6 46.5728 281.534 46.5728C280.467 46.5728 279.602 47.4392 279.602 48.5081C279.602 49.5769 280.467 50.4434 281.534 50.4434Z" fill="white"/>
<path d="M290.322 50.4434C291.388 50.4434 292.253 49.5769 292.253 48.5081C292.253 47.4392 291.388 46.5728 290.322 46.5728C289.255 46.5728 288.39 47.4392 288.39 48.5081C288.39 49.5769 289.255 50.4434 290.322 50.4434Z" fill="white"/>
<path d="M299.11 50.4434C300.176 50.4434 301.041 49.5769 301.041 48.5081C301.041 47.4392 300.176 46.5728 299.11 46.5728C298.043 46.5728 297.178 47.4392 297.178 48.5081C297.178 49.5769 298.043 50.4434 299.11 50.4434Z" fill="white"/>
<path d="M240.394 329.708H109.637C100.462 329.708 93.0262 322.257 93.0262 313.064V17.4466C93.0262 8.25389 100.462 0.802979 109.637 0.802979H240.394C249.569 0.802979 257.005 8.25389 257.005 17.4466V313.064C257.005 322.353 249.472 329.708 240.394 329.708Z" fill="#527FEF"/>
<path d="M174.822 324.966C180.102 324.966 184.383 320.677 184.383 315.386C184.383 310.096 180.102 305.807 174.822 305.807C169.542 305.807 165.262 310.096 165.262 315.386C165.262 320.677 169.542 324.966 174.822 324.966Z" fill="white"/>
<path d="M251.693 26.4456V283.454C251.693 294.001 242.712 302.517 231.606 302.517H118.424C107.319 302.517 98.3376 294.001 98.3376 283.454V26.4456C98.3376 15.8982 107.319 7.28613 118.424 7.28613H133.2V8.83437C133.2 15.4144 138.898 20.8333 145.851 20.8333H204.663C211.616 20.8333 217.314 15.4144 217.314 8.83437V7.28613H231.51C242.615 7.28613 251.693 15.8015 251.693 26.4456Z" fill="url(#paint1_linear)"/>
<g opacity="0.32">
<g opacity="0.32">
<path opacity="0.32" d="M98.5308 16.6724C96.9857 16.6724 95.5371 17.4465 94.6679 18.7044C93.8954 17.4465 92.4468 16.6724 90.8051 16.6724C88.2942 16.6724 86.2662 18.7044 86.2662 21.2203C86.2662 26.4456 94.6679 31.7677 94.6679 31.7677C94.6679 31.7677 103.07 26.5424 103.07 21.2203C103.07 18.8012 101.042 16.6724 98.5308 16.6724Z" fill="url(#paint2_linear)" fill-opacity="0.2"/>
<path opacity="0.32" d="M122.191 16.6724C120.646 16.6724 119.197 17.4465 118.328 18.7044C117.555 17.4465 116.107 16.6724 114.465 16.6724C111.954 16.6724 109.926 18.7044 109.926 21.2203C109.926 26.4456 118.328 31.7677 118.328 31.7677C118.328 31.7677 126.73 26.5424 126.73 21.2203C126.73 18.8012 124.702 16.6724 122.191 16.6724Z" fill="url(#paint3_linear)" fill-opacity="0.2"/>
<path opacity="0.32" d="M145.947 16.6724C144.402 16.6724 142.954 17.4465 142.085 18.7044C141.312 17.4465 139.863 16.6724 138.222 16.6724C135.711 16.6724 133.683 18.7044 133.683 21.2203C133.683 26.4456 142.085 31.7677 142.085 31.7677C142.085 31.7677 150.486 26.5424 150.486 21.2203C150.486 18.8012 148.458 16.6724 145.947 16.6724Z" fill="url(#paint4_linear)" fill-opacity="0.2"/>
<path opacity="0.32" d="M169.607 16.6724C168.062 16.6724 166.614 17.4465 165.745 18.7044C164.972 17.4465 163.523 16.6724 161.882 16.6724C159.371 16.6724 157.343 18.7044 157.343 21.2203C157.343 26.4456 165.745 31.7677 165.745 31.7677C165.745 31.7677 174.146 26.5424 174.146 21.2203C174.146 18.8012 172.118 16.6724 169.607 16.6724Z" fill="url(#paint5_linear)" fill-opacity="0.2"/>
<path opacity="0.32" d="M193.364 16.6724C191.819 16.6724 190.37 17.4465 189.501 18.7044C188.729 17.4465 187.28 16.6724 185.638 16.6724C183.127 16.6724 181.099 18.7044 181.099 21.2203C181.099 26.4456 189.501 31.7677 189.501 31.7677C189.501 31.7677 197.903 26.5424 197.903 21.2203C197.999 18.8012 195.875 16.6724 193.364 16.6724Z" fill="url(#paint6_linear)" fill-opacity="0.2"/>
<path opacity="0.32" d="M217.024 16.6724C215.479 16.6724 214.03 17.4465 213.161 18.7044C212.389 17.4465 210.94 16.6724 209.298 16.6724C206.787 16.6724 204.759 18.7044 204.759 21.2203C204.759 26.4456 213.161 31.7677 213.161 31.7677C213.161 31.7677 221.563 26.5424 221.563 21.2203C221.659 18.8012 219.535 16.6724 217.024 16.6724Z" fill="url(#paint7_linear)" fill-opacity="0.2"/>
</g>
<g opacity="0.32">
<path opacity="0.32" d="M98.5308 38.9282C96.9857 38.9282 95.5371 39.7023 94.6679 40.9603C93.8954 39.7023 92.4468 38.9282 90.8051 38.9282C88.2942 38.9282 86.2662 40.9603 86.2662 43.4762C86.2662 48.7015 94.6679 54.0236 94.6679 54.0236C94.6679 54.0236 103.07 48.7983 103.07 43.4762C103.07 40.9603 101.042 38.9282 98.5308 38.9282Z" fill="url(#paint8_linear)" fill-opacity="0.2"/>
<path opacity="0.32" d="M122.191 38.9282C120.646 38.9282 119.197 39.7023 118.328 40.9603C117.555 39.7023 116.107 38.9282 114.465 38.9282C111.954 38.9282 109.926 40.9603 109.926 43.4762C109.926 48.7015 118.328 54.0236 118.328 54.0236C118.328 54.0236 126.73 48.7983 126.73 43.4762C126.73 40.9603 124.702 38.9282 122.191 38.9282Z" fill="url(#paint9_linear)" fill-opacity="0.2"/>
<path opacity="0.32" d="M145.947 38.9282C144.402 38.9282 142.954 39.7023 142.085 40.9603C141.312 39.7023 139.863 38.9282 138.222 38.9282C135.711 38.9282 133.683 40.9603 133.683 43.4762C133.683 48.7015 142.085 54.0236 142.085 54.0236C142.085 54.0236 150.486 48.7983 150.486 43.4762C150.486 40.9603 148.458 38.9282 145.947 38.9282Z" fill="url(#paint10_linear)" fill-opacity="0.2"/>
<path opacity="0.32" d="M169.607 38.9282C168.062 38.9282 166.614 39.7023 165.745 40.9603C164.972 39.7023 163.523 38.9282 161.882 38.9282C159.371 38.9282 157.343 40.9603 157.343 43.4762C157.343 48.7015 165.745 54.0236 165.745 54.0236C165.745 54.0236 174.146 48.7983 174.146 43.4762C174.146 40.9603 172.118 38.9282 169.607 38.9282Z" fill="url(#paint11_linear)" fill-opacity="0.2"/>
<path opacity="0.32" d="M193.364 38.9282C191.819 38.9282 190.37 39.7023 189.501 40.9603C188.729 39.7023 187.28 38.9282 185.638 38.9282C183.127 38.9282 181.099 40.9603 181.099 43.4762C181.099 48.7015 189.501 54.0236 189.501 54.0236C189.501 54.0236 197.903 48.7983 197.903 43.4762C197.999 40.9603 195.875 38.9282 193.364 38.9282Z" fill="url(#paint12_linear)" fill-opacity="0.2"/>
<path opacity="0.32" d="M217.024 38.9282C215.479 38.9282 214.03 39.7023 213.161 40.9603C212.389 39.7023 210.94 38.9282 209.298 38.9282C206.787 38.9282 204.759 40.9603 204.759 43.4762C204.759 48.7015 213.161 54.0236 213.161 54.0236C213.161 54.0236 221.563 48.7983 221.563 43.4762C221.659 40.9603 219.535 38.9282 217.024 38.9282Z" fill="url(#paint13_linear)" fill-opacity="0.2"/>
</g>
<g opacity="0.32">
<path opacity="0.32" d="M98.5308 61.0876C96.9857 61.0876 95.5371 61.8618 94.6679 63.1197C93.8954 61.8618 92.4468 61.0876 90.8051 61.0876C88.2942 61.0876 86.2662 63.1197 86.2662 65.6356C86.2662 70.8609 94.6679 76.183 94.6679 76.183C94.6679 76.183 103.07 70.9577 103.07 65.6356C103.07 63.1197 101.042 61.0876 98.5308 61.0876Z" fill="url(#paint14_linear)" fill-opacity="0.2"/>
<path opacity="0.32" d="M122.191 61.0876C120.646 61.0876 119.197 61.8618 118.328 63.1197C117.555 61.8618 116.107 61.0876 114.465 61.0876C111.954 61.0876 109.926 63.1197 109.926 65.6356C109.926 70.8609 118.328 76.183 118.328 76.183C118.328 76.183 126.73 70.9577 126.73 65.6356C126.73 63.1197 124.702 61.0876 122.191 61.0876Z" fill="url(#paint15_linear)" fill-opacity="0.2"/>
<path opacity="0.32" d="M145.947 61.0876C144.402 61.0876 142.954 61.8618 142.085 63.1197C141.312 61.8618 139.863 61.0876 138.222 61.0876C135.711 61.0876 133.683 63.1197 133.683 65.6356C133.683 70.8609 142.085 76.183 142.085 76.183C142.085 76.183 150.486 70.9577 150.486 65.6356C150.486 63.1197 148.458 61.0876 145.947 61.0876Z" fill="url(#paint16_linear)" fill-opacity="0.2"/>
<path opacity="0.32" d="M169.607 61.0876C168.062 61.0876 166.614 61.8618 165.745 63.1197C164.972 61.8618 163.523 61.0876 161.882 61.0876C159.371 61.0876 157.343 63.1197 157.343 65.6356C157.343 70.8609 165.745 76.183 165.745 76.183C165.745 76.183 174.146 70.9577 174.146 65.6356C174.146 63.1197 172.118 61.0876 169.607 61.0876Z" fill="url(#paint17_linear)" fill-opacity="0.2"/>
<path opacity="0.32" d="M193.364 61.0876C191.819 61.0876 190.37 61.8618 189.501 63.1197C188.729 61.8618 187.28 61.0876 185.638 61.0876C183.127 61.0876 181.099 63.1197 181.099 65.6356C181.099 70.8609 189.501 76.183 189.501 76.183C189.501 76.183 197.903 70.9577 197.903 65.6356C197.999 63.1197 195.875 61.0876 193.364 61.0876Z" fill="url(#paint18_linear)" fill-opacity="0.2"/>
<path opacity="0.32" d="M217.024 61.0876C215.479 61.0876 214.03 61.8618 213.161 63.1197C212.389 61.8618 210.94 61.0876 209.298 61.0876C206.787 61.0876 204.759 63.1197 204.759 65.6356C204.759 70.8609 213.161 76.183 213.161 76.183C213.161 76.183 221.563 70.9577 221.563 65.6356C221.659 63.1197 219.535 61.0876 217.024 61.0876Z" fill="url(#paint19_linear)" fill-opacity="0.2"/>
</g>
<g opacity="0.32">
<path opacity="0.32" d="M98.5308 83.2468C96.9857 83.2468 95.5371 84.0209 94.6679 85.2789C93.8954 84.0209 92.4468 83.2468 90.8051 83.2468C88.2942 83.2468 86.2662 85.2789 86.2662 87.7948C86.2662 93.0201 94.6679 98.3422 94.6679 98.3422C94.6679 98.3422 103.07 93.1169 103.07 87.7948C103.07 85.3757 101.042 83.2468 98.5308 83.2468Z" fill="url(#paint20_linear)" fill-opacity="0.2"/>
<path opacity="0.32" d="M122.191 83.2468C120.646 83.2468 119.197 84.0209 118.328 85.2789C117.555 84.0209 116.107 83.2468 114.465 83.2468C111.954 83.2468 109.926 85.2789 109.926 87.7948C109.926 93.0201 118.328 98.3422 118.328 98.3422C118.328 98.3422 126.73 93.1169 126.73 87.7948C126.73 85.3757 124.702 83.2468 122.191 83.2468Z" fill="url(#paint21_linear)" fill-opacity="0.2"/>
<path opacity="0.32" d="M145.947 83.2468C144.402 83.2468 142.954 84.0209 142.085 85.2789C141.312 84.0209 139.863 83.2468 138.222 83.2468C135.711 83.2468 133.683 85.2789 133.683 87.7948C133.683 93.0201 142.085 98.3422 142.085 98.3422C142.085 98.3422 150.486 93.1169 150.486 87.7948C150.486 85.3757 148.458 83.2468 145.947 83.2468Z" fill="url(#paint22_linear)" fill-opacity="0.2"/>
<path opacity="0.32" d="M169.607 83.2468C168.062 83.2468 166.614 84.0209 165.745 85.2789C164.972 84.0209 163.523 83.2468 161.882 83.2468C159.371 83.2468 157.343 85.2789 157.343 87.7948C157.343 93.0201 165.745 98.3422 165.745 98.3422C165.745 98.3422 174.146 93.1169 174.146 87.7948C174.146 85.3757 172.118 83.2468 169.607 83.2468Z" fill="url(#paint23_linear)" fill-opacity="0.2"/>
<path opacity="0.32" d="M193.364 83.2468C191.819 83.2468 190.37 84.0209 189.501 85.2789C188.729 84.0209 187.28 83.2468 185.638 83.2468C183.127 83.2468 181.099 85.2789 181.099 87.7948C181.099 93.0201 189.501 98.3422 189.501 98.3422C189.501 98.3422 197.903 93.1169 197.903 87.7948C197.999 85.3757 195.875 83.2468 193.364 83.2468Z" fill="url(#paint24_linear)" fill-opacity="0.2"/>
<path opacity="0.32" d="M217.024 83.2468C215.479 83.2468 214.03 84.0209 213.161 85.2789C212.389 84.0209 210.94 83.2468 209.298 83.2468C206.787 83.2468 204.759 85.2789 204.759 87.7948C204.759 93.0201 213.161 98.3422 213.161 98.3422C213.161 98.3422 221.563 93.1169 221.563 87.7948C221.659 85.3757 219.535 83.2468 217.024 83.2468Z" fill="url(#paint25_linear)" fill-opacity="0.2"/>
</g>
<g opacity="0.32">
<path opacity="0.32" d="M98.5308 105.503C96.9857 105.503 95.5371 106.277 94.6679 107.535C93.8954 106.277 92.4468 105.503 90.8051 105.503C88.2942 105.503 86.2662 107.535 86.2662 110.051C86.2662 115.276 94.6679 120.598 94.6679 120.598C94.6679 120.598 103.07 115.373 103.07 110.051C103.07 107.535 101.042 105.503 98.5308 105.503Z" fill="url(#paint26_linear)" fill-opacity="0.2"/>
<path opacity="0.32" d="M122.191 105.503C120.646 105.503 119.197 106.277 118.328 107.535C117.555 106.277 116.107 105.503 114.465 105.503C111.954 105.503 109.926 107.535 109.926 110.051C109.926 115.276 118.328 120.598 118.328 120.598C118.328 120.598 126.73 115.373 126.73 110.051C126.73 107.535 124.702 105.503 122.191 105.503Z" fill="url(#paint27_linear)" fill-opacity="0.2"/>
<path opacity="0.32" d="M145.947 105.503C144.402 105.503 142.954 106.277 142.085 107.535C141.312 106.277 139.863 105.503 138.222 105.503C135.711 105.503 133.683 107.535 133.683 110.051C133.683 115.276 142.085 120.598 142.085 120.598C142.085 120.598 150.486 115.373 150.486 110.051C150.486 107.535 148.458 105.503 145.947 105.503Z" fill="url(#paint28_linear)" fill-opacity="0.2"/>
<path opacity="0.32" d="M169.607 105.503C168.062 105.503 166.614 106.277 165.745 107.535C164.972 106.277 163.523 105.503 161.882 105.503C159.371 105.503 157.343 107.535 157.343 110.051C157.343 115.276 165.745 120.598 165.745 120.598C165.745 120.598 174.146 115.373 174.146 110.051C174.146 107.535 172.118 105.503 169.607 105.503Z" fill="url(#paint29_linear)" fill-opacity="0.2"/>
<path opacity="0.32" d="M193.364 105.503C191.819 105.503 190.37 106.277 189.501 107.535C188.729 106.277 187.28 105.503 185.638 105.503C183.127 105.503 181.099 107.535 181.099 110.051C181.099 115.276 189.501 120.598 189.501 120.598C189.501 120.598 197.903 115.373 197.903 110.051C197.999 107.535 195.875 105.503 193.364 105.503Z" fill="url(#paint30_linear)" fill-opacity="0.2"/>
<path opacity="0.32" d="M217.024 105.503C215.479 105.503 214.03 106.277 213.161 107.535C212.389 106.277 210.94 105.503 209.298 105.503C206.787 105.503 204.759 107.535 204.759 110.051C204.759 115.276 213.161 120.598 213.161 120.598C213.161 120.598 221.563 115.373 221.563 110.051C221.659 107.535 219.535 105.503 217.024 105.503Z" fill="url(#paint31_linear)" fill-opacity="0.2"/>
<path opacity="0.32" d="M240.201 16.6724C238.656 16.6724 237.207 17.4465 236.338 18.7044C235.566 17.4465 234.117 16.6724 232.475 16.6724C229.965 16.6724 227.937 18.7044 227.937 21.2203C227.937 26.4456 236.338 31.7677 236.338 31.7677C236.338 31.7677 244.74 26.5424 244.74 21.2203C244.74 18.8012 242.712 16.6724 240.201 16.6724Z" fill="url(#paint32_linear)" fill-opacity="0.2"/>
<path opacity="0.32" d="M240.201 38.9282C238.656 38.9282 237.207 39.7023 236.338 40.9603C235.566 39.7023 234.117 38.9282 232.475 38.9282C229.965 38.9282 227.937 40.9603 227.937 43.4762C227.937 48.7015 236.338 54.0236 236.338 54.0236C236.338 54.0236 244.74 48.7983 244.74 43.4762C244.74 40.9603 242.712 38.9282 240.201 38.9282Z" fill="url(#paint33_linear)" fill-opacity="0.2"/>
<path opacity="0.32" d="M240.201 61.0876C238.656 61.0876 237.207 61.8618 236.338 63.1197C235.566 61.8618 234.117 61.0876 232.475 61.0876C229.965 61.0876 227.937 63.1197 227.937 65.6356C227.937 70.8609 236.338 76.183 236.338 76.183C236.338 76.183 244.74 70.9577 244.74 65.6356C244.74 63.1197 242.712 61.0876 240.201 61.0876Z" fill="url(#paint34_linear)" fill-opacity="0.2"/>
<path opacity="0.32" d="M240.201 83.2468C238.656 83.2468 237.207 84.0209 236.338 85.2789C235.566 84.0209 234.117 83.2468 232.475 83.2468C229.965 83.2468 227.937 85.2789 227.937 87.7948C227.937 93.0201 236.338 98.3422 236.338 98.3422C236.338 98.3422 244.74 93.1169 244.74 87.7948C244.74 85.3757 242.712 83.2468 240.201 83.2468Z" fill="url(#paint35_linear)" fill-opacity="0.2"/>
<path opacity="0.32" d="M240.201 105.503C238.656 105.503 237.207 106.277 236.338 107.535C235.566 106.277 234.117 105.503 232.475 105.503C229.965 105.503 227.937 107.535 227.937 110.051C227.937 115.276 236.338 120.598 236.338 120.598C236.338 120.598 244.74 115.373 244.74 110.051C244.74 107.535 242.712 105.503 240.201 105.503Z" fill="url(#paint36_linear)" fill-opacity="0.2"/>
<path opacity="0.32" d="M263.378 16.6724C261.833 16.6724 260.384 17.4465 259.515 18.7044C258.743 17.4465 257.294 16.6724 255.652 16.6724C253.142 16.6724 251.114 18.7044 251.114 21.2203C251.114 26.4456 259.515 31.7677 259.515 31.7677C259.515 31.7677 267.917 26.5424 267.917 21.2203C267.917 18.8012 265.889 16.6724 263.378 16.6724Z" fill="url(#paint37_linear)" fill-opacity="0.2"/>
<path opacity="0.32" d="M263.378 38.9282C261.833 38.9282 260.384 39.7023 259.515 40.9603C258.743 39.7023 257.294 38.9282 255.652 38.9282C253.142 38.9282 251.114 40.9603 251.114 43.4762C251.114 48.7015 259.515 54.0236 259.515 54.0236C259.515 54.0236 267.917 48.7983 267.917 43.4762C267.917 40.9603 265.889 38.9282 263.378 38.9282Z" fill="url(#paint38_linear)" fill-opacity="0.2"/>
<path opacity="0.32" d="M263.378 61.0876C261.833 61.0876 260.384 61.8618 259.515 63.1197C258.743 61.8618 257.294 61.0876 255.652 61.0876C253.142 61.0876 251.114 63.1197 251.114 65.6356C251.114 70.8609 259.515 76.183 259.515 76.183C259.515 76.183 267.917 70.9577 267.917 65.6356C267.917 63.1197 265.889 61.0876 263.378 61.0876Z" fill="url(#paint39_linear)" fill-opacity="0.2"/>
<path opacity="0.32" d="M263.378 83.2468C261.833 83.2468 260.384 84.0209 259.515 85.2789C258.743 84.0209 257.294 83.2468 255.652 83.2468C253.142 83.2468 251.114 85.2789 251.114 87.7948C251.114 93.0201 259.515 98.3422 259.515 98.3422C259.515 98.3422 267.917 93.1169 267.917 87.7948C267.917 85.3757 265.889 83.2468 263.378 83.2468Z" fill="url(#paint40_linear)" fill-opacity="0.2"/>
<path opacity="0.32" d="M263.378 105.503C261.833 105.503 260.384 106.277 259.515 107.535C258.743 106.277 257.294 105.503 255.652 105.503C253.142 105.503 251.114 107.535 251.114 110.051C251.114 115.276 259.515 120.598 259.515 120.598C259.515 120.598 267.917 115.373 267.917 110.051C267.917 107.535 265.889 105.503 263.378 105.503Z" fill="url(#paint41_linear)" fill-opacity="0.2"/>
</g>
</g>
<path d="M217.217 4.67358V8.83448C217.217 15.8016 211.519 21.5107 204.566 21.5107H145.851C138.898 21.5107 133.2 15.8016 133.2 8.83448V4.67358C133.2 4.67358 217.217 4.67358 217.217 4.67358Z" fill="url(#paint42_linear)" fill-opacity="0.2"/>
<path d="M235.855 298.356H113.886C105.194 298.356 98.2411 291.292 98.2411 282.68V132.307C98.2411 127.469 102.201 123.501 107.029 123.501H242.615C247.444 123.501 251.403 127.469 251.403 132.307V282.68C251.5 291.292 244.547 298.356 235.855 298.356Z" fill="#FBFFFD"/>
<path d="M240.491 170.626H147.782V171.98H240.491V170.626Z" fill="#38173E"/>
<path d="M240.491 159.304H147.782V160.659H240.491V159.304Z" fill="#38173E"/>
<path d="M217.603 164.53H148.555C148.072 164.53 147.782 164.917 147.782 165.304C147.782 165.787 148.169 166.078 148.555 166.078H217.603C218.086 166.078 218.376 165.691 218.376 165.304C218.376 164.917 218.086 164.53 217.603 164.53Z" fill="#38173E"/>
<path d="M217.603 153.498H148.555C148.072 153.498 147.782 153.885 147.782 154.272C147.782 154.756 148.169 155.047 148.555 155.047H217.603C218.086 155.047 218.376 154.659 218.376 154.272C218.376 153.885 218.086 153.498 217.603 153.498Z" fill="#38173E"/>
<path d="M122.384 178.173C132.411 178.173 140.539 170.029 140.539 159.982C140.539 149.935 132.411 141.79 122.384 141.79C112.357 141.79 104.229 149.935 104.229 159.982C104.229 170.029 112.357 178.173 122.384 178.173Z" fill="#B6C5FF"/>
<path d="M133.683 164.723C133.393 164.143 133.103 163.659 132.91 163.078C131.848 160.466 131.365 157.756 131.075 155.047C130.979 154.66 130.882 152.434 130.689 152.337L117.555 147.789C117.169 147.886 116.59 149.338 116.397 149.628C116.01 150.402 115.624 151.176 115.334 151.853C114.755 153.402 114.272 154.95 113.982 156.595C113.499 159.014 113.21 161.53 112.92 163.949C112.727 166.175 112.534 168.303 111.375 170.336C110.795 171.497 109.637 172.561 109.347 173.916C111.085 173.819 112.244 172.948 113.499 171.787C113.403 173.142 113.886 174.884 114.175 176.141C114.755 178.464 115.721 180.593 116.879 182.528C117.942 184.173 119.004 185.431 120.356 186.592C120.935 187.076 121.418 187.56 121.998 187.85C122.577 188.237 122.674 188.14 123.253 187.85C125.281 186.689 127.502 185.237 129.047 183.302C130.882 181.076 131.945 178.561 133.103 175.754C133.49 174.593 134.069 173.142 133.973 171.69C133.973 170.723 133.393 169.755 133.393 168.787C134.359 169.368 135.035 169.948 135.614 171.11C135.421 170.723 135.614 169.658 135.614 169.174C135.421 167.626 134.455 166.271 133.683 164.723Z" fill="#38173E"/>
<path d="M130.013 179.915L130.593 183.979L132.138 196.172H136.001L134.842 183.979L134.166 178.464L133.779 175.077C133.683 173.529 132.717 172.077 131.365 171.206L130.399 170.626L129.82 178.367L130.013 179.915Z" fill="#FFC78D"/>
<path d="M148.072 244.167L144.595 245.329L135.035 211.461L134.262 208.655C134.262 208.655 133.683 209.042 132.717 209.719C132.041 210.106 131.172 210.687 130.303 211.267C128.758 212.332 127.019 213.396 126.054 214.17C125.474 214.654 124.991 214.944 124.991 215.138L123.929 209.913L121.611 198.107V197.817H134.069C138.029 197.817 141.409 200.72 142.085 204.687L148.072 244.167Z" fill="#FFAEAB"/>
<path d="M130.399 204.3C133.49 204.397 135.324 207.203 135.035 210.396L131.944 254.715H128.564L125.667 210.106C125.378 206.816 127.212 204.107 130.399 204.3Z" fill="#FFAEAB"/>
<path d="M147.879 256.166C146.527 253.747 144.692 250.457 144.499 244.748C145.175 247.264 145.947 249.489 146.72 251.231C147.782 253.457 150.872 252.005 150.196 249.489C149.424 246.393 147.492 242.909 147.492 242.909C150.679 247.457 151.742 249.683 151.935 254.618C152.031 257.521 149.134 258.489 147.879 256.166Z" fill="#38173E"/>
<path d="M146.623 251.231C145.851 249.49 145.078 247.264 144.402 244.748L147.396 243.006C147.396 243.006 149.231 246.393 150.1 249.586C150.776 252.006 147.589 253.457 146.623 251.231Z" fill="#FFAEAB"/>
<path d="M128.564 254.425C128.564 254.425 130.303 265.746 133.586 263.23C133.779 264.101 133.972 264.875 134.455 265.456C135.904 267.198 131.172 267.875 129.434 267.101C127.695 266.327 128.661 260.23 128.661 260.23C128.661 260.23 126.15 256.65 128.564 254.425Z" fill="#38173E"/>
<path d="M133.49 263.23C130.206 265.649 128.468 254.425 128.468 254.425H131.655C131.848 255.005 132.041 255.586 132.234 256.166C132.331 256.36 132.331 256.553 132.331 256.747C132.427 257.134 132.427 257.424 132.524 257.811C133.103 259.456 133.296 261.295 133.49 263.23Z" fill="#FFAEAB"/>
<path d="M133.297 206.332C133.297 207.493 133.103 208.655 132.62 209.719C132.234 210.687 131.655 211.558 130.979 212.332C129.723 213.686 127.985 214.751 125.957 215.041C125.571 215.138 125.184 215.138 124.798 215.138C122.094 215.525 119.776 215.525 117.845 215.525C108.284 215.331 108.767 211.267 108.767 211.267C107.512 204.3 112.727 198.01 112.727 198.01H132.234V198.107L133.103 205.171C133.103 205.268 133.103 205.268 133.103 205.268C133.296 205.655 133.297 205.945 133.297 206.332Z" fill="#FFAEAB"/>
<path d="M133.876 197.914C133.393 197.914 132.91 198.01 132.331 198.107C129.434 198.688 125.764 201.01 124.895 208.364C124.702 210.3 124.605 212.525 124.798 215.138C122.094 215.525 119.776 215.525 117.845 215.525C108.284 215.331 108.767 211.267 108.767 211.267C107.512 204.3 112.727 198.01 112.727 198.01H121.418V197.914H133.876Z" fill="#FFC78D"/>
<path d="M124.895 215.138C122.191 215.525 119.873 215.525 117.942 215.525C118.038 215.428 118.038 215.428 118.231 215.428C119.873 214.848 122.094 212.235 123.929 209.913C124.315 209.332 124.702 208.848 124.991 208.364C124.702 210.3 124.605 212.525 124.895 215.138Z" fill="#38173E"/>
<path d="M130.882 176.916C133.007 179.722 131.655 183.496 129.53 184.85C129.53 184.85 129.337 186.108 129.144 187.657C128.758 190.172 128.758 192.688 129.047 195.204L129.434 198.591L113.403 198.494L111.471 176.238L113.596 168.11L116.3 167.82C116.879 167.723 118.038 167.723 119.004 167.723C119.583 167.723 120.066 167.723 120.356 167.82L125.474 168.4C125.571 168.304 131.848 171.4 131.848 171.594L130.882 176.916Z" fill="#E89C01"/>
<path d="M109.733 197.139L127.889 192.785L127.599 189.592L111.858 191.527L113.21 182.334C113.306 181.947 113.306 181.56 113.306 181.076C113.596 179.141 113.693 177.302 113.693 175.367C113.789 172.948 113.693 170.335 113.403 167.916L112.051 168.303C109.347 169.077 107.512 171.497 107.415 174.303L107.319 175.367L106.932 181.076L106.063 194.14C106.16 196.172 107.898 197.623 109.733 197.139Z" fill="#FFC78D"/>
<path d="M119.101 167.529C119.873 167.529 120.453 166.949 120.453 166.175C120.453 165.788 120.453 165.401 120.453 165.11V164.626L120.549 162.691L125.764 164.046L125.571 167.142V167.239C125.571 167.82 125.861 168.304 126.343 168.497C126.73 168.594 127.019 168.884 127.406 169.078C127.116 171.11 125.378 172.755 123.253 172.755C120.935 172.755 119.004 170.916 119.004 168.594C118.907 168.207 119.004 167.916 119.101 167.529Z" fill="#FFAEAB"/>
<path d="M125.667 164.046L125.474 167.142C125.378 167.142 125.378 167.142 125.378 167.142C123.446 167.239 121.515 166.271 120.453 164.723L120.549 162.788L125.667 164.046Z" fill="#FB8C89"/>
<path d="M131.172 176.819C131.075 176.722 130.786 176.722 130.882 176.915C131.365 178.27 131.944 179.625 131.751 180.98C131.558 182.721 130.592 184.366 128.854 184.85C128.758 184.947 128.758 185.237 128.951 185.14C130.399 184.753 131.268 183.592 131.751 182.238C132.331 180.205 131.751 178.754 131.172 176.819Z" fill="#38173E"/>
<path d="M124.895 177.593C124.895 177.399 124.605 177.399 124.509 177.496C124.509 178.948 124.605 180.399 123.929 181.657C123.06 183.205 121.515 184.27 119.39 183.979C119.197 183.979 119.197 184.27 119.39 184.27C121.129 184.463 122.384 183.883 123.446 182.721C124.991 181.27 124.895 179.528 124.895 177.593Z" fill="#38173E"/>
<path d="M131.365 154.369C130.979 154.369 130.689 154.466 130.303 154.756C129.82 152.628 128.661 150.499 127.309 148.854C126.73 148.08 126.054 147.596 125.378 147.306C124.991 147.112 124.605 147.015 124.219 146.918C123.929 146.918 123.639 146.918 123.446 146.918C123.253 146.918 122.867 146.918 122.674 147.015C122.287 147.112 121.901 147.209 121.515 147.402C120.839 147.789 120.163 148.176 119.583 148.951C118.231 150.499 117.169 152.821 116.686 154.853C116.3 154.66 116.01 154.466 115.624 154.563C114.562 154.66 114.272 156.305 114.562 157.563C114.948 159.111 116.107 159.595 117.266 159.982C117.845 161.046 118.521 162.014 119.39 162.885C120.259 163.949 121.418 164.626 122.77 164.917C122.867 164.917 122.867 164.917 122.867 164.917C122.963 164.917 122.963 165.014 123.06 165.014C123.157 165.014 123.157 165.014 123.157 165.014C123.253 165.014 123.253 165.014 123.253 165.014C123.253 165.014 123.446 165.014 123.543 165.014C123.639 165.014 123.736 165.014 123.833 165.014C123.929 165.014 123.929 165.014 123.929 165.014H124.026C124.122 165.014 124.122 164.917 124.219 164.917C124.315 164.917 124.315 164.917 124.315 164.917C125.571 164.53 126.73 163.852 127.599 162.691C128.371 161.82 129.144 160.756 129.627 159.691C130.689 159.304 131.945 158.917 132.331 157.272C132.717 156.111 132.427 154.466 131.365 154.369Z" fill="#FFAEAB"/>
<path d="M123.35 161.82C122.577 161.627 121.804 161.046 121.418 159.885C121.418 159.788 121.418 159.691 121.515 159.691C121.611 159.691 121.708 159.691 121.708 159.788C122.287 162.014 124.605 161.627 124.702 161.627C124.798 161.627 124.895 161.723 124.895 161.723C124.895 161.82 124.798 161.917 124.798 161.917C124.895 161.917 124.219 162.111 123.35 161.82Z" fill="#38173E"/>
<path d="M121.569 157.856C121.888 157.829 122.126 157.549 122.1 157.23C122.074 156.91 121.794 156.672 121.475 156.698C121.156 156.724 120.919 157.005 120.945 157.324C120.971 157.644 121.251 157.882 121.569 157.856Z" fill="#38173E"/>
<path d="M126.781 157.755C127.1 157.729 127.338 157.449 127.312 157.129C127.286 156.809 127.006 156.572 126.687 156.598C126.368 156.624 126.131 156.904 126.157 157.224C126.183 157.543 126.462 157.781 126.781 157.755Z" fill="#38173E"/>
<path d="M120.066 155.724C120.066 155.724 120.066 155.627 120.066 155.724C119.97 155.627 119.97 155.627 119.97 155.434C120.453 154.272 121.515 154.369 121.901 154.466C121.998 154.563 121.998 154.563 121.998 154.756C121.901 154.853 121.901 154.853 121.708 154.853C121.708 154.853 120.646 154.466 120.163 155.627C120.259 155.627 120.163 155.724 120.066 155.724Z" fill="#38173E"/>
<path d="M125.764 154.95C125.764 154.95 125.764 154.853 125.764 154.95C125.667 154.853 125.764 154.756 125.861 154.66C126.923 154.079 127.792 154.756 128.082 155.24C128.178 155.337 128.082 155.434 127.985 155.53C127.889 155.627 127.792 155.53 127.695 155.434C127.695 155.434 127.116 154.466 126.054 155.047C125.957 154.95 125.764 154.95 125.764 154.95Z" fill="#38173E"/>
<path d="M124.605 159.885C124.509 159.885 124.412 159.788 124.412 159.691C124.412 159.595 124.509 159.498 124.605 159.498C124.605 159.498 124.991 159.498 124.991 159.304C125.088 159.208 125.088 158.917 124.605 158.337C124.509 158.24 124.509 158.143 124.605 158.046C124.702 157.95 124.798 157.95 124.895 158.046C125.378 158.627 125.474 159.111 125.378 159.401C125.281 159.885 124.702 159.885 124.605 159.885Z" fill="#38173E"/>
<path d="M129.047 161.82C129.144 162.981 130.206 163.756 131.269 163.659C132.427 163.562 133.2 162.498 133.103 161.433C133.007 160.949 132.814 160.465 132.524 160.175C132.524 160.078 132.524 159.982 132.524 159.885C132.427 159.111 131.751 158.627 131.075 158.627C130.399 158.724 129.917 159.208 129.82 159.885C129.434 160.369 129.047 161.143 129.047 161.82ZM132.234 159.788C131.848 159.595 131.462 159.498 130.979 159.498C130.786 159.498 130.593 159.595 130.399 159.595C130.496 159.208 130.786 159.014 131.172 159.014C131.655 159.111 132.041 159.401 132.234 159.788ZM130.979 159.982C131.365 159.885 131.751 160.078 132.138 160.369C132.041 160.756 131.751 160.949 131.365 160.949C130.882 161.046 130.399 160.659 130.303 160.175C130.593 160.078 130.786 159.982 130.979 159.982ZM129.53 161.82C129.434 161.24 129.627 160.756 130.11 160.465C130.303 161.046 130.882 161.433 131.558 161.433C132.041 161.336 132.427 161.046 132.621 160.659C132.814 160.949 133.007 161.24 133.007 161.53C133.103 162.401 132.427 163.272 131.462 163.368C130.399 163.465 129.627 162.788 129.53 161.82Z" fill="#FFC54F"/>
<path d="M114.079 161.917C114.175 163.078 115.238 163.852 116.3 163.756C117.459 163.659 118.231 162.594 118.135 161.53C118.038 161.046 117.845 160.562 117.555 160.272C117.555 160.175 117.555 160.079 117.555 159.982C117.459 159.208 116.783 158.724 116.107 158.724C115.431 158.821 114.948 159.304 114.851 159.982C114.369 160.466 113.982 161.143 114.079 161.917ZM117.169 159.885C116.783 159.692 116.397 159.595 115.914 159.595C115.721 159.595 115.527 159.692 115.334 159.692C115.431 159.304 115.721 159.111 116.107 159.111C116.59 159.111 117.073 159.498 117.169 159.885ZM116.01 160.079C116.397 159.982 116.783 160.175 117.169 160.466C117.073 160.853 116.783 161.046 116.397 161.046C115.914 161.143 115.431 160.756 115.334 160.272C115.527 160.175 115.721 160.079 116.01 160.079ZM114.465 161.82C114.369 161.24 114.562 160.756 115.045 160.466C115.238 161.046 115.817 161.433 116.493 161.433C116.976 161.337 117.362 161.046 117.555 160.659C117.749 160.949 117.942 161.24 117.942 161.53C118.038 162.401 117.362 163.272 116.397 163.369C115.431 163.465 114.562 162.788 114.465 161.82Z" fill="#FFC54F"/>
<path d="M126.536 164.239C126.44 164.336 126.44 164.336 126.536 164.239V164.239Z" fill="#539E92"/>
<path d="M139.863 182.625H135.324C134.938 182.625 134.552 182.915 134.455 183.302L131.075 194.333C130.882 194.914 131.365 195.591 131.944 195.591H136.677C137.063 195.591 137.449 195.301 137.546 194.914L140.636 183.883C140.926 183.205 140.539 182.625 139.863 182.625Z" fill="#38173E"/>
<path d="M128.854 192.688C130.303 193.656 137.449 194.527 136.387 191.914C136.387 191.914 137.835 190.753 136.097 189.979C136.097 189.979 136 188.915 134.359 188.721C134.359 188.721 133.683 188.818 134.262 189.495L134.552 189.689C134.552 189.689 132.91 190.076 132.62 189.592L133.2 187.85C133.2 187.85 132.331 187.947 128.951 189.398L127.116 189.785L127.792 192.688H128.854Z" fill="#FFAEAB"/>
<path d="M135.904 189.882C134.938 190.56 133.876 190.947 132.717 190.85C132.524 190.85 132.524 191.14 132.717 191.14C133.972 191.237 135.131 190.85 136.097 190.172C136.194 189.979 136 189.785 135.904 189.882Z" fill="#FB8C89"/>
<path d="M136.58 190.656C135.614 191.334 134.455 191.721 133.296 191.721C133.103 191.721 133.103 192.011 133.296 192.011C134.552 192.011 135.711 191.624 136.676 190.946C136.87 190.85 136.676 190.559 136.58 190.656Z" fill="#FB8C89"/>
<path d="M136.097 192.011C135.131 192.592 134.069 192.785 133.007 192.495C132.814 192.398 132.717 192.688 132.91 192.785C134.069 193.075 135.228 192.882 136.29 192.205C136.483 192.108 136.29 191.914 136.097 192.011Z" fill="#FB8C89"/>
<path d="M130.882 147.692C129.337 147.789 127.888 146.822 126.44 146.047C125.088 145.273 123.446 144.79 122.094 145.66C121.708 145.951 121.708 146.047 121.128 145.854C120.742 145.757 120.452 145.757 120.066 145.757C119.1 145.854 118.328 146.435 117.652 147.209C116.879 148.176 116.396 149.628 116.107 150.789C115.72 152.337 115.72 153.885 115.044 155.337C115.527 155.53 115.914 154.853 116.3 154.563C116.396 155.337 116.203 156.305 116.396 157.079C116.783 158.046 117.459 158.82 117.748 159.788C117.748 159.014 117.845 158.143 117.942 157.369C118.038 156.788 118.038 155.821 118.328 155.24C118.907 154.95 119.39 154.66 119.68 154.273C120.259 153.692 121.225 152.724 121.418 151.853C122.384 153.015 123.639 150.208 124.122 149.821C124.508 150.499 124.895 151.176 125.571 151.563C126.15 151.95 126.923 151.95 127.502 152.337C127.888 152.627 128.275 153.595 128.758 154.079C129.144 154.66 129.723 155.143 130.496 155.337C130.882 152.918 130.979 149.725 129.434 147.596C129.723 147.983 130.496 147.886 130.882 147.692Z" fill="#38173E"/>
<path d="M130.593 154.176L127.985 152.918C127.985 152.918 130.013 156.498 129.241 159.982C129.337 159.885 130.689 158.53 130.593 154.176Z" fill="#38173E"/>
<path d="M203.89 222.395H111.182V223.75H203.89V222.395Z" fill="#38173E"/>
<path d="M203.89 210.977H111.182V212.331H203.89V210.977Z" fill="#38173E"/>
<path d="M134.069 216.202H203.118C203.6 216.202 203.89 216.589 203.89 216.976C203.89 217.46 203.504 217.75 203.118 217.75H134.069C133.586 217.75 133.296 217.363 133.296 216.976C133.2 216.589 133.683 216.202 134.069 216.202Z" fill="#38173E"/>
<path d="M134.069 205.171H203.118C203.6 205.171 203.89 205.558 203.89 205.945C203.89 206.429 203.504 206.719 203.118 206.719H134.069C133.586 206.719 133.296 206.332 133.296 205.945C133.2 205.558 133.683 205.171 134.069 205.171Z" fill="#38173E"/>
<path d="M226.681 231.878C236.708 231.878 244.836 223.733 244.836 213.686C244.836 203.639 236.708 195.494 226.681 195.494C216.654 195.494 208.526 203.639 208.526 213.686C208.526 223.733 216.654 231.878 226.681 231.878Z" fill="#B6C5FF"/>
<path d="M216.734 254.134V255.779C216.734 257.521 217.41 259.166 218.666 260.424L222.432 264.197C224.46 257.327 226.391 225.588 226.391 225.588H228.033C227.647 229.749 232.282 257.327 233.345 263.133L235.469 261.198C236.725 260.037 237.401 258.488 237.207 256.747L236.821 252.295C236.918 251.908 236.918 251.618 236.821 251.231L236.049 247.844C236.049 247.844 235.759 231.491 240.105 221.524L230.447 218.428L223.881 218.331L213.837 221.911C213.934 222.008 218.086 239.329 216.734 254.134Z" fill="#FFC78D"/>
<path d="M212.099 237.877C220.501 239.426 229.095 239.813 237.69 238.845C237.787 238.845 237.787 239.039 237.69 239.039C229.095 240.006 220.501 239.619 212.099 238.071C211.906 238.168 211.906 237.877 212.099 237.877Z" fill="white"/>
<path d="M212.389 239.813C220.694 240.974 228.999 241.264 237.401 240.587C237.497 240.587 237.497 240.78 237.401 240.78C228.999 241.458 220.597 241.167 212.389 240.006C212.195 240.006 212.292 239.813 212.389 239.813Z" fill="white"/>
<path d="M210.843 240.49C219.535 242.038 228.323 242.522 237.111 241.942C237.207 241.942 237.207 242.135 237.111 242.135C228.323 242.716 219.438 242.232 210.843 240.684C210.65 240.684 210.747 240.49 210.843 240.49Z" fill="white"/>
<path d="M211.133 252.102C219.825 255.198 230.061 257.134 237.883 250.844C237.98 250.747 238.173 250.941 237.98 250.941C230.158 257.327 219.825 255.295 211.037 252.199C210.94 252.199 210.94 252.005 211.133 252.102Z" fill="white"/>
<path d="M213.065 253.747C221.177 257.521 230.641 257.134 238.366 252.489C238.463 252.392 238.559 252.586 238.463 252.683C230.737 257.231 221.177 257.714 212.968 253.94C212.775 253.94 212.871 253.65 213.065 253.747Z" fill="white"/>
<path d="M215.093 256.263C222.432 260.133 231.413 259.456 238.27 254.811C238.366 254.715 238.463 254.908 238.366 255.005C231.413 259.746 222.432 260.23 214.899 256.456C214.803 256.36 214.899 256.263 215.093 256.263Z" fill="white"/>
<path d="M232.089 256.36C231.027 250.457 227.55 229.846 227.937 225.685H226.295C226.295 225.685 224.557 251.038 223.398 257.037L232.089 256.36Z" fill="#E6E6E6"/>
<path d="M235.855 228.491L238.463 245.135C239.718 244.748 241.843 244.458 243.581 244.264C243.774 232.362 243.098 223.072 239.815 221.524L235.855 228.491Z" fill="#FFC78D"/>
<path d="M210.843 244.264C212.485 244.361 214.706 244.651 215.962 245.038L218.569 228.491L214.32 221.911C210.94 223.363 210.65 233.329 210.843 244.264Z" fill="#FFC78D"/>
<path d="M227.743 225.878C227.743 225.782 227.937 225.782 227.937 225.878C228.033 228.588 228.033 231.297 228.516 233.91C228.709 231.781 229.289 229.652 230.737 228.104C230.254 227.911 229.675 227.523 229.289 227.33C229.192 227.33 229.192 227.233 229.192 227.233C230.447 225.008 231.703 222.782 233.248 220.75C232.186 220.073 231.22 219.492 230.158 219.105C230.061 219.008 230.061 218.815 230.254 218.911C231.413 219.395 232.475 219.976 233.538 220.653C233.538 220.653 233.634 220.653 233.634 220.75C233.731 220.847 233.731 220.847 233.827 220.847C233.924 220.943 233.827 221.137 233.731 221.04C233.731 221.137 233.538 221.137 233.538 221.04C233.538 221.331 232.765 222.201 232.572 222.395C232.186 222.976 231.896 223.459 231.51 224.04C230.834 225.104 230.254 226.266 229.578 227.33C230.061 227.717 230.544 227.911 231.123 228.201C231.22 228.201 231.22 228.298 231.22 228.298V228.394C229.482 230.136 229.095 232.458 228.999 234.781C228.999 234.781 228.999 234.781 228.999 234.878C228.999 234.974 228.902 234.974 228.902 234.974C227.84 231.781 227.84 228.781 227.743 225.878Z" fill="white"/>
<path d="M226.488 225.878C226.488 225.782 226.295 225.782 226.295 225.878C226.198 228.588 226.198 231.297 225.715 233.91C225.522 231.781 224.943 229.652 223.494 228.104C223.977 227.911 224.557 227.523 224.943 227.33C225.039 227.33 225.039 227.233 225.039 227.233C223.784 225.008 222.529 222.782 220.983 220.75C222.046 220.073 223.011 219.492 224.074 219.105C224.17 219.008 224.17 218.815 223.977 218.911C222.818 219.395 221.756 219.976 220.694 220.653C220.694 220.653 220.597 220.653 220.597 220.75C220.501 220.847 220.501 220.847 220.404 220.847C220.307 220.943 220.404 221.137 220.501 221.04C220.501 221.137 220.694 221.137 220.694 221.04C220.694 221.331 221.466 222.201 221.659 222.395C222.046 222.976 222.335 223.459 222.722 224.04C223.398 225.104 223.977 226.266 224.653 227.33C224.17 227.717 223.687 227.911 223.108 228.201C223.011 228.201 223.011 228.298 223.011 228.298V228.394C224.75 230.136 225.136 232.458 225.233 234.781C225.233 234.781 225.233 234.781 225.233 234.878C225.233 234.974 225.329 234.974 225.329 234.974C226.391 231.781 226.295 228.781 226.488 225.878Z" fill="white"/>
<path d="M218.086 232.749C218.086 232.652 218.183 232.652 218.086 232.749C219.825 232.555 221.563 232.652 223.301 232.749C223.398 232.749 223.398 233.039 223.301 232.942C221.659 232.845 219.921 232.749 218.279 232.845C218.376 234.297 218.666 235.652 219.052 236.91C220.307 237.103 221.466 237.2 222.625 237.103C223.398 235.845 223.591 234.394 223.398 232.845C223.398 232.749 223.591 232.652 223.591 232.749C223.881 234.297 223.591 235.748 222.818 237.103C222.915 237.2 222.818 237.297 222.722 237.297C221.466 237.393 220.211 237.297 218.859 237.103C218.762 237.103 218.762 237.103 218.762 237.006C218.376 235.748 218.086 234.297 218.086 232.749C217.99 232.749 218.086 232.749 218.086 232.749Z" fill="white"/>
<path d="M230.351 232.749C230.351 232.652 230.447 232.652 230.351 232.749C232.089 232.555 233.827 232.652 235.566 232.749C235.662 232.749 235.662 233.039 235.566 232.942C233.924 232.845 232.186 232.749 230.544 232.845C230.641 234.297 230.93 235.652 231.317 236.91C232.572 237.103 233.731 237.2 234.89 237.103C235.662 235.845 235.855 234.394 235.662 232.845C235.662 232.749 235.855 232.652 235.855 232.749C236.145 234.297 235.855 235.748 235.083 237.103C235.179 237.2 235.083 237.297 234.986 237.297C233.731 237.393 232.475 237.297 231.123 237.103C231.027 237.103 231.027 237.103 231.027 237.006C230.641 235.748 230.351 234.297 230.351 232.749C230.254 232.749 230.254 232.749 230.351 232.749Z" fill="white"/>
<path d="M223.881 211.848V219.008C223.881 219.395 223.977 219.782 223.977 220.363C224.363 222.589 225.619 226.169 226.971 226.169C228.709 226.169 230.158 220.75 230.158 219.008V211.848C230.158 210.59 229.095 209.622 227.937 209.622H226.198C224.943 209.622 223.881 210.59 223.881 211.848Z" fill="#AA435D"/>
<path d="M223.881 211.654V217.46C223.881 217.75 223.977 218.137 223.977 218.621C224.267 218.718 224.557 218.718 224.75 218.718C226.971 218.718 228.999 217.46 230.158 215.428V211.654C230.158 210.59 229.095 209.815 227.937 209.815H226.198C224.943 209.815 223.881 210.59 223.881 211.654Z" fill="#38173E"/>
<path d="M235.276 210.009C234.986 211.461 234.021 211.848 232.958 212.235C232.958 212.235 232.958 212.235 232.862 212.235C232.475 213.202 231.799 214.073 231.123 214.944C230.351 215.912 229.385 216.589 228.226 216.879H228.13C228.033 216.879 228.033 216.976 227.937 216.976C227.84 216.976 227.84 216.976 227.84 216.976H227.743C227.647 216.976 227.55 216.976 227.454 216.976C227.357 216.976 227.261 216.976 227.164 216.976C227.067 216.976 227.067 216.976 227.067 216.976H226.971C226.874 216.976 226.874 216.976 226.778 216.879H226.681C225.522 216.589 224.46 216.008 223.784 215.138C223.011 214.363 222.335 213.493 221.853 212.525H221.756C220.79 212.235 219.825 211.848 219.438 210.493C219.149 209.428 219.438 207.88 220.307 207.783C220.597 207.783 220.887 207.88 221.177 208.074C221.563 206.235 222.432 204.203 223.591 202.848C224.074 202.171 224.653 201.687 225.329 201.397C225.715 201.203 226.005 201.107 226.391 201.01C226.681 201.01 226.874 200.913 227.067 200.913C227.261 200.913 227.55 200.913 227.743 200.913C228.13 200.913 228.419 201.01 228.806 201.203C229.385 201.494 230.061 201.881 230.544 202.558C231.799 203.913 232.765 205.848 233.248 207.687C233.538 207.493 233.827 207.396 234.117 207.396C235.179 207.493 235.469 208.945 235.276 210.009Z" fill="#AA435D"/>
<path d="M229.56 210.191C229.877 210.145 230.096 209.85 230.049 209.533C230.003 209.215 229.709 208.996 229.392 209.042C229.076 209.089 228.856 209.384 228.903 209.701C228.949 210.018 229.243 210.238 229.56 210.191Z" fill="#38173E"/>
<path d="M224.63 210.291C224.946 210.245 225.165 209.95 225.119 209.633C225.073 209.315 224.778 209.096 224.462 209.142C224.145 209.189 223.926 209.484 223.972 209.801C224.019 210.118 224.313 210.338 224.63 210.291Z" fill="#38173E"/>
<path d="M230.447 208.364C230.351 208.364 230.351 208.364 230.254 208.267C229.578 207.3 228.613 207.88 228.613 207.88C228.516 207.977 228.419 207.88 228.323 207.783C228.226 207.687 228.323 207.59 228.419 207.493C228.806 207.203 229.868 206.913 230.641 207.977C230.641 208.074 230.641 208.267 230.447 208.364C230.544 208.364 230.447 208.364 230.447 208.364Z" fill="#38173E"/>
<path d="M227.261 213.493C227.357 213.396 229.289 211.944 229.482 212.041C229.578 212.041 229.675 212.138 229.675 212.331C229.578 212.912 228.999 214.073 227.454 213.88C227.357 213.88 227.261 213.783 227.261 213.589C227.164 213.589 227.164 213.493 227.261 213.493Z" fill="white"/>
<path d="M225.329 207.88C225.233 207.977 225.233 207.977 225.233 207.977C224.267 207.59 223.977 208.557 223.977 208.557C223.977 208.654 223.881 208.654 223.784 208.654C223.687 208.654 223.687 208.557 223.687 208.461C223.784 208.074 224.363 207.396 225.426 207.687C225.329 207.687 225.329 207.783 225.329 207.88C225.329 207.783 225.329 207.88 225.329 207.88Z" fill="#38173E"/>
<path d="M227.357 212.428C227.164 212.622 226.874 212.815 226.681 212.815C226.585 212.815 226.391 212.815 226.295 212.719C226.198 212.622 226.102 212.525 226.005 212.331C225.909 212.041 225.909 211.751 226.005 211.267L226.391 209.138C226.391 209.041 226.488 209.042 226.585 209.042C226.681 209.042 226.681 209.138 226.681 209.235L226.295 211.364C226.198 211.848 226.198 212.138 226.295 212.235C226.295 212.331 226.391 212.331 226.391 212.331C226.585 212.428 226.778 212.428 227.067 212.235C227.164 212.138 227.164 212.138 227.261 212.235C227.357 212.235 227.357 212.428 227.357 212.428Z" fill="#38173E"/>
<path d="M233.634 204.493C233.441 204.106 233.248 203.623 233.151 203.236C233.634 203.139 234.31 203.332 234.697 202.848C234.31 202.752 233.924 202.655 233.634 202.461C233.248 202.365 232.958 202.074 232.572 201.881C231.896 201.3 231.317 200.816 230.641 200.236C229.965 199.655 229.095 199.171 228.226 198.978C226.681 198.591 225.329 198.978 223.977 199.558C222.239 200.333 220.694 201.397 218.859 201.784C219.245 201.978 219.825 201.978 220.211 201.978C220.597 202.074 220.983 202.074 221.466 201.978C220.501 202.461 219.728 203.236 219.245 204.203C218.859 204.977 218.473 205.848 217.99 206.622C217.893 207.009 217.603 207.3 217.41 207.59C217.314 207.687 217.024 207.88 217.024 207.977C217.41 208.267 217.893 208.364 218.376 208.364C218.859 208.461 219.342 208.461 219.825 208.461C220.307 208.461 220.79 208.267 221.177 208.074C221.177 208.461 221.177 208.848 221.273 209.138C221.37 209.816 221.563 210.396 221.853 211.073C222.046 210.493 222.046 209.816 222.239 209.235C222.432 208.461 222.625 207.687 223.011 207.009C223.494 206.913 223.977 206.816 224.46 206.622C225.233 206.429 225.909 206.042 226.488 205.558C226.971 205.171 227.261 204.784 227.743 204.493C227.647 204.784 227.55 205.074 227.454 205.364C227.357 205.751 227.261 206.138 227.067 206.622C227.454 206.332 227.84 206.235 228.323 205.848C228.806 205.461 229.192 205.074 229.675 204.59C229.771 205.848 230.834 206.816 231.413 207.88C231.799 208.654 232.089 209.622 232.186 210.493C232.282 210.977 232.379 211.557 232.186 212.138C232.379 211.944 232.475 211.557 232.572 211.364C232.669 210.977 232.958 210.686 233.151 210.299C233.538 209.622 233.827 208.751 234.021 207.977C234.214 207.203 234.31 206.429 234.021 205.751C233.924 205.461 233.731 204.977 233.634 204.493Z" fill="#38173E"/>
<path d="M190.274 43.9602C183.803 43.9602 178.106 47.2502 174.822 52.282C171.442 47.2502 165.841 43.9602 159.371 43.9602C149.038 43.9602 140.733 52.282 140.733 62.6359C140.733 83.9242 174.726 105.503 174.726 105.503C174.726 105.503 208.719 84.1177 208.719 62.6359C208.815 52.282 200.51 43.9602 190.274 43.9602Z" fill="#3461F3"/>
<path d="M155.025 64.4744H152.804V63.6035H155.894V78.6989H154.929V64.4744H155.025Z" fill="white"/>
<path d="M164.199 63.4099C168.255 63.4099 169.125 66.6999 169.125 71.0544C169.125 75.4088 168.255 78.7956 164.199 78.7956C160.143 78.7956 159.178 75.4088 159.178 71.0544C159.274 66.6999 160.143 63.4099 164.199 63.4099ZM164.199 64.2808C160.819 64.2808 160.143 67.2805 160.143 71.0544C160.143 74.925 160.723 77.9247 164.199 77.9247C167.579 77.9247 168.255 74.925 168.255 71.0544C168.255 67.2805 167.676 64.2808 164.199 64.2808Z" fill="white"/>
<path d="M176.947 63.4099C181.003 63.4099 181.872 66.6999 181.872 71.0544C181.872 75.4088 181.003 78.7956 176.947 78.7956C172.891 78.7956 171.925 75.4088 171.925 71.0544C172.118 66.6999 172.987 63.4099 176.947 63.4099ZM176.947 64.2808C173.567 64.2808 172.891 67.2805 172.891 71.0544C172.891 74.925 173.47 77.9247 176.947 77.9247C180.423 77.9247 181.003 74.925 181.003 71.0544C181.003 67.2805 180.423 64.2808 176.947 64.2808Z" fill="white"/>
<path d="M187.087 63.6035C188.729 63.6035 189.984 64.7647 189.984 66.5065C189.984 68.2482 188.729 69.4094 187.087 69.4094C185.445 69.4094 184.19 68.2482 184.19 66.5065C184.286 64.7647 185.542 63.6035 187.087 63.6035ZM185.155 66.5065C185.155 67.8612 185.928 68.7321 187.183 68.7321C188.439 68.7321 189.211 67.8612 189.211 66.5065C189.211 65.1518 188.439 64.2809 187.183 64.2809C185.928 64.2809 185.155 65.1518 185.155 66.5065ZM194.523 63.797H195.585L186.701 78.6989H185.735L194.523 63.797ZM194.233 73.0865C195.875 73.0865 197.034 74.2477 197.034 75.9894C197.034 77.7312 195.778 78.8924 194.233 78.8924C192.591 78.8924 191.336 77.7312 191.336 75.9894C191.336 74.2477 192.591 73.0865 194.233 73.0865ZM192.205 75.9894C192.205 77.3441 192.978 78.215 194.233 78.215C195.489 78.215 196.261 77.3441 196.261 75.9894C196.261 74.6347 195.489 73.7638 194.233 73.7638C192.978 73.7638 192.205 74.6347 192.205 75.9894Z" fill="white"/>
<path d="M214.996 277.841H133.393C127.599 277.841 122.867 273.1 122.867 267.294V266.907C122.867 261.101 127.599 256.36 133.393 256.36H214.996C220.79 256.36 225.522 261.101 225.522 266.907V267.294C225.522 273.1 220.79 277.841 214.996 277.841Z" fill="#3461F3"/>
<path d="M159.757 272.713C157.826 272.713 156.667 271.649 156.667 270.294H157.246C157.343 271.068 157.922 272.229 159.757 272.229C161.206 272.229 162.075 271.358 162.075 270.294C162.075 267.197 156.763 269.133 156.763 265.552C156.763 264.198 157.922 263.133 159.661 263.133C161.399 263.133 162.461 264.198 162.654 265.359H161.978C161.882 264.682 161.206 263.714 159.661 263.714C158.405 263.714 157.343 264.391 157.343 265.649C157.343 268.746 162.654 266.907 162.654 270.391C162.751 271.358 161.689 272.713 159.757 272.713Z" fill="white"/>
<path d="M169.414 263.424H165.165V267.488H169.028V268.068H165.165V272.132H169.414V272.713H164.586V263.133H169.414V263.424Z" fill="white"/>
<path d="M178.106 262.94V272.519H177.526L171.925 263.907V272.519H171.346V262.94H171.925L177.526 271.455V262.94H178.106Z" fill="white"/>
<path d="M188.053 267.778C188.053 270.778 186.314 272.519 183.031 272.519H180.327V262.94H183.031C186.218 262.94 188.053 264.778 188.053 267.778ZM182.934 272.036C185.831 272.036 187.377 270.391 187.377 267.778C187.377 265.069 185.831 263.52 182.934 263.52H180.906V272.036H182.934Z" fill="white"/>
<path d="M206.304 11.4471H143.243C142.664 11.4471 142.085 10.8665 142.085 10.2859C142.085 9.70535 142.664 9.12476 143.243 9.12476H206.304C206.884 9.12476 207.463 9.70535 207.463 10.2859C207.463 10.8665 206.98 11.4471 206.304 11.4471Z" fill="white"/>
<path d="M298.53 111.889L294.281 112.276L293.895 108.019C293.798 106.761 292.639 105.793 291.384 105.987C290.129 106.083 289.163 107.245 289.356 108.503L289.742 112.76L285.493 113.147C284.238 113.244 283.272 114.405 283.465 115.663C283.562 116.921 284.721 117.889 285.976 117.695L290.225 117.308L290.611 121.566C290.708 122.824 291.867 123.791 293.122 123.598C294.378 123.501 295.343 122.34 295.15 121.082L294.764 116.824L299.013 116.437C300.269 116.341 301.234 115.179 301.041 113.921C300.945 112.663 299.786 111.793 298.53 111.889Z" fill="#CDE0FE"/>
<path d="M188.632 46.1858C182.162 46.1858 176.464 49.4758 173.181 54.5076C169.801 49.4758 164.199 46.1858 157.729 46.1858C147.396 46.1858 139.091 54.5076 139.091 64.8615C139.091 86.1498 173.084 107.728 173.084 107.728C173.084 107.728 207.077 86.3433 207.077 64.8615C207.174 54.6044 198.869 46.1858 188.632 46.1858Z" fill="#3461F3"/>
<path d="M153.383 66.7H151.162V65.8291H154.253V80.9245H153.287L153.383 66.7Z" fill="white"/>
<path d="M162.558 65.6355C166.614 65.6355 167.483 68.9255 167.483 73.2799C167.483 77.6344 166.614 81.0212 162.558 81.0212C158.502 81.0212 157.536 77.6344 157.536 73.2799C157.633 69.0223 158.502 65.6355 162.558 65.6355ZM162.558 66.6031C159.178 66.6031 158.502 69.6029 158.502 73.3767C158.502 77.2473 159.081 80.247 162.558 80.247C165.938 80.247 166.614 77.2473 166.614 73.3767C166.614 69.6029 166.034 66.6031 162.558 66.6031Z" fill="white"/>
<path d="M175.305 65.6355C179.361 65.6355 180.23 68.9255 180.23 73.2799C180.23 77.6344 179.361 81.0212 175.305 81.0212C171.249 81.0212 170.283 77.6344 170.283 73.2799C170.477 69.0223 171.346 65.6355 175.305 65.6355ZM175.305 66.6031C171.925 66.6031 171.249 69.6029 171.249 73.3767C171.249 77.2473 171.829 80.247 175.305 80.247C178.782 80.247 179.361 77.2473 179.361 73.3767C179.361 69.6029 178.782 66.6031 175.305 66.6031Z" fill="white"/>
<path d="M185.542 65.9258C187.183 65.9258 188.439 67.087 188.439 68.8287C188.439 70.5705 187.183 71.7317 185.542 71.7317C183.9 71.7317 182.645 70.5705 182.645 68.8287C182.645 67.087 183.9 65.9258 185.542 65.9258ZM183.514 68.732C183.514 70.0867 184.286 70.9576 185.542 70.9576C186.797 70.9576 187.57 70.0867 187.57 68.732C187.57 67.3773 186.797 66.5064 185.542 66.5064C184.383 66.5064 183.514 67.3773 183.514 68.732ZM192.881 66.0226H193.943L185.059 80.9244H184.093L192.881 66.0226ZM192.591 75.4088C194.233 75.4088 195.392 76.57 195.392 78.3117C195.392 80.0535 194.137 81.2147 192.591 81.2147C190.95 81.2147 189.694 80.0535 189.694 78.3117C189.694 76.57 190.95 75.4088 192.591 75.4088ZM190.563 78.215C190.563 79.5697 191.336 80.4406 192.591 80.4406C193.847 80.4406 194.619 79.5697 194.619 78.215C194.619 76.8603 193.847 75.9894 192.591 75.9894C191.336 76.0861 190.563 76.8603 190.563 78.215Z" fill="white"/>
<path d="M213.354 280.164H131.751C125.957 280.164 121.225 275.422 121.225 269.616V269.229C121.225 263.423 125.957 258.682 131.751 258.682H213.354C219.149 258.682 223.881 263.423 223.881 269.229V269.616C223.881 275.422 219.149 280.164 213.354 280.164Z" fill="#3461F3"/>
<path d="M158.115 275.035C156.184 275.035 155.025 273.971 155.025 272.616H155.605C155.701 273.39 156.281 274.551 158.115 274.551C159.564 274.551 160.433 273.681 160.433 272.616C160.433 269.52 155.122 271.455 155.122 267.875C155.122 266.52 156.281 265.456 158.019 265.456C159.757 265.456 160.819 266.52 161.013 267.681H160.337C160.24 267.004 159.564 266.036 158.019 266.036C156.763 266.036 155.701 266.714 155.701 267.971C155.701 271.068 161.013 269.229 161.013 272.713C161.109 273.681 160.047 275.035 158.115 275.035Z" fill="white"/>
<path d="M167.773 265.746H163.523V269.81H167.386V270.391H163.523V274.455H167.773V275.035H162.944V265.456H167.773V265.746Z" fill="white"/>
<path d="M176.464 265.262V274.842H175.885L170.283 266.23V274.842H169.704V265.262H170.283L175.885 273.777V265.262H176.464Z" fill="white"/>
<path d="M186.411 270.1C186.411 273.1 184.673 274.842 181.389 274.842H178.685V265.262H181.389C184.576 265.262 186.411 267.1 186.411 270.1ZM181.389 274.358C184.286 274.358 185.831 272.713 185.831 270.1C185.831 267.391 184.286 265.843 181.389 265.843H179.361V274.358H181.389Z" fill="white"/>
<defs>
<linearGradient id="paint0_linear" x1="-68.6658" y1="188.254" x2="470.863" y2="188.254" gradientUnits="userSpaceOnUse">
<stop stop-color="#3461F3"/>
<stop offset="0.128" stop-color="#E8EEF3"/>
<stop offset="0.264" stop-color="#E5DBF0"/>
<stop offset="0.4037" stop-color="#D8C6EC"/>
<stop offset="0.8362" stop-color="#5386D2"/>
<stop offset="0.981" stop-color="#6F1CC6"/>
</linearGradient>
<linearGradient id="paint1_linear" x1="175.006" y1="49.8429" x2="175.006" y2="290.592" gradientUnits="userSpaceOnUse">
<stop offset="0.21" stop-color="#F0ECF4"/>
<stop offset="0.3305" stop-color="#EDE8F3"/>
<stop offset="0.4584" stop-color="#E5DBF0"/>
<stop offset="0.5898" stop-color="#D8C6EB"/>
<stop offset="0.7237" stop-color="#C5A8E5"/>
<stop offset="0.8593" stop-color="#AD82DC"/>
<stop offset="0.9948" stop-color="#9054D2"/>
<stop offset="0.9961" stop-color="#9053D2"/>
</linearGradient>
<linearGradient id="paint2_linear" x1="86.2662" y1="16.6724" x2="101.275" y2="33.3797" gradientUnits="userSpaceOnUse">
<stop offset="0.25" stop-color="#077CE9"/>
<stop offset="0.859375" stop-color="#692489" stop-opacity="0.92"/>
</linearGradient>
<linearGradient id="paint3_linear" x1="109.926" y1="16.6724" x2="124.935" y2="33.3797" gradientUnits="userSpaceOnUse">
<stop offset="0.25" stop-color="#077CE9"/>
<stop offset="0.859375" stop-color="#692489" stop-opacity="0.92"/>
</linearGradient>
<linearGradient id="paint4_linear" x1="133.683" y1="16.6724" x2="148.692" y2="33.3797" gradientUnits="userSpaceOnUse">
<stop offset="0.25" stop-color="#077CE9"/>
<stop offset="0.859375" stop-color="#692489" stop-opacity="0.92"/>
</linearGradient>
<linearGradient id="paint5_linear" x1="157.343" y1="16.6724" x2="172.352" y2="33.3797" gradientUnits="userSpaceOnUse">
<stop offset="0.25" stop-color="#077CE9"/>
<stop offset="0.859375" stop-color="#692489" stop-opacity="0.92"/>
</linearGradient>
<linearGradient id="paint6_linear" x1="181.099" y1="16.6724" x2="196.108" y2="33.3825" gradientUnits="userSpaceOnUse">
<stop offset="0.25" stop-color="#077CE9"/>
<stop offset="0.859375" stop-color="#692489" stop-opacity="0.92"/>
</linearGradient>
<linearGradient id="paint7_linear" x1="204.759" y1="16.6724" x2="219.768" y2="33.3825" gradientUnits="userSpaceOnUse">
<stop offset="0.25" stop-color="#077CE9"/>
<stop offset="0.859375" stop-color="#692489" stop-opacity="0.92"/>
</linearGradient>
<linearGradient id="paint8_linear" x1="86.2662" y1="38.9282" x2="101.275" y2="55.6356" gradientUnits="userSpaceOnUse">
<stop offset="0.25" stop-color="#077CE9"/>
<stop offset="0.859375" stop-color="#692489" stop-opacity="0.92"/>
</linearGradient>
<linearGradient id="paint9_linear" x1="109.926" y1="38.9282" x2="124.935" y2="55.6356" gradientUnits="userSpaceOnUse">
<stop offset="0.25" stop-color="#077CE9"/>
<stop offset="0.859375" stop-color="#692489" stop-opacity="0.92"/>
</linearGradient>
<linearGradient id="paint10_linear" x1="133.683" y1="38.9282" x2="148.692" y2="55.6355" gradientUnits="userSpaceOnUse">
<stop offset="0.25" stop-color="#077CE9"/>
<stop offset="0.859375" stop-color="#692489" stop-opacity="0.92"/>
</linearGradient>
<linearGradient id="paint11_linear" x1="157.343" y1="38.9282" x2="172.352" y2="55.6356" gradientUnits="userSpaceOnUse">
<stop offset="0.25" stop-color="#077CE9"/>
<stop offset="0.859375" stop-color="#692489" stop-opacity="0.92"/>
</linearGradient>
<linearGradient id="paint12_linear" x1="181.099" y1="38.9282" x2="196.108" y2="55.6384" gradientUnits="userSpaceOnUse">
<stop offset="0.25" stop-color="#077CE9"/>
<stop offset="0.859375" stop-color="#692489" stop-opacity="0.92"/>
</linearGradient>
<linearGradient id="paint13_linear" x1="204.759" y1="38.9282" x2="219.768" y2="55.6384" gradientUnits="userSpaceOnUse">
<stop offset="0.25" stop-color="#077CE9"/>
<stop offset="0.859375" stop-color="#692489" stop-opacity="0.92"/>
</linearGradient>
<linearGradient id="paint14_linear" x1="86.2662" y1="61.0876" x2="101.275" y2="77.795" gradientUnits="userSpaceOnUse">
<stop offset="0.25" stop-color="#077CE9"/>
<stop offset="0.859375" stop-color="#692489" stop-opacity="0.92"/>
</linearGradient>
<linearGradient id="paint15_linear" x1="109.926" y1="61.0876" x2="124.935" y2="77.795" gradientUnits="userSpaceOnUse">
<stop offset="0.25" stop-color="#077CE9"/>
<stop offset="0.859375" stop-color="#692489" stop-opacity="0.92"/>
</linearGradient>
<linearGradient id="paint16_linear" x1="133.683" y1="61.0876" x2="148.692" y2="77.795" gradientUnits="userSpaceOnUse">
<stop offset="0.25" stop-color="#077CE9"/>
<stop offset="0.859375" stop-color="#692489" stop-opacity="0.92"/>
</linearGradient>
<linearGradient id="paint17_linear" x1="157.343" y1="61.0876" x2="172.352" y2="77.795" gradientUnits="userSpaceOnUse">
<stop offset="0.25" stop-color="#077CE9"/>
<stop offset="0.859375" stop-color="#692489" stop-opacity="0.92"/>
</linearGradient>
<linearGradient id="paint18_linear" x1="181.099" y1="61.0876" x2="196.108" y2="77.7978" gradientUnits="userSpaceOnUse">
<stop offset="0.25" stop-color="#077CE9"/>
<stop offset="0.859375" stop-color="#692489" stop-opacity="0.92"/>
</linearGradient>
<linearGradient id="paint19_linear" x1="204.759" y1="61.0876" x2="219.768" y2="77.7978" gradientUnits="userSpaceOnUse">
<stop offset="0.25" stop-color="#077CE9"/>
<stop offset="0.859375" stop-color="#692489" stop-opacity="0.92"/>
</linearGradient>
<linearGradient id="paint20_linear" x1="86.2662" y1="83.2468" x2="101.275" y2="99.9542" gradientUnits="userSpaceOnUse">
<stop offset="0.25" stop-color="#077CE9"/>
<stop offset="0.859375" stop-color="#692489" stop-opacity="0.92"/>
</linearGradient>
<linearGradient id="paint21_linear" x1="109.926" y1="83.2468" x2="124.935" y2="99.9542" gradientUnits="userSpaceOnUse">
<stop offset="0.25" stop-color="#077CE9"/>
<stop offset="0.859375" stop-color="#692489" stop-opacity="0.92"/>
</linearGradient>
<linearGradient id="paint22_linear" x1="133.683" y1="83.2468" x2="148.692" y2="99.9542" gradientUnits="userSpaceOnUse">
<stop offset="0.25" stop-color="#077CE9"/>
<stop offset="0.859375" stop-color="#692489" stop-opacity="0.92"/>
</linearGradient>
<linearGradient id="paint23_linear" x1="157.343" y1="83.2468" x2="172.352" y2="99.9542" gradientUnits="userSpaceOnUse">
<stop offset="0.25" stop-color="#077CE9"/>
<stop offset="0.859375" stop-color="#692489" stop-opacity="0.92"/>
</linearGradient>
<linearGradient id="paint24_linear" x1="181.099" y1="83.2468" x2="196.108" y2="99.957" gradientUnits="userSpaceOnUse">
<stop offset="0.25" stop-color="#077CE9"/>
<stop offset="0.859375" stop-color="#692489" stop-opacity="0.92"/>
</linearGradient>
<linearGradient id="paint25_linear" x1="204.759" y1="83.2468" x2="219.768" y2="99.957" gradientUnits="userSpaceOnUse">
<stop offset="0.25" stop-color="#077CE9"/>
<stop offset="0.859375" stop-color="#692489" stop-opacity="0.92"/>
</linearGradient>
<linearGradient id="paint26_linear" x1="86.2662" y1="105.503" x2="101.275" y2="122.21" gradientUnits="userSpaceOnUse">
<stop offset="0.25" stop-color="#077CE9"/>
<stop offset="0.859375" stop-color="#692489" stop-opacity="0.92"/>
</linearGradient>
<linearGradient id="paint27_linear" x1="109.926" y1="105.503" x2="124.935" y2="122.21" gradientUnits="userSpaceOnUse">
<stop offset="0.25" stop-color="#077CE9"/>
<stop offset="0.859375" stop-color="#692489" stop-opacity="0.92"/>
</linearGradient>
<linearGradient id="paint28_linear" x1="133.683" y1="105.503" x2="148.692" y2="122.21" gradientUnits="userSpaceOnUse">
<stop offset="0.25" stop-color="#077CE9"/>
<stop offset="0.859375" stop-color="#692489" stop-opacity="0.92"/>
</linearGradient>
<linearGradient id="paint29_linear" x1="157.343" y1="105.503" x2="172.352" y2="122.21" gradientUnits="userSpaceOnUse">
<stop offset="0.25" stop-color="#077CE9"/>
<stop offset="0.859375" stop-color="#692489" stop-opacity="0.92"/>
</linearGradient>
<linearGradient id="paint30_linear" x1="181.099" y1="105.503" x2="196.108" y2="122.213" gradientUnits="userSpaceOnUse">
<stop offset="0.25" stop-color="#077CE9"/>
<stop offset="0.859375" stop-color="#692489" stop-opacity="0.92"/>
</linearGradient>
<linearGradient id="paint31_linear" x1="204.759" y1="105.503" x2="219.768" y2="122.213" gradientUnits="userSpaceOnUse">
<stop offset="0.25" stop-color="#077CE9"/>
<stop offset="0.859375" stop-color="#692489" stop-opacity="0.92"/>
</linearGradient>
<linearGradient id="paint32_linear" x1="227.937" y1="16.6724" x2="242.946" y2="33.3797" gradientUnits="userSpaceOnUse">
<stop offset="0.25" stop-color="#077CE9"/>
<stop offset="0.859375" stop-color="#692489" stop-opacity="0.92"/>
</linearGradient>
<linearGradient id="paint33_linear" x1="227.937" y1="38.9282" x2="242.946" y2="55.6356" gradientUnits="userSpaceOnUse">
<stop offset="0.25" stop-color="#077CE9"/>
<stop offset="0.859375" stop-color="#692489" stop-opacity="0.92"/>
</linearGradient>
<linearGradient id="paint34_linear" x1="227.937" y1="61.0876" x2="242.946" y2="77.795" gradientUnits="userSpaceOnUse">
<stop offset="0.25" stop-color="#077CE9"/>
<stop offset="0.859375" stop-color="#692489" stop-opacity="0.92"/>
</linearGradient>
<linearGradient id="paint35_linear" x1="227.937" y1="83.2468" x2="242.946" y2="99.9542" gradientUnits="userSpaceOnUse">
<stop offset="0.25" stop-color="#077CE9"/>
<stop offset="0.859375" stop-color="#692489" stop-opacity="0.92"/>
</linearGradient>
<linearGradient id="paint36_linear" x1="227.937" y1="105.503" x2="242.946" y2="122.21" gradientUnits="userSpaceOnUse">
<stop offset="0.25" stop-color="#077CE9"/>
<stop offset="0.859375" stop-color="#692489" stop-opacity="0.92"/>
</linearGradient>
<linearGradient id="paint37_linear" x1="251.114" y1="16.6724" x2="266.123" y2="33.3797" gradientUnits="userSpaceOnUse">
<stop offset="0.25" stop-color="#077CE9"/>
<stop offset="0.859375" stop-color="#692489" stop-opacity="0.92"/>
</linearGradient>
<linearGradient id="paint38_linear" x1="251.114" y1="38.9282" x2="266.123" y2="55.6356" gradientUnits="userSpaceOnUse">
<stop offset="0.25" stop-color="#077CE9"/>
<stop offset="0.859375" stop-color="#692489" stop-opacity="0.92"/>
</linearGradient>
<linearGradient id="paint39_linear" x1="251.114" y1="61.0876" x2="266.123" y2="77.795" gradientUnits="userSpaceOnUse">
<stop offset="0.25" stop-color="#077CE9"/>
<stop offset="0.859375" stop-color="#692489" stop-opacity="0.92"/>
</linearGradient>
<linearGradient id="paint40_linear" x1="251.114" y1="83.2468" x2="266.123" y2="99.9542" gradientUnits="userSpaceOnUse">
<stop offset="0.25" stop-color="#077CE9"/>
<stop offset="0.859375" stop-color="#692489" stop-opacity="0.92"/>
</linearGradient>
<linearGradient id="paint41_linear" x1="251.114" y1="105.503" x2="266.123" y2="122.21" gradientUnits="userSpaceOnUse">
<stop offset="0.25" stop-color="#077CE9"/>
<stop offset="0.859375" stop-color="#692489" stop-opacity="0.92"/>
</linearGradient>
<linearGradient id="paint42_linear" x1="133.2" y1="4.67358" x2="139.688" y2="37.0477" gradientUnits="userSpaceOnUse">
<stop offset="0.25" stop-color="#077CE9"/>
<stop offset="0.859375" stop-color="#692489" stop-opacity="0.92"/>
</linearGradient>
</defs>
</svg>
