<svg width="21" height="24" viewBox="0 0 21 24" fill="none" xmlns="http://www.w3.org/2000/svg">
<path d="M11.1925 11.5201L14.8888 7.82387L2.95 1.11387C2.15875 0.686372 1.4175 0.626372 0.7675 1.09387L11.1925 11.5201ZM15.5188 15.8476L19.3612 13.6864C20.1112 13.2664 20.5225 12.6714 20.5225 12.0114C20.5225 11.3526 20.1112 10.7564 19.3625 10.3364L15.8838 8.38262L11.9675 12.2976L15.5188 15.8476ZM0.125 2.00262C0.0449999 2.24887 0 2.52387 0 2.82512V21.2064C0 21.6826 0.105 22.0926 0.295 22.4189L10.4163 12.2964L0.125 2.00262ZM11.1925 13.0714L1.1275 23.1376C1.32 23.2114 1.5275 23.2501 1.74625 23.2501C2.13625 23.2501 2.5425 23.1351 2.95625 22.9051L14.525 16.4089L11.1925 13.0714Z" fill="white"/>
</svg>
