<svg width="323" height="244" fill="none" xmlns="http://www.w3.org/2000/svg"><rect width="3.814" height="3.7" rx="1.85" transform="rotate(-.579 213.568 -21374.492) skewX(.008)" fill="#83E1E1" fill-opacity=".38"/><rect width="3.814" height="3.7" rx="1.85" transform="rotate(-.579 11388.39 -21432.01) skewX(.008)" fill="#83E1E1" fill-opacity=".38"/><rect width="3.814" height="3.7" rx="1.85" transform="rotate(-.579 5800.956 -21403.3) skewX(.008)" fill="#83E1E1" fill-opacity=".38"/><rect width="3.814" height="3.7" rx="1.85" transform="rotate(-.579 16975.755 -21460.82) skewX(.008)" fill="#83E1E1" fill-opacity=".38"/><rect width="3.814" height="3.7" rx="1.85" transform="rotate(-.579 3007.244 -21388.847) skewX(.008)" fill="#83E1E1" fill-opacity=".38"/><rect width="3.814" height="3.7" rx="1.85" transform="rotate(-.579 14182.023 -21446.465) skewX(.008)" fill="#83E1E1" fill-opacity=".38"/><rect width="3.814" height="3.7" rx="1.85" transform="rotate(-.579 8594.658 -21417.656) skewX(.008)" fill="#83E1E1" fill-opacity=".38"/><rect width="3.814" height="3.7" rx="1.85" transform="rotate(-.579 19769.486 -21475.174) skewX(.008)" fill="#83E1E1" fill-opacity=".38"/><rect width="3.814" height="3.7" rx="1.85" transform="rotate(-.579 1610.388 -21381.719) skewX(.008)" fill="#83E1E1" fill-opacity=".38"/><rect width="3.814" height="3.7" rx="1.85" transform="rotate(-.579 12785.256 -21439.237) skewX(.008)" fill="#83E1E1" fill-opacity=".38"/><rect width="3.814" height="3.7" rx="1.85" transform="rotate(-.579 7197.822 -21410.428) skewX(.008)" fill="#83E1E1" fill-opacity=".38"/><rect width="3.814" height="3.7" rx="1.85" transform="rotate(-.579 18372.62 -21467.947) skewX(.008)" fill="#83E1E1" fill-opacity=".38"/><rect width="3.814" height="3.7" rx="1.85" transform="rotate(-.579 4404.11 -21396.074) skewX(.008)" fill="#83E1E1" fill-opacity=".38"/><rect width="3.814" height="3.7" rx="1.85" transform="rotate(-.579 15578.888 -21453.592) skewX(.008)" fill="#83E1E1" fill-opacity=".38"/><rect width="3.814" height="3.7" rx="1.85" transform="rotate(-.579 9991.524 -21424.783) skewX(.008)" fill="#83E1E1" fill-opacity=".38"/><rect width="3.814" height="3.7" rx="1.85" transform="rotate(-.579 21166.352 -21482.4) skewX(.008)" fill="#83E1E1" fill-opacity=".38"/><rect width="3.814" height="3.7" rx="1.85" transform="rotate(-.579 184.738 -27133.99) skewX(.008)" fill="#83E1E1" fill-opacity=".38"/><rect width="3.814" height="3.7" rx="1.85" transform="rotate(-.579 11359.559 -27191.508) skewX(.008)" fill="#83E1E1" fill-opacity=".38"/><rect width="3.814" height="3.7" rx="1.85" transform="rotate(-.579 5772.174 -27162.699) skewX(.008)" fill="#83E1E1" fill-opacity=".38"/><rect width="3.814" height="3.7" rx="1.85" transform="rotate(-.579 16947.022 -27220.217) skewX(.008)" fill="#83E1E1" fill-opacity=".38"/><rect width="3.814" height="3.7" rx="1.85" transform="rotate(-.579 2978.473 -27148.344) skewX(.008)" fill="#83E1E1" fill-opacity=".38"/><rect width="3.814" height="3.7" rx="1.85" transform="rotate(-.579 14153.29 -27205.862) skewX(.008)" fill="#83E1E1" fill-opacity=".38"/><rect width="3.814" height="3.7" rx="1.85" transform="rotate(-.579 8565.877 -27177.153) skewX(.008)" fill="#83E1E1" fill-opacity=".38"/><rect width="3.814" height="3.7" rx="1.85" transform="rotate(-.579 19740.755 -27234.671) skewX(.008)" fill="#83E1E1" fill-opacity=".38"/><rect width="3.814" height="3.7" rx="1.85" transform="rotate(-.579 1581.607 -27141.216) skewX(.008)" fill="#83E1E1" fill-opacity=".38"/><rect width="3.814" height="3.7" rx="1.85" transform="rotate(-.579 12756.424 -27198.635) skewX(.008)" fill="#83E1E1" fill-opacity=".38"/><rect width="3.814" height="3.7" rx="1.85" transform="rotate(-.579 7169.01 -27169.926) skewX(.008)" fill="#83E1E1" fill-opacity=".38"/><rect width="3.814" height="3.7" rx="1.85" transform="rotate(-.579 18343.888 -27227.444) skewX(.008)" fill="#83E1E1" fill-opacity=".38"/><rect width="3.814" height="3.7" rx="1.85" transform="rotate(-.579 4375.31 -27155.67) skewX(.008)" fill="#83E1E1" fill-opacity=".38"/><rect width="3.814" height="3.7" rx="1.85" transform="rotate(-.579 15550.157 -27213.09) skewX(.008)" fill="#83E1E1" fill-opacity=".38"/><rect width="3.814" height="3.7" rx="1.85" transform="rotate(-.579 9962.742 -27184.28) skewX(.008)" fill="#83E1E1" fill-opacity=".38"/><rect width="3.814" height="3.7" rx="1.85" transform="rotate(-.579 21137.62 -27241.898) skewX(.008)" fill="#83E1E1" fill-opacity=".38"/><rect width="3.814" height="3.7" rx="1.85" transform="rotate(-.579 206.336 -22814.366) skewX(.008)" fill="#83E1E1" fill-opacity=".38"/><rect width="3.814" height="3.7" rx="1.85" transform="rotate(-.579 11381.182 -22871.885) skewX(.008)" fill="#83E1E1" fill-opacity=".38"/><rect width="3.814" height="3.7" rx="1.85" transform="rotate(-.579 5793.768 -22843.076) skewX(.008)" fill="#83E1E1" fill-opacity=".38"/><rect width="3.814" height="3.7" rx="1.85" transform="rotate(-.579 16968.546 -22900.594) skewX(.008)" fill="#83E1E1" fill-opacity=".38"/><rect width="3.814" height="3.7" rx="1.85" transform="rotate(-.579 3000.046 -22828.721) skewX(.008)" fill="#83E1E1" fill-opacity=".38"/><rect width="3.814" height="3.7" rx="1.85" transform="rotate(-.579 14174.914 -22886.24) skewX(.008)" fill="#83E1E1" fill-opacity=".38"/><rect width="3.814" height="3.7" rx="1.85" transform="rotate(-.579 8587.48 -22857.43) skewX(.008)" fill="#83E1E1" fill-opacity=".38"/><rect width="3.814" height="3.7" rx="1.85" transform="rotate(-.579 19762.278 -22914.949) skewX(.008)" fill="#83E1E1" fill-opacity=".38"/><rect width="3.814" height="3.7" rx="1.85" transform="rotate(-.579 1603.2 -22821.494) skewX(.008)" fill="#83E1E1" fill-opacity=".38"/><rect width="3.814" height="3.7" rx="1.85" transform="rotate(-.579 12778.048 -22879.012) skewX(.008)" fill="#83E1E1" fill-opacity=".38"/><rect width="3.814" height="3.7" rx="1.85" transform="rotate(-.579 7190.614 -22850.303) skewX(.008)" fill="#83E1E1" fill-opacity=".38"/><rect width="3.814" height="3.7" rx="1.85" transform="rotate(-.579 18365.412 -22907.821) skewX(.008)" fill="#83E1E1" fill-opacity=".38"/><rect width="3.814" height="3.7" rx="1.85" transform="rotate(-.579 4396.902 -22835.849) skewX(.008)" fill="#83E1E1" fill-opacity=".38"/><rect width="3.814" height="3.7" rx="1.85" transform="rotate(-.579 15571.68 -22893.367) skewX(.008)" fill="#83E1E1" fill-opacity=".38"/><rect width="3.814" height="3.7" rx="1.85" transform="rotate(-.579 9984.316 -22864.658) skewX(.008)" fill="#83E1E1" fill-opacity=".38"/><rect width="3.814" height="3.7" rx="1.85" transform="rotate(-.579 21159.144 -22922.176) skewX(.008)" fill="#83E1E1" fill-opacity=".38"/><rect width="3.814" height="3.7" rx="1.85" transform="rotate(-.579 177.555 -28573.864) skewX(.008)" fill="#83E1E1" fill-opacity=".38"/><rect width="3.814" height="3.7" rx="1.85" transform="rotate(-.579 11352.351 -28631.382) skewX(.008)" fill="#83E1E1" fill-opacity=".38"/><rect width="3.814" height="3.7" rx="1.85" transform="rotate(-.579 5764.967 -28602.573) skewX(.008)" fill="#83E1E1" fill-opacity=".38"/><rect width="3.814" height="3.7" rx="1.85" transform="rotate(-.579 16939.815 -28660.19) skewX(.008)" fill="#83E1E1" fill-opacity=".38"/><rect width="3.814" height="3.7" rx="1.85" transform="rotate(-.579 2971.264 -28588.12) skewX(.008)" fill="#83E1E1" fill-opacity=".38"/><rect width="3.814" height="3.7" rx="1.85" transform="rotate(-.579 14146.083 -28645.737) skewX(.008)" fill="#83E1E1" fill-opacity=".38"/><rect width="3.814" height="3.7" rx="1.85" transform="rotate(-.579 8558.698 -28616.928) skewX(.008)" fill="#83E1E1" fill-opacity=".38"/><rect width="3.814" height="3.7" rx="1.85" transform="rotate(-.579 19733.547 -28674.545) skewX(.008)" fill="#83E1E1" fill-opacity=".38"/><rect width="3.814" height="3.7" rx="1.85" transform="rotate(-.579 1574.4 -28581.09) skewX(.008)" fill="#83E1E1" fill-opacity=".38"/><rect width="3.814" height="3.7" rx="1.85" transform="rotate(-.579 12749.217 -28638.51) skewX(.008)" fill="#83E1E1" fill-opacity=".38"/><rect width="3.814" height="3.7" rx="1.85" transform="rotate(-.579 7161.833 -28609.8) skewX(.008)" fill="#83E1E1" fill-opacity=".38"/><rect width="3.814" height="3.7" rx="1.85" transform="rotate(-.579 18336.68 -28667.319) skewX(.008)" fill="#83E1E1" fill-opacity=".38"/><rect width="3.814" height="3.7" rx="1.85" transform="rotate(-.579 4368.12 -28595.445) skewX(.008)" fill="#83E1E1" fill-opacity=".38"/><rect width="3.814" height="3.7" rx="1.85" transform="rotate(-.579 15542.949 -28652.964) skewX(.008)" fill="#83E1E1" fill-opacity=".38"/><rect width="3.814" height="3.7" rx="1.85" transform="rotate(-.579 9955.535 -28624.155) skewX(.008)" fill="#83E1E1" fill-opacity=".38"/><rect width="3.814" height="3.7" rx="1.85" transform="rotate(-.579 21130.412 -28681.673) skewX(.008)" fill="#83E1E1" fill-opacity=".38"/><rect width="3.814" height="3.7" rx="1.85" transform="rotate(-.579 199.153 -24254.24) skewX(.008)" fill="#83E1E1" fill-opacity=".38"/><rect width="3.814" height="3.7" rx="1.85" transform="rotate(-.579 11373.974 -24311.759) skewX(.008)" fill="#83E1E1" fill-opacity=".38"/><rect width="3.814" height="3.7" rx="1.85" transform="rotate(-.579 5786.56 -24283.05) skewX(.008)" fill="#83E1E1" fill-opacity=".38"/><rect width="3.814" height="3.7" rx="1.85" transform="rotate(-.579 16961.339 -24340.568) skewX(.008)" fill="#83E1E1" fill-opacity=".38"/><rect width="3.814" height="3.7" rx="1.85" transform="rotate(-.579 2992.859 -24268.695) skewX(.008)" fill="#83E1E1" fill-opacity=".38"/><rect width="3.814" height="3.7" rx="1.85" transform="rotate(-.579 14167.706 -24326.114) skewX(.008)" fill="#83E1E1" fill-opacity=".38"/><rect width="3.814" height="3.7" rx="1.85" transform="rotate(-.579 8580.273 -24297.404) skewX(.008)" fill="#83E1E1" fill-opacity=".38"/><rect width="3.814" height="3.7" rx="1.85" transform="rotate(-.579 19755.07 -24354.923) skewX(.008)" fill="#83E1E1" fill-opacity=".38"/><rect width="3.814" height="3.7" rx="1.85" transform="rotate(-.579 1595.993 -24261.468) skewX(.008)" fill="#83E1E1" fill-opacity=".38"/><rect width="3.814" height="3.7" rx="1.85" transform="rotate(-.579 12770.84 -24318.986) skewX(.008)" fill="#83E1E1" fill-opacity=".38"/><rect width="3.814" height="3.7" rx="1.85" transform="rotate(-.579 7183.426 -24290.177) skewX(.008)" fill="#83E1E1" fill-opacity=".38"/><rect width="3.814" height="3.7" rx="1.85" transform="rotate(-.579 18358.205 -24347.696) skewX(.008)" fill="#83E1E1" fill-opacity=".38"/><rect width="3.814" height="3.7" rx="1.85" transform="rotate(-.579 4389.695 -24275.822) skewX(.008)" fill="#83E1E1" fill-opacity=".38"/><rect width="3.814" height="3.7" rx="1.85" transform="rotate(-.579 15564.572 -24333.34) skewX(.008)" fill="#83E1E1" fill-opacity=".38"/><rect width="3.814" height="3.7" rx="1.85" transform="rotate(-.579 9977.139 -24304.631) skewX(.008)" fill="#83E1E1" fill-opacity=".38"/><rect width="3.814" height="3.7" rx="1.85" transform="rotate(-.579 21151.937 -24362.15) skewX(.008)" fill="#83E1E1" fill-opacity=".38"/><rect width="3.814" height="3.7" rx="1.85" transform="rotate(-.579 170.348 -30013.738) skewX(.008)" fill="#83E1E1" fill-opacity=".38"/><rect width="3.814" height="3.7" rx="1.85" transform="rotate(-.579 11345.243 -30071.256) skewX(.008)" fill="#83E1E1" fill-opacity=".38"/><rect width="3.814" height="3.7" rx="1.85" transform="rotate(-.579 5757.779 -30042.448) skewX(.008)" fill="#83E1E1" fill-opacity=".38"/><rect width="3.814" height="3.7" rx="1.85" transform="rotate(-.579 16932.607 -30100.065) skewX(.008)" fill="#83E1E1" fill-opacity=".38"/><rect width="3.814" height="3.7" rx="1.85" transform="rotate(-.579 2964.057 -30028.093) skewX(.008)" fill="#83E1E1" fill-opacity=".38"/><rect width="3.814" height="3.7" rx="1.85" transform="rotate(-.579 14138.875 -30085.611) skewX(.008)" fill="#83E1E1" fill-opacity=".38"/><rect width="3.814" height="3.7" rx="1.85" transform="rotate(-.579 8551.411 -30056.803) skewX(.008)" fill="#83E1E1" fill-opacity=".38"/><rect width="3.814" height="3.7" rx="1.85" transform="rotate(-.579 19726.338 -30114.32) skewX(.008)" fill="#83E1E1" fill-opacity=".38"/><rect width="3.814" height="3.7" rx="1.85" transform="rotate(-.579 1567.21 -30020.866) skewX(.008)" fill="#83E1E1" fill-opacity=".38"/><rect width="3.814" height="3.7" rx="1.85" transform="rotate(-.579 12742.01 -30078.484) skewX(.008)" fill="#83E1E1" fill-opacity=".38"/><rect width="3.814" height="3.7" rx="1.85" transform="rotate(-.579 7154.624 -30049.575) skewX(.008)" fill="#83E1E1" fill-opacity=".38"/><rect width="3.814" height="3.7" rx="1.85" transform="rotate(-.579 18329.473 -30107.193) skewX(.008)" fill="#83E1E1" fill-opacity=".38"/><rect width="3.814" height="3.7" rx="1.85" transform="rotate(-.579 4360.913 -30035.32) skewX(.008)" fill="#83E1E1" fill-opacity=".38"/><rect width="3.814" height="3.7" rx="1.85" transform="rotate(-.579 15535.74 -30092.739) skewX(.008)" fill="#83E1E1" fill-opacity=".38"/><rect width="3.814" height="3.7" rx="1.85" transform="rotate(-.579 9948.357 -30064.03) skewX(.008)" fill="#83E1E1" fill-opacity=".38"/><rect width="3.814" height="3.7" rx="1.85" transform="rotate(-.579 21123.205 -30121.548) skewX(.008)" fill="#83E1E1" fill-opacity=".38"/><rect width="3.814" height="3.7" rx="1.85" transform="rotate(-.579 191.946 -25694.115) skewX(.008)" fill="#83E1E1" fill-opacity=".38"/><rect width="3.814" height="3.7" rx="1.85" transform="rotate(-.579 11366.767 -25751.633) skewX(.008)" fill="#83E1E1" fill-opacity=".38"/><rect width="3.814" height="3.7" rx="1.85" transform="rotate(-.579 5779.353 -25722.924) skewX(.008)" fill="#83E1E1" fill-opacity=".38"/><rect width="3.814" height="3.7" rx="1.85" transform="rotate(-.579 16954.23 -25780.442) skewX(.008)" fill="#83E1E1" fill-opacity=".38"/><rect width="3.814" height="3.7" rx="1.85" transform="rotate(-.579 2985.65 -25708.47) skewX(.008)" fill="#83E1E1" fill-opacity=".38"/><rect width="3.814" height="3.7" rx="1.85" transform="rotate(-.579 14160.498 -25765.988) skewX(.008)" fill="#83E1E1" fill-opacity=".38"/><rect width="3.814" height="3.7" rx="1.85" transform="rotate(-.579 8573.085 -25737.279) skewX(.008)" fill="#83E1E1" fill-opacity=".38"/><rect width="3.814" height="3.7" rx="1.85" transform="rotate(-.579 19747.863 -25794.797) skewX(.008)" fill="#83E1E1" fill-opacity=".38"/><rect width="3.814" height="3.7" rx="1.85" transform="rotate(-.579 1588.815 -25701.342) skewX(.008)" fill="#83E1E1" fill-opacity=".38"/><rect width="3.814" height="3.7" rx="1.85" transform="rotate(-.579 12763.633 -25758.86) skewX(.008)" fill="#83E1E1" fill-opacity=".38"/><rect width="3.814" height="3.7" rx="1.85" transform="rotate(-.579 7176.219 -25730.052) skewX(.008)" fill="#83E1E1" fill-opacity=".38"/><rect width="3.814" height="3.7" rx="1.85" transform="rotate(-.579 18351.096 -25787.57) skewX(.008)" fill="#83E1E1" fill-opacity=".38"/><rect width="3.814" height="3.7" rx="1.85" transform="rotate(-.579 4382.517 -25715.697) skewX(.008)" fill="#83E1E1" fill-opacity=".38"/><rect width="3.814" height="3.7" rx="1.85" transform="rotate(-.579 15557.364 -25773.116) skewX(.008)" fill="#83E1E1" fill-opacity=".38"/><rect width="3.814" height="3.7" rx="1.85" transform="rotate(-.579 9969.93 -25744.406) skewX(.008)" fill="#83E1E1" fill-opacity=".38"/><rect width="3.814" height="3.7" rx="1.85" transform="rotate(-.579 21144.73 -25802.024) skewX(.008)" fill="#83E1E1" fill-opacity=".38"/><rect width="3.814" height="3.7" rx="1.85" transform="rotate(-.579 163.165 -31453.612) skewX(.008)" fill="#83E1E1" fill-opacity=".38"/><rect width="3.814" height="3.7" rx="1.85" transform="rotate(-.579 11338.035 -31511.13) skewX(.008)" fill="#83E1E1" fill-opacity=".38"/><rect width="3.814" height="3.7" rx="1.85" transform="rotate(-.579 5750.571 -31482.322) skewX(.008)" fill="#83E1E1" fill-opacity=".38"/><rect width="3.814" height="3.7" rx="1.85" transform="rotate(-.579 16925.399 -31539.84) skewX(.008)" fill="#83E1E1" fill-opacity=".38"/><rect width="3.814" height="3.7" rx="1.85" transform="rotate(-.579 2956.87 -31467.967) skewX(.008)" fill="#83E1E1" fill-opacity=".38"/><rect width="3.814" height="3.7" rx="1.85" transform="rotate(-.579 14131.667 -31525.486) skewX(.008)" fill="#83E1E1" fill-opacity=".38"/><rect width="3.814" height="3.7" rx="1.85" transform="rotate(-.579 8544.283 -31496.677) skewX(.008)" fill="#83E1E1" fill-opacity=".38"/><rect width="3.814" height="3.7" rx="1.85" transform="rotate(-.579 19719.131 -31554.294) skewX(.008)" fill="#83E1E1" fill-opacity=".38"/><rect width="3.814" height="3.7" rx="1.85" transform="rotate(-.579 1559.934 -31460.84) skewX(.008)" fill="#83E1E1" fill-opacity=".38"/><rect width="3.814" height="3.7" rx="1.85" transform="rotate(-.579 12734.801 -31518.259) skewX(.008)" fill="#83E1E1" fill-opacity=".38"/><rect width="3.814" height="3.7" rx="1.85" transform="rotate(-.579 7147.437 -31489.45) skewX(.008)" fill="#83E1E1" fill-opacity=".38"/><rect width="3.814" height="3.7" rx="1.85" transform="rotate(-.579 18322.265 -31547.067) skewX(.008)" fill="#83E1E1" fill-opacity=".38"/><rect width="3.814" height="3.7" rx="1.85" transform="rotate(-.579 4353.735 -31475.194) skewX(.008)" fill="#83E1E1" fill-opacity=".38"/><rect width="3.814" height="3.7" rx="1.85" transform="rotate(-.579 15528.434 -31532.713) skewX(.008)" fill="#83E1E1" fill-opacity=".38"/><rect width="3.814" height="3.7" rx="1.85" transform="rotate(-.579 9941.149 -31503.904) skewX(.008)" fill="#83E1E1" fill-opacity=".38"/><rect width="3.814" height="3.7" rx="1.85" transform="rotate(-.579 21115.897 -31561.422) skewX(.008)" fill="#83E1E1" fill-opacity=".38"/><rect width="3.814" height="3.7" rx="1.85" transform="rotate(-.579 270.98 -9931.383) skewX(.008)" fill="#83E1E1" fill-opacity=".38"/><rect width="3.814" height="3.7" rx="1.85" transform="rotate(-.579 11445.741 -9988.902) skewX(.008)" fill="#83E1E1" fill-opacity=".38"/><rect width="3.814" height="3.7" rx="1.85" transform="rotate(-.579 5858.297 -9960.093) skewX(.008)" fill="#83E1E1" fill-opacity=".38"/><rect width="3.814" height="3.7" rx="1.85" transform="rotate(-.579 17033.105 -10017.612) skewX(.008)" fill="#83E1E1" fill-opacity=".38"/><rect width="3.814" height="3.7" rx="1.85" transform="rotate(-.579 3064.615 -9945.738) skewX(.008)" fill="#83E1E1" fill-opacity=".38"/><rect width="3.814" height="3.7" rx="1.85" transform="rotate(-.579 14239.473 -10003.257) skewX(.008)" fill="#83E1E1" fill-opacity=".38"/><rect width="3.814" height="3.7" rx="1.85" transform="rotate(-.579 8652.019 -9974.448) skewX(.008)" fill="#83E1E1" fill-opacity=".38"/><rect width="3.814" height="3.7" rx="1.85" transform="rotate(-.579 19826.837 -10031.966) skewX(.008)" fill="#83E1E1" fill-opacity=".38"/><rect width="3.814" height="3.7" rx="1.85" transform="rotate(-.579 1667.75 -9938.511) skewX(.008)" fill="#83E1E1" fill-opacity=".38"/><rect width="3.814" height="3.7" rx="1.85" transform="rotate(-.579 12842.607 -9996.03) skewX(.008)" fill="#83E1E1" fill-opacity=".38"/><rect width="3.814" height="3.7" rx="1.85" transform="rotate(-.579 7255.163 -9967.32) skewX(.008)" fill="#83E1E1" fill-opacity=".38"/><rect width="3.814" height="3.7" rx="1.85" transform="rotate(-.579 18429.971 -10024.839) skewX(.008)" fill="#83E1E1" fill-opacity=".38"/><rect width="3.814" height="3.7" rx="1.85" transform="rotate(-.579 4461.451 -9952.866) skewX(.008)" fill="#83E1E1" fill-opacity=".38"/><rect width="3.814" height="3.7" rx="1.85" transform="rotate(-.579 15636.24 -10010.484) skewX(.008)" fill="#83E1E1" fill-opacity=".38"/><rect width="3.814" height="3.7" rx="1.85" transform="rotate(-.579 10048.875 -9981.675) skewX(.008)" fill="#83E1E1" fill-opacity=".38"/><rect width="3.814" height="3.7" rx="1.85" transform="rotate(-.579 21223.703 -10039.193) skewX(.008)" fill="#83E1E1" fill-opacity=".38"/><rect width="3.814" height="3.7" rx="1.85" transform="rotate(-.579 242.103 -15690.782) skewX(.008)" fill="#83E1E1" fill-opacity=".38"/><rect width="3.814" height="3.7" rx="1.85" transform="rotate(-.579 11416.91 -15748.3) skewX(.008)" fill="#83E1E1" fill-opacity=".38"/><rect width="3.814" height="3.7" rx="1.85" transform="rotate(-.579 5829.515 -15719.491) skewX(.008)" fill="#83E1E1" fill-opacity=".38"/><rect width="3.814" height="3.7" rx="1.85" transform="rotate(-.579 17004.374 -15777.109) skewX(.008)" fill="#83E1E1" fill-opacity=".38"/><rect width="3.814" height="3.7" rx="1.85" transform="rotate(-.579 3035.803 -15705.137) skewX(.008)" fill="#83E1E1" fill-opacity=".38"/><rect width="3.814" height="3.7" rx="1.85" transform="rotate(-.579 14210.642 -15762.754) skewX(.008)" fill="#83E1E1" fill-opacity=".38"/><rect width="3.814" height="3.7" rx="1.85" transform="rotate(-.579 8623.217 -15733.846) skewX(.008)" fill="#83E1E1" fill-opacity=".38"/><rect width="3.814" height="3.7" rx="1.85" transform="rotate(-.579 19798.105 -15791.464) skewX(.008)" fill="#83E1E1" fill-opacity=".38"/><rect width="3.814" height="3.7" rx="1.85" transform="rotate(-.579 1638.948 -15698.009) skewX(.008)" fill="#83E1E1" fill-opacity=".38"/><rect width="3.814" height="3.7" rx="1.85" transform="rotate(-.579 12813.776 -15755.527) skewX(.008)" fill="#83E1E1" fill-opacity=".38"/><rect width="3.814" height="3.7" rx="1.85" transform="rotate(-.579 7226.382 -15726.818) skewX(.008)" fill="#83E1E1" fill-opacity=".38"/><rect width="3.814" height="3.7" rx="1.85" transform="rotate(-.579 18401.24 -15784.237) skewX(.008)" fill="#83E1E1" fill-opacity=".38"/><rect width="3.814" height="3.7" rx="1.85" transform="rotate(-.579 4432.65 -15712.463) skewX(.008)" fill="#83E1E1" fill-opacity=".38"/><rect width="3.814" height="3.7" rx="1.85" transform="rotate(-.579 15607.507 -15769.882) skewX(.008)" fill="#83E1E1" fill-opacity=".38"/><rect width="3.814" height="3.7" rx="1.85" transform="rotate(-.579 10020.044 -15741.073) skewX(.008)" fill="#83E1E1" fill-opacity=".38"/><rect width="3.814" height="3.7" rx="1.85" transform="rotate(-.579 21194.971 -15798.69) skewX(.008)" fill="#83E1E1" fill-opacity=".38"/><rect width="3.814" height="3.7" rx="1.85" transform="rotate(-.579 263.676 -11371.159) skewX(.008)" fill="#83E1E1" fill-opacity=".38"/><rect width="3.814" height="3.7" rx="1.85" transform="rotate(-.579 11438.533 -11428.677) skewX(.008)" fill="#83E1E1" fill-opacity=".38"/><rect width="3.814" height="3.7" rx="1.85" transform="rotate(-.579 5851.109 -11399.868) skewX(.008)" fill="#83E1E1" fill-opacity=".38"/><rect width="3.814" height="3.7" rx="1.85" transform="rotate(-.579 17025.897 -11457.387) skewX(.008)" fill="#83E1E1" fill-opacity=".38"/><rect width="3.814" height="3.7" rx="1.85" transform="rotate(-.579 3057.407 -11385.513) skewX(.008)" fill="#83E1E1" fill-opacity=".38"/><rect width="3.814" height="3.7" rx="1.85" transform="rotate(-.579 14232.265 -11443.032) skewX(.008)" fill="#83E1E1" fill-opacity=".38"/><rect width="3.814" height="3.7" rx="1.85" transform="rotate(-.579 8644.81 -11414.223) skewX(.008)" fill="#83E1E1" fill-opacity=".38"/><rect width="3.814" height="3.7" rx="1.85" transform="rotate(-.579 19819.63 -11471.84) skewX(.008)" fill="#83E1E1" fill-opacity=".38"/><rect width="3.814" height="3.7" rx="1.85" transform="rotate(-.579 1660.54 -11378.286) skewX(.008)" fill="#83E1E1" fill-opacity=".38"/><rect width="3.814" height="3.7" rx="1.85" transform="rotate(-.579 12835.4 -11435.904) skewX(.008)" fill="#83E1E1" fill-opacity=".38"/><rect width="3.814" height="3.7" rx="1.85" transform="rotate(-.579 7247.955 -11407.095) skewX(.008)" fill="#83E1E1" fill-opacity=".38"/><rect width="3.814" height="3.7" rx="1.85" transform="rotate(-.579 18422.763 -11464.614) skewX(.008)" fill="#83E1E1" fill-opacity=".38"/><rect width="3.814" height="3.7" rx="1.85" transform="rotate(-.579 4454.243 -11392.74) skewX(.008)" fill="#83E1E1" fill-opacity=".38"/><rect width="3.814" height="3.7" rx="1.85" transform="rotate(-.579 15629.13 -11450.259) skewX(.008)" fill="#83E1E1" fill-opacity=".38"/><rect width="3.814" height="3.7" rx="1.85" transform="rotate(-.579 10041.667 -11421.45) skewX(.008)" fill="#83E1E1" fill-opacity=".38"/><rect width="3.814" height="3.7" rx="1.85" transform="rotate(-.579 21216.495 -11478.968) skewX(.008)" fill="#83E1E1" fill-opacity=".38"/><rect width="3.814" height="3.7" rx="1.85" transform="rotate(-.579 234.895 -17130.656) skewX(.008)" fill="#83E1E1" fill-opacity=".38"/><rect width="3.814" height="3.7" rx="1.85" transform="rotate(-.579 11409.702 -17188.175) skewX(.008)" fill="#83E1E1" fill-opacity=".38"/><rect width="3.814" height="3.7" rx="1.85" transform="rotate(-.579 5822.308 -17159.465) skewX(.008)" fill="#83E1E1" fill-opacity=".38"/><rect width="3.814" height="3.7" rx="1.85" transform="rotate(-.579 16997.166 -17216.983) skewX(.008)" fill="#83E1E1" fill-opacity=".38"/><rect width="3.814" height="3.7" rx="1.85" transform="rotate(-.579 3028.596 -17145.011) skewX(.008)" fill="#83E1E1" fill-opacity=".38"/><rect width="3.814" height="3.7" rx="1.85" transform="rotate(-.579 14203.434 -17202.629) skewX(.008)" fill="#83E1E1" fill-opacity=".38"/><rect width="3.814" height="3.7" rx="1.85" transform="rotate(-.579 8616.04 -17173.82) skewX(.008)" fill="#83E1E1" fill-opacity=".38"/><rect width="3.814" height="3.7" rx="1.85" transform="rotate(-.579 19790.897 -17231.239) skewX(.008)" fill="#83E1E1" fill-opacity=".38"/><rect width="3.814" height="3.7" rx="1.85" transform="rotate(-.579 1631.76 -17137.883) skewX(.008)" fill="#83E1E1" fill-opacity=".38"/><rect width="3.814" height="3.7" rx="1.85" transform="rotate(-.579 12806.568 -17195.402) skewX(.008)" fill="#83E1E1" fill-opacity=".38"/><rect width="3.814" height="3.7" rx="1.85" transform="rotate(-.579 7219.174 -17166.593) skewX(.008)" fill="#83E1E1" fill-opacity=".38"/><rect width="3.814" height="3.7" rx="1.85" transform="rotate(-.579 18394.031 -17224.111) skewX(.008)" fill="#83E1E1" fill-opacity=".38"/><rect width="3.814" height="3.7" rx="1.85" transform="rotate(-.579 4425.462 -17152.238) skewX(.008)" fill="#83E1E1" fill-opacity=".38"/><rect width="3.814" height="3.7" rx="1.85" transform="rotate(-.579 15600.3 -17209.756) skewX(.008)" fill="#83E1E1" fill-opacity=".38"/><rect width="3.814" height="3.7" rx="1.85" transform="rotate(-.579 10012.876 -17181.047) skewX(.008)" fill="#83E1E1" fill-opacity=".38"/><rect width="3.814" height="3.7" rx="1.85" transform="rotate(-.579 21187.764 -17238.565) skewX(.008)" fill="#83E1E1" fill-opacity=".38"/><rect width="3.814" height="3.7" rx="1.85" transform="rotate(-.579 256.493 -12811.033) skewX(.008)" fill="#83E1E1" fill-opacity=".38"/><rect width="3.814" height="3.7" rx="1.85" transform="rotate(-.579 11431.325 -12868.551) skewX(.008)" fill="#83E1E1" fill-opacity=".38"/><rect width="3.814" height="3.7" rx="1.85" transform="rotate(-.579 5843.902 -12839.842) skewX(.008)" fill="#83E1E1" fill-opacity=".38"/><rect width="3.814" height="3.7" rx="1.85" transform="rotate(-.579 17018.79 -12897.36) skewX(.008)" fill="#83E1E1" fill-opacity=".38"/><rect width="3.814" height="3.7" rx="1.85" transform="rotate(-.579 3050.2 -12825.487) skewX(.008)" fill="#83E1E1" fill-opacity=".38"/><rect width="3.814" height="3.7" rx="1.85" transform="rotate(-.579 14225.057 -12882.906) skewX(.008)" fill="#83E1E1" fill-opacity=".38"/><rect width="3.814" height="3.7" rx="1.85" transform="rotate(-.579 8637.613 -12854.197) skewX(.008)" fill="#83E1E1" fill-opacity=".38"/><rect width="3.814" height="3.7" rx="1.85" transform="rotate(-.579 19812.422 -12911.715) skewX(.008)" fill="#83E1E1" fill-opacity=".38"/><rect width="3.814" height="3.7" rx="1.85" transform="rotate(-.579 1653.334 -12818.26) skewX(.008)" fill="#83E1E1" fill-opacity=".38"/><rect width="3.814" height="3.7" rx="1.85" transform="rotate(-.579 12828.191 -12875.778) skewX(.008)" fill="#83E1E1" fill-opacity=".38"/><rect width="3.814" height="3.7" rx="1.85" transform="rotate(-.579 7240.768 -12847.069) skewX(.008)" fill="#83E1E1" fill-opacity=".38"/><rect width="3.814" height="3.7" rx="1.85" transform="rotate(-.579 18415.655 -12904.488) skewX(.008)" fill="#83E1E1" fill-opacity=".38"/><rect width="3.814" height="3.7" rx="1.85" transform="rotate(-.579 4447.065 -12832.615) skewX(.008)" fill="#83E1E1" fill-opacity=".38"/><rect width="3.814" height="3.7" rx="1.85" transform="rotate(-.579 15621.924 -12890.232) skewX(.008)" fill="#83E1E1" fill-opacity=".38"/><rect width="3.814" height="3.7" rx="1.85" transform="rotate(-.579 10034.46 -12861.424) skewX(.008)" fill="#83E1E1" fill-opacity=".38"/><rect width="3.814" height="3.7" rx="1.85" transform="rotate(-.579 21209.288 -12918.942) skewX(.008)" fill="#83E1E1" fill-opacity=".38"/><rect width="3.814" height="3.7" rx="1.85" transform="rotate(-.579 227.687 -18570.53) skewX(.008)" fill="#83E1E1" fill-opacity=".38"/><rect width="3.814" height="3.7" rx="1.85" transform="rotate(-.579 11402.494 -18628.05) skewX(.008)" fill="#83E1E1" fill-opacity=".38"/><rect width="3.814" height="3.7" rx="1.85" transform="rotate(-.579 5815.12 -18599.34) skewX(.008)" fill="#83E1E1" fill-opacity=".38"/><rect width="3.814" height="3.7" rx="1.85" transform="rotate(-.579 16989.958 -18656.758) skewX(.008)" fill="#83E1E1" fill-opacity=".38"/><rect width="3.814" height="3.7" rx="1.85" transform="rotate(-.579 3021.418 -18584.885) skewX(.008)" fill="#83E1E1" fill-opacity=".38"/><rect width="3.814" height="3.7" rx="1.85" transform="rotate(-.579 14196.226 -18642.404) skewX(.008)" fill="#83E1E1" fill-opacity=".38"/><rect width="3.814" height="3.7" rx="1.85" transform="rotate(-.579 8608.832 -18613.694) skewX(.008)" fill="#83E1E1" fill-opacity=".38"/><rect width="3.814" height="3.7" rx="1.85" transform="rotate(-.579 19783.59 -18671.213) skewX(.008)" fill="#83E1E1" fill-opacity=".38"/><rect width="3.814" height="3.7" rx="1.85" transform="rotate(-.579 1624.552 -18577.758) skewX(.008)" fill="#83E1E1" fill-opacity=".38"/><rect width="3.814" height="3.7" rx="1.85" transform="rotate(-.579 12799.36 -18635.276) skewX(.008)" fill="#83E1E1" fill-opacity=".38"/><rect width="3.814" height="3.7" rx="1.85" transform="rotate(-.579 7211.966 -18606.467) skewX(.008)" fill="#83E1E1" fill-opacity=".38"/><rect width="3.814" height="3.7" rx="1.85" transform="rotate(-.579 18386.724 -18663.986) skewX(.008)" fill="#83E1E1" fill-opacity=".38"/><rect width="3.814" height="3.7" rx="1.85" transform="rotate(-.579 4418.254 -18592.112) skewX(.008)" fill="#83E1E1" fill-opacity=".38"/><rect width="3.814" height="3.7" rx="1.85" transform="rotate(-.579 15593.092 -18649.63) skewX(.008)" fill="#83E1E1" fill-opacity=".38"/><rect width="3.814" height="3.7" rx="1.85" transform="rotate(-.579 10005.688 -18620.822) skewX(.008)" fill="#83E1E1" fill-opacity=".38"/><rect width="3.814" height="3.7" rx="1.85" transform="rotate(-.579 21180.556 -18678.44) skewX(.008)" fill="#83E1E1" fill-opacity=".38"/><rect width="3.814" height="3.7" rx="1.85" transform="rotate(-.579 249.285 -14250.907) skewX(.008)" fill="#83E1E1" fill-opacity=".38"/><rect width="3.814" height="3.7" rx="1.85" transform="rotate(-.579 11424.118 -14308.525) skewX(.008)" fill="#83E1E1" fill-opacity=".38"/><rect width="3.814" height="3.7" rx="1.85" transform="rotate(-.579 5836.723 -14279.617) skewX(.008)" fill="#83E1E1" fill-opacity=".38"/><rect width="3.814" height="3.7" rx="1.85" transform="rotate(-.579 17011.581 -14337.234) skewX(.008)" fill="#83E1E1" fill-opacity=".38"/><rect width="3.814" height="3.7" rx="1.85" transform="rotate(-.579 3042.992 -14265.362) skewX(.008)" fill="#83E1E1" fill-opacity=".38"/><rect width="3.814" height="3.7" rx="1.85" transform="rotate(-.579 14217.85 -14322.88) skewX(.008)" fill="#83E1E1" fill-opacity=".38"/><rect width="3.814" height="3.7" rx="1.85" transform="rotate(-.579 8630.425 -14294.071) skewX(.008)" fill="#83E1E1" fill-opacity=".38"/><rect width="3.814" height="3.7" rx="1.85" transform="rotate(-.579 19805.314 -14351.688) skewX(.008)" fill="#83E1E1" fill-opacity=".38"/><rect width="3.814" height="3.7" rx="1.85" transform="rotate(-.579 1646.146 -14258.135) skewX(.008)" fill="#83E1E1" fill-opacity=".38"/><rect width="3.814" height="3.7" rx="1.85" transform="rotate(-.579 12820.984 -14315.653) skewX(.008)" fill="#83E1E1" fill-opacity=".38"/><rect width="3.814" height="3.7" rx="1.85" transform="rotate(-.579 7233.56 -14286.943) skewX(.008)" fill="#83E1E1" fill-opacity=".38"/><rect width="3.814" height="3.7" rx="1.85" transform="rotate(-.579 18408.447 -14344.362) skewX(.008)" fill="#83E1E1" fill-opacity=".38"/><rect width="3.814" height="3.7" rx="1.85" transform="rotate(-.579 4439.857 -14272.49) skewX(.008)" fill="#83E1E1" fill-opacity=".38"/><rect width="3.814" height="3.7" rx="1.85" transform="rotate(-.579 15614.715 -14330.008) skewX(.008)" fill="#83E1E1" fill-opacity=".38"/><rect width="3.814" height="3.7" rx="1.85" transform="rotate(-.579 10027.252 -14301.298) skewX(.008)" fill="#83E1E1" fill-opacity=".38"/><rect width="3.814" height="3.7" rx="1.85" transform="rotate(-.579 21202.08 -14358.817) skewX(.008)" fill="#83E1E1" fill-opacity=".38"/><rect width="3.814" height="3.7" rx="1.85" transform="rotate(-.579 220.504 -20010.405) skewX(.008)" fill="#83E1E1" fill-opacity=".38"/><rect width="3.814" height="3.7" rx="1.85" transform="rotate(-.579 11395.286 -20067.924) skewX(.008)" fill="#83E1E1" fill-opacity=".38"/><rect width="3.814" height="3.7" rx="1.85" transform="rotate(-.579 5807.912 -20039.214) skewX(.008)" fill="#83E1E1" fill-opacity=".38"/><rect width="3.814" height="3.7" rx="1.85" transform="rotate(-.579 16982.65 -20096.633) skewX(.008)" fill="#83E1E1" fill-opacity=".38"/><rect width="3.814" height="3.7" rx="1.85" transform="rotate(-.579 3014.21 -20024.76) skewX(.008)" fill="#83E1E1" fill-opacity=".38"/><rect width="3.814" height="3.7" rx="1.85" transform="rotate(-.579 14189.018 -20082.278) skewX(.008)" fill="#83E1E1" fill-opacity=".38"/><rect width="3.814" height="3.7" rx="1.85" transform="rotate(-.579 8601.624 -20053.569) skewX(.008)" fill="#83E1E1" fill-opacity=".38"/><rect width="3.814" height="3.7" rx="1.85" transform="rotate(-.579 19776.482 -20111.087) skewX(.008)" fill="#83E1E1" fill-opacity=".38"/><rect width="3.814" height="3.7" rx="1.85" transform="rotate(-.579 1617.374 -20017.632) skewX(.008)" fill="#83E1E1" fill-opacity=".38"/><rect width="3.814" height="3.7" rx="1.85" transform="rotate(-.579 12792.152 -20075.15) skewX(.008)" fill="#83E1E1" fill-opacity=".38"/><rect width="3.814" height="3.7" rx="1.85" transform="rotate(-.579 7204.778 -20046.341) skewX(.008)" fill="#83E1E1" fill-opacity=".38"/><rect width="3.814" height="3.7" rx="1.85" transform="rotate(-.579 18379.517 -20103.86) skewX(.008)" fill="#83E1E1" fill-opacity=".38"/><rect width="3.814" height="3.7" rx="1.85" transform="rotate(-.579 4411.076 -20031.987) skewX(.008)" fill="#83E1E1" fill-opacity=".38"/><rect width="3.814" height="3.7" rx="1.85" transform="rotate(-.579 15585.785 -20089.506) skewX(.008)" fill="#83E1E1" fill-opacity=".38"/><rect width="3.814" height="3.7" rx="1.85" transform="rotate(-.579 9998.41 -20060.796) skewX(.008)" fill="#83E1E1" fill-opacity=".38"/><rect width="3.814" height="3.7" rx="1.85" transform="rotate(-.579 21173.248 -20118.215) skewX(.008)" fill="#83E1E1" fill-opacity=".38"/><path d="M199.5 45.5H40C18.737 45.5 1.5 62.737 1.5 84v74.5h198v-113z" stroke="url(#prefix__paint0_linear)" stroke-width="3"/><path d="M290.5 153.5h-112v89H280c5.799 0 10.5-4.701 10.5-10.5v-78.5z" stroke="url(#prefix__paint1_linear)" stroke-opacity=".2" stroke-width="3"/><g clip-path="url(#prefix__clip0)"><path d="M17 83c0-11.046 8.954-20 20-20h241v162H17V83z" fill="#F9F9F9"/><path d="M277.88 225H17v-.676h261l-.12.676z" fill="#3F3D56"/><path d="M244.8 117.398l-6.602 13.347-19.739 9.165c-2.108 3.638-8.806 3.917-9.293 1.564-.547-2.639 8.134-6.888 8.134-6.888l16.51-11.404 1.445-9.818 9.545 4.034zM244.021 206.969l1.217 9.947-7.061.498-.73-10.445h6.574z" fill="#A0616A"/><path d="M243.047 215.424a19.33 19.33 0 001.742-2.176c1.012-1.43 1.91 5.907 1.91 5.907s.974 2.984.731 4.476c-.244 1.492-5.844 1.492-6.818 1.243-.974-.249-5.844 0-5.844 0h-7.304c-6.331-2.984 0-4.973 0-4.973 1.948-.249 8.522-6.466 8.522-6.466l1.461-2.735c.974-.249 1.948 3.481 1.948 3.481l3.652 1.243z" fill="#2F2E41"/><path d="M262.283 207.094l1.217 9.947-7.061.497-.731-10.444h6.575z" fill="#A0616A"/><path d="M261.309 215.549a19.341 19.341 0 001.742-2.177c1.012-1.43 1.91 5.907 1.91 5.907s.974 2.735.731 4.227c-.244 1.492-5.844 1.492-6.818 1.244-.974-.249-5.844.248-5.844.248h-7.304c-6.331-2.984 0-4.973 0-4.973 1.947-.249 8.522-6.466 8.522-6.466l1.461-2.735c.974-.249 1.948 3.481 1.948 3.481l3.652 1.244z" fill="#2F2E41"/><path d="M254.248 142.936c.974 1.243.487 5.471.487 5.471s1.704 13.677.974 14.92c-.731 1.244.487 2.238 1.217 3.979.731 1.741 1.461 5.968 1.461 5.968 4.14 3.482 3.896 19.397 3.896 19.397l1.461 14.174c-.487 1.492-7.305 1.741-8.279 1.492-.974-.249-3.896-22.629-3.896-22.629l-6.574-12.682s.487 33.819.487 35.311c0 1.492-6.574.746-8.035.746-1.461 0-1.461-24.867-1.461-24.867l-1.461-6.466-7.792-29.592v-3.481l1.218-1.741s25.323-1.243 26.297 0z" fill="url(#prefix__paint2_linear)" fill-opacity=".2"/><path d="M243.534 86.487c4.169 0 7.548-3.45 7.548-7.708s-3.379-7.71-7.548-7.71c-4.169 0-7.548 3.452-7.548 7.71 0 4.257 3.379 7.709 7.548 7.709z" fill="#A0616A"/><path d="M239.76 82.385c1.53 3.48.624 8.34-2.435 13.676l12.418-5.968-1.948-1.74.487-4.974-8.522-.995z" fill="#A0616A"/><path d="M239.76 90.342c-1.626.987-2.599 2.801-3.157 4.647a44.88 44.88 0 00-1.853 10.523l-.59 10.692-7.305 28.349c6.331 5.47 9.983 4.227 18.505-.249 8.523-4.476 9.497 1.492 9.497 1.492s.73-.249 0-.995c-.731-.746 0 0 .73-.746.731-.746 0 0-.243-.746-.244-.746 0-.248.243-.497.244-.249-.974-2.487-.974-2.487l1.948-18.65 2.435-26.36c-2.922-3.73-11.201-6.962-11.201-6.962l-7.548 5.47c-2.435.995-.487-2.984-.487-2.984v-.497z" fill="#126FCB"/><path d="M263.013 111.106l.974 14.92-12.418 18.153c0 4.228-2.191 5.223-2.191 5.223a33.113 33.113 0 01-2.192-4.228c-1.217-2.735.731-4.973.731-4.973l8.522-18.402-3.652-9.201 10.226-1.492z" fill="#A0616A"/><path d="M258.874 95.44c4.14 1.492 4.87 17.655 4.87 17.655-4.87-2.735-10.714 1.741-10.714 1.741s-1.217-4.227-2.678-9.698a9.696 9.696 0 01-.153-4.732 9.57 9.57 0 012.101-4.22s2.435-2.238 6.574-.746z" fill="#126FCB"/><path d="M250.474 81.14c-.961-.784-2.272.643-2.272.643l-.769-7.066s-4.805.589-7.88-.196c-3.075-.785-3.555 2.846-3.555 2.846a25.648 25.648 0 01-.096-4.416c.192-1.767 2.69-3.533 7.111-4.711 4.42-1.178 6.726 3.925 6.726 3.925 3.075 1.57 1.695 9.761.735 8.976z" fill="#2F2E41"/><path d="M29.27 184.902c.83 3.365 7.906 10.931 15.208 18.036-11.26-28.404-4.844-59.49-4.844-59.49-2.09 12.209 26.563 73.648 26.563 73.648l-6.526 3.93-2.205 3.168c-22.1-10.366-28.197-39.292-28.197-39.292z" fill="#E6E6E6"/><path d="M219.69 121.917h-92.308v18.613h92.308v-18.613zM219.69 92.507h-92.308v18.613h92.308V92.507zM219.69 63h-92.308v18.613h92.308V63z" fill="#fff"/><path d="M129.35 79.603h88.372V65.01H129.35v14.593z" fill="url(#prefix__paint3_linear)"/><path d="M129.35 109.175h88.372V94.582H129.35v14.593z" fill="url(#prefix__paint4_linear)"/><path d="M129.35 138.52h88.372v-14.593H129.35v14.593z" fill="url(#prefix__paint5_linear)"/><path d="M137.086 77.745c3.006 0 5.444-2.49 5.444-5.56 0-3.07-2.438-5.56-5.444-5.56-3.007 0-5.444 2.49-5.444 5.56 0 3.07 2.437 5.56 5.444 5.56zM203.831 70.01h-53.727v1.209h53.727V70.01zM203.832 73.152h-53.728v1.209h53.728v-1.209zM137.086 107.494c3.006 0 5.444-2.489 5.444-5.56 0-3.07-2.438-5.56-5.444-5.56-3.007 0-5.444 2.49-5.444 5.56 0 3.071 2.437 5.56 5.444 5.56zM203.831 99.758h-53.727v1.209h53.727v-1.209zM203.831 102.901h-53.727v1.208h53.727v-1.208zM137.086 136.904c3.006 0 5.444-2.489 5.444-5.56 0-3.07-2.438-5.559-5.444-5.559-3.007 0-5.444 2.489-5.444 5.559 0 3.071 2.437 5.56 5.444 5.56zM203.832 129.169h-53.728v1.208h53.728v-1.208zM203.831 132.311h-53.727v1.209h53.727v-1.209z" fill="#fff"/><path d="M59.326 116.69s-1.273 8.17 4 7.427c0 0 20.91-4.828 22-3.713 1.091 1.114 7.874 1.493 7.52-3.204-.355-4.713-7.156-1.996-7.156-1.996s-10.546 1.486-12.727.372c-2.182-1.115-8.364-.743-8.364-.743l-5.273 1.857z" fill="#C6AAA2"/><path d="M75.282 143.334l-2.9 28.094s-.908 11.142-3.636 13.556c0 0 0 3.528-.909 4.642l-1.272 14.67s1.818 5.385 1.636 6.313c-.182.929.727 3.9.546 4.271-.182.371-8.728 0-8.728 0l1.818-29.896 5.637-41.595 7.808-.055z" fill="#0F7BE1"/><path d="M59.353 213.361s-3.813 9.82-1.824 11.006c1.99 1.185 22.88.338 22.88.338s3.48-2.201-.498-3.725c0 0-3.316-.169-5.471-1.524-2.155-1.354-4.642-3.894-4.642-3.894s-.166-3.725-1.492-2.878a3.449 3.449 0 00-.992 1.024 3.524 3.524 0 00-.5 1.346l-7.46-1.693z" fill="#2F2E41"/><path d="M53.474 212.03s-4.182 10.77-2 12.07c2.181 1.299 25.09.371 25.09.371s3.82-2.414-.545-4.085c0 0-3.636-.186-6-1.671-2.363-1.486-5.09-4.271-5.09-4.271s-.183-4.086-1.637-3.157a3.777 3.777 0 00-1.087 1.123 3.868 3.868 0 00-.55 1.477l-8.181-1.857z" fill="#2F2E41"/><path d="M70.383 142.953s-2 19.126-2.91 23.211a53.87 53.87 0 00-1.09 8.17s-.182 5.942-1.818 7.614a5.025 5.025 0 00-1.106 1.702 5.12 5.12 0 00-.349 2.012s-1.636 18.754-.727 20.983c.909 2.228 2.143 5.123 1.234 6.608-.91 1.486-11.234.448-11.234-.666 0-1.115 0-2.043-.546-2.6-.545-.557 0-4.085 0-4.085s-2.182-16.527-.182-21.355c2-4.828 2.91-18.012 2.91-18.012s-1.455-15.041-3.273-17.455c-1.819-2.413.363-10.955.363-10.955l18.728 4.828z" fill="#399FFF"/><path d="M65.264 83.558c.211.492.717.766 1.178 1.025 2.67 1.502 4.904 3.68 7.105 5.832a8.688 8.688 0 01.331-5.761c.263-.622.608-1.29.42-1.94a2.402 2.402 0 00-.922-1.126 28.58 28.58 0 00-2.812-1.96c-.68-.415-2.08-1.523-2.862-1.402-.04 1.078-.062 2.042-.524 3.05-.11.238-1.833 2.47-1.914 2.282z" fill="#C6AAA2"/><path d="M74.565 85.946c4.117 0 7.455-3.409 7.455-7.614 0-4.204-3.338-7.613-7.455-7.613s-7.455 3.409-7.455 7.614c0 4.204 3.338 7.613 7.455 7.613z" fill="#C6AAA2"/><path d="M74.928 96.344s1.273-6.499-2.363-8.727c-3.637-2.228-7.819-4.828-7.819-4.828s-1.272-.186-1.818 2.6c0 0-10.364 2.042-11.454 12.07-1.091 10.027.727 24.696.727 24.696s-1.637 12.813-3.637 19.684c0 0-1.636 1.485 5.637-.743 7.273-2.229 20 6.313 20 6.313s1.273-1.3 1.273-2.228c0-.929 2.727-29.153 3.273-31.753.545-2.6-2.182-16.712-3.819-17.084z" fill="url(#prefix__paint6_linear)"/><path d="M72.808 79.117c.448-.254.95-.39 1.462-.398a2.741 2.741 0 001.446-.44c.704-.552.756-1.62 1.271-2.358.746-1.069 2.234-1.197 3.518-1.144.785.033 1.631.081 2.293-.353.679-.445.987-1.285 1.216-2.075.27-.934.446-2.078-.225-2.77-.466-.482-1.202-.577-1.72-1-.28-.229-3.982-1.147-7.458-1.973a7.132 7.132 0 00-5.11.706 7.378 7.378 0 00-3.364 3.99c-.803 2.254-1.49 4.372-1.42 4.83.34 2.19 2.236 3.93 2.367 6.142.124-.611.395-1.18.789-1.659a3.696 3.696 0 011.464-1.078.692.692 0 01.46-.056c.188.06.298.253.417.415.311.422 1.29 1.064 1.844.764.496-.269.126-1.111.75-1.543zM76.217 119.144a.86.86 0 00-.017 1.192l5.242 5.54a.814.814 0 001.179.012l15.996-16.265a.853.853 0 00.122-1.039.835.835 0 00-.255-.268l-6.29-4.184a.807.807 0 00-1.03.103l-14.947 14.909z" fill="#3F3D56"/><path d="M98.726 108.563a.837.837 0 01-.11.138l-15.958 16.573a.82.82 0 01-1.178-.012l-5.355-5.771a.857.857 0 01-.098-.126c-.09.156-.121.34-.09.518a.765.765 0 00.263.453l5.242 5.54a.815.815 0 001.179.012l15.996-16.265a.861.861 0 00.11-1.06z" fill="#126FCB"/><path d="M97.245 108.763l-.65-.424a.645.645 0 01-.124.778.607.607 0 01-.77.054l-4.212-2.958a.644.644 0 01-.12-.932.623.623 0 01.284-.193l-.335-.218a.222.222 0 00-.282.032l-14.17 14.222a.236.236 0 00-.065.166.231.231 0 00.07.164l5.147 5.121a.222.222 0 00.314-.005l14.951-15.449a.233.233 0 00-.038-.358z" fill="#fff"/><path d="M80.89 115.984l4.347 4.186 10.34-10.433-5.248-3.488-9.439 9.735z" fill="#E6E6E6"/><path d="M95.175 112.311a.153.153 0 00.107.044c.04 0 .077-.016.106-.044l.904-.923a.156.156 0 000-.217.153.153 0 00-.106-.044.153.153 0 00-.107.044l-.904.923a.156.156 0 000 .217zM93.652 113.867a.148.148 0 00.213 0l.904-.923a.156.156 0 000-.217.148.148 0 00-.106-.045.151.151 0 00-.107.044l-.904.924a.156.156 0 000 .217z" fill="#3F3D56"/><path d="M80.99 120.614c.562 0 1.016-.465 1.016-1.037 0-.573-.454-1.037-1.015-1.037-.561 0-1.016.464-1.016 1.037 0 .572.455 1.037 1.016 1.037z" fill="#126FCB"/><path d="M54.019 113.799s-1.273 8.171 4 7.428c0 0 20.91-4.828 22-3.714 1.091 1.114 7.874 1.494 7.52-3.204-.355-4.713-7.156-1.995-7.156-1.995s-10.546 1.485-12.727.371c-2.182-1.114-8.364-.743-8.364-.743l-5.273 1.857z" fill="#C6AAA2"/><path d="M61.474 87.989s-8.182.928-8.182 12.998v15.412l10-4.271s4.182-10.027 3.818-12.812c-.363-2.786-.182-10.956-5.636-11.328z" fill="#E6E6E6"/></g><defs><linearGradient id="prefix__paint0_linear" x1="100.5" y1="44" x2="100.5" y2="160" gradientUnits="userSpaceOnUse"><stop stop-color="#FFC978"/><stop offset="1" stop-color="#FF756C"/></linearGradient><linearGradient id="prefix__paint1_linear" x1="292" y1="152" x2="202.244" y2="264.195" gradientUnits="userSpaceOnUse"><stop offset=".25" stop-color="#077CE9"/><stop offset=".859" stop-color="#692489" stop-opacity=".92"/></linearGradient><linearGradient id="prefix__paint2_linear" x1="226.733" y1="142.384" x2="283.403" y2="173.741" gradientUnits="userSpaceOnUse"><stop offset=".25" stop-color="#077CE9"/><stop offset=".859" stop-color="#692489" stop-opacity=".92"/></linearGradient><linearGradient id="prefix__paint3_linear" x1="173.536" y1="65.01" x2="173.536" y2="79.603" gradientUnits="userSpaceOnUse"><stop stop-color="#6C9BFF"/><stop offset="0" stop-color="#356DE4"/><stop offset="1" stop-color="#98C1FF"/></linearGradient><linearGradient id="prefix__paint4_linear" x1="173.536" y1="94.582" x2="173.536" y2="109.175" gradientUnits="userSpaceOnUse"><stop stop-color="#6C9BFF"/><stop offset="0" stop-color="#356DE4"/><stop offset="1" stop-color="#98C1FF"/></linearGradient><linearGradient id="prefix__paint5_linear" x1="173.536" y1="123.927" x2="173.536" y2="138.52" gradientUnits="userSpaceOnUse"><stop stop-color="#6C9BFF"/><stop offset="0" stop-color="#356DE4"/><stop offset="1" stop-color="#98C1FF"/></linearGradient><linearGradient id="prefix__paint6_linear" x1="63.612" y1="82.786" x2="63.612" y2="147.409" gradientUnits="userSpaceOnUse"><stop stop-color="#FFC978"/><stop offset="1" stop-color="#FF756C"/></linearGradient><clipPath id="prefix__clip0"><path d="M17 83c0-11.046 8.954-20 20-20h241v162H17V83z" fill="#fff"/></clipPath></defs></svg>