<svg width="300" height="198" fill="none" xmlns="http://www.w3.org/2000/svg"><path d="M50.819 1.899h161.5c47.22 0 85.5 38.28 85.5 85.5v66.5h-247v-152z" stroke="url(#prefix__paint0_linear)" stroke-width="3"/><path d="M1.819 74.899h195v121h-171.5c-12.979 0-23.5-10.521-23.5-23.5v-97.5z" stroke="url(#prefix__paint1_linear)" stroke-opacity=".2" stroke-width="3"/><g clip-path="url(#prefix__clip0)"><path d="M20.319 24.399a5 5 0 015-5h183c38.66 0 70 31.34 70 70v83.386a5 5 0 01-5 5h-248a5 5 0 01-5-5V24.399z" fill="#F9F9F9"/><path d="M153.503 23.92c1.17 0 2.118-1.012 2.118-2.26 0-1.249-.948-2.261-2.118-2.261-1.169 0-2.118 1.012-2.118 2.26 0 1.249.949 2.261 2.118 2.261zM153.503 32.929c1.17 0 2.118-1.012 2.118-2.26 0-1.249-.948-2.261-2.118-2.261-1.169 0-2.118 1.012-2.118 2.26 0 1.249.949 2.261 2.118 2.261zM162.345 23.92c1.17 0 2.118-1.012 2.118-2.26 0-1.249-.948-2.261-2.118-2.261-1.169 0-2.117 1.012-2.117 2.26 0 1.249.948 2.261 2.117 2.261zM162.345 32.929c1.17 0 2.118-1.012 2.118-2.26 0-1.249-.948-2.261-2.118-2.261-1.169 0-2.117 1.012-2.117 2.26 0 1.249.948 2.261 2.117 2.261zM171.187 23.92c1.17 0 2.118-1.012 2.118-2.26 0-1.249-.948-2.261-2.118-2.261-1.169 0-2.117 1.012-2.117 2.26 0 1.249.948 2.261 2.117 2.261zM171.187 32.929c1.17 0 2.118-1.012 2.118-2.26 0-1.249-.948-2.261-2.118-2.261-1.169 0-2.117 1.012-2.117 2.26 0 1.249.948 2.261 2.117 2.261zM171.187 41.938c1.17 0 2.118-1.012 2.118-2.26 0-1.249-.948-2.26-2.118-2.26-1.169 0-2.117 1.011-2.117 2.26 0 1.248.948 2.26 2.117 2.26zM171.187 50.947c1.17 0 2.118-1.012 2.118-2.26 0-1.249-.948-2.26-2.118-2.26-1.169 0-2.117 1.011-2.117 2.26 0 1.248.948 2.26 2.117 2.26zM180.029 23.92c1.17 0 2.118-1.012 2.118-2.26 0-1.249-.948-2.261-2.118-2.261-1.169 0-2.117 1.012-2.117 2.26 0 1.249.948 2.261 2.117 2.261zM180.029 32.929c1.17 0 2.118-1.012 2.118-2.26 0-1.249-.948-2.261-2.118-2.261-1.169 0-2.117 1.012-2.117 2.26 0 1.249.948 2.261 2.117 2.261zM180.029 41.938c1.17 0 2.118-1.012 2.118-2.26 0-1.249-.948-2.26-2.118-2.26-1.169 0-2.117 1.011-2.117 2.26 0 1.248.948 2.26 2.117 2.26zM180.029 50.947c1.17 0 2.118-1.012 2.118-2.26 0-1.249-.948-2.26-2.118-2.26-1.169 0-2.117 1.011-2.117 2.26 0 1.248.948 2.26 2.117 2.26zM188.871 23.92c1.17 0 2.118-1.012 2.118-2.26 0-1.249-.948-2.261-2.118-2.261-1.169 0-2.117 1.012-2.117 2.26 0 1.249.948 2.261 2.117 2.261zM188.871 32.929c1.17 0 2.118-1.012 2.118-2.26 0-1.249-.948-2.261-2.118-2.261-1.169 0-2.117 1.012-2.117 2.26 0 1.249.948 2.261 2.117 2.261zM197.713 23.92c1.17 0 2.118-1.012 2.118-2.26 0-1.249-.948-2.261-2.118-2.261-1.169 0-2.117 1.012-2.117 2.26 0 1.249.948 2.261 2.117 2.261zM197.713 32.929c1.17 0 2.118-1.012 2.118-2.26 0-1.249-.948-2.261-2.118-2.261-1.169 0-2.117 1.012-2.117 2.26 0 1.249.948 2.261 2.117 2.261z" fill="#F2F2F2"/><path d="M262.366 138.687h-15.722c0 .482-16.204.873-16.204.873a4.36 4.36 0 00-.691.7 4.512 4.512 0 00-.95 2.796v.699c0 1.159.432 2.27 1.199 3.089.768.82 1.809 1.28 2.895 1.28h29.473a3.973 3.973 0 002.894-1.28 4.531 4.531 0 001.2-3.089v-.699a4.534 4.534 0 00-1.201-3.088 3.97 3.97 0 00-2.893-1.281z" fill="#3F3D56"/><path d="M249.92 147.951h-4.257v29.363h4.257v-29.363z" fill="#3F3D56"/><path d="M262.037 177.154c0 .491-6.451.189-14.409.189-7.958 0-14.409.302-14.409-.189s6.451-4.385 14.409-4.385c7.958 0 14.409 3.894 14.409 4.385z" fill="#3F3D56"/><path d="M226.338 173.292h-4.014l-1.911-16.53 5.926.001-.001 16.529z" fill="#FED"/><path d="M219.456 172.067h7.742v5.204H214.58c0-1.381.514-2.704 1.428-3.68.915-.976 2.155-1.524 3.448-1.524z" fill="#2F2E41"/><path d="M220.071 170.9l-3.831-1.283 2.814-16.382 5.654 1.894-4.637 15.771z" fill="#FED"/><path d="M213.848 167.532l7.387 2.475-1.459 4.965-12.04-4.033a5.319 5.319 0 01.913-1.781 4.94 4.94 0 011.482-1.273 4.59 4.59 0 013.717-.353zM251.614 135.821a14.086 14.086 0 00-.498-2.454l-.75-1.006-1.952-2.615-.085.004c-.144.007-.743.042-1.67.118h-.01c-.573.049-1.274.112-2.07.193-.209.024-.429.045-.655.07v3.649h4.094c.199 0 .391.078.54.218.15.14.246.333.272.544.003.038.007.073.007.112a.907.907 0 01-.24.618.794.794 0 01-.579.256h-23.775a9.363 9.363 0 00-.872.699 5.234 5.234 0 00-1.719 2.747c-1.388 6.516-3.92 18.666-4.666 22.235-.055.269-.042.548.035.811.078.262.218.498.407.685.139.139.303.247.481.319l2.954 1.181c.121.048.248.08.377.094.016 0 .029.004.046.004.03.003.061.004.091.003.299-.001.59-.098.836-.279.246-.181.435-.437.543-.734l2.332-6.53 3.592-10.067 1.421-3.982c1.648.413 15.467 3.678 20.095-1.583a5.69 5.69 0 001.061-1.786 7.74 7.74 0 00.357-3.524z" fill="#2F2E41"/><path d="M255.622 136.772a17.428 17.428 0 00-.249-.958l-2.702-3.621-.085.003c-.17.011-.979.056-2.22.165-1.408.125-3.376.328-5.587.646-.065.007-.134.018-.2.028-.216.032-.435.063-.655.098v.647h4.094c.199 0 .391.078.54.218.15.14.246.333.272.544.003.038.007.073.007.112a.91.91 0 01-.24.618.798.798 0 01-.579.256H233.55a29.12 29.12 0 00-1.824.699c-3.059 1.293-5.348 2.988-5.817 5.194l-.514 2.422a5680.66 5680.66 0 00-2.259 10.756v.004c-.154.741-.308 1.461-.455 2.16-.626 3.006-1.156 5.554-1.438 6.893l-.02.112v.007c-.032.271-.001.546.092.8l.003.004v.003c.09.244.237.459.426.626.126.111.269.2.422.262l2.954 1.182a1.37 1.37 0 001.218-.091c.31-.179.549-.471.675-.822l6.36-17.813.986-2.765c1.647.413 15.467 3.674 20.094-1.583a6.12 6.12 0 001.467-3.87 11.058 11.058 0 00-.298-2.936z" fill="#2F2E41"/><path d="M255.259 105.935a7.989 7.989 0 00-3.31-2.368 7.539 7.539 0 00-3.725-.411 24.555 24.555 0 00-3.245.681 8.058 8.058 0 00-3.661 2.192 8.583 8.583 0 00-1.84 2.909 9.03 9.03 0 00-.587 3.453c.013.479.016.968.01 1.464 0 .231-.003.465-.007.699h3.229c.14 0 .28.018.416.053.394.1.745.34.996.679a2 2 0 01.389 1.191v16.261c.22.067.439.133.655.203.069.024.135.045.2.066.075.025.151.049.223.074.665.22 1.314.453 1.948.699h1.068c.199 0 .391.078.54.218.15.14.246.333.272.544a59.324 59.324 0 012.784 1.279c.887.434 1.676.846 2.338 1.206.208.113.438.173.671.175a1.38 1.38 0 00.852-.301 1.59 1.59 0 00.533-.765c.078-.243.1-.502.063-.755a47.778 47.778 0 01-.295-8.285c.092-2.324.288-4.708.544-7.012.137-1.248.291-2.471.452-3.649.154-1.126.317-2.206.478-3.226a9.173 9.173 0 00-.205-3.884 8.765 8.765 0 00-1.786-3.39z" fill="url(#prefix__paint2_linear)"/><path d="M241.835 106.221a3.55 3.55 0 00-3.132.069 3.92 3.92 0 00-1.82 2.021l-2.249 5.544-.282.699h7.771c.14 0 .28.018.416.053l.262-.647.996-2.454a4.274 4.274 0 00.043-3.075c-.368-.991-1.089-1.786-2.005-2.21z" fill="url(#prefix__paint3_linear)"/><path d="M248.822 102.171c4.442 0 8.043-3.844 8.043-8.586 0-4.741-3.601-8.585-8.043-8.585-4.442 0-8.043 3.844-8.043 8.585 0 4.742 3.601 8.586 8.043 8.586zM256.771 118.18l-4.591.133-.334 3.443-.075.797-7.192 3.446-.655.315v6.128l.655-.2 2.07-.629h.01l9.117-2.772.105-.031a3.564 3.564 0 001.848-1.354 3.97 3.97 0 00.726-2.264l.023-4.065.019-2.996-1.726.049z" fill="#FED"/><path d="M258.265 109.626a4.227 4.227 0 00-.375-1.517 3.998 3.998 0 00-.89-1.249 3.622 3.622 0 00-2.726-1.001 3.682 3.682 0 00-2.59 1.35 4.192 4.192 0 00-.938 2.91l.501 8.725c.013.229.074.453.178.655.103.201.247.376.421.512.277.22.618.328.963.304l3.511-.231 1.064-.069c.194-.011.384-.063.558-.153a1.459 1.459 0 00.536-.48 1.64 1.64 0 00.288-1.035l-.501-8.721z" fill="#6C63FF"/><path d="M245.002 133.081h-.423v-.046c-.216.032-.435.063-.655.098v.647h3.026a44.557 44.557 0 00-1.948-.699zm0 0h-.423v-.046c-.216.032-.435.063-.655.098v.647h3.026a44.557 44.557 0 00-1.948-.699zm3.016 0h-3.439v-16.604a2.739 2.739 0 00-.496-1.575 2.461 2.461 0 00-1.282-.942 2.172 2.172 0 00-.678-.105h-29.146a2.387 2.387 0 00-1.736.769 2.721 2.721 0 00-.72 1.853v17.128c0 .695.259 1.362.72 1.853.46.492 1.085.768 1.736.769h35.041c.363-.001.712-.144.982-.403a1.615 1.615 0 00.491-1.17 1.63 1.63 0 00-.432-1.112 1.427 1.427 0 00-1.041-.461zm.818 1.573a.904.904 0 01-.239.617.799.799 0 01-.579.257h-35.041a1.749 1.749 0 01-1.273-.564 1.987 1.987 0 01-.528-1.359v-17.128c0-.51.19-.999.528-1.359a1.749 1.749 0 011.273-.564h29.146c.14 0 .28.018.416.053.394.1.745.339.996.679.251.339.388.758.389 1.191v17.303h4.094c.199 0 .391.077.54.218.15.14.246.333.272.544.003.038.006.073.006.112zm-3.834-1.573h-.423v-.046c-.216.032-.435.063-.655.098v.647h3.026a44.557 44.557 0 00-1.948-.699z" fill="#3F3D56"/><path d="M227.549 127.139c1.086 0 1.965-.939 1.965-2.098 0-1.158-.879-2.097-1.965-2.097-1.085 0-1.965.939-1.965 2.097 0 1.159.88 2.098 1.965 2.098z" fill="#126FCB"/><path d="M247.105 88.435c-1.868 1.781-4.373 3.694-6.661 2.388-1.502-.857-2.171-2.736-1.82-4.515.631-3.2 3.222-4.928 5.731-6.325 3.261-1.817 6.86-3.4 10.512-2.928s7.22 3.693 7.048 7.615c-.139 3.154-2.552 6.097-1.788 9.147.768 3.07 4.26 4.26 7.233 4.416 2.974.156 6.248-.115 8.607 1.824 3.009 2.474 2.961 7.646.819 10.993-2.143 3.348-5.76 5.232-9.314 6.664-4.708 1.897-9.882 3.268-14.742 1.873-4.859-1.395-9.114-6.371-8.401-11.689.301-2.246 1.408-4.262 2.476-6.223 1.069-1.962 2.143-4.007 2.368-6.263.187-1.88-.373-3.956-1.672-5.167a1.57 1.57 0 01-.476-.814 1.653 1.653 0 01.064-.957l.016-.039z" fill="#2F2E41"/><path d="M20.709 177.786h253.24a.378.378 0 00.276-.122.432.432 0 00.114-.295.431.431 0 00-.114-.294.378.378 0 00-.276-.122H20.709a.386.386 0 00-.15.031.408.408 0 00-.212.226.44.44 0 00.085.454.387.387 0 00.277.122zM33.559 143.056v.699a4.53 4.53 0 001.2 3.089 3.97 3.97 0 002.893 1.28h29.474c1.085 0 2.126-.46 2.894-1.28a4.523 4.523 0 001.2-3.089v-.699a4.515 4.515 0 00-.95-2.796 4.338 4.338 0 00-.691-.7s-16.204-.391-16.204-.873H37.652c-1.085.001-2.125.462-2.892 1.281a4.53 4.53 0 00-1.201 3.088z" fill="#3F3D56"/><path d="M50.099 177.313h4.257v-29.362h-4.257v29.362z" fill="#3F3D56"/><path d="M37.982 177.154c0 .491 6.45.189 14.409.189 7.958 0 14.41.302 14.41-.189s-6.452-4.385-14.41-4.385-14.41 3.894-14.41 4.385z" fill="#3F3D56"/><path d="M73.872 173.558h4.015l1.91-16.53-5.925.001v16.529z" fill="#FED"/><path d="M85.63 177.537H73.012v-5.204h7.743c1.293 0 2.533.548 3.447 1.524.915.976 1.428 2.3 1.428 3.68z" fill="#2F2E41"/><path d="M80.14 171.166l3.83-1.283-2.814-16.382-5.653 1.894 4.636 15.771z" fill="#FED"/><path d="M92.474 171.205l-12.04 4.033-1.459-4.965 7.388-2.475a4.6 4.6 0 013.716.353c1.147.639 2.008 1.737 2.395 3.054z" fill="#2F2E41"/><path d="M77.454 163.558l-7.345-20.578c-1.648.413-15.466 3.676-20.094-1.583-1.586-1.803-1.895-4.415-.92-7.763l2.702-3.623.084.005c1.02.057 25.03 1.494 26.677 9.224a6841.37 6841.37 0 014.665 22.237c.076.37.024.756-.145 1.089-.17.332-.445.589-.776.723l-2.954 1.182c-.164.066-.339.1-.515.1-.299 0-.59-.097-.837-.278a1.566 1.566 0 01-.542-.735z" fill="#136FCA"/><path d="M73.196 166.005l-7.344-20.578c-1.648.413-15.466 3.676-20.094-1.583-1.586-1.803-1.896-4.415-.92-7.763l2.701-3.623.084.005c1.021.057 25.031 1.494 26.677 9.224a6811.036 6811.036 0 014.666 22.237c.075.37.024.756-.145 1.089-.17.332-.445.589-.776.723l-2.954 1.182c-.165.066-.34.1-.515.1-.299 0-.59-.097-.837-.278a1.566 1.566 0 01-.543-.735z" fill="#399FFF"/><path d="M66.59 126.08a5.98 5.98 0 01-3.105-.877 6.501 6.501 0 01-2.294-2.399l-2.332-4.218 5.544-3.234 2.354 3.445 15.972-1.796a3.669 3.669 0 011.4-1.478c.445-.26.936-.417 1.44-.461a3.345 3.345 0 011.498.205c.48.182.917.471 1.284.848a3.946 3.946 0 011.078 2.257 4.07 4.07 0 01-.47 2.484c-.258.466-.606.868-1.021 1.18a3.48 3.48 0 01-1.386.632 3.387 3.387 0 01-1.505-.028 3.509 3.509 0 01-1.633-.927l-15.299 4.163a5.792 5.792 0 01-1.525.204z" fill="#FED"/><path d="M44.734 137.167a1.564 1.564 0 01-.499-.67 1.673 1.673 0 01-.096-.85c.91-6.411-.138-15.596-1.178-22.173a9.23 9.23 0 01.242-3.997 8.808 8.808 0 011.9-3.454 8.08 8.08 0 013.152-2.174 7.627 7.627 0 013.732-.428c1.094.154 2.178.382 3.246.683 1.773.476 3.342 1.583 4.448 3.137a8.991 8.991 0 011.637 5.415c-.155 6.346 1.052 14.264 1.578 17.374a1.679 1.679 0 01-.273 1.227c-.12.171-.272.315-.446.42a1.366 1.366 0 01-.568.191c-5.831.636-12.12 3.671-15.35 5.424a1.383 1.383 0 01-.671.175 1.39 1.39 0 01-.854-.3z" fill="url(#prefix__paint4_linear)"/><path d="M60.477 120.63a1.464 1.464 0 01-.484-.333 1.573 1.573 0 01-.326-.506l-3.253-8.019a4.26 4.26 0 01-.047-3.078c.182-.491.453-.939.797-1.318.344-.38.755-.683 1.21-.893a3.558 3.558 0 012.883-.048c.46.195.88.484 1.235.852.355.368.638.807.835 1.291l3.252 8.02c.155.383.16.816.017 1.203a1.532 1.532 0 01-.784.865l-4.207 1.944a1.393 1.393 0 01-.563.131 1.397 1.397 0 01-.565-.111z" fill="#CCC"/><path d="M51.388 100.692c4.443 0 8.044-3.844 8.044-8.585 0-4.742-3.602-8.585-8.044-8.585s-8.043 3.843-8.043 8.585c0 4.741 3.601 8.585 8.043 8.585z" fill="#FED"/><path d="M46.528 99.734a1.31 1.31 0 01-.41.337 1.227 1.227 0 01-1.011.062 1.281 1.281 0 01-.443-.284 15.456 15.456 0 01-4.15-5.785c-1.046-2.66-1.199-5.907-.009-8.4 1.006-2.109 2.812-3.45 4.615-4.547a7.286 7.286 0 012.243-1.012 2.764 2.764 0 011.22-.02c.403.086.786.26 1.123.512.357.29.633.678.8 1.123.165.445.215.93.142 1.403a7.384 7.384 0 013.21-2.572 3.504 3.504 0 012.474-.177c1.157.413 2.014 1.661 2.492 3.002a7.106 7.106 0 01.41 3.238 4.08 4.08 0 01-.44 1.494c-.24.461-.566.865-.957 1.188-.945.695-2.162.624-3.26.317-1.098-.308-2.164-.83-3.282-.976-1.117-.145-2.356.17-3.022 1.234-.468.75-.579 1.736-.675 2.677l-.497 4.893a6.86 6.86 0 01-.419 2.042c-.04.09-.093.175-.154.251z" fill="#2F2E41"/><path d="M75.62 152.611H62.563a1.32 1.32 0 01-.611-.148 1.415 1.415 0 01-.488-.42 1.559 1.559 0 01-.273-.615 1.609 1.609 0 01.008-.68 38.117 38.117 0 000-16.613 1.609 1.609 0 01-.008-.68c.046-.224.14-.434.273-.615.13-.177.297-.321.488-.419.19-.099.399-.15.61-.149H75.62c.334.001.656.128.91.359.255.23.424.55.478.901a62.453 62.453 0 010 17.819 1.533 1.533 0 01-.477.902 1.352 1.352 0 01-.91.358z" fill="#CCC"/><path d="M65.598 139.849v-.409c0-.279.104-.545.288-.742a.954.954 0 01.695-.307h6.852c.26 0 .51.111.694.307.184.197.288.463.288.742v.409c0 .278-.104.545-.288.741a.951.951 0 01-.694.308H66.58a.95.95 0 01-.695-.308 1.085 1.085 0 01-.288-.741zM65.598 144.164v-.41c0-.278.104-.544.288-.741a.954.954 0 01.695-.307h6.852c.26 0 .51.111.694.307.184.197.288.463.288.741v.41c0 .278-.104.545-.288.741a.951.951 0 01-.694.308H66.58a.95.95 0 01-.695-.308 1.085 1.085 0 01-.288-.741z" fill="#fff"/><path d="M69.81 127.355a1.581 1.581 0 01-.276-.625 1.636 1.636 0 01.008-.691 38.741 38.741 0 000-16.886 1.634 1.634 0 01-.008-.691c.046-.228.141-.442.277-.625a1.43 1.43 0 01.496-.427c.193-.1.406-.151.62-.151H84.2c.34.001.668.13.926.365.258.234.43.559.485.916a63.48 63.48 0 010 18.112 1.553 1.553 0 01-.485.916 1.38 1.38 0 01-.925.365H70.927a1.35 1.35 0 01-.62-.151 1.43 1.43 0 01-.496-.427z" fill="#126FCB"/><path d="M81.638 114.887h-6.991a.954.954 0 01-.694-.307 1.089 1.089 0 01-.288-.742v-.445c0-.278.103-.544.288-.741a.955.955 0 01.694-.308h6.991c.261.001.51.111.695.308.184.197.288.463.288.741v.445c0 .278-.104.545-.288.742a.954.954 0 01-.695.307zM81.638 119.273h-6.991a.954.954 0 01-.694-.307 1.089 1.089 0 01-.288-.742v-.445c0-.278.103-.544.288-.741a.955.955 0 01.694-.308h6.991c.261.001.51.111.695.308.184.197.288.463.288.741v.445c0 .278-.104.545-.288.742a.954.954 0 01-.695.307z" fill="#fff"/><path d="M63.721 135.045a3.583 3.583 0 01-1.284-.834 3.857 3.857 0 01-.973-1.675l-17.135-5.206a3.565 3.565 0 01-1.848-1.353 3.969 3.969 0 01-.726-2.262l-.042-7.062 6.316.18.411 4.242 14.652 7.021a3.403 3.403 0 012.139-.516 3.443 3.443 0 011.637.598c.492.338.9.799 1.188 1.343.287.544.447 1.154.464 1.778a4.067 4.067 0 01-.365 1.805 3.797 3.797 0 01-1.11 1.416 3.49 3.49 0 01-1.602.701 3.395 3.395 0 01-1.722-.176z" fill="#FED"/><path d="M41.811 119.753a1.579 1.579 0 01-.29-.53 1.658 1.658 0 01-.076-.609l.502-8.722c.03-.527.156-1.043.373-1.519a4 4 0 01.89-1.25c.37-.35.802-.619 1.27-.791a3.555 3.555 0 012.88.189c.445.232.842.555 1.17.951.327.397.579.858.74 1.358.16.5.226 1.029.195 1.556l-.503 8.722a1.616 1.616 0 01-.495 1.081 1.417 1.417 0 01-1.066.393l-4.576-.301a1.4 1.4 0 01-.556-.155 1.49 1.49 0 01-.458-.373z" fill="#CCC"/><path d="M115.46 72.903H88.606a2.86 2.86 0 01-2.083-.923 3.26 3.26 0 01-.864-2.223v-31.11c0-.834.312-1.634.864-2.224a2.86 2.86 0 012.083-.922h26.854c.781 0 1.53.332 2.083.922.553.59.863 1.39.864 2.224v31.11a3.258 3.258 0 01-.864 2.223 2.861 2.861 0 01-2.083.923zM88.606 36.2c-.607 0-1.19.259-1.62.717a2.536 2.536 0 00-.672 1.73v31.11c0 .649.242 1.27.672 1.73.43.458 1.013.716 1.62.717h26.854c.608-.001 1.19-.259 1.62-.718.43-.458.672-1.08.672-1.73v-31.11c0-.648-.242-1.27-.672-1.729a2.224 2.224 0 00-1.62-.717H88.606zM164.582 72.903h-26.853a2.858 2.858 0 01-2.083-.923 3.26 3.26 0 01-.865-2.223v-31.11a3.26 3.26 0 01.865-2.224 2.858 2.858 0 012.083-.922h26.853a2.861 2.861 0 012.084.922c.552.59.863 1.39.864 2.224v31.11a3.263 3.263 0 01-.864 2.223 2.861 2.861 0 01-2.084.923zM137.729 36.2c-.608 0-1.191.259-1.62.717a2.537 2.537 0 00-.673 1.73v31.11c.001.649.243 1.27.673 1.73a2.222 2.222 0 001.62.717h26.853c.608-.001 1.191-.259 1.621-.718a2.54 2.54 0 00.672-1.73v-31.11a2.54 2.54 0 00-.672-1.729 2.226 2.226 0 00-1.621-.717h-26.853z" fill="#3F3D56"/><path d="M94.015 48.434h-2.62a1.43 1.43 0 01-1.042-.461 1.63 1.63 0 01-.432-1.112v-2.796c0-.417.156-.817.432-1.112a1.43 1.43 0 011.042-.461h2.62c.39 0 .765.166 1.041.46.276.296.432.696.432 1.113v2.796c0 .417-.156.817-.432 1.112a1.43 1.43 0 01-1.041.461z" fill="#126FCB"/><path d="M94.015 57.173h-2.62a1.43 1.43 0 01-1.042-.461 1.63 1.63 0 01-.432-1.112v-2.797c0-.417.156-.816.432-1.111a1.43 1.43 0 011.042-.462h2.62c.39 0 .765.167 1.041.462.276.295.432.694.432 1.111V55.6c0 .417-.156.817-.432 1.112a1.43 1.43 0 01-1.041.46z" fill="#CCC"/><path d="M113.162 46.734h-12.231c-.26 0-.51-.11-.694-.307a1.088 1.088 0 01-.288-.741v-.446c0-.278.104-.544.288-.74a.953.953 0 01.694-.308h12.231c.261 0 .511.11.695.307.184.197.288.463.288.741v.446c0 .278-.104.544-.288.74a.953.953 0 01-.695.308z" fill="#126FCB"/><path d="M143.363 47.886h-2.62c-.391 0-.765-.167-1.041-.462a1.625 1.625 0 01-.432-1.111v-2.797c0-.417.155-.816.432-1.111.276-.295.65-.461 1.041-.462h2.62c.391 0 .765.167 1.042.462.276.294.431.694.432 1.111v2.797a1.634 1.634 0 01-.432 1.111c-.277.295-.651.461-1.042.462zM162.511 46.186H150.28a.953.953 0 01-.695-.308 1.086 1.086 0 01-.288-.74v-.446c0-.278.104-.545.288-.741a.953.953 0 01.695-.308h12.231c.26 0 .51.111.694.308.184.196.288.463.288.741v.445c0 .278-.104.545-.288.741a.953.953 0 01-.694.308z" fill="#CCC"/><path d="M162.511 54.575H139.8c-.26 0-.51-.11-.694-.307a1.086 1.086 0 01-.288-.741v-.446c0-.278.104-.544.288-.74a.953.953 0 01.694-.308h22.711c.26 0 .51.11.694.307.184.197.288.463.288.741v.446c0 .278-.104.544-.288.74a.953.953 0 01-.694.308z" fill="#126FCB"/><path d="M162.511 60.518H139.8c-.26 0-.51-.111-.694-.308a1.086 1.086 0 01-.288-.74v-.446c0-.278.104-.545.288-.741a.953.953 0 01.694-.308h22.711c.26 0 .51.111.694.308.184.196.288.463.288.74v.446c0 .278-.104.545-.288.741a.953.953 0 01-.694.308zM162.511 66.46H139.8c-.26 0-.51-.11-.694-.307a1.086 1.086 0 01-.288-.742v-.445c0-.278.104-.544.288-.741a.953.953 0 01.694-.307h22.711c.26 0 .51.11.694.307.184.197.288.463.288.741v.445c0 .278-.104.545-.288.742a.953.953 0 01-.694.307z" fill="#CCC"/><path d="M213.705 72.903h-26.854a2.861 2.861 0 01-2.083-.923 3.263 3.263 0 01-.864-2.223v-31.11a3.263 3.263 0 01.864-2.224 2.861 2.861 0 012.083-.922h26.854c.781 0 1.53.332 2.083.922.552.59.863 1.39.864 2.224v31.11a3.263 3.263 0 01-.864 2.223 2.861 2.861 0 01-2.083.923zM186.851 36.2c-.608 0-1.19.259-1.62.717a2.531 2.531 0 00-.672 1.73v31.11c0 .649.242 1.27.672 1.73.43.458 1.012.716 1.62.717h26.854c.608-.001 1.19-.259 1.62-.718.43-.458.671-1.08.672-1.73v-31.11a2.536 2.536 0 00-.672-1.729 2.224 2.224 0 00-1.62-.717h-26.854z" fill="#3F3D56"/><path d="M211.633 46.186h-12.231a.955.955 0 01-.695-.308 1.09 1.09 0 01-.288-.74v-.446a1.09 1.09 0 01.288-.741.955.955 0 01.695-.308h12.231c.261 0 .51.111.695.308.184.196.287.463.288.741v.445a1.09 1.09 0 01-.288.741.955.955 0 01-.695.308zM211.633 54.575h-22.711c-.26 0-.51-.11-.694-.307a1.086 1.086 0 01-.288-.741v-.446c0-.278.104-.544.288-.74a.953.953 0 01.694-.308h22.711c.261 0 .51.11.694.307.185.197.288.463.289.741v.446a1.087 1.087 0 01-.289.74.951.951 0 01-.694.308zM211.633 60.518h-22.711c-.26 0-.51-.111-.694-.308a1.086 1.086 0 01-.288-.74v-.446c0-.278.104-.545.288-.741a.953.953 0 01.694-.308h22.711c.261 0 .51.111.694.308.185.196.288.463.289.74v.446a1.087 1.087 0 01-.289.741.951.951 0 01-.694.308zM211.633 66.46h-22.711c-.26 0-.51-.11-.694-.307a1.086 1.086 0 01-.288-.742v-.445c0-.278.104-.544.288-.741a.953.953 0 01.694-.307h22.711c.261 0 .51.11.694.307.185.197.288.463.289.741v.445a1.087 1.087 0 01-.289.742.951.951 0 01-.694.307zM113.162 55.473h-12.231c-.26 0-.51-.11-.694-.307a1.088 1.088 0 01-.288-.742v-.445c0-.278.104-.544.288-.741a.953.953 0 01.694-.308h12.231c.261 0 .511.111.695.308.184.197.288.463.288.741v.445c0 .278-.104.545-.288.742a.954.954 0 01-.695.307zM94.015 65.912h-2.62a1.43 1.43 0 01-1.042-.462 1.63 1.63 0 01-.432-1.111v-2.797c0-.417.156-.817.432-1.111a1.43 1.43 0 011.042-.462h2.62c.39 0 .765.167 1.041.462.276.294.432.694.432 1.111v2.797c0 .417-.156.817-.432 1.111a1.43 1.43 0 01-1.041.462zM113.162 64.212h-12.231c-.26 0-.51-.111-.694-.308a1.088 1.088 0 01-.288-.74v-.446c0-.278.104-.545.288-.741a.953.953 0 01.694-.308h12.231c.261 0 .511.111.695.308.184.196.288.463.288.74v.446c0 .278-.104.545-.288.741a.953.953 0 01-.695.308z" fill="#CCC"/><path d="M194.055 44.59l.001-.025c0-.413-.076-.822-.225-1.204a3.176 3.176 0 00-.638-1.02 2.945 2.945 0 00-.957-.682 2.785 2.785 0 00-1.128-.24v3.17h2.947z" fill="#126FCB"/><path d="M190.781 44.938v-3.17a2.82 2.82 0 00-1.636.529 3.112 3.112 0 00-1.086 1.407 3.35 3.35 0 00-.172 1.815c.112.61.391 1.17.801 1.611a2.89 2.89 0 001.503.867c.57.124 1.162.065 1.701-.169a2.99 2.99 0 001.327-1.148c.327-.514.504-1.12.508-1.742h-2.946z" fill="#CCC"/></g><defs><linearGradient id="prefix__paint0_linear" x1="174.319" y1=".399" x2="174.319" y2="155.399" gradientUnits="userSpaceOnUse"><stop stop-color="#FFC978"/><stop offset="1" stop-color="#FF756C"/></linearGradient><linearGradient id="prefix__paint1_linear" x1=".319" y1="73.399" x2="111.878" y2="251.534" gradientUnits="userSpaceOnUse"><stop offset=".25" stop-color="#077CE9"/><stop offset=".859" stop-color="#692489" stop-opacity=".92"/></linearGradient><linearGradient id="prefix__paint2_linear" x1="248.128" y1="103.08" x2="248.128" y2="137.202" gradientUnits="userSpaceOnUse"><stop stop-color="#6C9BFF"/><stop offset="0" stop-color="#356DE4"/><stop offset="1" stop-color="#98C1FF"/></linearGradient><linearGradient id="prefix__paint3_linear" x1="239.228" y1="105.891" x2="239.228" y2="114.607" gradientUnits="userSpaceOnUse"><stop stop-color="#6C9BFF"/><stop offset="0" stop-color="#356DE4"/><stop offset="1" stop-color="#98C1FF"/></linearGradient><linearGradient id="prefix__paint4_linear" x1="52.883" y1="103.352" x2="52.883" y2="137.467" gradientUnits="userSpaceOnUse"><stop stop-color="#FFC978"/><stop offset="1" stop-color="#FF756C"/></linearGradient><clipPath id="prefix__clip0"><path d="M20.319 24.399a5 5 0 015-5h183c38.66 0 70 31.34 70 70v83.386a5 5 0 01-5 5h-248a5 5 0 01-5-5V24.399z" fill="#fff"/></clipPath></defs></svg>