<svg width="1127" height="1093" fill="none" xmlns="http://www.w3.org/2000/svg"><g opacity=".3"><path d="M462.135 753.168c-147.031-46.349-228.741-202.816-182.509-349.477C325.859 257.031 482.529 175.71 629.56 222.06c147.031 46.349 228.741 202.816 182.509 349.477-46.233 146.66-202.903 227.981-349.934 181.631z" stroke="#FFB8B8" stroke-opacity=".46"/><path d="M482.559 690.705C369.773 655.15 307.074 535.196 342.511 422.782c35.437-112.415 155.593-174.726 268.379-139.171 112.786 35.554 175.485 155.508 140.048 267.922-35.437 112.415-155.593 174.726-268.379 139.172z" stroke="#FFB8B8" stroke-opacity=".46"/><path d="M498.49 623.892c-77.068-24.294-119.939-106.165-95.762-182.86 24.177-76.696 106.25-119.18 183.317-94.885 77.068 24.294 119.939 106.165 95.762 182.861-24.177 76.695-106.249 119.179-183.317 94.884z" stroke="#FFB8B8" stroke-opacity=".46"/><circle cx="469.856" cy="289.205" r="18.875" transform="rotate(107.497 469.856 289.205)" fill="url(#prefix__paint0_linear)"/><circle cx="293.896" cy="405.138" r="42.597" transform="rotate(107.497 293.896 405.138)" fill="url(#prefix__paint1_linear)"/><circle cx="318.058" cy="645.984" r="21.002" transform="rotate(107.497 318.058 645.984)" fill="url(#prefix__paint2_linear)"/><circle cx="423.433" cy="563.013" r="21.002" transform="rotate(107.497 423.433 563.013)" fill="url(#prefix__paint3_linear)"/><circle cx="557.098" cy="482.977" r="86.877" transform="rotate(107.497 557.098 482.977)" fill="url(#prefix__paint4_linear)"/></g><rect width="3.827" height="4.672" rx="1.914" transform="matrix(.99984 -.02076 .00533 1 115.644 326.376)" fill="#83E1E1" fill-opacity=".38"/><rect width="3.827" height="4.673" rx="1.914" transform="matrix(.99984 -.02077 .00533 1 116.793 469.363)" fill="#83E1E1" fill-opacity=".38"/><rect width="3.827" height="4.671" rx="1.914" transform="matrix(.99984 -.02076 .00533 1 116.219 397.87)" fill="#83E1E1" fill-opacity=".38"/><rect width="3.827" height="4.672" rx="1.914" transform="matrix(.99984 -.02076 .00533 1 117.368 540.856)" fill="#83E1E1" fill-opacity=".38"/><rect width="3.827" height="4.673" rx="1.914" transform="matrix(.99984 -.02076 .00533 1 115.931 362.123)" fill="#83E1E1" fill-opacity=".38"/><rect width="3.827" height="4.673" rx="1.914" transform="matrix(.99984 -.02077 .00533 1 117.081 505.109)" fill="#83E1E1" fill-opacity=".38"/><rect width="3.827" height="4.672" rx="1.914" transform="matrix(.99984 -.02076 .00533 1 116.506 433.616)" fill="#83E1E1" fill-opacity=".38"/><rect width="3.827" height="4.673" rx="1.914" transform="matrix(.99984 -.02076 .00533 1 117.655 576.603)" fill="#83E1E1" fill-opacity=".38"/><rect width="3.827" height="4.673" rx="1.914" transform="matrix(.99984 -.02076 .00533 1 115.788 344.25)" fill="#83E1E1" fill-opacity=".38"/><rect width="3.827" height="4.672" rx="1.914" transform="matrix(.99984 -.02076 .00533 1 116.937 487.236)" fill="#83E1E1" fill-opacity=".38"/><rect width="3.827" height="4.672" rx="1.914" transform="matrix(.99984 -.02076 .00533 1 116.362 415.743)" fill="#83E1E1" fill-opacity=".38"/><rect width="3.827" height="4.671" rx="1.914" transform="matrix(.99984 -.02076 .00533 1 117.511 558.73)" fill="#83E1E1" fill-opacity=".38"/><rect width="3.827" height="4.672" rx="1.914" transform="matrix(.99984 -.02077 .00533 1 116.075 379.997)" fill="#83E1E1" fill-opacity=".38"/><rect width="3.827" height="4.672" rx="1.914" transform="matrix(.99984 -.02076 .00533 1 117.225 522.983)" fill="#83E1E1" fill-opacity=".38"/><rect width="3.827" height="4.671" rx="1.914" transform="matrix(.99984 -.02076 .00533 1 116.65 451.49)" fill="#83E1E1" fill-opacity=".38"/><rect width="3.827" height="4.673" rx="1.914" transform="matrix(.99984 -.02076 .00533 1 117.799 594.476)" fill="#83E1E1" fill-opacity=".38"/><rect width="3.827" height="4.672" rx="1.914" transform="matrix(.99984 -.02076 .00533 1 173.628 325.635)" fill="#83E1E1" fill-opacity=".38"/><rect width="3.827" height="4.673" rx="1.914" transform="matrix(.99984 -.02076 .00533 1 174.777 468.621)" fill="#83E1E1" fill-opacity=".38"/><rect width="3.827" height="4.671" rx="1.914" transform="matrix(.99984 -.02076 .00533 1 174.202 397.128)" fill="#83E1E1" fill-opacity=".38"/><rect width="3.827" height="4.672" rx="1.914" transform="matrix(.99984 -.02076 .00533 1 175.352 540.115)" fill="#83E1E1" fill-opacity=".38"/><rect width="3.827" height="4.672" rx="1.914" transform="matrix(.99984 -.02076 .00533 1 173.916 361.381)" fill="#83E1E1" fill-opacity=".38"/><rect width="3.827" height="4.671" rx="1.914" transform="matrix(.99984 -.02076 .00533 1 175.064 504.368)" fill="#83E1E1" fill-opacity=".38"/><rect width="3.827" height="4.672" rx="1.914" transform="matrix(.99984 -.02076 .00533 1 174.49 432.875)" fill="#83E1E1" fill-opacity=".38"/><rect width="3.827" height="4.672" rx="1.914" transform="matrix(.99984 -.02076 .00533 1 175.639 575.862)" fill="#83E1E1" fill-opacity=".38"/><rect width="3.827" height="4.672" rx="1.914" transform="matrix(.99984 -.02076 .00533 1 173.772 343.508)" fill="#83E1E1" fill-opacity=".38"/><rect width="3.827" height="4.673" rx="1.914" transform="matrix(.99984 -.02077 .00533 1 174.921 486.494)" fill="#83E1E1" fill-opacity=".38"/><rect width="3.827" height="4.673" rx="1.914" transform="matrix(.99984 -.02077 .00533 1 174.346 415.001)" fill="#83E1E1" fill-opacity=".38"/><rect width="3.827" height="4.672" rx="1.914" transform="matrix(.99984 -.02076 .00533 1 175.495 557.988)" fill="#83E1E1" fill-opacity=".38"/><rect width="3.827" height="4.672" rx="1.914" transform="matrix(.99984 -.02076 .00533 1 174.06 379.254)" fill="#83E1E1" fill-opacity=".38"/><rect width="3.827" height="4.672" rx="1.914" transform="matrix(.99984 -.02076 .00533 1 175.208 522.241)" fill="#83E1E1" fill-opacity=".38"/><rect width="3.827" height="4.673" rx="1.914" transform="matrix(.99984 -.02076 .00533 1 174.633 450.748)" fill="#83E1E1" fill-opacity=".38"/><rect width="3.827" height="4.671" rx="1.914" transform="matrix(.99984 -.02076 .00533 1 175.783 593.735)" fill="#83E1E1" fill-opacity=".38"/><rect width="3.827" height="4.673" rx="1.914" transform="matrix(.99984 -.02076 .00533 1 130.14 326.19)" fill="#83E1E1" fill-opacity=".38"/><rect width="3.827" height="4.672" rx="1.914" transform="matrix(.99984 -.02076 .00533 1 131.289 469.178)" fill="#83E1E1" fill-opacity=".38"/><rect width="3.827" height="4.671" rx="1.914" transform="matrix(.99984 -.02076 .00533 1 130.714 397.684)" fill="#83E1E1" fill-opacity=".38"/><rect width="3.827" height="4.672" rx="1.914" transform="matrix(.99984 -.02076 .00533 1 131.863 540.671)" fill="#83E1E1" fill-opacity=".38"/><rect width="3.827" height="4.672" rx="1.914" transform="matrix(.99984 -.02076 .00533 1 130.427 361.937)" fill="#83E1E1" fill-opacity=".38"/><rect width="3.827" height="4.671" rx="1.914" transform="matrix(.99984 -.02075 .00533 1 131.576 504.925)" fill="#83E1E1" fill-opacity=".38"/><rect width="3.827" height="4.672" rx="1.914" transform="matrix(.99984 -.02076 .00533 1 131.001 433.431)" fill="#83E1E1" fill-opacity=".38"/><rect width="3.827" height="4.672" rx="1.914" transform="matrix(.99984 -.02076 .00533 1 132.15 576.416)" fill="#83E1E1" fill-opacity=".38"/><rect width="3.827" height="4.672" rx="1.914" transform="matrix(.99984 -.02076 .00533 1 130.283 344.064)" fill="#83E1E1" fill-opacity=".38"/><rect width="3.827" height="4.671" rx="1.914" transform="matrix(.99984 -.02076 .00533 1 131.432 487.051)" fill="#83E1E1" fill-opacity=".38"/><rect width="3.827" height="4.672" rx="1.914" transform="matrix(.99984 -.02076 .00533 1 130.858 415.558)" fill="#83E1E1" fill-opacity=".38"/><rect width="3.827" height="4.671" rx="1.914" transform="matrix(.99984 -.02076 .00533 1 132.007 558.545)" fill="#83E1E1" fill-opacity=".38"/><rect width="3.827" height="4.672" rx="1.914" transform="matrix(.99984 -.02077 .00533 1 130.57 379.812)" fill="#83E1E1" fill-opacity=".38"/><rect width="3.827" height="4.671" rx="1.914" transform="matrix(.99984 -.02076 .00533 1 131.719 522.798)" fill="#83E1E1" fill-opacity=".38"/><rect width="3.827" height="4.672" rx="1.914" transform="matrix(.99984 -.02076 .00533 1 131.145 451.304)" fill="#83E1E1" fill-opacity=".38"/><rect width="3.827" height="4.673" rx="1.914" transform="matrix(.99984 -.02076 .00533 1 132.294 594.29)" fill="#83E1E1" fill-opacity=".38"/><rect width="3.827" height="4.673" rx="1.914" transform="matrix(.99984 -.02084 .00531 1 188.124 325.448)" fill="#83E1E1" fill-opacity=".38"/><rect width="3.827" height="4.672" rx="1.914" transform="matrix(.99984 -.02076 .00533 1 189.273 468.435)" fill="#83E1E1" fill-opacity=".38"/><rect width="3.827" height="4.671" rx="1.914" transform="matrix(.99984 -.02076 .00533 1 188.698 396.943)" fill="#83E1E1" fill-opacity=".38"/><rect width="3.827" height="4.673" rx="1.914" transform="matrix(.99984 -.02076 .00533 1 189.848 539.929)" fill="#83E1E1" fill-opacity=".38"/><rect width="3.827" height="4.672" rx="1.914" transform="matrix(.99984 -.02076 .00533 1 188.411 361.196)" fill="#83E1E1" fill-opacity=".38"/><rect width="3.827" height="4.672" rx="1.914" transform="matrix(.99984 -.02076 .00533 1 189.561 504.182)" fill="#83E1E1" fill-opacity=".38"/><rect width="3.827" height="4.672" rx="1.914" transform="matrix(.99984 -.02076 .00533 1 188.986 432.689)" fill="#83E1E1" fill-opacity=".38"/><rect width="3.827" height="4.672" rx="1.914" transform="matrix(.99984 -.02076 .00533 1 190.135 575.676)" fill="#83E1E1" fill-opacity=".38"/><rect width="3.827" height="4.673" rx="1.914" transform="matrix(.99984 -.02076 .00533 1 188.268 343.322)" fill="#83E1E1" fill-opacity=".38"/><rect width="3.827" height="4.672" rx="1.914" transform="matrix(.99984 -.02076 .00533 1 189.417 486.309)" fill="#83E1E1" fill-opacity=".38"/><rect width="3.827" height="4.672" rx="1.914" transform="matrix(.99984 -.02076 .00533 1 188.843 414.816)" fill="#83E1E1" fill-opacity=".38"/><rect width="3.827" height="4.672" rx="1.914" transform="matrix(.99984 -.02076 .00533 1 189.991 557.802)" fill="#83E1E1" fill-opacity=".38"/><rect width="3.827" height="4.673" rx="1.914" transform="matrix(.99984 -.02077 .00533 1 188.555 379.069)" fill="#83E1E1" fill-opacity=".38"/><rect width="3.827" height="4.671" rx="1.914" transform="matrix(.99984 -.02076 .00533 1 189.704 522.056)" fill="#83E1E1" fill-opacity=".38"/><rect width="3.827" height="4.672" rx="1.914" transform="matrix(.99984 -.02076 .00533 1 189.13 450.563)" fill="#83E1E1" fill-opacity=".38"/><rect width="3.827" height="4.673" rx="1.914" transform="matrix(.99984 -.02077 .00533 1 190.279 593.548)" fill="#83E1E1" fill-opacity=".38"/><rect width="3.827" height="4.672" rx="1.914" transform="matrix(.99984 -.02076 .00533 1 144.636 326.006)" fill="#83E1E1" fill-opacity=".38"/><rect width="3.827" height="4.671" rx="1.914" transform="matrix(.99984 -.02076 .00533 1 145.785 468.992)" fill="#83E1E1" fill-opacity=".38"/><rect width="3.827" height="4.673" rx="1.914" transform="matrix(.99984 -.02077 .00533 1 145.211 397.498)" fill="#83E1E1" fill-opacity=".38"/><rect width="3.827" height="4.672" rx="1.914" transform="matrix(.99984 -.02076 .00533 1 146.36 540.486)" fill="#83E1E1" fill-opacity=".38"/><rect width="3.827" height="4.671" rx="1.914" transform="matrix(.99984 -.02076 .00533 1 144.924 361.753)" fill="#83E1E1" fill-opacity=".38"/><rect width="3.827" height="4.672" rx="1.914" transform="matrix(.99984 -.02076 .00533 1 146.073 504.738)" fill="#83E1E1" fill-opacity=".38"/><rect width="3.827" height="4.672" rx="1.914" transform="matrix(.99984 -.02076 .00533 1 145.498 433.246)" fill="#83E1E1" fill-opacity=".38"/><rect width="3.827" height="4.672" rx="1.914" transform="matrix(.99984 -.02076 .00533 1 146.647 576.232)" fill="#83E1E1" fill-opacity=".38"/><rect width="3.827" height="4.672" rx="1.914" transform="matrix(.99984 -.02076 .00533 1 144.78 343.879)" fill="#83E1E1" fill-opacity=".38"/><rect width="3.827" height="4.673" rx="1.914" transform="matrix(.99984 -.02077 .00533 1 145.929 486.865)" fill="#83E1E1" fill-opacity=".38"/><rect width="3.827" height="4.671" rx="1.914" transform="matrix(.99984 -.02076 .00533 1 145.354 415.372)" fill="#83E1E1" fill-opacity=".38"/><rect width="3.827" height="4.672" rx="1.914" transform="matrix(.99984 -.02076 .00533 1 146.503 558.359)" fill="#83E1E1" fill-opacity=".38"/><rect width="3.827" height="4.671" rx="1.914" transform="matrix(.99984 -.02077 .00533 1 145.067 379.627)" fill="#83E1E1" fill-opacity=".38"/><rect width="3.827" height="4.672" rx="1.914" transform="matrix(.99984 -.02076 .00533 1 146.216 522.613)" fill="#83E1E1" fill-opacity=".38"/><rect width="3.827" height="4.672" rx="1.914" transform="matrix(.99984 -.02076 .00533 1 145.642 451.119)" fill="#83E1E1" fill-opacity=".38"/><rect width="3.827" height="4.672" rx="1.914" transform="matrix(.99984 -.02076 .00533 1 146.791 594.105)" fill="#83E1E1" fill-opacity=".38"/><rect width="3.827" height="4.672" rx="1.914" transform="matrix(.99984 -.02084 .00531 1 202.62 325.265)" fill="#83E1E1" fill-opacity=".38"/><rect width="3.827" height="4.673" rx="1.914" transform="matrix(.99984 -.02076 .00533 1 203.769 468.25)" fill="#83E1E1" fill-opacity=".38"/><rect width="3.827" height="4.671" rx="1.914" transform="matrix(.99984 -.02076 .00533 1 203.194 396.758)" fill="#83E1E1" fill-opacity=".38"/><rect width="3.827" height="4.673" rx="1.914" transform="matrix(.99984 -.02076 .00533 1 204.344 539.744)" fill="#83E1E1" fill-opacity=".38"/><rect width="3.827" height="4.672" rx="1.914" transform="matrix(.99984 -.02076 .00533 1 202.907 361.011)" fill="#83E1E1" fill-opacity=".38"/><rect width="3.827" height="4.672" rx="1.914" transform="matrix(.99984 -.02076 .00533 1 204.057 503.997)" fill="#83E1E1" fill-opacity=".38"/><rect width="3.827" height="4.671" rx="1.914" transform="matrix(.99984 -.02076 .00533 1 203.481 432.504)" fill="#83E1E1" fill-opacity=".38"/><rect width="3.827" height="4.672" rx="1.914" transform="matrix(.99984 -.02076 .00533 1 204.631 575.49)" fill="#83E1E1" fill-opacity=".38"/><rect width="3.827" height="4.672" rx="1.914" transform="matrix(.99984 -.02076 .00533 1 202.763 343.137)" fill="#83E1E1" fill-opacity=".38"/><rect width="3.827" height="4.671" rx="1.914" transform="matrix(.99984 -.02075 .00533 1 203.913 486.125)" fill="#83E1E1" fill-opacity=".38"/><rect width="3.827" height="4.672" rx="1.914" transform="matrix(.99984 -.02076 .00533 1 203.338 414.631)" fill="#83E1E1" fill-opacity=".38"/><rect width="3.827" height="4.673" rx="1.914" transform="matrix(.99984 -.02076 .00533 1 204.487 557.616)" fill="#83E1E1" fill-opacity=".38"/><rect width="3.827" height="4.672" rx="1.914" transform="matrix(.99984 -.02076 .00533 1 203.051 378.883)" fill="#83E1E1" fill-opacity=".38"/><rect width="3.827" height="4.671" rx="1.914" transform="matrix(.99984 -.02076 .00533 1 204.199 521.871)" fill="#83E1E1" fill-opacity=".38"/><rect width="3.827" height="4.673" rx="1.914" transform="matrix(.99984 -.02077 .00533 1 203.625 450.377)" fill="#83E1E1" fill-opacity=".38"/><rect width="3.827" height="4.672" rx="1.914" transform="matrix(.99984 -.02076 .00533 1 204.774 593.363)" fill="#83E1E1" fill-opacity=".38"/><rect width="3.827" height="4.673" rx="1.914" transform="matrix(.99984 -.02076 .00533 1 159.132 325.82)" fill="#83E1E1" fill-opacity=".38"/><rect width="3.827" height="4.673" rx="1.914" transform="matrix(.99984 -.02076 .00533 1 160.281 468.806)" fill="#83E1E1" fill-opacity=".38"/><rect width="3.827" height="4.672" rx="1.914" transform="matrix(.99984 -.02076 .00533 1 159.707 397.313)" fill="#83E1E1" fill-opacity=".38"/><rect width="3.827" height="4.672" rx="1.914" transform="matrix(.99984 -.02076 .00533 1 160.855 540.3)" fill="#83E1E1" fill-opacity=".38"/><rect width="3.827" height="4.672" rx="1.914" transform="matrix(.99984 -.02076 .00533 1 159.42 361.567)" fill="#83E1E1" fill-opacity=".38"/><rect width="3.827" height="4.671" rx="1.914" transform="matrix(.99984 -.02075 .00533 1 160.569 504.554)" fill="#83E1E1" fill-opacity=".38"/><rect width="3.827" height="4.671" rx="1.914" transform="matrix(.99984 -.02076 .00533 1 159.994 433.06)" fill="#83E1E1" fill-opacity=".38"/><rect width="3.827" height="4.672" rx="1.914" transform="matrix(.99984 -.02076 .00533 1 161.143 576.048)" fill="#83E1E1" fill-opacity=".38"/><rect width="3.827" height="4.672" rx="1.914" transform="matrix(.99984 -.02076 .00533 1 159.276 343.694)" fill="#83E1E1" fill-opacity=".38"/><rect width="3.827" height="4.671" rx="1.914" transform="matrix(.99984 -.02075 .00533 1 160.425 486.681)" fill="#83E1E1" fill-opacity=".38"/><rect width="3.827" height="4.672" rx="1.914" transform="matrix(.99984 -.02076 .00533 1 159.851 415.187)" fill="#83E1E1" fill-opacity=".38"/><rect width="3.827" height="4.672" rx="1.914" transform="matrix(.99984 -.02076 .00533 1 160.999 558.173)" fill="#83E1E1" fill-opacity=".38"/><rect width="3.827" height="4.672" rx="1.914" transform="matrix(.99984 -.02077 .00533 1 159.563 379.44)" fill="#83E1E1" fill-opacity=".38"/><rect width="3.827" height="4.671" rx="1.914" transform="matrix(.99984 -.02075 .00533 1 160.712 522.427)" fill="#83E1E1" fill-opacity=".38"/><rect width="3.827" height="4.672" rx="1.914" transform="matrix(.99984 -.02076 .00533 1 160.138 450.933)" fill="#83E1E1" fill-opacity=".38"/><rect width="3.827" height="4.673" rx="1.914" transform="matrix(.99984 -.02076 .00533 1 161.287 593.92)" fill="#83E1E1" fill-opacity=".38"/><rect width="3.827" height="4.672" rx="1.914" transform="matrix(.99984 -.02076 .00533 1 217.116 325.078)" fill="#83E1E1" fill-opacity=".38"/><rect width="3.827" height="4.672" rx="1.914" transform="matrix(.99984 -.02076 .00533 1 218.265 468.066)" fill="#83E1E1" fill-opacity=".38"/><rect width="3.827" height="4.673" rx="1.914" transform="matrix(.99984 -.02076 .00533 1 217.69 396.571)" fill="#83E1E1" fill-opacity=".38"/><rect width="3.827" height="4.671" rx="1.914" transform="matrix(.99984 -.02076 .00533 1 218.839 539.559)" fill="#83E1E1" fill-opacity=".38"/><rect width="3.827" height="4.673" rx="1.914" transform="matrix(.99984 -.02076 .00533 1 217.403 360.825)" fill="#83E1E1" fill-opacity=".38"/><rect width="3.827" height="4.672" rx="1.914" transform="matrix(.99984 -.02076 .00533 1 218.552 503.811)" fill="#83E1E1" fill-opacity=".38"/><rect width="3.827" height="4.672" rx="1.914" transform="matrix(.99984 -.02076 .00533 1 217.977 432.319)" fill="#83E1E1" fill-opacity=".38"/><rect width="3.827" height="4.672" rx="1.914" transform="matrix(.99984 -.02076 .00533 1 219.127 575.304)" fill="#83E1E1" fill-opacity=".38"/><rect width="3.827" height="4.673" rx="1.914" transform="matrix(.99984 -.02076 .00533 1 217.26 342.95)" fill="#83E1E1" fill-opacity=".38"/><rect width="3.827" height="4.673" rx="1.914" transform="matrix(.99984 -.02077 .00533 1 218.408 485.938)" fill="#83E1E1" fill-opacity=".38"/><rect width="3.827" height="4.672" rx="1.914" transform="matrix(.99984 -.02076 .00533 1 217.833 414.445)" fill="#83E1E1" fill-opacity=".38"/><rect width="3.827" height="4.673" rx="1.914" transform="matrix(.99984 -.02076 .00533 1 218.983 557.432)" fill="#83E1E1" fill-opacity=".38"/><rect width="3.827" height="4.672" rx="1.914" transform="matrix(.99984 -.02076 .00533 1 217.547 378.698)" fill="#83E1E1" fill-opacity=".38"/><rect width="3.827" height="4.672" rx="1.914" transform="matrix(.99984 -.02076 .00533 1 218.696 521.684)" fill="#83E1E1" fill-opacity=".38"/><rect width="3.827" height="4.672" rx="1.914" transform="matrix(.99984 -.02076 .00533 1 218.121 450.192)" fill="#83E1E1" fill-opacity=".38"/><rect width="3.827" height="4.67" rx="1.914" transform="matrix(.99984 -.02075 .00533 1 219.27 593.178)" fill="#83E1E1" fill-opacity=".38"/><rect width="3.827" height="4.672" rx="1.914" transform="matrix(.99984 -.02076 .00533 1 .44 327.853)" fill="#83E1E1" fill-opacity=".38"/><rect width="3.827" height="4.67" rx="1.914" transform="matrix(.99984 -.02075 .00533 1 1.589 470.84)" fill="#83E1E1" fill-opacity=".38"/><rect width="3.827" height="4.672" rx="1.914" transform="matrix(.99984 -.02076 .00533 1 1.014 399.345)" fill="#83E1E1" fill-opacity=".38"/><rect width="3.827" height="4.672" rx="1.914" transform="matrix(.99984 -.02076 .00533 1 2.163 542.331)" fill="#83E1E1" fill-opacity=".38"/><rect width="3.827" height="4.672" rx="1.914" transform="matrix(.99984 -.02076 .00533 1 .727 363.599)" fill="#83E1E1" fill-opacity=".38"/><rect width="3.827" height="4.671" rx="1.914" transform="matrix(.99984 -.02076 .00533 1 1.876 506.585)" fill="#83E1E1" fill-opacity=".38"/><rect width="3.827" height="4.673" rx="1.914" transform="matrix(.99984 -.02076 .00533 1 1.301 435.092)" fill="#83E1E1" fill-opacity=".38"/><rect width="3.827" height="4.671" rx="1.914" transform="matrix(.99984 -.02076 .00533 1 2.45 578.079)" fill="#83E1E1" fill-opacity=".38"/><rect width="3.827" height="4.671" rx="1.914" transform="matrix(.99984 -.02076 .00533 1 .584 345.726)" fill="#83E1E1" fill-opacity=".38"/><rect width="3.827" height="4.671" rx="1.914" transform="matrix(.99984 -.02076 .00533 1 1.732 488.712)" fill="#83E1E1" fill-opacity=".38"/><rect width="3.827" height="4.672" rx="1.914" transform="matrix(.99984 -.02076 .00533 1 1.158 417.218)" fill="#83E1E1" fill-opacity=".38"/><rect width="3.827" height="4.672" rx="1.914" transform="matrix(.99984 -.02076 .00533 1 2.307 560.205)" fill="#83E1E1" fill-opacity=".38"/><rect width="3.827" height="4.671" rx="1.914" transform="matrix(.99984 -.02077 .00533 1 .87 381.473)" fill="#83E1E1" fill-opacity=".38"/><rect width="3.827" height="4.672" rx="1.914" transform="matrix(.99984 -.02076 .00533 1 2.02 524.459)" fill="#83E1E1" fill-opacity=".38"/><rect width="3.827" height="4.672" rx="1.914" transform="matrix(.99984 -.02076 .00533 1 1.446 452.966)" fill="#83E1E1" fill-opacity=".38"/><rect width="3.827" height="4.672" rx="1.914" transform="matrix(.99984 -.02076 .00533 1 2.594 595.952)" fill="#83E1E1" fill-opacity=".38"/><rect width="3.827" height="4.673" rx="1.914" transform="matrix(.99984 -.02076 .00533 1 58.424 327.11)" fill="#83E1E1" fill-opacity=".38"/><rect width="3.827" height="4.672" rx="1.914" transform="matrix(.99984 -.02076 .00533 1 59.573 470.096)" fill="#83E1E1" fill-opacity=".38"/><rect width="3.827" height="4.673" rx="1.914" transform="matrix(.99984 -.02077 .00533 1 58.998 398.602)" fill="#83E1E1" fill-opacity=".38"/><rect width="3.827" height="4.672" rx="1.914" transform="matrix(.99984 -.02076 .00533 1 60.147 541.59)" fill="#83E1E1" fill-opacity=".38"/><rect width="3.827" height="4.673" rx="1.914" transform="matrix(.99984 -.02076 .00533 1 58.71 362.856)" fill="#83E1E1" fill-opacity=".38"/><rect width="3.827" height="4.671" rx="1.914" transform="matrix(.99984 -.02076 .00533 1 59.86 505.844)" fill="#83E1E1" fill-opacity=".38"/><rect width="3.827" height="4.672" rx="1.914" transform="matrix(.99984 -.02076 .00533 1 59.285 434.35)" fill="#83E1E1" fill-opacity=".38"/><rect width="3.827" height="4.671" rx="1.914" transform="matrix(.99984 -.02075 .00533 1 60.435 577.338)" fill="#83E1E1" fill-opacity=".38"/><rect width="3.827" height="4.672" rx="1.914" transform="matrix(.99984 -.02076 .00533 1 58.567 344.983)" fill="#83E1E1" fill-opacity=".38"/><rect width="3.827" height="4.672" rx="1.914" transform="matrix(.99984 -.02076 .00533 1 59.716 487.969)" fill="#83E1E1" fill-opacity=".38"/><rect width="3.827" height="4.672" rx="1.914" transform="matrix(.99984 -.02076 .00533 1 59.142 416.477)" fill="#83E1E1" fill-opacity=".38"/><rect width="3.827" height="4.672" rx="1.914" transform="matrix(.99984 -.02076 .00533 1 60.29 559.463)" fill="#83E1E1" fill-opacity=".38"/><rect width="3.827" height="4.672" rx="1.914" transform="matrix(.99984 -.02076 .00533 1 58.855 380.73)" fill="#83E1E1" fill-opacity=".38"/><rect width="3.827" height="4.671" rx="1.914" transform="matrix(.99984 -.02075 .00533 1 60.003 523.718)" fill="#83E1E1" fill-opacity=".38"/><rect width="3.827" height="4.672" rx="1.914" transform="matrix(.99984 -.02076 .00533 1 59.429 452.223)" fill="#83E1E1" fill-opacity=".38"/><rect width="3.827" height="4.672" rx="1.914" transform="matrix(.99984 -.02076 .00533 1 60.578 595.21)" fill="#83E1E1" fill-opacity=".38"/><rect width="3.827" height="4.672" rx="1.914" transform="matrix(.99984 -.02076 .00533 1 14.935 327.666)" fill="#83E1E1" fill-opacity=".38"/><rect width="3.827" height="4.671" rx="1.914" transform="matrix(.99984 -.02075 .00533 1 16.084 470.654)" fill="#83E1E1" fill-opacity=".38"/><rect width="3.827" height="4.671" rx="1.914" transform="matrix(.99984 -.02076 .00533 1 15.51 399.16)" fill="#83E1E1" fill-opacity=".38"/><rect width="3.827" height="4.671" rx="1.914" transform="matrix(.99984 -.02076 .00533 1 16.658 542.148)" fill="#83E1E1" fill-opacity=".38"/><rect width="3.827" height="4.671" rx="1.914" transform="matrix(.99984 -.02076 .00533 1 15.223 363.413)" fill="#83E1E1" fill-opacity=".38"/><rect width="3.827" height="4.671" rx="1.914" transform="matrix(.99984 -.02076 .00533 1 16.372 506.4)" fill="#83E1E1" fill-opacity=".38"/><rect width="3.827" height="4.672" rx="1.914" transform="matrix(.99984 -.02076 .00533 1 15.796 434.907)" fill="#83E1E1" fill-opacity=".38"/><rect width="3.827" height="4.671" rx="1.914" transform="matrix(.99984 -.02076 .00533 1 16.946 577.893)" fill="#83E1E1" fill-opacity=".38"/><rect width="3.827" height="4.671" rx="1.914" transform="matrix(.99984 -.02076 .00533 1 15.079 345.54)" fill="#83E1E1" fill-opacity=".38"/><rect width="3.827" height="4.671" rx="1.914" transform="matrix(.99984 -.02076 .00533 1 16.228 488.526)" fill="#83E1E1" fill-opacity=".38"/><rect width="3.827" height="4.672" rx="1.914" transform="matrix(.99984 -.02076 .00533 1 15.654 417.032)" fill="#83E1E1" fill-opacity=".38"/><rect width="3.827" height="4.672" rx="1.914" transform="matrix(.99984 -.02076 .00533 1 16.802 560.02)" fill="#83E1E1" fill-opacity=".38"/><rect width="3.827" height="4.671" rx="1.914" transform="matrix(.99984 -.02076 .00533 1 15.366 381.286)" fill="#83E1E1" fill-opacity=".38"/><rect width="3.827" height="4.672" rx="1.914" transform="matrix(.99984 -.02076 .00533 1 16.515 524.274)" fill="#83E1E1" fill-opacity=".38"/><rect width="3.827" height="4.672" rx="1.914" transform="matrix(.99984 -.02076 .00533 1 15.94 452.78)" fill="#83E1E1" fill-opacity=".38"/><rect width="3.827" height="4.672" rx="1.914" transform="matrix(.99984 -.02076 .00533 1 17.09 595.767)" fill="#83E1E1" fill-opacity=".38"/><rect width="3.827" height="4.673" rx="1.914" transform="matrix(.99984 -.02084 .00531 1 72.92 326.924)" fill="#83E1E1" fill-opacity=".38"/><rect width="3.827" height="4.673" rx="1.914" transform="matrix(.99984 -.02077 .00533 1 74.068 469.911)" fill="#83E1E1" fill-opacity=".38"/><rect width="3.827" height="4.672" rx="1.914" transform="matrix(.99984 -.02076 .00533 1 73.494 398.418)" fill="#83E1E1" fill-opacity=".38"/><rect width="3.827" height="4.672" rx="1.914" transform="matrix(.99984 -.02076 .00533 1 74.643 541.404)" fill="#83E1E1" fill-opacity=".38"/><rect width="3.827" height="4.672" rx="1.914" transform="matrix(.99984 -.02076 .00533 1 73.206 362.671)" fill="#83E1E1" fill-opacity=".38"/><rect width="3.827" height="4.671" rx="1.914" transform="matrix(.99984 -.02076 .00533 1 74.356 505.659)" fill="#83E1E1" fill-opacity=".38"/><rect width="3.827" height="4.672" rx="1.914" transform="matrix(.99984 -.02076 .00533 1 73.78 434.165)" fill="#83E1E1" fill-opacity=".38"/><rect width="3.827" height="4.672" rx="1.914" transform="matrix(.99984 -.02076 .00533 1 74.93 577.152)" fill="#83E1E1" fill-opacity=".38"/><rect width="3.827" height="4.672" rx="1.914" transform="matrix(.99984 -.02076 .00533 1 73.063 344.798)" fill="#83E1E1" fill-opacity=".38"/><rect width="3.827" height="4.673" rx="1.914" transform="matrix(.99984 -.02077 .00533 1 74.212 487.784)" fill="#83E1E1" fill-opacity=".38"/><rect width="3.827" height="4.671" rx="1.914" transform="matrix(.99984 -.02075 .00533 1 73.638 416.292)" fill="#83E1E1" fill-opacity=".38"/><rect width="3.827" height="4.673" rx="1.914" transform="matrix(.99984 -.02076 .00533 1 74.786 559.278)" fill="#83E1E1" fill-opacity=".38"/><rect width="3.827" height="4.671" rx="1.914" transform="matrix(.99984 -.02076 .00533 1 73.35 380.545)" fill="#83E1E1" fill-opacity=".38"/><rect width="3.827" height="4.672" rx="1.914" transform="matrix(.99984 -.02076 .00533 1 74.5 523.531)" fill="#83E1E1" fill-opacity=".38"/><rect width="3.827" height="4.672" rx="1.914" transform="matrix(.99984 -.02076 .00533 1 73.925 452.038)" fill="#83E1E1" fill-opacity=".38"/><rect width="3.827" height="4.671" rx="1.914" transform="matrix(.99984 -.02076 .00533 1 75.074 595.025)" fill="#83E1E1" fill-opacity=".38"/><rect width="3.827" height="4.672" rx="1.914" transform="matrix(.99984 -.02076 .00533 1 29.432 327.481)" fill="#83E1E1" fill-opacity=".38"/><rect width="3.827" height="4.673" rx="1.914" transform="matrix(.99984 -.02076 .00533 1 30.58 470.467)" fill="#83E1E1" fill-opacity=".38"/><rect width="3.827" height="4.672" rx="1.914" transform="matrix(.99984 -.02076 .00533 1 30.006 398.974)" fill="#83E1E1" fill-opacity=".38"/><rect width="3.827" height="4.672" rx="1.914" transform="matrix(.99984 -.02076 .00533 1 31.155 541.962)" fill="#83E1E1" fill-opacity=".38"/><rect width="3.827" height="4.673" rx="1.914" transform="matrix(.99984 -.02076 .00533 1 29.719 363.227)" fill="#83E1E1" fill-opacity=".38"/><rect width="3.827" height="4.672" rx="1.914" transform="matrix(.99984 -.02076 .00533 1 30.868 506.215)" fill="#83E1E1" fill-opacity=".38"/><rect width="3.827" height="4.672" rx="1.914" transform="matrix(.99984 -.02076 .00533 1 30.293 434.721)" fill="#83E1E1" fill-opacity=".38"/><rect width="3.827" height="4.672" rx="1.914" transform="matrix(.99984 -.02076 .00533 1 31.442 577.707)" fill="#83E1E1" fill-opacity=".38"/><rect width="3.827" height="4.673" rx="1.914" transform="matrix(.99984 -.02077 .00533 1 29.575 345.354)" fill="#83E1E1" fill-opacity=".38"/><rect width="3.827" height="4.672" rx="1.914" transform="matrix(.99984 -.02076 .00533 1 30.724 488.34)" fill="#83E1E1" fill-opacity=".38"/><rect width="3.827" height="4.672" rx="1.914" transform="matrix(.99984 -.02076 .00533 1 30.15 416.848)" fill="#83E1E1" fill-opacity=".38"/><rect width="3.827" height="4.67" rx="1.914" transform="matrix(.99984 -.02075 .00533 1 31.298 559.836)" fill="#83E1E1" fill-opacity=".38"/><rect width="3.827" height="4.673" rx="1.914" transform="matrix(.99984 -.02076 .00533 1 29.863 381.1)" fill="#83E1E1" fill-opacity=".38"/><rect width="3.827" height="4.671" rx="1.914" transform="matrix(.99984 -.02076 .00533 1 31.012 524.088)" fill="#83E1E1" fill-opacity=".38"/><rect width="3.827" height="4.672" rx="1.914" transform="matrix(.99984 -.02076 .00533 1 30.437 452.594)" fill="#83E1E1" fill-opacity=".38"/><rect width="3.827" height="4.673" rx="1.914" transform="matrix(.99984 -.02076 .00533 1 31.586 595.58)" fill="#83E1E1" fill-opacity=".38"/><rect width="3.827" height="4.673" rx="1.914" transform="matrix(.99984 -.02084 .00531 1 87.415 326.74)" fill="#83E1E1" fill-opacity=".38"/><rect width="3.827" height="4.672" rx="1.914" transform="matrix(.99984 -.02076 .00533 1 88.564 469.726)" fill="#83E1E1" fill-opacity=".38"/><rect width="3.827" height="4.672" rx="1.914" transform="matrix(.99984 -.02076 .00533 1 87.99 398.233)" fill="#83E1E1" fill-opacity=".38"/><rect width="3.827" height="4.672" rx="1.914" transform="matrix(.99984 -.02076 .00533 1 89.139 541.219)" fill="#83E1E1" fill-opacity=".38"/><rect width="3.827" height="4.672" rx="1.914" transform="matrix(.99984 -.02076 .00533 1 87.702 362.486)" fill="#83E1E1" fill-opacity=".38"/><rect width="3.827" height="4.673" rx="1.914" transform="matrix(.99984 -.02076 .00533 1 88.852 505.473)" fill="#83E1E1" fill-opacity=".38"/><rect width="3.827" height="4.671" rx="1.914" transform="matrix(.99984 -.02076 .00533 1 88.277 433.979)" fill="#83E1E1" fill-opacity=".38"/><rect width="3.827" height="4.673" rx="1.914" transform="matrix(.99984 -.02076 .00533 1 89.426 576.965)" fill="#83E1E1" fill-opacity=".38"/><rect width="3.827" height="4.672" rx="1.914" transform="matrix(.99984 -.02076 .00533 1 87.56 344.612)" fill="#83E1E1" fill-opacity=".38"/><rect width="3.827" height="4.671" rx="1.914" transform="matrix(.99984 -.02076 .00533 1 88.708 487.6)" fill="#83E1E1" fill-opacity=".38"/><rect width="3.827" height="4.671" rx="1.914" transform="matrix(.99984 -.02076 .00533 1 88.133 416.107)" fill="#83E1E1" fill-opacity=".38"/><rect width="3.827" height="4.671" rx="1.914" transform="matrix(.99984 -.02076 .00533 1 89.282 559.092)" fill="#83E1E1" fill-opacity=".38"/><rect width="3.827" height="4.674" rx="1.914" transform="matrix(.99984 -.02077 .00533 1 87.846 380.359)" fill="#83E1E1" fill-opacity=".38"/><rect width="3.827" height="4.672" rx="1.914" transform="matrix(.99984 -.02076 .00533 1 88.995 523.346)" fill="#83E1E1" fill-opacity=".38"/><rect width="3.827" height="4.672" rx="1.914" transform="matrix(.99984 -.02076 .00533 1 88.42 451.853)" fill="#83E1E1" fill-opacity=".38"/><rect width="3.827" height="4.672" rx="1.914" transform="matrix(.99984 -.02076 .00533 1 89.57 594.84)" fill="#83E1E1" fill-opacity=".38"/><rect width="3.827" height="4.672" rx="1.914" transform="matrix(.99984 -.02076 .00533 1 43.927 327.295)" fill="#83E1E1" fill-opacity=".38"/><rect width="3.827" height="4.672" rx="1.914" transform="matrix(.99984 -.02076 .00533 1 45.077 470.282)" fill="#83E1E1" fill-opacity=".38"/><rect width="3.827" height="4.671" rx="1.914" transform="matrix(.99984 -.02076 .00533 1 44.502 398.789)" fill="#83E1E1" fill-opacity=".38"/><rect width="3.827" height="4.673" rx="1.914" transform="matrix(.99984 -.02076 .00533 1 45.651 541.775)" fill="#83E1E1" fill-opacity=".38"/><rect width="3.827" height="4.671" rx="1.914" transform="matrix(.99984 -.02076 .00533 1 44.215 363.042)" fill="#83E1E1" fill-opacity=".38"/><rect width="3.827" height="4.672" rx="1.914" transform="matrix(.99984 -.02076 .00533 1 45.364 506.029)" fill="#83E1E1" fill-opacity=".38"/><rect width="3.827" height="4.672" rx="1.914" transform="matrix(.99984 -.02076 .00533 1 44.79 434.535)" fill="#83E1E1" fill-opacity=".38"/><rect width="3.827" height="4.672" rx="1.914" transform="matrix(.99984 -.02076 .00533 1 45.939 577.522)" fill="#83E1E1" fill-opacity=".38"/><rect width="3.827" height="4.672" rx="1.914" transform="matrix(.99984 -.02076 .00533 1 44.071 345.169)" fill="#83E1E1" fill-opacity=".38"/><rect width="3.827" height="4.671" rx="1.914" transform="matrix(.99984 -.02076 .00533 1 45.22 488.156)" fill="#83E1E1" fill-opacity=".38"/><rect width="3.827" height="4.673" rx="1.914" transform="matrix(.99984 -.02076 .00533 1 44.646 416.662)" fill="#83E1E1" fill-opacity=".38"/><rect width="3.827" height="4.672" rx="1.914" transform="matrix(.99984 -.02076 .00533 1 45.795 559.649)" fill="#83E1E1" fill-opacity=".38"/><rect width="3.827" height="4.672" rx="1.914" transform="matrix(.99984 -.02076 .00533 1 44.358 380.916)" fill="#83E1E1" fill-opacity=".38"/><rect width="3.827" height="4.671" rx="1.914" transform="matrix(.99984 -.02075 .00533 1 45.507 523.903)" fill="#83E1E1" fill-opacity=".38"/><rect width="3.827" height="4.672" rx="1.914" transform="matrix(.99984 -.02076 .00533 1 44.933 452.409)" fill="#83E1E1" fill-opacity=".38"/><rect width="3.827" height="4.672" rx="1.914" transform="matrix(.99984 -.02076 .00533 1 46.082 595.396)" fill="#83E1E1" fill-opacity=".38"/><rect width="3.827" height="4.672" rx="1.914" transform="matrix(.99984 -.02076 .00533 1 101.911 326.554)" fill="#83E1E1" fill-opacity=".38"/><rect width="3.827" height="4.673" rx="1.914" transform="matrix(.99984 -.02076 .00533 1 103.061 469.54)" fill="#83E1E1" fill-opacity=".38"/><rect width="3.827" height="4.673" rx="1.914" transform="matrix(.99984 -.02076 .00533 1 102.486 398.047)" fill="#83E1E1" fill-opacity=".38"/><rect width="3.827" height="4.672" rx="1.914" transform="matrix(.99984 -.02076 .00533 1 103.635 541.032)" fill="#83E1E1" fill-opacity=".38"/><rect width="3.827" height="4.672" rx="1.914" transform="matrix(.99984 -.02076 .00533 1 102.198 362.3)" fill="#83E1E1" fill-opacity=".38"/><rect width="3.827" height="4.671" rx="1.914" transform="matrix(.99984 -.02075 .00533 1 103.347 505.287)" fill="#83E1E1" fill-opacity=".38"/><rect width="3.827" height="4.672" rx="1.914" transform="matrix(.99984 -.02076 .00533 1 102.773 433.794)" fill="#83E1E1" fill-opacity=".38"/><rect width="3.827" height="4.672" rx="1.914" transform="matrix(.99984 -.02076 .00533 1 103.922 576.78)" fill="#83E1E1" fill-opacity=".38"/><rect width="3.827" height="4.672" rx="1.914" transform="matrix(.99984 -.02076 .00533 1 102.055 344.427)" fill="#83E1E1" fill-opacity=".38"/><rect width="3.827" height="4.672" rx="1.914" transform="matrix(.99984 -.02076 .00533 1 103.204 487.413)" fill="#83E1E1" fill-opacity=".38"/><rect width="3.827" height="4.672" rx="1.914" transform="matrix(.99984 -.02076 .00533 1 102.629 415.921)" fill="#83E1E1" fill-opacity=".38"/><rect width="3.827" height="4.672" rx="1.914" transform="matrix(.99984 -.02076 .00533 1 103.779 558.907)" fill="#83E1E1" fill-opacity=".38"/><rect width="3.827" height="4.673" rx="1.914" transform="matrix(.99984 -.02076 .00533 1 102.342 380.174)" fill="#83E1E1" fill-opacity=".38"/><rect width="3.827" height="4.673" rx="1.914" transform="matrix(.99984 -.02076 .00533 1 103.491 523.159)" fill="#83E1E1" fill-opacity=".38"/><rect width="3.827" height="4.671" rx="1.914" transform="matrix(.99984 -.02076 .00533 1 102.917 451.667)" fill="#83E1E1" fill-opacity=".38"/><rect width="3.827" height="4.672" rx="1.914" transform="matrix(.99984 -.02076 .00533 1 104.065 594.653)" fill="#83E1E1" fill-opacity=".38"/><rect width="3.827" height="4.672" rx="1.914" transform="matrix(.99984 -.02076 .00533 1 1018.76 817.741)" fill="#83E1E1" fill-opacity=".38"/><rect width="3.827" height="4.673" rx="1.914" transform="matrix(.99984 -.02077 .00533 1 1019.91 960.728)" fill="#83E1E1" fill-opacity=".38"/><rect width="3.827" height="4.671" rx="1.914" transform="matrix(.99984 -.02076 .00533 1 1019.34 889.234)" fill="#83E1E1" fill-opacity=".38"/><rect width="3.827" height="4.672" rx="1.914" transform="matrix(.99984 -.02076 .00533 1 1020.49 1032.22)" fill="#83E1E1" fill-opacity=".38"/><rect width="3.827" height="4.673" rx="1.914" transform="matrix(.99984 -.02076 .00533 1 1019.05 853.487)" fill="#83E1E1" fill-opacity=".38"/><rect width="3.827" height="4.673" rx="1.914" transform="matrix(.99984 -.02077 .00533 1 1020.2 996.474)" fill="#83E1E1" fill-opacity=".38"/><rect width="3.827" height="4.672" rx="1.914" transform="matrix(.99984 -.02076 .00533 1 1019.63 924.981)" fill="#83E1E1" fill-opacity=".38"/><rect width="3.827" height="4.673" rx="1.914" transform="matrix(.99984 -.02076 .00533 1 1020.78 1067.97)" fill="#83E1E1" fill-opacity=".38"/><rect width="3.827" height="4.673" rx="1.914" transform="matrix(.99984 -.02076 .00533 1 1018.91 835.614)" fill="#83E1E1" fill-opacity=".38"/><rect width="3.827" height="4.672" rx="1.914" transform="matrix(.99984 -.02076 .00533 1 1020.06 978.601)" fill="#83E1E1" fill-opacity=".38"/><rect width="3.827" height="4.672" rx="1.914" transform="matrix(.99984 -.02076 .00533 1 1019.48 907.108)" fill="#83E1E1" fill-opacity=".38"/><rect width="3.827" height="4.671" rx="1.914" transform="matrix(.99984 -.02076 .00533 1 1020.63 1050.09)" fill="#83E1E1" fill-opacity=".38"/><rect width="3.827" height="4.672" rx="1.914" transform="matrix(.99984 -.02077 .00533 1 1019.2 871.362)" fill="#83E1E1" fill-opacity=".38"/><rect width="3.827" height="4.672" rx="1.914" transform="matrix(.99984 -.02076 .00533 1 1020.35 1014.35)" fill="#83E1E1" fill-opacity=".38"/><rect width="3.827" height="4.671" rx="1.914" transform="matrix(.99984 -.02076 .00533 1 1019.77 942.855)" fill="#83E1E1" fill-opacity=".38"/><rect width="3.827" height="4.673" rx="1.914" transform="matrix(.99984 -.02076 .00533 1 1020.92 1085.84)" fill="#83E1E1" fill-opacity=".38"/><rect width="3.827" height="4.672" rx="1.914" transform="matrix(.99984 -.02076 .00533 1 1076.75 817)" fill="#83E1E1" fill-opacity=".38"/><rect width="3.827" height="4.673" rx="1.914" transform="matrix(.99984 -.02076 .00533 1 1077.9 959.985)" fill="#83E1E1" fill-opacity=".38"/><rect width="3.827" height="4.671" rx="1.914" transform="matrix(.99984 -.02076 .00533 1 1077.32 888.493)" fill="#83E1E1" fill-opacity=".38"/><rect width="3.827" height="4.672" rx="1.914" transform="matrix(.99984 -.02076 .00533 1 1078.47 1031.48)" fill="#83E1E1" fill-opacity=".38"/><rect width="3.827" height="4.672" rx="1.914" transform="matrix(.99984 -.02076 .00533 1 1077.04 852.746)" fill="#83E1E1" fill-opacity=".38"/><rect width="3.827" height="4.671" rx="1.914" transform="matrix(.99984 -.02076 .00533 1 1078.18 995.733)" fill="#83E1E1" fill-opacity=".38"/><rect width="3.827" height="4.672" rx="1.914" transform="matrix(.99984 -.02076 .00533 1 1077.61 924.24)" fill="#83E1E1" fill-opacity=".38"/><rect width="3.827" height="4.672" rx="1.914" transform="matrix(.99984 -.02076 .00533 1 1078.76 1067.23)" fill="#83E1E1" fill-opacity=".38"/><rect width="3.827" height="4.672" rx="1.914" transform="matrix(.99984 -.02076 .00533 1 1076.89 834.873)" fill="#83E1E1" fill-opacity=".38"/><rect width="3.827" height="4.673" rx="1.914" transform="matrix(.99984 -.02077 .00533 1 1078.04 977.859)" fill="#83E1E1" fill-opacity=".38"/><rect width="3.827" height="4.673" rx="1.914" transform="matrix(.99984 -.02077 .00533 1 1077.47 906.366)" fill="#83E1E1" fill-opacity=".38"/><rect width="3.827" height="4.672" rx="1.914" transform="matrix(.99984 -.02076 .00533 1 1078.62 1049.35)" fill="#83E1E1" fill-opacity=".38"/><rect width="3.827" height="4.672" rx="1.914" transform="matrix(.99984 -.02076 .00533 1 1077.18 870.619)" fill="#83E1E1" fill-opacity=".38"/><rect width="3.827" height="4.672" rx="1.914" transform="matrix(.99984 -.02076 .00533 1 1078.33 1013.61)" fill="#83E1E1" fill-opacity=".38"/><rect width="3.827" height="4.673" rx="1.914" transform="matrix(.99984 -.02076 .00533 1 1077.75 942.112)" fill="#83E1E1" fill-opacity=".38"/><rect width="3.827" height="4.671" rx="1.914" transform="matrix(.99984 -.02076 .00533 1 1078.9 1085.1)" fill="#83E1E1" fill-opacity=".38"/><rect width="3.827" height="4.673" rx="1.914" transform="matrix(.99984 -.02076 .00533 1 1033.26 817.555)" fill="#83E1E1" fill-opacity=".38"/><rect width="3.827" height="4.672" rx="1.914" transform="matrix(.99984 -.02076 .00533 1 1034.41 960.543)" fill="#83E1E1" fill-opacity=".38"/><rect width="3.827" height="4.671" rx="1.914" transform="matrix(.99984 -.02076 .00533 1 1033.83 889.049)" fill="#83E1E1" fill-opacity=".38"/><rect width="3.827" height="4.672" rx="1.914" transform="matrix(.99984 -.02076 .00533 1 1034.98 1032.04)" fill="#83E1E1" fill-opacity=".38"/><rect width="3.827" height="4.672" rx="1.914" transform="matrix(.99984 -.02076 .00533 1 1033.55 853.302)" fill="#83E1E1" fill-opacity=".38"/><rect width="3.827" height="4.671" rx="1.914" transform="matrix(.99984 -.02075 .00533 1 1034.7 996.29)" fill="#83E1E1" fill-opacity=".38"/><rect width="3.827" height="4.672" rx="1.914" transform="matrix(.99984 -.02076 .00533 1 1034.12 924.796)" fill="#83E1E1" fill-opacity=".38"/><rect width="3.827" height="4.672" rx="1.914" transform="matrix(.99984 -.02076 .00533 1 1035.27 1067.78)" fill="#83E1E1" fill-opacity=".38"/><rect width="3.827" height="4.672" rx="1.914" transform="matrix(.99984 -.02076 .00533 1 1033.4 835.428)" fill="#83E1E1" fill-opacity=".38"/><rect width="3.827" height="4.671" rx="1.914" transform="matrix(.99984 -.02076 .00533 1 1034.55 978.416)" fill="#83E1E1" fill-opacity=".38"/><rect width="3.827" height="4.672" rx="1.914" transform="matrix(.99984 -.02076 .00533 1 1033.98 906.922)" fill="#83E1E1" fill-opacity=".38"/><rect width="3.827" height="4.671" rx="1.914" transform="matrix(.99984 -.02076 .00533 1 1035.13 1049.91)" fill="#83E1E1" fill-opacity=".38"/><rect width="3.827" height="4.672" rx="1.914" transform="matrix(.99984 -.02077 .00533 1 1033.69 871.177)" fill="#83E1E1" fill-opacity=".38"/><rect width="3.827" height="4.671" rx="1.914" transform="matrix(.99984 -.02076 .00533 1 1034.84 1014.16)" fill="#83E1E1" fill-opacity=".38"/><rect width="3.827" height="4.672" rx="1.914" transform="matrix(.99984 -.02076 .00533 1 1034.27 942.669)" fill="#83E1E1" fill-opacity=".38"/><rect width="3.827" height="4.673" rx="1.914" transform="matrix(.99984 -.02076 .00533 1 1035.41 1085.65)" fill="#83E1E1" fill-opacity=".38"/><rect width="3.827" height="4.673" rx="1.914" transform="matrix(.99984 -.02084 .00531 1 1091.24 816.813)" fill="#83E1E1" fill-opacity=".38"/><rect width="3.827" height="4.672" rx="1.914" transform="matrix(.99984 -.02076 .00533 1 1092.39 959.8)" fill="#83E1E1" fill-opacity=".38"/><rect width="3.827" height="4.671" rx="1.914" transform="matrix(.99984 -.02076 .00533 1 1091.82 888.308)" fill="#83E1E1" fill-opacity=".38"/><rect width="3.827" height="4.673" rx="1.914" transform="matrix(.99984 -.02076 .00533 1 1092.97 1031.29)" fill="#83E1E1" fill-opacity=".38"/><rect width="3.827" height="4.672" rx="1.914" transform="matrix(.99984 -.02076 .00533 1 1091.53 852.561)" fill="#83E1E1" fill-opacity=".38"/><rect width="3.827" height="4.672" rx="1.914" transform="matrix(.99984 -.02076 .00533 1 1092.68 995.547)" fill="#83E1E1" fill-opacity=".38"/><rect width="3.827" height="4.672" rx="1.914" transform="matrix(.99984 -.02076 .00533 1 1092.11 924.054)" fill="#83E1E1" fill-opacity=".38"/><rect width="3.827" height="4.672" rx="1.914" transform="matrix(.99984 -.02076 .00533 1 1093.26 1067.04)" fill="#83E1E1" fill-opacity=".38"/><rect width="3.827" height="4.673" rx="1.914" transform="matrix(.99984 -.02076 .00533 1 1091.39 834.687)" fill="#83E1E1" fill-opacity=".38"/><rect width="3.827" height="4.672" rx="1.914" transform="matrix(.99984 -.02076 .00533 1 1092.54 977.674)" fill="#83E1E1" fill-opacity=".38"/><rect width="3.827" height="4.672" rx="1.914" transform="matrix(.99984 -.02076 .00533 1 1091.96 906.18)" fill="#83E1E1" fill-opacity=".38"/><rect width="3.827" height="4.672" rx="1.914" transform="matrix(.99984 -.02076 .00533 1 1093.11 1049.17)" fill="#83E1E1" fill-opacity=".38"/><rect width="3.827" height="4.673" rx="1.914" transform="matrix(.99984 -.02077 .00533 1 1091.68 870.433)" fill="#83E1E1" fill-opacity=".38"/><rect width="3.827" height="4.671" rx="1.914" transform="matrix(.99984 -.02076 .00533 1 1092.82 1013.42)" fill="#83E1E1" fill-opacity=".38"/><rect width="3.827" height="4.672" rx="1.914" transform="matrix(.99984 -.02076 .00533 1 1092.25 941.928)" fill="#83E1E1" fill-opacity=".38"/><rect width="3.827" height="4.673" rx="1.914" transform="matrix(.99984 -.02077 .00533 1 1093.4 1084.91)" fill="#83E1E1" fill-opacity=".38"/><rect width="3.827" height="4.672" rx="1.914" transform="matrix(.99984 -.02076 .00533 1 1047.76 817.37)" fill="#83E1E1" fill-opacity=".38"/><rect width="3.827" height="4.671" rx="1.914" transform="matrix(.99984 -.02076 .00533 1 1048.91 960.357)" fill="#83E1E1" fill-opacity=".38"/><rect width="3.827" height="4.673" rx="1.914" transform="matrix(.99984 -.02077 .00533 1 1048.33 888.863)" fill="#83E1E1" fill-opacity=".38"/><rect width="3.827" height="4.672" rx="1.914" transform="matrix(.99984 -.02076 .00533 1 1049.48 1031.85)" fill="#83E1E1" fill-opacity=".38"/><rect width="3.827" height="4.671" rx="1.914" transform="matrix(.99984 -.02076 .00533 1 1048.04 853.117)" fill="#83E1E1" fill-opacity=".38"/><rect width="3.827" height="4.672" rx="1.914" transform="matrix(.99984 -.02076 .00533 1 1049.19 996.103)" fill="#83E1E1" fill-opacity=".38"/><rect width="3.827" height="4.672" rx="1.914" transform="matrix(.99984 -.02076 .00533 1 1048.62 924.611)" fill="#83E1E1" fill-opacity=".38"/><rect width="3.827" height="4.672" rx="1.914" transform="matrix(.99984 -.02076 .00533 1 1049.77 1067.6)" fill="#83E1E1" fill-opacity=".38"/><rect width="3.827" height="4.672" rx="1.914" transform="matrix(.99984 -.02076 .00533 1 1047.9 835.243)" fill="#83E1E1" fill-opacity=".38"/><rect width="3.827" height="4.673" rx="1.914" transform="matrix(.99984 -.02077 .00533 1 1049.05 978.23)" fill="#83E1E1" fill-opacity=".38"/><rect width="3.827" height="4.671" rx="1.914" transform="matrix(.99984 -.02076 .00533 1 1048.48 906.737)" fill="#83E1E1" fill-opacity=".38"/><rect width="3.827" height="4.672" rx="1.914" transform="matrix(.99984 -.02076 .00533 1 1049.62 1049.72)" fill="#83E1E1" fill-opacity=".38"/><rect width="3.827" height="4.671" rx="1.914" transform="matrix(.99984 -.02077 .00533 1 1048.19 870.991)" fill="#83E1E1" fill-opacity=".38"/><rect width="3.827" height="4.672" rx="1.914" transform="matrix(.99984 -.02076 .00533 1 1049.34 1013.98)" fill="#83E1E1" fill-opacity=".38"/><rect width="3.827" height="4.672" rx="1.914" transform="matrix(.99984 -.02076 .00533 1 1048.76 942.484)" fill="#83E1E1" fill-opacity=".38"/><rect width="3.827" height="4.672" rx="1.914" transform="matrix(.99984 -.02076 .00533 1 1049.91 1085.47)" fill="#83E1E1" fill-opacity=".38"/><rect width="3.827" height="4.672" rx="1.914" transform="matrix(.99984 -.02084 .00531 1 1105.74 816.63)" fill="#83E1E1" fill-opacity=".38"/><rect width="3.827" height="4.673" rx="1.914" transform="matrix(.99984 -.02076 .00533 1 1106.89 959.614)" fill="#83E1E1" fill-opacity=".38"/><rect width="3.827" height="4.671" rx="1.914" transform="matrix(.99984 -.02076 .00533 1 1106.31 888.122)" fill="#83E1E1" fill-opacity=".38"/><rect width="3.827" height="4.673" rx="1.914" transform="matrix(.99984 -.02076 .00533 1 1107.46 1031.11)" fill="#83E1E1" fill-opacity=".38"/><rect width="3.827" height="4.672" rx="1.914" transform="matrix(.99984 -.02076 .00533 1 1106.03 852.375)" fill="#83E1E1" fill-opacity=".38"/><rect width="3.827" height="4.672" rx="1.914" transform="matrix(.99984 -.02076 .00533 1 1107.18 995.361)" fill="#83E1E1" fill-opacity=".38"/><rect width="3.827" height="4.671" rx="1.914" transform="matrix(.99984 -.02076 .00533 1 1106.6 923.868)" fill="#83E1E1" fill-opacity=".38"/><rect width="3.827" height="4.672" rx="1.914" transform="matrix(.99984 -.02076 .00533 1 1107.75 1066.86)" fill="#83E1E1" fill-opacity=".38"/><rect width="3.827" height="4.672" rx="1.914" transform="matrix(.99984 -.02076 .00533 1 1105.88 834.502)" fill="#83E1E1" fill-opacity=".38"/><rect width="3.827" height="4.671" rx="1.914" transform="matrix(.99984 -.02075 .00533 1 1107.03 977.49)" fill="#83E1E1" fill-opacity=".38"/><rect width="3.827" height="4.672" rx="1.914" transform="matrix(.99984 -.02076 .00533 1 1106.46 905.995)" fill="#83E1E1" fill-opacity=".38"/><rect width="3.827" height="4.673" rx="1.914" transform="matrix(.99984 -.02076 .00533 1 1107.61 1048.98)" fill="#83E1E1" fill-opacity=".38"/><rect width="3.827" height="4.672" rx="1.914" transform="matrix(.99984 -.02076 .00533 1 1106.17 870.248)" fill="#83E1E1" fill-opacity=".38"/><rect width="3.827" height="4.671" rx="1.914" transform="matrix(.99984 -.02076 .00533 1 1107.32 1013.24)" fill="#83E1E1" fill-opacity=".38"/><rect width="3.827" height="4.673" rx="1.914" transform="matrix(.99984 -.02077 .00533 1 1106.75 941.742)" fill="#83E1E1" fill-opacity=".38"/><rect width="3.827" height="4.672" rx="1.914" transform="matrix(.99984 -.02076 .00533 1 1107.9 1084.73)" fill="#83E1E1" fill-opacity=".38"/><rect width="3.827" height="4.673" rx="1.914" transform="matrix(.99984 -.02076 .00533 1 1062.25 817.185)" fill="#83E1E1" fill-opacity=".38"/><rect width="3.827" height="4.673" rx="1.914" transform="matrix(.99984 -.02076 .00533 1 1063.4 960.171)" fill="#83E1E1" fill-opacity=".38"/><rect width="3.827" height="4.672" rx="1.914" transform="matrix(.99984 -.02076 .00533 1 1062.83 888.678)" fill="#83E1E1" fill-opacity=".38"/><rect width="3.827" height="4.672" rx="1.914" transform="matrix(.99984 -.02076 .00533 1 1063.98 1031.67)" fill="#83E1E1" fill-opacity=".38"/><rect width="3.827" height="4.672" rx="1.914" transform="matrix(.99984 -.02076 .00533 1 1062.54 852.931)" fill="#83E1E1" fill-opacity=".38"/><rect width="3.827" height="4.671" rx="1.914" transform="matrix(.99984 -.02075 .00533 1 1063.69 995.919)" fill="#83E1E1" fill-opacity=".38"/><rect width="3.827" height="4.671" rx="1.914" transform="matrix(.99984 -.02076 .00533 1 1063.11 924.425)" fill="#83E1E1" fill-opacity=".38"/><rect width="3.827" height="4.672" rx="1.914" transform="matrix(.99984 -.02076 .00533 1 1064.26 1067.41)" fill="#83E1E1" fill-opacity=".38"/><rect width="3.827" height="4.672" rx="1.914" transform="matrix(.99984 -.02076 .00533 1 1062.4 835.058)" fill="#83E1E1" fill-opacity=".38"/><rect width="3.827" height="4.671" rx="1.914" transform="matrix(.99984 -.02075 .00533 1 1063.55 978.046)" fill="#83E1E1" fill-opacity=".38"/><rect width="3.827" height="4.672" rx="1.914" transform="matrix(.99984 -.02076 .00533 1 1062.97 906.552)" fill="#83E1E1" fill-opacity=".38"/><rect width="3.827" height="4.672" rx="1.914" transform="matrix(.99984 -.02076 .00533 1 1064.12 1049.54)" fill="#83E1E1" fill-opacity=".38"/><rect width="3.827" height="4.672" rx="1.914" transform="matrix(.99984 -.02077 .00533 1 1062.68 870.805)" fill="#83E1E1" fill-opacity=".38"/><rect width="3.827" height="4.671" rx="1.914" transform="matrix(.99984 -.02075 .00533 1 1063.83 1013.79)" fill="#83E1E1" fill-opacity=".38"/><rect width="3.827" height="4.672" rx="1.914" transform="matrix(.99984 -.02076 .00533 1 1063.26 942.298)" fill="#83E1E1" fill-opacity=".38"/><rect width="3.827" height="4.673" rx="1.914" transform="matrix(.99984 -.02076 .00533 1 1064.41 1085.28)" fill="#83E1E1" fill-opacity=".38"/><rect width="3.827" height="4.672" rx="1.914" transform="matrix(.99984 -.02076 .00533 1 1120.24 816.443)" fill="#83E1E1" fill-opacity=".38"/><rect width="3.827" height="4.672" rx="1.914" transform="matrix(.99984 -.02076 .00533 1 1121.39 959.431)" fill="#83E1E1" fill-opacity=".38"/><rect width="3.827" height="4.673" rx="1.914" transform="matrix(.99984 -.02076 .00533 1 1120.81 887.936)" fill="#83E1E1" fill-opacity=".38"/><rect width="3.827" height="4.671" rx="1.914" transform="matrix(.99984 -.02076 .00533 1 1121.96 1030.92)" fill="#83E1E1" fill-opacity=".38"/><rect width="3.827" height="4.673" rx="1.914" transform="matrix(.99984 -.02076 .00533 1 1120.52 852.189)" fill="#83E1E1" fill-opacity=".38"/><rect width="3.827" height="4.672" rx="1.914" transform="matrix(.99984 -.02076 .00533 1 1121.67 995.176)" fill="#83E1E1" fill-opacity=".38"/><rect width="3.827" height="4.672" rx="1.914" transform="matrix(.99984 -.02076 .00533 1 1121.1 923.683)" fill="#83E1E1" fill-opacity=".38"/><rect width="3.827" height="4.672" rx="1.914" transform="matrix(.99984 -.02076 .00533 1 1122.25 1066.67)" fill="#83E1E1" fill-opacity=".38"/><rect width="3.827" height="4.673" rx="1.914" transform="matrix(.99984 -.02076 .00533 1 1120.38 834.315)" fill="#83E1E1" fill-opacity=".38"/><rect width="3.827" height="4.673" rx="1.914" transform="matrix(.99984 -.02077 .00533 1 1121.53 977.303)" fill="#83E1E1" fill-opacity=".38"/><rect width="3.827" height="4.672" rx="1.914" transform="matrix(.99984 -.02076 .00533 1 1120.95 905.81)" fill="#83E1E1" fill-opacity=".38"/><rect width="3.827" height="4.673" rx="1.914" transform="matrix(.99984 -.02076 .00533 1 1122.1 1048.8)" fill="#83E1E1" fill-opacity=".38"/><rect width="3.827" height="4.672" rx="1.914" transform="matrix(.99984 -.02076 .00533 1 1120.67 870.063)" fill="#83E1E1" fill-opacity=".38"/><rect width="3.827" height="4.672" rx="1.914" transform="matrix(.99984 -.02076 .00533 1 1121.82 1013.05)" fill="#83E1E1" fill-opacity=".38"/><rect width="3.827" height="4.672" rx="1.914" transform="matrix(.99984 -.02076 .00533 1 1121.24 941.557)" fill="#83E1E1" fill-opacity=".38"/><rect width="3.827" height="4.67" rx="1.914" transform="matrix(.99984 -.02075 .00533 1 1122.39 1084.54)" fill="#83E1E1" fill-opacity=".38"/><rect width="3.827" height="4.672" rx="1.914" transform="matrix(.99984 -.02076 .00533 1 903.561 819.218)" fill="#83E1E1" fill-opacity=".38"/><rect width="3.827" height="4.67" rx="1.914" transform="matrix(.99984 -.02075 .00533 1 904.709 962.205)" fill="#83E1E1" fill-opacity=".38"/><rect width="3.827" height="4.672" rx="1.914" transform="matrix(.99984 -.02076 .00533 1 904.135 890.71)" fill="#83E1E1" fill-opacity=".38"/><rect width="3.827" height="4.672" rx="1.914" transform="matrix(.99984 -.02076 .00533 1 905.284 1033.7)" fill="#83E1E1" fill-opacity=".38"/><rect width="3.827" height="4.672" rx="1.914" transform="matrix(.99984 -.02076 .00533 1 903.848 854.964)" fill="#83E1E1" fill-opacity=".38"/><rect width="3.827" height="4.671" rx="1.914" transform="matrix(.99984 -.02076 .00533 1 904.997 997.95)" fill="#83E1E1" fill-opacity=".38"/><rect width="3.827" height="4.673" rx="1.914" transform="matrix(.99984 -.02076 .00533 1 904.422 926.456)" fill="#83E1E1" fill-opacity=".38"/><rect width="3.827" height="4.671" rx="1.914" transform="matrix(.99984 -.02076 .00533 1 905.571 1069.44)" fill="#83E1E1" fill-opacity=".38"/><rect width="3.827" height="4.671" rx="1.914" transform="matrix(.99984 -.02076 .00533 1 903.704 837.091)" fill="#83E1E1" fill-opacity=".38"/><rect width="3.827" height="4.671" rx="1.914" transform="matrix(.99984 -.02076 .00533 1 904.853 980.077)" fill="#83E1E1" fill-opacity=".38"/><rect width="3.827" height="4.672" rx="1.914" transform="matrix(.99984 -.02076 .00533 1 904.279 908.583)" fill="#83E1E1" fill-opacity=".38"/><rect width="3.827" height="4.672" rx="1.914" transform="matrix(.99984 -.02076 .00533 1 905.427 1051.57)" fill="#83E1E1" fill-opacity=".38"/><rect width="3.827" height="4.671" rx="1.914" transform="matrix(.99984 -.02077 .00533 1 903.991 872.838)" fill="#83E1E1" fill-opacity=".38"/><rect width="3.827" height="4.672" rx="1.914" transform="matrix(.99984 -.02076 .00533 1 905.14 1015.82)" fill="#83E1E1" fill-opacity=".38"/><rect width="3.827" height="4.672" rx="1.914" transform="matrix(.99984 -.02076 .00533 1 904.566 944.331)" fill="#83E1E1" fill-opacity=".38"/><rect width="3.827" height="4.672" rx="1.914" transform="matrix(.99984 -.02076 .00533 1 905.715 1087.32)" fill="#83E1E1" fill-opacity=".38"/><rect width="3.827" height="4.673" rx="1.914" transform="matrix(.99984 -.02076 .00533 1 961.544 818.474)" fill="#83E1E1" fill-opacity=".38"/><rect width="3.827" height="4.672" rx="1.914" transform="matrix(.99984 -.02076 .00533 1 962.693 961.461)" fill="#83E1E1" fill-opacity=".38"/><rect width="3.827" height="4.673" rx="1.914" transform="matrix(.99984 -.02077 .00533 1 962.118 889.967)" fill="#83E1E1" fill-opacity=".38"/><rect width="3.827" height="4.672" rx="1.914" transform="matrix(.99984 -.02076 .00533 1 963.268 1032.96)" fill="#83E1E1" fill-opacity=".38"/><rect width="3.827" height="4.673" rx="1.914" transform="matrix(.99984 -.02076 .00533 1 961.831 854.221)" fill="#83E1E1" fill-opacity=".38"/><rect width="3.827" height="4.671" rx="1.914" transform="matrix(.99984 -.02076 .00533 1 962.98 997.208)" fill="#83E1E1" fill-opacity=".38"/><rect width="3.827" height="4.672" rx="1.914" transform="matrix(.99984 -.02076 .00533 1 962.405 925.715)" fill="#83E1E1" fill-opacity=".38"/><rect width="3.827" height="4.671" rx="1.914" transform="matrix(.99984 -.02075 .00533 1 963.555 1068.7)" fill="#83E1E1" fill-opacity=".38"/><rect width="3.827" height="4.672" rx="1.914" transform="matrix(.99984 -.02076 .00533 1 961.688 836.348)" fill="#83E1E1" fill-opacity=".38"/><rect width="3.827" height="4.672" rx="1.914" transform="matrix(.99984 -.02076 .00533 1 962.837 979.334)" fill="#83E1E1" fill-opacity=".38"/><rect width="3.827" height="4.672" rx="1.914" transform="matrix(.99984 -.02076 .00533 1 962.263 907.841)" fill="#83E1E1" fill-opacity=".38"/><rect width="3.827" height="4.672" rx="1.914" transform="matrix(.99984 -.02076 .00533 1 963.411 1050.83)" fill="#83E1E1" fill-opacity=".38"/><rect width="3.827" height="4.672" rx="1.914" transform="matrix(.99984 -.02076 .00533 1 961.975 872.095)" fill="#83E1E1" fill-opacity=".38"/><rect width="3.827" height="4.671" rx="1.914" transform="matrix(.99984 -.02075 .00533 1 963.124 1015.08)" fill="#83E1E1" fill-opacity=".38"/><rect width="3.827" height="4.672" rx="1.914" transform="matrix(.99984 -.02076 .00533 1 962.549 943.588)" fill="#83E1E1" fill-opacity=".38"/><rect width="3.827" height="4.672" rx="1.914" transform="matrix(.99984 -.02076 .00533 1 963.699 1086.57)" fill="#83E1E1" fill-opacity=".38"/><rect width="3.827" height="4.672" rx="1.914" transform="matrix(.99984 -.02076 .00533 1 918.056 819.031)" fill="#83E1E1" fill-opacity=".38"/><rect width="3.827" height="4.671" rx="1.914" transform="matrix(.99984 -.02075 .00533 1 919.205 962.019)" fill="#83E1E1" fill-opacity=".38"/><rect width="3.827" height="4.671" rx="1.914" transform="matrix(.99984 -.02076 .00533 1 918.63 890.525)" fill="#83E1E1" fill-opacity=".38"/><rect width="3.827" height="4.671" rx="1.914" transform="matrix(.99984 -.02076 .00533 1 919.779 1033.51)" fill="#83E1E1" fill-opacity=".38"/><rect width="3.827" height="4.671" rx="1.914" transform="matrix(.99984 -.02076 .00533 1 918.343 854.778)" fill="#83E1E1" fill-opacity=".38"/><rect width="3.827" height="4.671" rx="1.914" transform="matrix(.99984 -.02076 .00533 1 919.492 997.765)" fill="#83E1E1" fill-opacity=".38"/><rect width="3.827" height="4.672" rx="1.914" transform="matrix(.99984 -.02076 .00533 1 918.917 926.271)" fill="#83E1E1" fill-opacity=".38"/><rect width="3.827" height="4.671" rx="1.914" transform="matrix(.99984 -.02076 .00533 1 920.067 1069.26)" fill="#83E1E1" fill-opacity=".38"/><rect width="3.827" height="4.671" rx="1.914" transform="matrix(.99984 -.02076 .00533 1 918.199 836.905)" fill="#83E1E1" fill-opacity=".38"/><rect width="3.827" height="4.671" rx="1.914" transform="matrix(.99984 -.02076 .00533 1 919.349 979.891)" fill="#83E1E1" fill-opacity=".38"/><rect width="3.827" height="4.672" rx="1.914" transform="matrix(.99984 -.02076 .00533 1 918.774 908.397)" fill="#83E1E1" fill-opacity=".38"/><rect width="3.827" height="4.672" rx="1.914" transform="matrix(.99984 -.02076 .00533 1 919.922 1051.39)" fill="#83E1E1" fill-opacity=".38"/><rect width="3.827" height="4.671" rx="1.914" transform="matrix(.99984 -.02076 .00533 1 918.487 872.651)" fill="#83E1E1" fill-opacity=".38"/><rect width="3.827" height="4.672" rx="1.914" transform="matrix(.99984 -.02076 .00533 1 919.636 1015.64)" fill="#83E1E1" fill-opacity=".38"/><rect width="3.827" height="4.672" rx="1.914" transform="matrix(.99984 -.02076 .00533 1 919.061 944.145)" fill="#83E1E1" fill-opacity=".38"/><rect width="3.827" height="4.672" rx="1.914" transform="matrix(.99984 -.02076 .00533 1 920.21 1087.13)" fill="#83E1E1" fill-opacity=".38"/><rect width="3.827" height="4.673" rx="1.914" transform="matrix(.99984 -.02084 .00531 1 976.04 818.289)" fill="#83E1E1" fill-opacity=".38"/><rect width="3.827" height="4.673" rx="1.914" transform="matrix(.99984 -.02077 .00533 1 977.189 961.276)" fill="#83E1E1" fill-opacity=".38"/><rect width="3.827" height="4.672" rx="1.914" transform="matrix(.99984 -.02076 .00533 1 976.615 889.783)" fill="#83E1E1" fill-opacity=".38"/><rect width="3.827" height="4.672" rx="1.914" transform="matrix(.99984 -.02076 .00533 1 977.763 1032.77)" fill="#83E1E1" fill-opacity=".38"/><rect width="3.827" height="4.672" rx="1.914" transform="matrix(.99984 -.02076 .00533 1 976.327 854.036)" fill="#83E1E1" fill-opacity=".38"/><rect width="3.827" height="4.671" rx="1.914" transform="matrix(.99984 -.02076 .00533 1 977.476 997.024)" fill="#83E1E1" fill-opacity=".38"/><rect width="3.827" height="4.672" rx="1.914" transform="matrix(.99984 -.02076 .00533 1 976.901 925.53)" fill="#83E1E1" fill-opacity=".38"/><rect width="3.827" height="4.672" rx="1.914" transform="matrix(.99984 -.02076 .00533 1 978.051 1068.52)" fill="#83E1E1" fill-opacity=".38"/><rect width="3.827" height="4.672" rx="1.914" transform="matrix(.99984 -.02076 .00533 1 976.184 836.163)" fill="#83E1E1" fill-opacity=".38"/><rect width="3.827" height="4.673" rx="1.914" transform="matrix(.99984 -.02077 .00533 1 977.333 979.149)" fill="#83E1E1" fill-opacity=".38"/><rect width="3.827" height="4.671" rx="1.914" transform="matrix(.99984 -.02075 .00533 1 976.758 907.656)" fill="#83E1E1" fill-opacity=".38"/><rect width="3.827" height="4.673" rx="1.914" transform="matrix(.99984 -.02076 .00533 1 977.907 1050.64)" fill="#83E1E1" fill-opacity=".38"/><rect width="3.827" height="4.671" rx="1.914" transform="matrix(.99984 -.02076 .00533 1 976.471 871.91)" fill="#83E1E1" fill-opacity=".38"/><rect width="3.827" height="4.672" rx="1.914" transform="matrix(.99984 -.02076 .00533 1 977.62 1014.9)" fill="#83E1E1" fill-opacity=".38"/><rect width="3.827" height="4.672" rx="1.914" transform="matrix(.99984 -.02076 .00533 1 977.045 943.402)" fill="#83E1E1" fill-opacity=".38"/><rect width="3.827" height="4.671" rx="1.914" transform="matrix(.99984 -.02076 .00533 1 978.194 1086.39)" fill="#83E1E1" fill-opacity=".38"/><rect width="3.827" height="4.672" rx="1.914" transform="matrix(.99984 -.02076 .00533 1 932.552 818.846)" fill="#83E1E1" fill-opacity=".38"/><rect width="3.827" height="4.673" rx="1.914" transform="matrix(.99984 -.02076 .00533 1 933.701 961.832)" fill="#83E1E1" fill-opacity=".38"/><rect width="3.827" height="4.672" rx="1.914" transform="matrix(.99984 -.02076 .00533 1 933.127 890.339)" fill="#83E1E1" fill-opacity=".38"/><rect width="3.827" height="4.672" rx="1.914" transform="matrix(.99984 -.02076 .00533 1 934.276 1033.33)" fill="#83E1E1" fill-opacity=".38"/><rect width="3.827" height="4.673" rx="1.914" transform="matrix(.99984 -.02076 .00533 1 932.839 854.592)" fill="#83E1E1" fill-opacity=".38"/><rect width="3.827" height="4.672" rx="1.914" transform="matrix(.99984 -.02076 .00533 1 933.988 997.58)" fill="#83E1E1" fill-opacity=".38"/><rect width="3.827" height="4.672" rx="1.914" transform="matrix(.99984 -.02076 .00533 1 933.414 926.086)" fill="#83E1E1" fill-opacity=".38"/><rect width="3.827" height="4.672" rx="1.914" transform="matrix(.99984 -.02076 .00533 1 934.563 1069.07)" fill="#83E1E1" fill-opacity=".38"/><rect width="3.827" height="4.673" rx="1.914" transform="matrix(.99984 -.02077 .00533 1 932.696 836.719)" fill="#83E1E1" fill-opacity=".38"/><rect width="3.827" height="4.672" rx="1.914" transform="matrix(.99984 -.02076 .00533 1 933.845 979.705)" fill="#83E1E1" fill-opacity=".38"/><rect width="3.827" height="4.672" rx="1.914" transform="matrix(.99984 -.02076 .00533 1 933.271 908.213)" fill="#83E1E1" fill-opacity=".38"/><rect width="3.827" height="4.67" rx="1.914" transform="matrix(.99984 -.02075 .00533 1 934.419 1051.2)" fill="#83E1E1" fill-opacity=".38"/><rect width="3.827" height="4.673" rx="1.914" transform="matrix(.99984 -.02076 .00533 1 932.983 872.465)" fill="#83E1E1" fill-opacity=".38"/><rect width="3.827" height="4.671" rx="1.914" transform="matrix(.99984 -.02076 .00533 1 934.133 1015.45)" fill="#83E1E1" fill-opacity=".38"/><rect width="3.827" height="4.672" rx="1.914" transform="matrix(.99984 -.02076 .00533 1 933.557 943.959)" fill="#83E1E1" fill-opacity=".38"/><rect width="3.827" height="4.673" rx="1.914" transform="matrix(.99984 -.02076 .00533 1 934.707 1086.94)" fill="#83E1E1" fill-opacity=".38"/><rect width="3.827" height="4.673" rx="1.914" transform="matrix(.99984 -.02084 .00531 1 990.536 818.104)" fill="#83E1E1" fill-opacity=".38"/><rect width="3.827" height="4.672" rx="1.914" transform="matrix(.99984 -.02076 .00533 1 991.685 961.09)" fill="#83E1E1" fill-opacity=".38"/><rect width="3.827" height="4.672" rx="1.914" transform="matrix(.99984 -.02076 .00533 1 991.111 889.598)" fill="#83E1E1" fill-opacity=".38"/><rect width="3.827" height="4.672" rx="1.914" transform="matrix(.99984 -.02076 .00533 1 992.26 1032.58)" fill="#83E1E1" fill-opacity=".38"/><rect width="3.827" height="4.672" rx="1.914" transform="matrix(.99984 -.02076 .00533 1 990.823 853.851)" fill="#83E1E1" fill-opacity=".38"/><rect width="3.827" height="4.673" rx="1.914" transform="matrix(.99984 -.02076 .00533 1 991.972 996.837)" fill="#83E1E1" fill-opacity=".38"/><rect width="3.827" height="4.671" rx="1.914" transform="matrix(.99984 -.02076 .00533 1 991.397 925.344)" fill="#83E1E1" fill-opacity=".38"/><rect width="3.827" height="4.673" rx="1.914" transform="matrix(.99984 -.02076 .00533 1 992.546 1068.33)" fill="#83E1E1" fill-opacity=".38"/><rect width="3.827" height="4.672" rx="1.914" transform="matrix(.99984 -.02076 .00533 1 990.68 835.977)" fill="#83E1E1" fill-opacity=".38"/><rect width="3.827" height="4.671" rx="1.914" transform="matrix(.99984 -.02076 .00533 1 991.828 978.965)" fill="#83E1E1" fill-opacity=".38"/><rect width="3.827" height="4.671" rx="1.914" transform="matrix(.99984 -.02076 .00533 1 991.254 907.472)" fill="#83E1E1" fill-opacity=".38"/><rect width="3.827" height="4.671" rx="1.914" transform="matrix(.99984 -.02076 .00533 1 992.403 1050.46)" fill="#83E1E1" fill-opacity=".38"/><rect width="3.827" height="4.674" rx="1.914" transform="matrix(.99984 -.02077 .00533 1 990.967 871.724)" fill="#83E1E1" fill-opacity=".38"/><rect width="3.827" height="4.672" rx="1.914" transform="matrix(.99984 -.02076 .00533 1 992.116 1014.71)" fill="#83E1E1" fill-opacity=".38"/><rect width="3.827" height="4.672" rx="1.914" transform="matrix(.99984 -.02076 .00533 1 991.541 943.218)" fill="#83E1E1" fill-opacity=".38"/><rect width="3.827" height="4.672" rx="1.914" transform="matrix(.99984 -.02076 .00533 1 992.691 1086.2)" fill="#83E1E1" fill-opacity=".38"/><rect width="3.827" height="4.672" rx="1.914" transform="matrix(.99984 -.02076 .00533 1 947.048 818.66)" fill="#83E1E1" fill-opacity=".38"/><rect width="3.827" height="4.672" rx="1.914" transform="matrix(.99984 -.02076 .00533 1 948.198 961.647)" fill="#83E1E1" fill-opacity=".38"/><rect width="3.827" height="4.671" rx="1.914" transform="matrix(.99984 -.02076 .00533 1 947.623 890.154)" fill="#83E1E1" fill-opacity=".38"/><rect width="3.827" height="4.673" rx="1.914" transform="matrix(.99984 -.02076 .00533 1 948.772 1033.14)" fill="#83E1E1" fill-opacity=".38"/><rect width="3.827" height="4.671" rx="1.914" transform="matrix(.99984 -.02076 .00533 1 947.335 854.407)" fill="#83E1E1" fill-opacity=".38"/><rect width="3.827" height="4.672" rx="1.914" transform="matrix(.99984 -.02076 .00533 1 948.485 997.394)" fill="#83E1E1" fill-opacity=".38"/><rect width="3.827" height="4.672" rx="1.914" transform="matrix(.99984 -.02076 .00533 1 947.91 925.9)" fill="#83E1E1" fill-opacity=".38"/><rect width="3.827" height="4.672" rx="1.914" transform="matrix(.99984 -.02076 .00533 1 949.059 1068.89)" fill="#83E1E1" fill-opacity=".38"/><rect width="3.827" height="4.672" rx="1.914" transform="matrix(.99984 -.02076 .00533 1 947.192 836.533)" fill="#83E1E1" fill-opacity=".38"/><rect width="3.827" height="4.671" rx="1.914" transform="matrix(.99984 -.02076 .00533 1 948.341 979.521)" fill="#83E1E1" fill-opacity=".38"/><rect width="3.827" height="4.673" rx="1.914" transform="matrix(.99984 -.02076 .00533 1 947.767 908.027)" fill="#83E1E1" fill-opacity=".38"/><rect width="3.827" height="4.672" rx="1.914" transform="matrix(.99984 -.02076 .00533 1 948.916 1051.01)" fill="#83E1E1" fill-opacity=".38"/><rect width="3.827" height="4.672" rx="1.914" transform="matrix(.99984 -.02076 .00533 1 947.479 872.281)" fill="#83E1E1" fill-opacity=".38"/><rect width="3.827" height="4.671" rx="1.914" transform="matrix(.99984 -.02075 .00533 1 948.628 1015.27)" fill="#83E1E1" fill-opacity=".38"/><rect width="3.827" height="4.672" rx="1.914" transform="matrix(.99984 -.02076 .00533 1 948.054 943.774)" fill="#83E1E1" fill-opacity=".38"/><rect width="3.827" height="4.672" rx="1.914" transform="matrix(.99984 -.02076 .00533 1 949.203 1086.76)" fill="#83E1E1" fill-opacity=".38"/><rect width="3.827" height="4.672" rx="1.914" transform="matrix(.99984 -.02076 .00533 1 1005.03 817.919)" fill="#83E1E1" fill-opacity=".38"/><rect width="3.827" height="4.673" rx="1.914" transform="matrix(.99984 -.02076 .00533 1 1006.18 960.905)" fill="#83E1E1" fill-opacity=".38"/><rect width="3.827" height="4.673" rx="1.914" transform="matrix(.99984 -.02076 .00533 1 1005.61 889.411)" fill="#83E1E1" fill-opacity=".38"/><rect width="3.827" height="4.672" rx="1.914" transform="matrix(.99984 -.02076 .00533 1 1006.76 1032.4)" fill="#83E1E1" fill-opacity=".38"/><rect width="3.827" height="4.672" rx="1.914" transform="matrix(.99984 -.02076 .00533 1 1005.32 853.665)" fill="#83E1E1" fill-opacity=".38"/><rect width="3.827" height="4.671" rx="1.914" transform="matrix(.99984 -.02075 .00533 1 1006.47 996.652)" fill="#83E1E1" fill-opacity=".38"/><rect width="3.827" height="4.672" rx="1.914" transform="matrix(.99984 -.02076 .00533 1 1005.89 925.159)" fill="#83E1E1" fill-opacity=".38"/><rect width="3.827" height="4.672" rx="1.914" transform="matrix(.99984 -.02076 .00533 1 1007.04 1068.15)" fill="#83E1E1" fill-opacity=".38"/><rect width="3.827" height="4.672" rx="1.914" transform="matrix(.99984 -.02076 .00533 1 1005.18 835.792)" fill="#83E1E1" fill-opacity=".38"/><rect width="3.827" height="4.672" rx="1.914" transform="matrix(.99984 -.02076 .00533 1 1006.32 978.778)" fill="#83E1E1" fill-opacity=".38"/><rect width="3.827" height="4.672" rx="1.914" transform="matrix(.99984 -.02076 .00533 1 1005.75 907.285)" fill="#83E1E1" fill-opacity=".38"/><rect width="3.827" height="4.672" rx="1.914" transform="matrix(.99984 -.02076 .00533 1 1006.9 1050.27)" fill="#83E1E1" fill-opacity=".38"/><rect width="3.827" height="4.673" rx="1.914" transform="matrix(.99984 -.02076 .00533 1 1005.46 871.538)" fill="#83E1E1" fill-opacity=".38"/><rect width="3.827" height="4.673" rx="1.914" transform="matrix(.99984 -.02076 .00533 1 1006.61 1014.52)" fill="#83E1E1" fill-opacity=".38"/><rect width="3.827" height="4.671" rx="1.914" transform="matrix(.99984 -.02076 .00533 1 1006.04 943.032)" fill="#83E1E1" fill-opacity=".38"/><rect width="3.827" height="4.672" rx="1.914" transform="matrix(.99984 -.02076 .00533 1 1007.19 1086.02)" fill="#83E1E1" fill-opacity=".38"/><defs><linearGradient id="prefix__paint0_linear" x1="450.981" y1="270.329" x2="477.546" y2="298.992" gradientUnits="userSpaceOnUse"><stop offset=".135" stop-color="#D1E7FB"/><stop offset="1" stop-color="#EDC6FF" stop-opacity=".92"/></linearGradient><linearGradient id="prefix__paint1_linear" x1="251.299" y1="362.542" x2="311.25" y2="427.225" gradientUnits="userSpaceOnUse"><stop offset=".203" stop-color="#DDECFA"/><stop offset=".203" stop-color="#FDFDFD"/><stop offset=".974" stop-color="#FFCC9D" stop-opacity=".92"/></linearGradient><linearGradient id="prefix__paint2_linear" x1="297.056" y1="624.982" x2="326.614" y2="656.874" gradientUnits="userSpaceOnUse"><stop offset=".135" stop-color="#D1E7FB"/><stop offset="1" stop-color="#EDC6FF" stop-opacity=".92"/></linearGradient><linearGradient id="prefix__paint3_linear" x1="402.431" y1="542.011" x2="431.989" y2="573.903" gradientUnits="userSpaceOnUse"><stop offset=".135" stop-color="#D1E7FB"/><stop offset="1" stop-color="#EDC6FF" stop-opacity=".92"/></linearGradient><linearGradient id="prefix__paint4_linear" x1="470.221" y1="396.1" x2="592.493" y2="528.025" gradientUnits="userSpaceOnUse"><stop offset=".203" stop-color="#DDECFA"/><stop offset=".203" stop-color="#FDFDFD"/><stop offset=".974" stop-color="#FFCC9D" stop-opacity=".92"/></linearGradient></defs></svg>