<svg width="285" height="258" fill="none" xmlns="http://www.w3.org/2000/svg"><path d="M77.5 1.5H199c46.668 0 84.5 37.832 84.5 84.5v113.5h-206V1.5z" stroke="url(#prefix__paint0_linear)" stroke-width="3"/><path d="M1.5 143.5h189v113H10a8.5 8.5 0 01-8.5-8.5V143.5z" stroke="url(#prefix__paint1_linear)" stroke-opacity=".2" stroke-width="3"/><g clip-path="url(#prefix__clip0)"><path d="M12 16a5 5 0 015-5h170c47.497 0 86 38.504 86 86v144a5 5 0 01-5 5H17a5 5 0 01-5-5V16z" fill="#F9F9F9"/><path d="M174.164 147.559H78.563a12.25 12.25 0 01-8.643-3.581 12.218 12.218 0 01-3.585-8.632V23.213a12.218 12.218 0 013.585-8.632A12.25 12.25 0 0178.563 11h88.941l18.888 15.036v109.31a12.218 12.218 0 01-3.586 8.632 12.247 12.247 0 01-8.642 3.581z" fill="#E6E6E6"/><path d="M78.563 14.516a8.723 8.723 0 00-6.155 2.55 8.701 8.701 0 00-2.553 6.147v112.134a8.7 8.7 0 002.553 6.146 8.718 8.718 0 006.155 2.55h95.601a8.716 8.716 0 008.708-8.696V27.73l-16.599-13.214h-87.71z" fill="url(#prefix__paint2_linear)"/><path d="M155.57 47.121h-43.526a2.04 2.04 0 01-1.882-1.255 2.038 2.038 0 010-1.557 2.048 2.048 0 011.102-1.1 2.04 2.04 0 01.78-.155h43.526a2.039 2.039 0 012.036 2.034 2.038 2.038 0 01-1.257 1.879 2.039 2.039 0 01-.779.154zM163.969 53.985h-51.925a2.038 2.038 0 01-2.037-2.033 2.033 2.033 0 012.037-2.034h51.925a2.038 2.038 0 012.037 2.034 2.032 2.032 0 01-2.037 2.033zM155.57 77.881h-43.526a2.038 2.038 0 01-2.037-2.033 2.033 2.033 0 012.037-2.034h43.526a2.038 2.038 0 012.036 2.034 2.036 2.036 0 01-2.036 2.033zM163.969 84.745h-51.925a2.038 2.038 0 01-2.037-2.034 2.033 2.033 0 012.037-2.033h51.925a2.038 2.038 0 012.037 2.034 2.032 2.032 0 01-2.037 2.033zM155.57 108.641h-43.526a2.034 2.034 0 110-4.067h43.526a2.036 2.036 0 012.036 2.034 2.037 2.037 0 01-2.036 2.033zM163.969 115.505h-51.925a2.035 2.035 0 01-1.44-3.472 2.04 2.04 0 011.44-.595h51.925a2.034 2.034 0 110 4.067z" fill="#fff"/><path d="M93.918 55.708c3.975 0 7.198-3.219 7.198-7.189s-3.223-7.188-7.198-7.188c-3.975 0-7.197 3.218-7.197 7.188 0 3.97 3.222 7.189 7.197 7.189z" fill="#126FCB"/><path d="M93.205 51.262a.747.747 0 01-.449-.15l-.008-.006-1.692-1.292a.75.75 0 11.915-1.191l1.096.839 2.589-3.373a.75.75 0 011.053-.14l-.016.023.017-.022a.751.751 0 01.139 1.052l-3.045 3.966a.752.752 0 01-.598.293zM94.66 86.468c3.974 0 7.196-3.219 7.196-7.188 0-3.97-3.222-7.188-7.197-7.188s-7.197 3.218-7.197 7.188c0 3.97 3.222 7.188 7.197 7.188zM93.918 117.228c3.975 0 7.198-3.218 7.198-7.188 0-3.97-3.223-7.188-7.198-7.188-3.975 0-7.197 3.218-7.197 7.188 0 3.97 3.222 7.188 7.197 7.188z" fill="#fff"/><path d="M186.025 26.52h-14.796a4.068 4.068 0 01-4.073-4.067V11.539a.258.258 0 01.144-.23.254.254 0 01.269.03l18.614 14.728a.258.258 0 01.082.282.253.253 0 01-.24.171z" fill="#E6E6E6"/><path d="M85.868 168.569l-56.563 11.908a6.313 6.313 0 01-4.737-.888 6.299 6.299 0 01-2.726-3.971l-9.706-45.989a6.293 6.293 0 01.89-4.732A6.308 6.308 0 0117 122.175l56.563-11.907a6.313 6.313 0 014.737.888 6.3 6.3 0 012.726 3.97l9.706 45.99a6.3 6.3 0 01-4.865 7.453z" fill="#fff"/><path d="M85.868 168.569l-56.563 11.908a6.313 6.313 0 01-4.737-.888 6.299 6.299 0 01-2.726-3.971l-9.706-45.989a6.293 6.293 0 01.89-4.732A6.308 6.308 0 0117 122.175l56.563-11.907a6.313 6.313 0 014.737.888 6.3 6.3 0 012.726 3.97l9.706 45.99a6.3 6.3 0 01-4.865 7.453zm-68.714-45.67a5.568 5.568 0 00-3.508 2.402 5.553 5.553 0 00-.785 4.175l9.707 45.99a5.56 5.56 0 002.405 3.503 5.568 5.568 0 004.18.783l56.562-11.907a5.564 5.564 0 003.508-2.402 5.552 5.552 0 00.785-4.175l-9.706-45.989a5.569 5.569 0 00-6.585-4.287l-56.563 11.907z" fill="#6C9AFF"/><path d="M70.05 125.432l-28.547 6.009a1.012 1.012 0 01-1.197-.689.973.973 0 01.74-1.205l29.06-6.117c1.134.639.775 1.827-.057 2.002zM71.105 130.432l-28.547 6.01a1.012 1.012 0 01-1.197-.69.974.974 0 01.741-1.204l29.059-6.117c1.134.639.776 1.826-.057 2.002v-.001zM36.988 140.589l-8.712 1.834a1.1 1.1 0 01-1.3-.846l-2.166-10.268a1.096 1.096 0 01.847-1.297l8.712-1.834a1.099 1.099 0 011.299.845l2.167 10.268a1.096 1.096 0 01-.847 1.298zM73.183 140.689l-43.567 9.172a1.012 1.012 0 01-1.197-.69.972.972 0 01.74-1.204l44.08-9.279c1.135.638.776 1.826-.056 2.001zM74.238 145.692l-43.567 9.171a1.013 1.013 0 01-1.197-.689.973.973 0 01.741-1.204l44.08-9.28c1.134.639.776 1.827-.057 2.002zM75.293 150.691l-43.567 9.171a1.012 1.012 0 01-1.196-.689.973.973 0 01.74-1.204l44.08-9.28c1.134.639.776 1.827-.057 2.002zM76.35 155.693l-43.568 9.171a1.013 1.013 0 01-1.197-.689.971.971 0 01.741-1.204l44.08-9.28c1.134.639.775 1.827-.057 2.002zM77.404 160.692l-43.567 9.172a1.013 1.013 0 01-1.196-.69.97.97 0 01.74-1.204l44.08-9.279c1.134.638.776 1.826-.057 2.001z" fill="#CCC"/><path d="M85.095 137.797a3.851 3.851 0 00-.253.559l-17.836 4.42-3.103-3.206-5.456 4.044 4.94 6.209a2.967 2.967 0 003.442.898l19.354-7.898a3.893 3.893 0 005.9-1.646 3.877 3.877 0 00-.933-4.316 3.89 3.89 0 00-4.374-.655 3.89 3.89 0 00-1.681 1.591zM24.215 177.133a3.98 3.98 0 002.803-3.954 3.976 3.976 0 00-.44-1.667l12.275-34.072-8.524-1.508-9.385 33.966a3.998 3.998 0 00-1.582 5.069 4.001 4.001 0 004.853 2.166z" fill="#FED"/><path d="M37.294 143.489l-8.416-3.226a1.788 1.788 0 01-1.04-1.061 1.78 1.78 0 01.125-1.479l4.415-7.818a4.959 4.959 0 019.149-.207 4.946 4.946 0 01.096 3.782l-1.948 8.732a1.784 1.784 0 01-2.381 1.277z" fill="url(#prefix__paint3_linear)"/><path d="M56.29 241.102h4.543l2.161-17.5h-6.705l.001 17.5z" fill="#A0616A"/><path d="M55.131 239.621h8.947a5.71 5.71 0 014.031 1.667 5.698 5.698 0 011.67 4.027v.185H55.131v-5.879z" fill="#2F2E41"/><path d="M30.722 241.102h4.543l2.161-17.5h-6.705l.001 17.5z" fill="#A0616A"/><path d="M29.564 239.621h8.946a5.71 5.71 0 014.032 1.667 5.698 5.698 0 011.67 4.027v.185H29.564v-5.879z" fill="#2F2E41"/><path d="M35.484 234.059h-5.748a1.665 1.665 0 01-1.563-1.084 1.662 1.662 0 01-.103-.661l2.73-58.595.173-.005 27.76-.723 5.433 58.629a1.666 1.666 0 01-1.527 1.818l-6.457.516a1.672 1.672 0 01-1.766-1.326l-8.26-41.736a.54.54 0 00-.544-.444h-.003a.54.54 0 00-.543.448l-7.945 41.819a1.67 1.67 0 01-1.637 1.344z" fill="#399FFF"/><path d="M46.015 121.459c5.027 0 9.101-4.069 9.101-9.089 0-5.02-4.074-9.09-9.1-9.09-5.027 0-9.102 4.07-9.102 9.09s4.075 9.089 9.101 9.089z" fill="#FED"/><path d="M42.964 180.585c-4.338 0-8.793-1.138-12.487-4.505a1.689 1.689 0 01-.544-1.425c.395-3.547 2.313-21.864 1.233-34.1a14.794 14.794 0 014.8-12.326 14.681 14.681 0 0112.585-3.639l.34.063c7.286 1.409 12.349 8.144 11.776 15.666-.836 10.977-1.585 25.824-.409 34.22a1.663 1.663 0 01-.894 1.716c-2.677 1.351-9.385 4.33-16.4 4.33z" fill="url(#prefix__paint4_linear)"/><path d="M54.84 144.143a1.792 1.792 0 01-.782-1.263l-1.109-8.878a4.953 4.953 0 013.433-6.093 4.956 4.956 0 016.11 3.411l3.653 8.201a1.782 1.782 0 01-1.153 2.442l-8.684 2.413a1.78 1.78 0 01-1.468-.233z" fill="url(#prefix__paint5_linear)"/><path d="M42.839 121.331a6.535 6.535 0 01-2.52-.455c-.352-.136-.718-.247-1.07-.383-3.107-1.199-5.154-4.505-5.228-7.831-.073-3.327 1.652-6.555 4.213-8.683s5.879-3.22 9.2-3.473c3.579-.272 7.608.634 9.608 3.61.532.793.904 1.754.589 2.71a1.733 1.733 0 01-.49.751c-.892.793-1.783.197-2.693.144-1.251-.073-2.375.939-2.779 2.124-.404 1.185-.226 2.489.1 3.698a9.22 9.22 0 01.467 2.248 2.257 2.257 0 01-.938 1.991c-.782.472-1.809.199-2.591-.273-.782-.471-1.458-1.126-2.303-1.473-.845-.347-1.98-.27-2.473.499-.156.28-.262.585-.312.902-.441 2.006-.34 1.888-.78 3.894z" fill="#2F2E41"/><path d="M83.022 246.001H12.618a.369.369 0 01-.37-.371.372.372 0 01.37-.37h70.404a.372.372 0 01.371.37.368.368 0 01-.37.371z" fill="#CCC"/><path d="M263.236 169.627l-50.415 28.243a6.306 6.306 0 01-8.576-2.409l-23.022-40.992a6.299 6.299 0 012.412-8.565l50.416-28.243a6.312 6.312 0 018.576 2.409l23.022 40.992a6.293 6.293 0 01-2.413 8.565z" fill="#fff"/><path d="M263.236 169.627l-50.415 28.243a6.306 6.306 0 01-8.576-2.409l-23.022-40.992a6.299 6.299 0 012.412-8.565l50.416-28.243a6.312 6.312 0 018.576 2.409l23.022 40.992a6.293 6.293 0 01-2.413 8.565zm-79.238-23.077a5.555 5.555 0 00-2.129 7.557l23.022 40.992a5.57 5.57 0 007.567 2.126l50.416-28.244a5.548 5.548 0 002.128-7.557l-23.022-40.992a5.572 5.572 0 00-7.567-2.126l-50.415 28.244z" fill="#3F3D56"/><path d="M235.234 133.181l-25.445 14.254a1.01 1.01 0 01-1.348-.301.976.976 0 01.05-1.113.953.953 0 01.297-.257l25.9-14.51c1.274.271 1.287 1.511.545 1.927h.001zM237.737 137.638l-25.444 14.254a1.01 1.01 0 01-1.348-.3.974.974 0 01.346-1.371l25.901-14.51c1.274.271 1.287 1.512.545 1.927zM208.218 157.512l-7.765 4.35a1.098 1.098 0 01-1.493-.42l-5.14-9.152a1.093 1.093 0 01.42-1.491l7.765-4.35a1.1 1.1 0 011.493.42l5.14 9.152a1.098 1.098 0 01-.42 1.491zM242.789 146.806l-38.833 21.755a1.01 1.01 0 01-1.348-.301.976.976 0 01.346-1.37l39.29-22.011c1.274.271 1.287 1.512.545 1.927zM245.293 151.265l-38.832 21.755a1.017 1.017 0 01-1.349-.301.96.96 0 01.05-1.113.969.969 0 01.297-.258l39.289-22.01c1.274.271 1.287 1.512.545 1.927zM247.796 155.721l-38.833 21.754a1.01 1.01 0 01-1.348-.301.964.964 0 01-.122-.759.981.981 0 01.469-.611l39.289-22.01c1.274.271 1.287 1.511.545 1.927zM250.3 160.179l-38.833 21.755a1.015 1.015 0 01-1.348-.301.974.974 0 01.346-1.371l39.29-22.01c1.274.271 1.287 1.512.545 1.927zM252.802 164.636L213.97 186.39a1.012 1.012 0 01-1.348-.301.978.978 0 01-.122-.76.973.973 0 01.468-.61l39.289-22.011c1.274.271 1.287 1.512.545 1.927v.001z" fill="#CCC"/><path d="M246.028 181.335a3.5 3.5 0 00-2.327-4.836l-1.056-12.388-5.079 4.002 1.781 11.15a3.513 3.513 0 00.449 2.459 3.527 3.527 0 004.468 1.385 3.522 3.522 0 001.764-1.772z" fill="#FFB8B8"/><path d="M242.741 175.202l-4.218.502a1.568 1.568 0 01-1.594-.867 1.55 1.55 0 01-.158-.62l-.615-14.212-7.996-21.814a4.49 4.49 0 01.238-4.281 5.89 5.89 0 01.67-.864 4.493 4.493 0 013.914-1.387 4.683 4.683 0 013.514 2.438l5.214 10.913a30.968 30.968 0 012.999 14.645l-.588 14.058a1.562 1.562 0 01-1.36 1.486l-.02.003z" fill="#126FCB"/><path d="M257.72 236.624l-3.911 1.714-8.482-14.249 5.772-2.53 6.621 15.065z" fill="#FFB8B8"/><path d="M260.382 239.972l-12.61 5.528-.07-.159a5.354 5.354 0 011.039-5.857 5.363 5.363 0 011.715-1.196v-.001l7.701-3.376 2.225 5.061z" fill="#2F2E41"/><path d="M205.217 241.365h-4.27l-2.032-16.452h6.303l-.001 16.452z" fill="#FFB8B8"/><path d="M206.307 245.5h-13.771v-.174a5.34 5.34 0 011.57-3.785 5.363 5.363 0 013.79-1.568h8.411v5.527z" fill="#2F2E41"/><path d="M246.799 235.741l-23.792-53.026a.526.526 0 00-.517-.314.526.526 0 00-.467.384l-14.496 51.216a1.556 1.556 0 01-1.669 1.148l-7.917-.791a1.577 1.577 0 01-1.407-1.684c2.518-31.281 6.488-60.803 18.38-80.13l.063-.103 17.988 3.523 24.014 76.375a1.57 1.57 0 01-1.019 1.948l-7.242 2.325a1.562 1.562 0 01-1.919-.871z" fill="#399FFF"/><path d="M223.671 125.382c4.725 0 8.556-3.826 8.556-8.546 0-4.719-3.831-8.545-8.556-8.545-4.726 0-8.556 3.826-8.556 8.545 0 4.72 3.83 8.546 8.556 8.546z" fill="#FFB8B8"/><path d="M213.808 154.024l-.109-.023-.026-.108c-1.153-4.861-1.18-10.166-.081-15.767a12.382 12.382 0 014.379-7.27 12.41 12.41 0 0120.197 9.178c.367 9.634-3.575 17.986-3.615 18.069l-.058.123-20.687-4.202z" fill="url(#prefix__paint6_linear)"/><path d="M190.871 170.281a3.503 3.503 0 002.809-4.573l9.856-7.596-6.119-2.097-8.421 7.535a3.522 3.522 0 00-2.056 4.197 3.526 3.526 0 003.931 2.534z" fill="#FFB8B8"/><path d="M196.254 164.552a1.564 1.564 0 01-2.001-.353l-2.708-3.269a1.564 1.564 0 01.303-2.276l11.629-8.213 14.031-18.528a4.494 4.494 0 013.732-2.119c.366-.002.73.029 1.09.095a4.487 4.487 0 013.288 2.534 4.665 4.665 0 01-.15 4.271l-10.389 16.804-.023.037-18.802 11.017z" fill="#126FCB"/><path d="M225.201 116.306c-.63-1.036-2.022-1.329-3.23-1.211-1.208.119-2.383.543-3.597.533-3.371-.026-5.973-4.129-4.556-7.184 1.162-2.505 4.065-3.605 6.691-4.468 5.506-1.81 11.83-3.549 16.826-.614a10.444 10.444 0 015.032 9.303c-.112 2.31-.998 4.683-.249 6.871.864 2.525 3.604 3.879 6.194 4.534 4.539 1.149 9.326.964 13.893 1.994 4.568 1.03 9.249 3.766 10.48 8.278.809 2.964-.035 6.155-1.433 8.891a23.058 23.058 0 01-14.049 11.634 23.095 23.095 0 01-18.116-2.211c-5.522-3.221-9.509-8.663-11.886-14.592a48.878 48.878 0 01-2.828-10.733c-.532-3.438-.08-6.912.884-10.256a.942.942 0 00-.056-.769z" fill="#2F2E41"/><path d="M256.068 246.001h-70.404a.37.37 0 110-.741h70.404a.372.372 0 01.371.37.367.367 0 01-.109.262.368.368 0 01-.262.109z" fill="#CCC"/></g><defs><linearGradient id="prefix__paint0_linear" x1="180.5" y1="0" x2="180.5" y2="201" gradientUnits="userSpaceOnUse"><stop stop-color="#FFC978"/><stop offset="1" stop-color="#FF756C"/></linearGradient><linearGradient id="prefix__paint1_linear" x1="0" y1="142" x2="102.685" y2="311.961" gradientUnits="userSpaceOnUse"><stop offset=".25" stop-color="#077CE9"/><stop offset=".859" stop-color="#692489" stop-opacity=".92"/></linearGradient><linearGradient id="prefix__paint2_linear" x1="126.363" y1="14.516" x2="126.363" y2="144.043" gradientUnits="userSpaceOnUse"><stop stop-color="#6C9BFF"/><stop offset="0" stop-color="#356DE4"/><stop offset="1" stop-color="#98C1FF"/></linearGradient><linearGradient id="prefix__paint3_linear" x1="34.842" y1="126.755" x2="34.842" y2="143.607" gradientUnits="userSpaceOnUse"><stop stop-color="#FFC978"/><stop offset="1" stop-color="#FF756C"/></linearGradient><linearGradient id="prefix__paint4_linear" x1="45.317" y1="124.351" x2="45.317" y2="180.585" gradientUnits="userSpaceOnUse"><stop stop-color="#FFC978"/><stop offset="1" stop-color="#FF756C"/></linearGradient><linearGradient id="prefix__paint5_linear" x1="59.533" y1="127.723" x2="59.533" y2="144.442" gradientUnits="userSpaceOnUse"><stop stop-color="#FFC978"/><stop offset="1" stop-color="#FF756C"/></linearGradient><linearGradient id="prefix__paint6_linear" x1="225.49" y1="128.104" x2="225.49" y2="158.226" gradientUnits="userSpaceOnUse"><stop stop-color="#FFC978"/><stop offset="1" stop-color="#FF756C"/></linearGradient><clipPath id="prefix__clip0"><path d="M12 16a5 5 0 015-5h170c47.497 0 86 38.504 86 86v144a5 5 0 01-5 5H17a5 5 0 01-5-5V16z" fill="#fff"/></clipPath></defs></svg>