<svg width="53" height="14" viewBox="0 0 53 14" fill="none" xmlns="http://www.w3.org/2000/svg">
<path d="M0.596 11H7.12V10.104H1.632V1.2H0.596V11ZM11.3768 1.34L12.7628 2.502H13.6868L11.8808 0.766H10.8728L9.06677 2.502H9.99077L11.3768 1.34ZM14.9468 7.318C14.9468 5.106 13.4488 3.58 11.3768 3.58C9.30477 3.58 7.77877 5.134 7.77877 7.318C7.77877 9.502 9.34677 11.07 11.6428 11.07C12.8048 11.07 13.8268 10.65 14.4848 9.866L13.9248 9.222C13.3648 9.866 12.5668 10.188 11.6708 10.188C10.0608 10.188 8.88477 9.166 8.77277 7.626H14.9328C14.9328 7.514 14.9468 7.402 14.9468 7.318ZM11.3768 4.434C12.8188 4.434 13.8688 5.442 13.9948 6.884H8.77277C8.89877 5.442 9.94877 4.434 11.3768 4.434ZM20.722 3.58C19.448 3.58 18.454 4.098 17.922 4.994V3.636H16.97V11H17.964V7.136C17.964 5.456 18.958 4.476 20.54 4.476C21.94 4.476 22.752 5.274 22.752 6.828V11H23.746V6.73C23.746 4.616 22.514 3.58 20.722 3.58ZM30.1087 11H31.1027V0.611999H30.1087V11ZM34.3724 2.026C34.7924 2.026 35.1004 1.704 35.1004 1.298C35.1004 0.92 34.7784 0.611999 34.3724 0.611999C33.9664 0.611999 33.6444 0.933999 33.6444 1.312C33.6444 1.704 33.9664 2.026 34.3724 2.026ZM33.8684 11H34.8624V3.636H33.8684V11ZM34.3724 13.66C34.7084 13.66 34.9744 13.408 34.9744 13.058C34.9744 12.708 34.7084 12.456 34.3724 12.456C34.0364 12.456 33.7704 12.708 33.7704 13.058C33.7704 13.408 34.0364 13.66 34.3724 13.66ZM40.6802 11.07C41.9262 11.07 42.9762 10.566 43.5642 9.614L42.8222 9.11C42.3182 9.852 41.5342 10.188 40.6802 10.188C39.0702 10.188 37.8942 9.054 37.8942 7.318C37.8942 5.596 39.0702 4.448 40.6802 4.448C41.5342 4.448 42.3182 4.798 42.8222 5.54L43.5642 5.036C42.9762 4.07 41.9262 3.58 40.6802 3.58C38.4822 3.58 36.8862 5.12 36.8862 7.318C36.8862 9.516 38.4822 11.07 40.6802 11.07ZM49.1595 3.58C47.9135 3.58 46.9475 4.07 46.4015 4.924V0.611999H45.4075V11H46.4015V7.136C46.4015 5.456 47.3955 4.476 48.9775 4.476C50.3775 4.476 51.1895 5.274 51.1895 6.828V11H52.1835V6.73C52.1835 4.616 50.9515 3.58 49.1595 3.58Z" fill="white"/>
</svg>
