<svg width="48" height="13" viewBox="0 0 48 13" fill="none" xmlns="http://www.w3.org/2000/svg">
<path d="M7.638 12H8.87L4.334 6.638L8.576 2.2H7.386L1.632 8.122V2.2H0.596V12H1.632V9.424L3.634 7.394L7.638 12ZM17.0253 0.8H15.8213L14.1273 2.326H15.0093L17.0253 0.8ZM12.8533 2.676L14.2113 3.502H15.1633L13.3433 2.186H12.3633L10.5433 3.502H11.4953L12.8533 2.676ZM12.8533 4.58C10.7813 4.58 9.25533 6.134 9.25533 8.318C9.25533 10.502 10.8233 12.07 13.1193 12.07C14.2813 12.07 15.3033 11.65 15.9613 10.866L15.4013 10.222C14.8413 10.866 14.0433 11.188 13.1473 11.188C11.5373 11.188 10.3613 10.166 10.2493 8.626H16.4093C16.4093 8.514 16.4233 8.402 16.4233 8.318C16.4233 6.106 14.9253 4.58 12.8533 4.58ZM12.8533 5.434C14.2953 5.434 15.3453 6.442 15.4713 7.884H10.2493C10.3753 6.442 11.4253 5.434 12.8533 5.434ZM21.9745 10.838C21.6945 11.09 21.2885 11.216 20.8825 11.216C20.0565 11.216 19.6085 10.74 19.6085 9.872V5.476H21.8485V4.636H19.6085V3.026H18.6145V4.636H17.2985V5.476H18.6145V9.928C18.6145 11.286 19.3845 12.07 20.7705 12.07C21.3445 12.07 21.9325 11.902 22.3245 11.552L21.9745 10.838ZM31.5501 4.58C30.2761 4.58 29.2821 5.098 28.7501 5.994V4.636H27.7981V12H28.7921V8.136C28.7921 6.456 29.7861 5.476 31.3681 5.476C32.7681 5.476 33.5801 6.274 33.5801 7.828V12H34.5741V7.73C34.5741 5.616 33.3421 4.58 31.5501 4.58ZM44.4681 0.8H43.2641L41.5701 2.326H42.4521L44.4681 0.8ZM40.2961 2.676L41.6541 3.502H42.6061L40.7861 2.186H39.8061L37.9861 3.502H38.9381L40.2961 2.676ZM40.3101 4.58C38.1541 4.58 36.5581 6.134 36.5581 8.318C36.5581 10.502 38.1541 12.07 40.3101 12.07C42.4661 12.07 44.0481 10.502 44.0481 8.318C44.0481 6.134 42.4661 4.58 40.3101 4.58ZM40.3101 11.188C38.7421 11.188 37.5661 10.04 37.5661 8.318C37.5661 6.596 38.7421 5.448 40.3101 5.448C41.8781 5.448 43.0401 6.596 43.0401 8.318C43.0401 10.04 41.8781 11.188 40.3101 11.188ZM46.5814 3.026C47.0014 3.026 47.3094 2.704 47.3094 2.298C47.3094 1.92 46.9874 1.612 46.5814 1.612C46.1754 1.612 45.8534 1.934 45.8534 2.312C45.8534 2.704 46.1754 3.026 46.5814 3.026ZM46.0774 12H47.0714V4.636H46.0774V12Z" fill="white"/>
</svg>
