<svg width="51" height="14" viewBox="0 0 51 14" fill="none" xmlns="http://www.w3.org/2000/svg">
<path d="M4.298 11.084C6.804 11.084 7.952 9.852 7.952 8.41C7.952 4.84 1.918 6.464 1.918 3.776C1.918 2.796 2.716 1.998 4.508 1.998C5.376 1.998 6.356 2.264 7.196 2.81L7.546 1.984C6.762 1.438 5.614 1.116 4.508 1.116C2.016 1.116 0.896 2.362 0.896 3.804C0.896 7.43 6.93 5.778 6.93 8.466C6.93 9.432 6.132 10.202 4.298 10.202C3.01 10.202 1.764 9.698 1.064 9.012L0.658 9.81C1.386 10.566 2.828 11.084 4.298 11.084ZM17.8253 2.726C17.8253 2.278 17.6853 1.858 17.4613 1.55L16.8033 1.802C16.9713 2.04 17.0833 2.348 17.0833 2.698C17.0833 3.216 16.8033 3.636 16.1593 3.636H15.6413V7.5C15.6413 9.18 14.6753 10.174 13.1353 10.174C11.7353 10.174 10.9233 9.376 10.9233 7.808V3.636H9.92928V7.906C9.92928 10.02 11.1613 11.07 13.0373 11.07C14.2133 11.07 15.1653 10.552 15.6833 9.656V11H16.6353V4.35C17.4193 4.182 17.8253 3.566 17.8253 2.726ZM13.2893 12.456C12.9533 12.456 12.6873 12.708 12.6873 13.058C12.6873 13.408 12.9533 13.66 13.2893 13.66C13.6253 13.66 13.8913 13.408 13.8913 13.058C13.8913 12.708 13.6253 12.456 13.2893 12.456ZM28.8633 11H30.0813L26.6373 6.646L29.7873 3.636H28.5553L24.1593 7.654V0.611999H23.1653V11H24.1593V8.9L25.8953 7.304L28.8633 11ZM31.9681 2.026C32.3881 2.026 32.6961 1.704 32.6961 1.298C32.6961 0.92 32.3741 0.611999 31.9681 0.611999C31.5621 0.611999 31.2401 0.933999 31.2401 1.312C31.2401 1.704 31.5621 2.026 31.9681 2.026ZM31.4641 11H32.4581V3.636H31.4641V11ZM38.0799 1.34L39.4659 2.502H40.3899L38.5839 0.766H37.5759L35.7699 2.502H36.6939L38.0799 1.34ZM41.6499 7.318C41.6499 5.106 40.1519 3.58 38.0799 3.58C36.0079 3.58 34.4819 5.134 34.4819 7.318C34.4819 9.502 36.0499 11.07 38.3459 11.07C39.5079 11.07 40.5299 10.65 41.1879 9.866L40.6279 9.222C40.0679 9.866 39.2699 10.188 38.3739 10.188C36.7639 10.188 35.5879 9.166 35.4759 7.626H41.6359C41.6359 7.514 41.6499 7.402 41.6499 7.318ZM38.0799 4.434C39.5219 4.434 40.5719 5.442 40.6979 6.884H35.4759C35.6019 5.442 36.6519 4.434 38.0799 4.434ZM38.0799 12.456C37.7439 12.456 37.4779 12.708 37.4779 13.058C37.4779 13.408 37.7439 13.66 38.0799 13.66C38.4159 13.66 38.6819 13.408 38.6819 13.058C38.6819 12.708 38.4159 12.456 38.0799 12.456ZM47.4251 3.58C46.1511 3.58 45.1571 4.098 44.6251 4.994V3.636H43.6731V11H44.6671V7.136C44.6671 5.456 45.6611 4.476 47.2431 4.476C48.6431 4.476 49.4551 5.274 49.4551 6.828V11H50.4491V6.73C50.4491 4.616 49.2171 3.58 47.4251 3.58Z" fill="white"/>
</svg>
