<svg width="41" height="41" viewBox="0 0 41 41" fill="none" xmlns="http://www.w3.org/2000/svg">
<path d="M20.701 37.2603C11.3892 37.2603 3.84094 29.712 3.84094 20.4002C3.84094 11.0884 11.3892 3.54016 20.701 3.54016C30.0128 3.54016 37.5611 11.0884 37.5611 20.4002C37.5611 29.712 30.0128 37.2603 20.701 37.2603ZM20.701 33.8883C24.2783 33.8883 27.709 32.4672 30.2385 29.9377C32.768 27.4082 34.1891 23.9775 34.1891 20.4002C34.1891 16.823 32.768 13.3922 30.2385 10.8627C27.709 8.33323 24.2783 6.91217 20.701 6.91217C17.1238 6.91217 13.693 8.33323 11.1635 10.8627C8.63401 13.3922 7.21295 16.823 7.21295 20.4002C7.21295 23.9775 8.63401 27.4082 11.1635 29.9377C13.693 32.4672 17.1238 33.8883 20.701 33.8883ZM22.387 20.4002H29.131V23.7722H19.015V11.9702H22.387V20.4002Z" fill="#527FEF"/>
<circle cx="34.3296" cy="4.94515" r="2.24801" fill="#FF0000"/>
</svg>
