<svg width="40" height="40" viewBox="0 0 40 40" fill="none" xmlns="http://www.w3.org/2000/svg">
<g clip-path="url(#clip0)">
<path d="M27.931 5.64269H34.2864C34.7078 5.64269 35.1119 5.81009 35.4099 6.10806C35.7079 6.40603 35.8753 6.81016 35.8753 7.23156V32.6534C35.8753 33.0748 35.7079 33.4789 35.4099 33.7769C35.1119 34.0749 34.7078 34.2422 34.2864 34.2422H5.68686C5.26546 34.2422 4.86133 34.0749 4.56336 33.7769C4.26539 33.4789 4.09799 33.0748 4.09799 32.6534V7.23156C4.09799 6.81016 4.26539 6.40603 4.56336 6.10806C4.86133 5.81009 5.26546 5.64269 5.68686 5.64269H12.0423V2.46497H15.22V5.64269H24.7532V2.46497H27.931V5.64269ZM24.7532 8.82042H15.22V11.9981H12.0423V8.82042H7.27572V15.1759H32.6975V8.82042H27.931V11.9981H24.7532V8.82042ZM32.6975 18.3536H7.27572V31.0645H32.6975V18.3536Z" fill="#527FEF"/>
<g clip-path="url(#clip1)">
<path d="M19.9859 26.0033L17.1843 27.5715L17.8099 24.4224L15.4525 22.2424L18.6409 21.8643L19.9859 18.9487L21.3309 21.8643L24.5193 22.2424L22.1618 24.4224L22.7874 27.5715L19.9859 26.0033ZM19.9859 25.0929L21.6729 26.037L21.2959 24.1411L22.7151 22.8283L20.7954 22.6007L19.9859 20.8454L19.1764 22.6011L17.2566 22.8283L18.6759 24.1411L18.2989 26.037L19.9859 25.0929Z" fill="#527FEF"/>
</g>
<rect x="25.9449" y="24.7091" width="14.2998" height="14.2998" rx="7.14989" fill="white"/>
<g clip-path="url(#clip2)">
<path d="M31.9031 37.8172C27.9542 37.8172 24.7532 34.6162 24.7532 30.6673C24.7532 26.7185 27.9542 23.5175 31.9031 23.5175C35.852 23.5175 39.053 26.7185 39.053 30.6673C39.053 34.6162 35.852 37.8172 31.9031 37.8172ZM31.9031 36.3873C33.4201 36.3873 34.875 35.7846 35.9477 34.7119C37.0204 33.6392 37.623 32.1844 37.623 30.6673C37.623 29.1503 37.0204 27.6954 35.9477 26.6228C34.875 25.5501 33.4201 24.9474 31.9031 24.9474C30.3861 24.9474 28.9312 25.5501 27.8585 26.6228C26.7858 27.6954 26.1832 29.1503 26.1832 30.6673C26.1832 32.1844 26.7858 33.6392 27.8585 34.7119C28.9312 35.7846 30.3861 36.3873 31.9031 36.3873ZM31.1902 33.5273L28.1566 30.4936L29.1675 29.4826L31.1902 31.5053L35.2342 27.4606L36.2459 28.4716L31.1902 33.5273Z" fill="#527FEF"/>
</g>
</g>
<defs>
<clipPath id="clip0">
<rect width="38.1327" height="38.1327" fill="white" transform="translate(0.920258 0.876099)"/>
</clipPath>
<clipPath id="clip1">
<rect width="9.53319" height="9.53318" fill="white" transform="translate(15.22 18.7509)"/>
</clipPath>
<clipPath id="clip2">
<rect width="14.2998" height="14.2998" fill="white" transform="translate(24.7532 23.5175)"/>
</clipPath>
</defs>
</svg>
