<svg width="42" height="41" viewBox="0 0 42 41" fill="none" xmlns="http://www.w3.org/2000/svg">
<path d="M22.6614 28.7247L15.5819 24.8638C14.6576 25.8519 13.4575 26.5392 12.1375 26.8362C10.8175 27.1333 9.43864 27.0265 8.18015 26.5296C6.92167 26.0328 5.84173 25.1689 5.08068 24.0502C4.31963 22.9315 3.91266 21.6098 3.91266 20.2568C3.91266 18.9038 4.31963 17.582 5.08068 16.4634C5.84173 15.3447 6.92167 14.4808 8.18015 13.9839C9.43864 13.4871 10.8175 13.3803 12.1375 13.6773C13.4575 13.9744 14.6576 14.6617 15.5819 15.6498L22.6631 11.7888C22.2611 10.1974 22.4533 8.5139 23.2037 7.05401C23.9541 5.59412 25.2112 4.45803 26.7393 3.85869C28.2674 3.25935 29.9617 3.23791 31.5045 3.79839C33.0473 4.35886 34.3327 5.46278 35.1198 6.90321C35.9069 8.34364 36.1417 10.0217 35.78 11.6228C35.4184 13.224 34.4853 14.6382 33.1555 15.6006C31.8257 16.5629 30.1906 17.0072 28.5567 16.8502C26.9228 16.6932 25.4022 15.9457 24.28 14.7478L17.1987 18.6087C17.4705 19.69 17.4705 20.8218 17.1987 21.9032L24.2783 25.7641C25.4005 24.5662 26.9211 23.8187 28.555 23.6617C30.1889 23.5047 31.824 23.949 33.1538 24.9113C34.4836 25.8737 35.4167 27.2879 35.7784 28.8891C36.14 30.4902 35.9052 32.1682 35.1181 33.6087C34.331 35.0491 33.0456 36.153 31.5028 36.7135C29.96 37.274 28.2657 37.2525 26.7376 36.6532C25.2095 36.0538 23.9524 34.9178 23.202 33.4579C22.4516 31.998 22.2594 30.3145 22.6614 28.7231V28.7247ZM10.657 23.628C11.5513 23.628 12.409 23.2727 13.0414 22.6403C13.6738 22.0079 14.029 21.1503 14.029 20.2559C14.029 19.3616 13.6738 18.5039 13.0414 17.8716C12.409 17.2392 11.5513 16.8839 10.657 16.8839C9.76272 16.8839 8.90503 17.2392 8.27266 17.8716C7.64028 18.5039 7.28502 19.3616 7.28502 20.2559C7.28502 21.1503 7.64028 22.0079 8.27266 22.6403C8.90503 23.2727 9.76272 23.628 10.657 23.628ZM29.2031 13.5119C30.0974 13.5119 30.9551 13.1567 31.5875 12.5243C32.2198 11.8919 32.5751 11.0342 32.5751 10.1399C32.5751 9.24559 32.2198 8.38791 31.5875 7.75553C30.9551 7.12316 30.0974 6.76789 29.2031 6.76789C28.3088 6.76789 27.4511 7.12316 26.8187 7.75553C26.1863 8.38791 25.8311 9.24559 25.8311 10.1399C25.8311 11.0342 26.1863 11.8919 26.8187 12.5243C27.4511 13.1567 28.3088 13.5119 29.2031 13.5119ZM29.2031 33.744C30.0974 33.744 30.9551 33.3887 31.5875 32.7563C32.2198 32.124 32.5751 31.2663 32.5751 30.372C32.5751 29.4777 32.2198 28.62 31.5875 27.9876C30.9551 27.3552 30.0974 27 29.2031 27C28.3088 27 27.4511 27.3552 26.8187 27.9876C26.1863 28.62 25.8311 29.4777 25.8311 30.372C25.8311 31.2663 26.1863 32.124 26.8187 32.7563C27.4511 33.3887 28.3088 33.744 29.2031 33.744Z" fill="#527FEF"/>
</svg>
