<svg width="33" height="33" viewBox="0 0 33 33" fill="none" xmlns="http://www.w3.org/2000/svg">
<path d="M4.72559 6.0173C6.27148 4.47112 8.34492 3.56677 10.5298 3.4857C12.7148 3.40463 14.8495 4.15284 16.5057 5.5802C18.1605 4.15522 20.2924 3.40785 22.4747 3.48771C24.657 3.56758 26.7286 4.46878 28.2748 6.01091C29.8209 7.55303 30.7276 9.62227 30.8132 11.8043C30.8987 13.9864 30.1569 16.1203 28.7363 17.7788L18.3887 28.1597C17.9133 28.6353 17.2757 28.9136 16.6037 28.9388C15.9317 28.964 15.2751 28.7342 14.7654 28.2956L14.6188 28.161L4.2725 17.7788C2.85261 16.1217 2.11047 13.9898 2.19447 11.8093C2.27848 9.6287 3.18242 7.56019 4.72559 6.0173ZM6.60988 7.90159C5.52014 8.99163 4.89197 10.4594 4.85574 12.0003C4.81951 13.5413 5.37801 15.037 6.41532 16.177L6.60988 16.3822L16.5044 26.2767L23.5712 19.2087L18.8604 14.4979L17.4479 15.9105C17.0767 16.2818 16.636 16.5764 16.151 16.7775C15.666 16.9785 15.1461 17.0821 14.6211 17.0822C13.5607 17.0824 12.5436 16.6614 11.7937 15.9118C11.0437 15.1622 10.6222 14.1454 10.622 13.085C10.6217 12.0246 11.0427 11.0076 11.7923 10.2576L14.5935 7.45517C13.4787 6.56549 12.0834 6.10217 10.6579 6.14833C9.23238 6.19448 7.86997 6.7471 6.8151 7.70703L6.60988 7.90159ZM17.9183 11.6702C18.1682 11.4203 18.5071 11.28 18.8604 11.28C19.2138 11.28 19.5527 11.4203 19.8026 11.6702L25.4554 17.323L26.3989 16.3822C27.5069 15.275 28.1377 13.7782 28.1564 12.2119C28.1751 10.6457 27.5802 9.13426 26.4989 8.00094C25.4176 6.86761 23.9358 6.20235 22.3704 6.14743C20.805 6.0925 19.2802 6.65227 18.1222 7.70703L17.9183 7.90159L13.678 12.1419C13.447 12.3727 13.3088 12.6803 13.2896 13.0063C13.2705 13.3323 13.3717 13.654 13.574 13.9103L13.678 14.0262C13.9088 14.2572 14.2164 14.3954 14.5424 14.4145C14.8684 14.4337 15.19 14.3325 15.4463 14.1301L15.5623 14.0262L17.9183 11.6702Z" fill="#527FEF"/>
</svg>
