<svg width="54" height="15" viewBox="0 0 54 15" fill="none" xmlns="http://www.w3.org/2000/svg">
<path d="M10.962 12.224C10.444 12.826 9.842 13.12 9.1 13.12C8.4 13.12 7.714 12.77 6.972 11.986C9.352 11.524 11.018 9.606 11.018 7.1C11.018 4.23 8.82 2.116 5.88 2.116C2.912 2.116 0.728 4.244 0.728 7.1C0.728 9.9 2.828 12 5.698 12.084C6.986 13.428 7.938 13.946 9.086 13.946C10.038 13.946 10.864 13.554 11.466 12.826L10.962 12.224ZM1.75 7.1C1.75 4.776 3.514 3.04 5.88 3.04C8.232 3.04 9.982 4.776 9.982 7.1C9.982 9.424 8.232 11.16 5.88 11.16C3.514 11.16 1.75 9.424 1.75 7.1ZM18.7721 4.636V8.5C18.7721 10.18 17.8061 11.174 16.2661 11.174C14.8661 11.174 14.0541 10.376 14.0541 8.808V4.636H13.0601V8.906C13.0601 11.02 14.2921 12.07 16.1681 12.07C17.3441 12.07 18.2961 11.552 18.8141 10.656V12H19.7661V4.636H18.7721ZM25.0421 1.486C25.4901 1.486 25.8121 1.78 25.8121 2.172C25.8121 2.592 25.5461 2.914 24.9861 3.166L25.3361 3.6C26.0921 3.25 26.4561 2.76 26.4561 2.102C26.4561 1.36 25.9101 0.897999 25.1261 0.897999C24.7201 0.897999 24.2721 1.024 23.9641 1.262L24.2021 1.752C24.4821 1.57 24.7481 1.486 25.0421 1.486ZM25.1261 4.58C23.9641 4.58 22.8721 4.944 22.1301 5.574L22.5781 6.316C23.1801 5.784 24.0761 5.448 25.0281 5.448C26.4001 5.448 27.1141 6.134 27.1141 7.394V7.842H24.7761C22.6621 7.842 21.9341 8.794 21.9341 9.928C21.9341 11.202 22.9561 12.07 24.6221 12.07C25.8401 12.07 26.7081 11.608 27.1561 10.852V12H28.1081V7.436C28.1081 5.532 27.0301 4.58 25.1261 4.58ZM24.7761 11.286C23.6001 11.286 22.9141 10.754 22.9141 9.9C22.9141 9.144 23.3761 8.584 24.8041 8.584H27.1141V9.788C26.7221 10.754 25.8961 11.286 24.7761 11.286ZM34.5599 4.58C33.2859 4.58 32.2919 5.098 31.7599 5.994V4.636H30.8079V12H31.8019V8.136C31.8019 6.456 32.7959 5.476 34.3779 5.476C35.7779 5.476 36.5899 6.274 36.5899 7.828V12H37.5839V7.73C37.5839 5.616 36.3519 4.58 34.5599 4.58ZM43.9465 12H44.9405V1.612H43.9465V12ZM52.2563 1.766H50.9263L49.0083 3.502H49.9883L52.2563 1.766ZM52.9143 4.636L50.1423 10.894L47.3703 4.636H46.3343L49.6243 11.986L49.3023 12.7C48.8823 13.624 48.4343 13.932 47.7763 13.932C47.2443 13.932 46.7963 13.736 46.4323 13.372L45.9703 14.114C46.4183 14.562 47.0763 14.786 47.7623 14.786C48.8123 14.786 49.5963 14.324 50.2123 12.882L53.8943 4.636H52.9143Z" fill="white"/>
</svg>
