<svg width="146" height="240" viewBox="0 0 146 240" fill="none" xmlns="http://www.w3.org/2000/svg">
<rect x="5.05804" y="0.360107" width="140.823" height="36.2351" rx="5" fill="#FF8B02"/>
<path d="M116.281 36.5951C112.394 38.9284 110.451 43.1833 107.311 49.7715C106.218 52.0661 100.734 43.046 96.5478 36.5951H116.281Z" fill="#FF8B02"/>
<path d="M13.6 217.152L13.584 205.952H12.272L7.664 213.824L2.992 205.952H1.68V217.152H3.216V209.04L7.264 215.792H8L12.048 208.992L12.064 217.152H13.6ZM20.1452 208.592C18.7852 208.592 17.5212 208.976 16.6412 209.68L17.2812 210.832C17.9372 210.272 18.9612 209.92 19.9692 209.92C21.4893 209.92 22.2413 210.672 22.2413 211.968V212.272H19.8092C17.2812 212.272 16.4012 213.392 16.4012 214.752C16.4012 216.224 17.6172 217.248 19.5372 217.248C20.8653 217.248 21.8092 216.8 22.3212 216.032V217.152H23.7773V212.032C23.7773 209.712 22.4653 208.592 20.1452 208.592ZM19.7933 216.064C18.6252 216.064 17.9212 215.536 17.9212 214.688C17.9212 213.968 18.3532 213.376 19.8733 213.376H22.2413V214.56C21.8573 215.536 20.9453 216.064 19.7933 216.064ZM28.4117 210.096V208.672H26.9397V217.152H28.4757V212.928C28.4757 211.072 29.4997 210.064 31.1477 210.064C31.2597 210.064 31.3717 210.064 31.4997 210.08V208.592C30.0117 208.592 28.9557 209.104 28.4117 210.096ZM40.1929 217.152H42.0809L38.1609 212.176L41.7289 208.672H39.8729L35.2489 212.896V205.28H33.7129V217.152H35.2489V214.832L37.0089 213.2L40.1929 217.152ZM51.1969 212.96C51.1969 210.352 49.4529 208.592 47.0049 208.592C44.5569 208.592 42.7489 210.4 42.7489 212.912C42.7489 215.44 44.5729 217.248 47.3089 217.248C48.7169 217.248 49.8849 216.768 50.6529 215.872L49.8049 214.88C49.1809 215.568 48.3489 215.904 47.3569 215.904C45.6769 215.904 44.4769 214.912 44.2849 213.424H51.1649C51.1809 213.28 51.1969 213.088 51.1969 212.96ZM47.0049 209.888C48.4929 209.888 49.5649 210.896 49.7249 212.32H44.2849C44.4449 210.88 45.5329 209.888 47.0049 209.888ZM57.9377 215.552C57.6177 215.808 57.1857 215.952 56.7377 215.952C55.8897 215.952 55.4097 215.44 55.4097 214.528V209.936H57.8417V208.672H55.4097V206.816H53.8737V208.672H52.4337V209.936H53.8737V214.592C53.8737 216.304 54.8497 217.248 56.5617 217.248C57.2497 217.248 57.9537 217.056 58.4177 216.656L57.9377 215.552ZM61.3627 207.04C61.9707 207.04 62.4027 206.592 62.4027 206.016C62.4027 205.472 61.9547 205.04 61.3627 205.04C60.7707 205.04 60.3227 205.488 60.3227 206.048C60.3227 206.608 60.7707 207.04 61.3627 207.04ZM60.5947 217.152H62.1307V208.672H60.5947V217.152ZM69.9115 208.592C68.5675 208.592 67.4795 209.088 66.8555 209.952V208.672H65.3835V217.152H66.9195V212.784C66.9195 210.944 67.9755 209.968 69.6075 209.968C71.0635 209.968 71.8955 210.784 71.8955 212.448V217.152H73.4315V212.272C73.4315 209.776 71.9755 208.592 69.9115 208.592ZM83.297 208.672V209.984C82.577 209.056 81.425 208.592 80.161 208.592C77.713 208.592 75.857 210.24 75.857 212.688C75.857 215.136 77.713 216.8 80.161 216.8C81.377 216.8 82.481 216.368 83.217 215.488V216.16C83.217 218.08 82.305 219.008 80.305 219.008C79.057 219.008 77.825 218.576 77.041 217.904L76.305 219.088C77.233 219.92 78.801 220.352 80.353 220.352C83.233 220.352 84.753 218.992 84.753 216V208.672H83.297ZM80.337 215.456C78.625 215.456 77.409 214.32 77.409 212.688C77.409 211.04 78.625 209.936 80.337 209.936C82.033 209.936 83.249 211.04 83.249 212.688C83.249 214.32 82.033 215.456 80.337 215.456ZM6.736 239.28C10.144 239.28 12.672 236.848 12.672 233.552C12.672 230.256 10.144 227.824 6.736 227.824C3.296 227.824 0.768 230.272 0.768 233.552C0.768 236.832 3.296 239.28 6.736 239.28ZM6.736 237.856C4.224 237.856 2.368 236.032 2.368 233.552C2.368 231.072 4.224 229.248 6.736 229.248C9.216 229.248 11.072 231.072 11.072 233.552C11.072 236.032 9.216 237.856 6.736 237.856ZM19.7415 230.592C18.3975 230.592 17.3095 231.088 16.6855 231.952V230.672H15.2135V239.152H16.7495V234.784C16.7495 232.944 17.8055 231.968 19.4375 231.968C20.8935 231.968 21.7255 232.784 21.7255 234.448V239.152H23.2615V234.272C23.2615 231.776 21.8055 230.592 19.7415 230.592ZM26.4241 239.152H27.9601V227.28H26.4241V239.152ZM31.9809 229.04C32.5889 229.04 33.0209 228.592 33.0209 228.016C33.0209 227.472 32.5729 227.04 31.9809 227.04C31.3889 227.04 30.9409 227.488 30.9409 228.048C30.9409 228.608 31.3889 229.04 31.9809 229.04ZM31.2129 239.152H32.7489V230.672H31.2129V239.152ZM40.5296 230.592C39.1856 230.592 38.0976 231.088 37.4736 231.952V230.672H36.0016V239.152H37.5376V234.784C37.5376 232.944 38.5936 231.968 40.2256 231.968C41.6816 231.968 42.5136 232.784 42.5136 234.448V239.152H44.0496V234.272C44.0496 231.776 42.5936 230.592 40.5296 230.592ZM54.9231 234.96C54.9231 232.352 53.1791 230.592 50.7311 230.592C48.2831 230.592 46.4751 232.4 46.4751 234.912C46.4751 237.44 48.2991 239.248 51.0351 239.248C52.4431 239.248 53.6111 238.768 54.3791 237.872L53.5311 236.88C52.9071 237.568 52.0751 237.904 51.0831 237.904C49.4031 237.904 48.2031 236.912 48.0111 235.424H54.8911C54.9071 235.28 54.9231 235.088 54.9231 234.96ZM50.7311 231.888C52.2191 231.888 53.2911 232.896 53.4511 234.32H48.0111C48.1711 232.88 49.2591 231.888 50.7311 231.888Z" fill="white"/>

</svg>
