<svg width="50" height="13" viewBox="0 0 50 13" fill="none" xmlns="http://www.w3.org/2000/svg">
<path d="M5.852 12.084C7.294 12.084 8.582 11.594 9.45 10.642L8.792 9.984C7.994 10.81 7.014 11.16 5.894 11.16C3.528 11.16 1.75 9.424 1.75 7.1C1.75 4.776 3.528 3.04 5.894 3.04C7.014 3.04 7.994 3.39 8.792 4.202L9.45 3.544C8.582 2.592 7.294 2.116 5.866 2.116C2.912 2.116 0.728 4.23 0.728 7.1C0.728 9.97 2.912 12.084 5.852 12.084ZM15.2005 4.58C13.9545 4.58 12.9885 5.07 12.4425 5.924V1.612H11.4485V12H12.4425V8.136C12.4425 6.456 13.4365 5.476 15.0185 5.476C16.4185 5.476 17.2305 6.274 17.2305 7.828V12H18.2245V7.73C18.2245 5.616 16.9925 4.58 15.2005 4.58ZM21.4271 3.026C21.8471 3.026 22.1551 2.704 22.1551 2.298C22.1551 1.92 21.8331 1.612 21.4271 1.612C21.0211 1.612 20.6991 1.934 20.6991 2.312C20.6991 2.704 21.0211 3.026 21.4271 3.026ZM20.9231 12H21.9171V4.636H20.9231V12ZM27.2589 4.58C26.0969 4.58 25.0049 4.944 24.2629 5.574L24.7109 6.316C25.3129 5.784 26.2089 5.448 27.1609 5.448C28.5329 5.448 29.2469 6.134 29.2469 7.394V7.842H26.9089C24.7949 7.842 24.0669 8.794 24.0669 9.928C24.0669 11.202 25.0889 12.07 26.7549 12.07C27.9729 12.07 28.8409 11.608 29.2889 10.852V12H30.2409V7.436C30.2409 5.532 29.1629 4.58 27.2589 4.58ZM26.9089 11.286C25.7329 11.286 25.0469 10.754 25.0469 9.9C25.0469 9.144 25.5089 8.584 26.9369 8.584H29.2469V9.788C28.8549 10.754 28.0289 11.286 26.9089 11.286ZM38.5788 12.07C40.4968 12.07 41.6168 11.244 41.6168 9.97C41.6168 7.142 36.8428 8.64 36.8428 6.652C36.8428 5.952 37.4308 5.434 38.7608 5.434C39.5168 5.434 40.2868 5.616 40.9308 6.064L41.3648 5.266C40.7488 4.846 39.7128 4.58 38.7608 4.58C36.8848 4.58 35.8488 5.476 35.8488 6.68C35.8488 9.592 40.6228 8.08 40.6228 9.998C40.6228 10.726 40.0488 11.202 38.6488 11.202C37.6128 11.202 36.6188 10.838 36.0308 10.376L35.5828 11.16C36.1848 11.678 37.3608 12.07 38.5788 12.07ZM46.1984 1.486C46.6464 1.486 46.9684 1.78 46.9684 2.172C46.9684 2.592 46.7024 2.914 46.1424 3.166L46.4924 3.6C47.2484 3.25 47.6124 2.76 47.6124 2.102C47.6124 1.36 47.0664 0.897999 46.2824 0.897999C45.8764 0.897999 45.4284 1.024 45.1204 1.262L45.3584 1.752C45.6384 1.57 45.9044 1.486 46.1984 1.486ZM49.8804 8.318C49.8804 6.106 48.3824 4.58 46.3104 4.58C44.2384 4.58 42.7124 6.134 42.7124 8.318C42.7124 10.502 44.2804 12.07 46.5764 12.07C47.7384 12.07 48.7604 11.65 49.4184 10.866L48.8584 10.222C48.2984 10.866 47.5004 11.188 46.6044 11.188C44.9944 11.188 43.8184 10.166 43.7064 8.626H49.8664C49.8664 8.514 49.8804 8.402 49.8804 8.318ZM46.3104 5.434C47.7524 5.434 48.8024 6.442 48.9284 7.884H43.7064C43.8324 6.442 44.8824 5.434 46.3104 5.434Z" fill="white"/>
</svg>