<svg width="42" height="37" viewBox="0 0 42 37" fill="none" xmlns="http://www.w3.org/2000/svg">
<path d="M10.3404 27.9429C10.3404 25.26 11.4062 22.6869 13.3033 20.7898C15.2005 18.8927 17.7735 17.8269 20.4565 17.8269C23.1394 17.8269 25.7125 18.8927 27.6096 20.7898C29.5067 22.6869 30.5725 25.26 30.5725 27.9429H28.0435C28.0435 25.9307 27.2441 24.0009 25.8213 22.5781C24.3985 21.1552 22.4687 20.3559 20.4565 20.3559C18.4443 20.3559 16.5145 21.1552 15.0916 22.5781C13.6688 24.0009 12.8694 25.9307 12.8694 27.9429H10.3404ZM20.4565 16.5624C16.2646 16.5624 12.8694 13.1672 12.8694 8.97533C12.8694 4.7835 16.2646 1.38831 20.4565 1.38831C24.6483 1.38831 28.0435 4.7835 28.0435 8.97533C28.0435 13.1672 24.6483 16.5624 20.4565 16.5624ZM20.4565 14.0333C23.251 14.0333 25.5145 11.7699 25.5145 8.97533C25.5145 6.18078 23.251 3.91731 20.4565 3.91731C17.6619 3.91731 15.3984 6.18078 15.3984 8.97533C15.3984 11.7699 17.6619 14.0333 20.4565 14.0333Z" fill="#527FEF"/>
</svg>
